<?xml version="1.0" encoding="UTF-8"?><svg xmlns="http://www.w3.org/2000/svg" viewBox="0 0 539.48 661.1"><g isolation="isolate"><g id="a"><path d="M307.17,598.74v61.27L.78,468.01v-181.78s47.24,5.1,60,57.19c.52,2.12,1.18,4.3,1.98,6.52,11.59,32.46,51.1,74.74,78.19,79.26,18.39,3.07,25.95,34.51,40.85,57.2,11.75,17.87,26.05,10.21,43.41,22.46,21.64,15.28,20.93,37.79,37.79,56.17,19.81,21.62,44.17,33.71,44.17,33.71Z" fill="#b69e7f" stroke="#000" stroke-miterlimit="10"/><path d="M.79,286.23l223.4-142.47s1.36,10.64,11.57,16.77c28.11,16.87,34.7,56.36,33.08,57.19l-199.24,139.26L.79,286.23Z" fill="#7fac34" stroke="#000" stroke-miterlimit="10"/><polygon points="307.17 598.74 538.23 405.21 538.23 461.38 307.17 660.01 307.17 598.74" fill="#b69e7f" stroke="#000" stroke-miterlimit="10"/><polygon points="538.23 288.27 538.23 405.2 307.17 598.74 307.17 449.63 538.23 288.27" fill="#3b7684" stroke="#000" stroke-miterlimit="10"/><path d="M307.17,449.63v149.11s-24.36-12.09-44.17-33.71c-16.86-18.38-16.15-40.89-37.79-56.17-17.36-12.25-31.66-4.59-43.41-22.46-14.9-22.69-22.46-54.13-40.85-57.2-27.09-4.52-66.6-46.8-78.19-79.26,0,0,38.65,10.27,47.68,19.45,12.13,12.32,43.53,27.64,60.93,24.85,11.24-1.81,24.15,3.71,34.95,15.05,9.75,10.25,33.19-52.09,47.48-21.96,17.41,36.67,53.37,62.3,53.37,62.3Z" fill="#3b7684" stroke="#000" stroke-miterlimit="10"/><path d="M538.23,288.27l-231.06,161.36s-35.96-25.63-53.37-62.3c-14.29-30.13-37.73,32.21-47.48,21.96-10.8-11.34-23.71-16.86-34.95-15.05-17.4,2.79-48.8-12.53-60.93-24.85-9.03-9.18-47.68-19.45-47.68-19.45,0,0,33.66-30.92,48.09-33.13,16.83-2.58,46.69-22.25,53.66-36.98,8.61-18.2,42.83-48.33,65.9-45.41,11.51,1.46,38.2-26.32,38.2-26.32,0,0,45.19,2.81,51.32,20.93,6.49,19.19,48.91,2.1,64.34,13.79,9.04,6.85,19,12.34,61.59-4.15,31.66-12.26,44.15,30.21,57.21,39.14,7.07,4.84,35.16,10.46,35.16,10.46Z" fill="#00b1e0" stroke="#000" stroke-miterlimit="10"/><path d="M167.57,200.94c.2-.6.31-1.24.31-1.91,0-3.32-2.7-6.02-6.02-6.02-.49,0-.96.06-1.42.17-.51-5.22-4.91-9.31-10.27-9.31-3.71,0-6.95,1.97-8.77,4.91-1.43-.66-3.01-1.03-4.69-1.03-6.23,0-11.28,5.05-11.28,11.28,0,.08,0,.15.01.22-3.16.79-5.5,3.63-5.5,7.03,0,4.01,3.25,7.26,7.26,7.26.53,0,1.05-.06,1.54-.17,1.98,3.25,5.55,5.43,9.63,5.43.31,0,.61-.02.92-.05,2.07,2.5,5.2,4.1,8.7,4.1s6.79-1.69,8.86-4.31c1.66,1.14,3.66,1.8,5.83,1.8,5.7,0,10.32-4.62,10.32-10.32,0-3.93-2.2-7.34-5.43-9.09Z" fill="#76ab35"/><path d="M166.74,214.88c-1.84,0-3.54-.57-4.95-1.53-1.76,2.23-4.47,3.66-7.53,3.66s-5.63-1.35-7.39-3.48c-.26.02-.52.04-.78.04-3.47,0-6.5-1.85-8.18-4.61-.42.09-.86.14-1.31.14-3.41,0-6.17-2.76-6.17-6.17,0-2.89,1.99-5.31,4.67-5.98,0-.06,0-.13,0-.19,0-3.66,2.05-6.84,5.07-8.46-1.08-.35-2.24-.55-3.44-.55-6.23,0-11.28,5.05-11.28,11.28,0,.08,0,.15.01.22-3.16.79-5.5,3.63-5.5,7.03,0,4.01,3.25,7.26,7.26,7.26.53,0,1.05-.06,1.54-.17,1.98,3.25,5.55,5.43,9.63,5.43.31,0,.61-.02.92-.05,2.07,2.5,5.2,4.1,8.7,4.1s6.79-1.69,8.86-4.31c1.66,1.14,3.66,1.8,5.83,1.8,4.83,0,8.87-3.32,10-7.8-1.56,1.44-3.64,2.33-5.94,2.33Z" fill="#6e952a"/><path d="M152.06,167.78c0-4.3-3.48-7.78-7.78-7.78s-7.44,3.17-7.75,7.18c-1.16-1.55-3-2.56-5.09-2.56-3.51,0-6.36,2.85-6.36,6.36s2.85,6.36,6.36,6.36c.25,0,.49-.02.72-.04,0,.03,0,.06,0,.1,0,4.69,3.8,8.49,8.49,8.49,2.98,0,5.59-1.54,7.11-3.86,1.23.81,2.7,1.29,4.29,1.29,4.3,0,7.78-3.48,7.78-7.78s-3.48-7.78-7.78-7.78Z" fill="#76ab35"/><path d="M154.08,179.95c-1.39,0-2.67-.42-3.75-1.13-1.33,2.03-3.61,3.37-6.21,3.37-4.1,0-7.42-3.32-7.42-7.42,0-.03,0-.06,0-.09-.21.02-.42.04-.63.04-3.07,0-5.56-2.49-5.56-5.56,0-1.79.85-3.38,2.17-4.4-.4-.08-.81-.13-1.23-.13-3.51,0-6.36,2.85-6.36,6.36s2.85,6.36,6.36,6.36c.25,0,.49-.02.72-.04,0,.03,0,.06,0,.1,0,4.69,3.8,8.49,8.49,8.49,2.98,0,5.59-1.54,7.11-3.86,1.23.81,2.7,1.29,4.29,1.29,3.81,0,6.98-2.75,7.64-6.37-1.22,1.8-3.28,2.98-5.62,2.98Z" fill="#6e952a"/><path d="M140.95,132.59c-.45,0-.89.02-1.33.07-1.06-6.12-6.38-10.77-12.8-10.77s-11.28,4.26-12.64,9.99c-1.13-.69-2.45-1.1-3.87-1.1-4.09,0-7.41,3.32-7.41,7.41,0,.21.01.42.03.63-5.23,1.68-9.02,6.58-9.02,12.37,0,7.18,5.82,13,13,13,3.48,0,6.64-1.38,8.98-3.61,2.32,3.58,6.34,5.96,10.92,5.96,5.45,0,10.12-3.36,12.05-8.12.68.11,1.37.18,2.08.18,7.18,0,13-5.82,13-13s-5.82-13-13-13Z" fill="#76ab35"/><path d="M153.21,141.27c.04.4.07.81.07,1.22,0,6.06-4.91,10.97-10.97,10.97-.6,0-1.18-.06-1.75-.15-1.63,4.02-5.56,6.86-10.17,6.86-3.87,0-7.26-2.01-9.21-5.03-1.97,1.88-4.63,3.05-7.57,3.05-6.06,0-10.97-4.91-10.97-10.97,0-4.89,3.2-9.02,7.61-10.44-.01-.18-.03-.35-.03-.53,0-2.07,1.01-3.89,2.55-5.03-.76-.27-1.58-.43-2.44-.43-4.09,0-7.41,3.32-7.41,7.41,0,.21.01.42.03.63-5.23,1.68-9.02,6.58-9.02,12.37,0,7.18,5.82,13,13,13,3.48,0,6.64-1.38,8.98-3.61,2.32,3.58,6.34,5.96,10.92,5.96,5.45,0,10.12-3.36,12.05-8.12.68.11,1.37.18,2.08.18,7.18,0,13-5.82,13-13,0-1.52-.27-2.97-.75-4.32Z" fill="#6e952a"/><polygon points="124.69 230.45 127.14 232.23 146.48 204.41 145.04 203.37 124.69 230.45" fill="#856034"/><polygon points="124.69 189.82 126.79 191.33 143.31 167.57 142.07 166.68 124.69 189.82" fill="#856034"/><polygon points="126.83 165.22 125.28 166.34 113.05 148.75 113.96 148.09 126.83 165.22" fill="#856034"/><polygon points="129.67 276.18 121.98 276.18 125.06 140.54 126.6 140.54 129.67 276.18" fill="#856034"/><path d="M136.19,188.77c0-6.55-5.31-11.86-11.86-11.86-.65,0-1.28.07-1.9.17.07-.48.12-.96.12-1.45,0-5.38-4.36-9.74-9.74-9.74-2.48,0-4.73.93-6.45,2.46-2.37-3.22-6.17-5.33-10.48-5.33-6.38,0-11.67,4.59-12.78,10.65-4.11.27-7.36,3.68-7.36,7.86,0,1.46.4,2.82,1.09,3.99-4.9,3.69-5.97,10.64-2.36,15.63,3.66,5.05,10.72,6.19,15.77,2.53.05-.03.09-.07.13-.11,2.41,4.55,7.18,7.65,12.69,7.65,4.89,0,9.21-2.45,11.8-6.19,1.25.64,2.66,1,4.16,1,3.9,0,7.22-2.44,8.55-5.87,4.97-1.41,8.61-5.98,8.61-11.4Z" fill="#76ab35"/><path d="M136.01,186.82c-.72,4.05-3.71,7.32-7.61,8.43-1.2,3.1-4.2,5.3-7.72,5.3-1.35,0-2.63-.33-3.76-.91-2.34,3.38-6.24,5.59-10.66,5.59-4.97,0-9.29-2.8-11.46-6.91-.04.03-.08.07-.12.1-4.57,3.3-10.95,2.28-14.25-2.29-3.26-4.51-2.3-10.79,2.13-14.13-.62-1.06-.99-2.29-.99-3.6,0-3.77,2.94-6.85,6.65-7.1.64-3.51,2.85-6.47,5.87-8.15-5.55.77-9.98,5.04-10.98,10.51-4.11.27-7.36,3.68-7.36,7.86,0,1.46.4,2.82,1.09,3.99-4.9,3.69-5.97,10.64-2.36,15.63,3.66,5.05,10.72,6.19,15.77,2.53.05-.03.09-.07.13-.11,2.41,4.55,7.18,7.65,12.69,7.65,4.89,0,9.21-2.45,11.8-6.19,1.25.64,2.66,1,4.16,1,3.9,0,7.22-2.44,8.55-5.87,4.97-1.41,8.61-5.98,8.61-11.4,0-.67-.07-1.31-.17-1.95Z" fill="#6e952a"/><polygon points="125.94 212.28 123.77 213.85 106.66 189.24 107.94 188.31 125.94 212.28" fill="#856034"/><path d="M143.43,133.35c.55-2.08,2.89-3.27,2.89-3.27,0,0,1.44,2.19.89,4.27-.55,2.08-2.89,3.27-2.89,3.27,0,0-1.44-2.19-.89-4.27Z" fill="#76ab35"/><path d="M100.89,147.48c1.3-1.72,3.91-1.93,3.91-1.93,0,0,.5,2.57-.8,4.29-1.3,1.72-3.91,1.93-3.91,1.93,0,0-.5-2.57.8-4.29Z" fill="#76ab35"/><path d="M145.87,173.47c1.3-1.72,3.91-1.93,3.91-1.93,0,0,.5,2.57-.8,4.29-1.3,1.72-3.91,1.93-3.91,1.93,0,0-.5-2.57.8-4.29Z" fill="#76c535"/><path d="M131.38,133.07c1.05,1.88.2,4.36.2,4.36,0,0-2.56-.57-3.61-2.45-1.05-1.88-.2-4.36-.2-4.36,0,0,2.56.57,3.61,2.45Z" fill="#76c535"/><path d="M154.91,198.19c1.88,1.05,2.46,3.61,2.46,3.61,0,0-2.48.85-4.36-.2-1.88-1.05-2.46-3.61-2.46-3.61,0,0,2.48-.85,4.36.2Z" fill="#76c535"/><path d="M138.36,142.51c1.88,1.05,2.46,3.61,2.46,3.61,0,0-2.48.85-4.36-.2-1.88-1.05-2.46-3.61-2.46-3.61,0,0,2.48-.85,4.36.2Z" fill="#76c535"/><path d="M153.18,215.63c-1.96.89-4.36-.16-4.36-.16,0,0,.78-2.5,2.75-3.39s4.36.16,4.36.16c0,0-.78,2.5-2.75,3.39Z" fill="#6e952a"/><path d="M91.42,186.83c-2-.8-2.89-3.27-2.89-3.27,0,0,2.35-1.16,4.35-.35,2,.8,2.89,3.27,2.89,3.27,0,0-2.35,1.16-4.35.35Z" fill="#6e952a"/><path d="M170,206.04c-1.92-.97-2.6-3.5-2.6-3.5,0,0,2.44-.95,4.36.02,1.92.97,2.6,3.5,2.6,3.5,0,0-2.44.95-4.36-.02Z" fill="#76ab35"/><path d="M168.18,195.81c-1.21,1.79-3.8,2.14-3.8,2.14,0,0-.64-2.54.57-4.33s3.8-2.14,3.8-2.14c0,0,.64,2.54-.57,4.33Z" fill="#76ab35"/><path d="M74.71,178.97c-1.22-1.78-.6-4.32-.6-4.32,0,0,2.6.33,3.82,2.11s.6,4.32.6,4.32c0,0-2.6-.33-3.82-2.11Z" fill="#6e952a"/><path d="M91.34,206.43c-1.25,1.76-3.85,2.05-3.85,2.05,0,0-.58-2.55.67-4.31,1.25-1.76,3.85-2.05,3.85-2.05,0,0,.58,2.55-.67,4.31Z" fill="#6e952a"/><path d="M117.06,183.29c-1.32,1.7-3.93,1.89-3.93,1.89,0,0-.47-2.58.85-4.28,1.32-1.7,3.93-1.89,3.93-1.89,0,0,.47,2.58-.85,4.28Z" fill="#6e952a"/><path d="M95.87,180.62c.51-2.09,2.82-3.33,2.82-3.33,0,0,1.48,2.16.97,4.25-.51,2.09-2.82,3.33-2.82,3.33,0,0-1.48-2.16-.97-4.25Z" fill="#6e952a"/><path d="M254.62,126.73c1.34-2.52,2.1-5.4,2.1-8.46,0-9.98-8.09-18.06-18.06-18.06-1.59,0-3.14.21-4.61.6-3.31-4.92-8.94-8.16-15.32-8.16-10.19,0-18.45,8.26-18.45,18.45,0,2.13.37,4.17,1.03,6.08-8.04,1.55-14.12,8.63-14.12,17.12,0,5.56,2.61,10.51,6.66,13.71-.17.97-.27,1.97-.27,2.99,0,9.35,7.58,16.92,16.92,16.92,2.77,0,5.38-.67,7.68-1.85,2.27,3.38,6.12,5.61,10.5,5.61,5.34,0,9.89-3.31,11.74-7.99,1.06.17,2.15.27,3.26.27,11.16,0,20.21-9.05,20.21-20.21,0-7.14-3.7-13.4-9.28-17Z" fill="#76ab35"/><path d="M256.62,120.12c-.1.21-.2.41-.3.61.07.05.14.1.21.14.04-.25.07-.5.09-.76Z" fill="#6e952a"/><path d="M263.83,142.09c-2.45,7.31-9.34,12.58-17.48,12.58-1.01,0-2-.09-2.97-.24-1.69,4.27-5.84,7.29-10.7,7.29-3.99,0-7.51-2.03-9.57-5.11-8.62,6.98-21.27-2.37-19.62-9.63-4.62-.66-8.08-7.41-8.08-12.76,0-8.17,5.84-14.98,13.58-16.47-.64-1.83-.99-3.8-.99-5.85,0-9.8,7.95-17.75,17.75-17.75.1,0,.19,0,.28,0-2.24-.97-4.71-1.51-7.3-1.51-10.19,0-18.45,8.26-18.45,18.45,0,2.13.37,4.17,1.03,6.08-8.04,1.55-14.12,8.63-14.12,17.12,0,5.56,2.61,10.51,6.66,13.71-.17.97-.27,1.97-.27,2.99,0,9.35,7.58,16.92,16.92,16.92.32,0,.64-.01.96-.03.11,0,.22-.02.34-.03.2-.02.4-.03.6-.05.14-.02.27-.03.41-.05.17-.02.34-.05.5-.08.15-.03.3-.05.45-.08.15-.03.29-.06.44-.09.16-.04.33-.07.49-.11.12-.03.24-.07.36-.1.18-.05.36-.1.54-.16.05-.01.09-.03.14-.05.85-.28,1.67-.61,2.45-1.01,2.27,3.38,6.12,5.61,10.5,5.61,5.34,0,9.89-3.31,11.74-7.99,1.06.17,2.15.27,3.26.27,11.16,0,20.21-9.05,20.21-20.21,0-.55-.03-1.1-.07-1.64Z" fill="#6e952a"/><path d="M242.96,99.71c1.17-1.07,3.08-.88,3.08-.88,0,0,.02,1.93-1.15,2.99-1.17,1.07-3.08.88-3.08.88,0,0-.02-1.93,1.15-2.99Z" fill="#76ab35"/><path d="M195.98,125.74c1.39-.76,3.21-.11,3.21-.11,0,0-.44,1.87-1.84,2.63-1.39.76-3.21.11-3.21.11,0,0,.44-1.87,1.84-2.63Z" fill="#76ab35"/><path d="M240.79,135.01c1.11-1.13,3.03-1.05,3.03-1.05,0,0,.13,1.92-.97,3.06-1.11,1.13-3.03,1.05-3.03,1.05,0,0-.13-1.92.97-3.06Z" fill="#76c535"/><path d="M237.47,112.55c.77,1.38.15,3.2.15,3.2,0,0-1.88-.42-2.65-1.8-.77-1.38-.15-3.2-.15-3.2,0,0,1.88.42,2.65,1.8Z" fill="#76c535"/><path d="M239.81,114.45c1.05-1.19,2.97-1.21,2.97-1.21,0,0,.23,1.91-.82,3.1-1.05,1.19-2.97,1.21-2.97,1.21,0,0-.23-1.91.82-3.1Z" fill="#76c535"/><path d="M203.38,167.95c-1.49.55-3.19-.36-3.19-.36,0,0,.71-1.79,2.2-2.34s3.19.36,3.19.36c0,0-.71,1.79-2.2,2.34Z" fill="#6e952a"/><path d="M204.75,152.71c-.06-1.58,1.32-2.92,1.32-2.92,0,0,1.49,1.22,1.55,2.81.06,1.58-1.32,2.92-1.32,2.92,0,0-1.49-1.22-1.55-2.81Z" fill="#6e952a"/><path d="M210.1,131.63c-.97-1.25-.63-3.14-.63-3.14,0,0,1.92.13,2.89,1.38s.63,3.14.63,3.14c0,0-1.92-.13-2.89-1.38Z" fill="#6e952a"/><path d="M210.83,136.74c-1.42.7-3.21-.02-3.21-.02,0,0,.52-1.85,1.94-2.56,1.42-.7,3.21.02,3.21.02,0,0-.52,1.85-1.94,2.56Z" fill="#6e952a"/><path d="M217.48,142.49c1.21-1.02,3.12-.76,3.12-.76,0,0-.05,1.92-1.26,2.95-1.21,1.02-3.12.76-3.12.76,0,0,.05-1.92,1.26-2.95Z" fill="#6e952a"/><path d="M254.61,151.88c-.32,1.55-1.98,2.52-1.98,2.52,0,0-1.15-1.55-.83-3.1.32-1.55,1.98-2.52,1.98-2.52,0,0,1.15,1.55.83,3.1Z" fill="#6e952a"/><path d="M260.8,135.13c-1.41-.72-1.91-2.58-1.91-2.58,0,0,1.79-.7,3.21.02s1.91,2.58,1.91,2.58c0,0-1.79.7-3.21-.02Z" fill="#76ab35"/><path d="M260.8,131.55c-.89,1.31-2.79,1.58-2.79,1.58,0,0-.47-1.87.42-3.18.89-1.31,2.79-1.58,2.79-1.58,0,0,.47,1.87-.42,3.18Z" fill="#76ab35"/><path d="M185.53,136.05c-.9-1.31-.44-3.18-.44-3.18,0,0,1.91.25,2.81,1.55s.44,3.18.44,3.18c0,0-1.91-.25-2.81-1.55Z" fill="#6e952a"/><path d="M188.82,140.75c-.92,1.29-2.83,1.51-2.83,1.51,0,0-.43-1.88.49-3.17.92-1.29,2.83-1.51,2.83-1.51,0,0,.43,1.88-.49,3.17Z" fill="#6e952a"/><polygon points="227.44 159.78 229.18 161.71 237.18 153.79 236.15 152.65 227.44 159.78" fill="#856034"/><polygon points="227.44 166.7 225.15 169.23 214.48 158.68 215.83 157.18 227.44 166.7" fill="#856034"/><polygon points="231.4 188.08 223.48 188.08 226.64 134.13 228.23 134.13 231.4 188.08" fill="#856034"/><path d="M365.89,88.49l31.29-1.24-23.47,23.88h17.7l-23.47,28.82h9.61s-44.6,50.64-44.6,49.41,27.59-41.58,27.59-41.58h-16.88l23.88-29.64h-23.21l21.57-29.64Z" fill="#fcc331" stroke="#ad5a1f" stroke-miterlimit="10" stroke-width="8.33"/><path d="M360.03,101.7c3.23-4.43,6.46-8.87,9.62-13.35l-3.75.15-21.57,29.64h4.1c3.74-5.57,7.66-11.02,11.6-16.44Z" fill="#fcc331" mix-blend-mode="screen"/><path d="M345.42,147.78c.21-.23.43-.47.64-.71,5.21-5.72,10.55-11.34,15.54-17.25,2.12-2.51,10.18-10.85,12.33-12.12-2.23-.04-4.45.14-6.66.44h.27l-23.88,29.64h1.76Z" fill="#fcc331" mix-blend-mode="screen"/><path d="M335.63,186.8c1.01-1.37,2.01-2.75,3.02-4.12,2.67-3.63,24.14-34.2,26.27-36.14-2.24.29-4.46.69-6.65,1.24h2.28s-27.58,40.35-27.58,41.58c0,.18.99-.79,2.67-2.56Z" fill="#fcc331" mix-blend-mode="screen"/><path d="M373.72,111.14l23.47-23.88-10.93.43c-1.02,1.23-19.68,24.93-20.46,25.96,5.31.36,10.64.4,15.95.55.4.01-18.66,22.14-23.69,27.81,3.76-.06,11.64.83,11.51,1.05-2.46,4.02-17.41,24.34-22.06,30.73,13.02-14.49,30.05-33.83,30.05-33.83h-9.61l23.47-28.82h-17.7Z" fill="#fcc331" mix-blend-mode="multiply"/><path d="M336.43,162.56c.63-1.54,1.05-3.18,1.34-4.84.2-1.17.33-2.36.38-3.56.17-1.66-.35-8.1-.69-8.08-.2-.27-5.45,3.5-6.6,4.71-.88.82-1.71,1.69-2.46,2.6-1.07,1.3-2.06,2.68-2.82,4.15-.69,1.34-1.16,2.87-.75,4.51.24.97.83,1.99,1.67,2.83.04.04.08.08.11.11.05.05.11.1.16.15.28.26.6.49.95.7.01,0,.02.01.03.02.02.01.04.02.06.03.13.07.26.14.4.2.14.06.27.12.41.17.02,0,.04.02.06.03.01,0,.02,0,.04.01.38.13.76.22,1.14.27.07.01.15.02.22.03.05,0,.11,0,.16.01,1.18.1,2.34-.12,3.23-.56,1.52-.75,2.37-2.1,2.95-3.5Z" fill="#90bada"/><path d="M335.71,160.34c.5-1.2.82-2.49,1.05-3.79.16-.92.26-1.85.3-2.79.14-1.3-.28-6.35-.54-6.33-.16-.22-4.27,2.75-5.17,3.69-.69.65-1.34,1.32-1.93,2.04-.84,1.02-1.61,2.1-2.21,3.26-.54,1.05-.91,2.25-.59,3.54.19.76.65,1.56,1.31,2.22.03.03.06.06.09.09.04.04.08.08.13.12.22.2.47.39.74.55,0,0,.02.01.02.02.02,0,.03.02.05.02.1.06.2.11.31.16.11.05.22.09.32.13.02,0,.03.01.05.02,0,0,.02,0,.03,0,.3.1.6.17.9.21.06,0,.12.02.17.02.04,0,.08,0,.13.01.93.08,1.83-.09,2.53-.44,1.19-.59,1.86-1.65,2.31-2.74Z" fill="#cfedfc"/><path d="M334.82,156.41c.26-.63.43-1.31.55-1.99.08-.48.13-.97.16-1.47.07-.68-.14-3.34-.29-3.33-.08-.11-2.25,1.44-2.72,1.94-.36.34-.7.7-1.01,1.07-.44.53-.85,1.1-1.16,1.71-.28.55-.48,1.18-.31,1.86.1.4.34.82.69,1.16.02.02.03.03.05.05.02.02.04.04.07.06.12.11.25.2.39.29,0,0,0,0,.01,0,0,0,.02,0,.02.01.05.03.11.06.16.08.06.03.11.05.17.07,0,0,.02,0,.03.01,0,0,0,0,.01,0,.16.06.31.09.47.11.03,0,.06,0,.09.01.02,0,.04,0,.07,0,.49.04.96-.05,1.33-.23.62-.31.98-.87,1.21-1.44Z" fill="#fff"/><path d="M329.81,158.62c-.07-.21-.22-.39-.4-.53-.32-.25-.79-.27-1.14-.07-.12.05-.24.12-.34.2-.19.16-.3.4-.34.64-.08.47.2.96.66,1.11.53.17,1.22-.1,1.48-.6.12-.23.15-.49.07-.75Z" fill="#fff"/><path d="M328.67,159.17s0,0,0,0c0,0,0,0,0,0,0,0,0,0,0,0,0,0,0,0,0,0,0,0,0,0,0,0,0,0-.02,0-.02,0Z" fill="#fff"/><path d="M328.6,158.48s0,0,0,0c0,0,0,0-.01,0,0,0,0,0,0,0,0,0,0,0,0,0,0,0,0,0,0,0,0,0,0,0,.01,0,0,0,0,0,0,0Z" fill="#fff"/><path d="M328.59,158.49s-.02.02-.03.03c0,0,0,0,0,0,.02-.02.03-.03.03-.03Z" fill="#fff"/><path d="M391.92,148.27c.63-1.54,1.05-3.18,1.34-4.84.2-1.17.33-2.36.38-3.56.17-1.66-.35-8.1-.69-8.08-.2-.27-5.45,3.5-6.6,4.71-.88.82-1.71,1.69-2.46,2.6-1.07,1.3-2.06,2.68-2.82,4.15-.69,1.34-1.16,2.87-.75,4.51.24.97.83,1.99,1.67,2.83.04.04.08.08.11.11.05.05.11.1.16.15.28.26.6.49.95.7.01,0,.02.01.03.02.02.01.04.02.06.03.13.07.26.14.4.2.14.06.27.12.41.17.02,0,.04.02.06.03.01,0,.02,0,.04.01.38.13.76.22,1.14.27.07.01.15.02.22.03.05,0,.11,0,.16.01,1.18.1,2.34-.12,3.23-.56,1.52-.75,2.37-2.1,2.95-3.5Z" fill="#90bada"/><path d="M391.2,146.04c.5-1.2.82-2.49,1.05-3.79.16-.92.26-1.85.3-2.79.14-1.3-.28-6.35-.54-6.33-.16-.22-4.27,2.75-5.17,3.69-.69.65-1.34,1.32-1.93,2.04-.84,1.02-1.61,2.1-2.21,3.26-.54,1.05-.91,2.25-.59,3.54.19.76.65,1.56,1.31,2.22.03.03.06.06.09.09.04.04.08.08.13.12.22.2.47.39.74.55,0,0,.02.01.02.02.02,0,.03.02.05.02.1.06.2.11.31.16.11.05.22.09.32.13.02,0,.03.01.05.02,0,0,.02,0,.03,0,.3.1.6.17.9.21.06,0,.12.02.17.02.04,0,.08,0,.13.01.93.08,1.83-.09,2.53-.44,1.19-.59,1.86-1.65,2.31-2.74Z" fill="#cfedfc"/><path d="M390.31,142.11c.26-.63.43-1.31.55-1.99.08-.48.13-.97.16-1.47.07-.68-.14-3.34-.29-3.33-.08-.11-2.25,1.44-2.72,1.94-.36.34-.7.7-1.01,1.07-.44.53-.85,1.1-1.16,1.71-.28.55-.48,1.18-.31,1.86.1.4.34.82.69,1.16.02.02.03.03.05.05.02.02.04.04.07.06.12.11.25.2.39.29,0,0,0,0,.01,0,0,0,.02,0,.02.01.05.03.11.06.16.08.06.03.11.05.17.07,0,0,.02,0,.03.01,0,0,0,0,.01,0,.16.06.31.09.47.11.03,0,.06,0,.09.01.02,0,.04,0,.07,0,.49.04.96-.05,1.33-.23.62-.31.98-.87,1.21-1.44Z" fill="#fff"/><path d="M385.3,144.32c-.07-.21-.22-.39-.4-.53-.32-.25-.79-.27-1.14-.07-.12.05-.24.12-.34.2-.19.16-.3.4-.34.64-.08.47.2.96.66,1.11.53.17,1.22-.1,1.48-.6.12-.23.15-.49.07-.75Z" fill="#fff"/><path d="M384.15,144.87s0,0,0,0c0,0,0,0,0,0,0,0,0,0,0,0,0,0,0,0,0,0,0,0,0,0,0,0,0,0-.02,0-.02,0Z" fill="#fff"/><path d="M384.09,144.18s0,0,0,0c0,0,0,0-.01,0,0,0,0,0,0,0,0,0,0,0,0,0,0,0,0,0,0,0,0,0,0,0,.01,0,0,0,0,0,0,0Z" fill="#fff"/><path d="M384.08,144.19s-.02.02-.03.03c0,0,0,0,0,0,.02-.02.03-.03.03-.03Z" fill="#fff"/><path d="M349.23,110.46c.41-1,.68-2.07.87-3.15.13-.76.21-1.54.25-2.32.11-1.08-.23-5.28-.45-5.26-.13-.18-3.55,2.28-4.3,3.07-.57.54-1.11,1.1-1.6,1.69-.7.84-1.34,1.74-1.84,2.71-.45.87-.76,1.87-.49,2.94.16.63.54,1.3,1.09,1.84.02.03.05.05.07.07.04.03.07.07.11.1.18.17.39.32.62.45,0,0,.01,0,.02.01.01,0,.03.01.04.02.08.05.17.09.26.13.09.04.18.08.27.11.01,0,.03.01.04.02,0,0,.02,0,.02,0,.25.09.5.15.74.18.05,0,.1.01.14.02.04,0,.07,0,.1,0,.77.07,1.52-.08,2.11-.37.99-.49,1.55-1.37,1.92-2.28Z" fill="#90bada"/><path d="M348.77,109.01c.32-.78.53-1.62.68-2.47.1-.6.17-1.2.2-1.82.09-.85-.18-4.14-.35-4.12-.1-.14-2.78,1.79-3.37,2.4-.45.42-.87.86-1.26,1.33-.55.66-1.05,1.37-1.44,2.12-.35.69-.59,1.46-.38,2.3.12.5.42,1.02.85,1.44.02.02.04.04.06.06.03.03.06.05.08.08.14.13.31.25.48.35,0,0,.01,0,.02.01.01,0,.02,0,.03.02.07.04.13.07.2.1.07.03.14.06.21.09.01,0,.02,0,.03.01,0,0,.01,0,.02,0,.19.07.39.11.58.14.04,0,.08,0,.11.01.03,0,.05,0,.08,0,.6.05,1.19-.06,1.65-.29.77-.38,1.21-1.07,1.51-1.78Z" fill="#cfedfc"/><path d="M348.19,106.45c.17-.41.28-.85.36-1.3.05-.31.09-.63.1-.96.05-.44-.09-2.17-.19-2.17-.05-.07-1.46.94-1.77,1.26-.24.22-.46.45-.66.7-.29.35-.55.72-.76,1.11-.19.36-.31.77-.2,1.21.07.26.22.53.45.76,0,.01.02.02.03.03.01.01.03.03.04.04.08.07.16.13.25.19,0,0,0,0,0,0,0,0,.01,0,.02,0,.03.02.07.04.11.05.04.02.07.03.11.05,0,0,.01,0,.02,0,0,0,0,0,0,0,.1.04.2.06.31.07.02,0,.04,0,.06,0,.01,0,.03,0,.04,0,.32.03.63-.03.87-.15.41-.2.64-.56.79-.94Z" fill="#fff"/><path d="M344.92,107.89c-.05-.14-.14-.26-.26-.35-.21-.16-.51-.17-.74-.05-.08.03-.16.08-.22.13-.12.11-.19.26-.22.42-.05.31.13.63.43.72.35.11.79-.06.96-.39.08-.15.1-.32.04-.49Z" fill="#fff"/><path d="M344.18,108.25s0,0,0,0c0,0,0,0,0,0,0,0,0,0,0,0,0,0,0,0,0,0,0,0,0,0,0,0,0,0-.01,0-.01,0Z" fill="#fff"/><polygon points="344.14 107.8 344.14 107.79 344.13 107.8 344.13 107.8 344.13 107.8 344.13 107.8 344.14 107.8 344.14 107.8" fill="#fff"/><path d="M344.13,107.8s-.01.01-.02.02c0,0,0,0,0,0,.01-.01.02-.02.02-.02Z" fill="#fff"/><path d="M433.86,156.94c.41-1,.68-2.07.87-3.15.13-.76.21-1.54.25-2.32.11-1.08-.23-5.28-.45-5.26-.13-.18-3.55,2.28-4.3,3.07-.57.54-1.11,1.1-1.6,1.69-.7.84-1.34,1.74-1.84,2.71-.45.87-.76,1.87-.49,2.94.16.63.54,1.3,1.09,1.84.02.03.05.05.07.07.04.03.07.07.11.1.18.17.39.32.62.45,0,0,.01,0,.02.01.01,0,.03.01.04.02.08.05.17.09.26.13.09.04.18.08.27.11.01,0,.03.01.04.02,0,0,.02,0,.02,0,.25.09.5.15.74.18.05,0,.1.01.14.02.04,0,.07,0,.1,0,.77.07,1.52-.08,2.11-.37.99-.49,1.55-1.37,1.92-2.28Z" fill="#90bada"/><path d="M433.4,155.49c.32-.78.53-1.62.68-2.47.1-.6.17-1.2.2-1.82.09-.85-.18-4.14-.35-4.12-.1-.14-2.78,1.79-3.37,2.4-.45.42-.87.86-1.26,1.33-.55.66-1.05,1.37-1.44,2.12-.35.69-.59,1.46-.38,2.3.12.5.42,1.02.85,1.44.02.02.04.04.06.06.03.03.06.05.08.08.14.13.31.25.48.35,0,0,.01,0,.02.01.01,0,.02,0,.03.02.07.04.13.07.2.1.07.03.14.06.21.09.01,0,.02,0,.03.01,0,0,.01,0,.02,0,.19.07.39.11.58.14.04,0,.08,0,.11.01.03,0,.05,0,.08,0,.6.05,1.19-.06,1.65-.29.77-.38,1.21-1.07,1.51-1.78Z" fill="#cfedfc"/><path d="M432.82,152.93c.17-.41.28-.85.36-1.3.05-.31.09-.63.1-.96.05-.44-.09-2.17-.19-2.17-.05-.07-1.46.94-1.77,1.26-.24.22-.46.45-.66.7-.29.35-.55.72-.76,1.11-.19.36-.31.77-.2,1.21.07.26.22.53.45.76,0,.01.02.02.03.03.01.01.03.03.04.04.08.07.16.13.25.19,0,0,0,0,0,0,0,0,.01,0,.02,0,.03.02.07.04.11.05.04.02.07.03.11.05,0,0,.01,0,.02,0,0,0,0,0,0,0,.1.04.2.06.31.07.02,0,.04,0,.06,0,.01,0,.03,0,.04,0,.32.03.63-.03.87-.15.41-.2.64-.56.79-.94Z" fill="#fff"/><path d="M429.55,154.37c-.05-.14-.14-.26-.26-.35-.21-.16-.51-.17-.74-.05-.08.03-.16.08-.22.13-.12.11-.19.26-.22.42-.05.31.13.63.43.72.35.11.79-.06.96-.39.08-.15.1-.32.04-.49Z" fill="#fff"/><path d="M428.81,154.73s0,0,0,0c0,0,0,0,0,0,0,0,0,0,0,0,0,0,0,0,0,0,0,0,0,0,0,0,0,0-.01,0-.01,0Z" fill="#fff"/><polygon points="428.77 154.28 428.77 154.28 428.76 154.28 428.76 154.28 428.76 154.28 428.76 154.29 428.77 154.28 428.77 154.28" fill="#fff"/><path d="M428.76,154.29s-.01.01-.02.02c0,0,0,0,0,0,.01-.01.02-.02.02-.02Z" fill="#fff"/><path d="M404.73,186.12c.63-1.54,1.05-3.18,1.34-4.84.2-1.17.33-2.36.38-3.56.17-1.66-.35-8.1-.69-8.08-.2-.27-5.45,3.5-6.6,4.71-.88.82-1.71,1.69-2.46,2.6-1.07,1.3-2.06,2.68-2.82,4.15-.69,1.34-1.16,2.87-.75,4.51.24.97.83,1.99,1.67,2.83.04.04.08.08.11.11.05.05.11.1.16.15.28.26.6.49.95.7.01,0,.02.01.03.02.02.01.04.02.06.03.13.07.26.14.4.2.14.06.27.12.41.17.02,0,.04.02.06.03.01,0,.02,0,.04.01.38.13.76.22,1.14.27.07.01.15.02.22.03.05,0,.11,0,.16.01,1.18.1,2.34-.12,3.23-.56,1.52-.75,2.37-2.1,2.95-3.5Z" fill="#90bada"/><path d="M404.02,183.9c.5-1.2.82-2.49,1.05-3.79.16-.92.26-1.85.3-2.79.14-1.3-.28-6.35-.54-6.33-.16-.22-4.27,2.75-5.17,3.69-.69.65-1.34,1.32-1.93,2.04-.84,1.02-1.61,2.1-2.21,3.26-.54,1.05-.91,2.25-.59,3.54.19.76.65,1.56,1.31,2.22.03.03.06.06.09.09.04.04.08.08.13.12.22.2.47.39.74.55,0,0,.02.01.02.02.02,0,.03.02.05.02.1.06.21.11.31.16.11.05.22.09.32.13.02,0,.03.01.05.02,0,0,.02,0,.03,0,.3.1.6.17.9.21.06,0,.12.02.17.02.04,0,.08,0,.13.01.93.08,1.83-.09,2.54-.44,1.19-.59,1.86-1.65,2.31-2.74Z" fill="#cfedfc"/><path d="M403.13,179.96c.26-.63.43-1.31.55-1.99.08-.48.13-.97.16-1.47.07-.68-.14-3.34-.29-3.33-.08-.11-2.25,1.44-2.72,1.94-.36.34-.7.7-1.01,1.07-.44.53-.85,1.1-1.16,1.71-.28.55-.48,1.18-.31,1.86.1.4.34.82.69,1.16.02.02.03.03.05.05.02.02.04.04.07.06.12.11.25.2.39.29,0,0,0,0,.01,0,0,0,.02,0,.02.01.05.03.11.06.16.08.06.03.11.05.17.07,0,0,.02,0,.03.01,0,0,0,0,.01,0,.16.06.31.09.47.11.03,0,.06,0,.09.01.02,0,.04,0,.07,0,.49.04.96-.05,1.33-.23.62-.31.98-.87,1.21-1.44Z" fill="#fff"/><path d="M398.11,182.17c-.07-.21-.22-.39-.4-.53-.32-.25-.79-.27-1.14-.07-.12.05-.24.12-.34.2-.19.16-.3.4-.34.64-.08.47.2.96.66,1.11.53.17,1.22-.1,1.48-.6.12-.23.15-.49.07-.75Z" fill="#fff"/><path d="M396.97,182.73s0,0,0,0c0,0,0,0,0,0,0,0,0,0,0,0,0,0,0,0,0,0,0,0,0,0,0,0,0,0-.02,0-.02,0Z" fill="#fff"/><path d="M396.91,182.03s0,0,0,0c0,0,0,0-.01,0,0,0,0,0,0,0,0,0,0,0,0,0,0,0,0,0,0,0,0,0,0,0,.01,0,0,0,0,0,0,0Z" fill="#fff"/><path d="M396.9,182.04s-.02.02-.03.03c0,0,0,0,0,0,.02-.02.03-.03.03-.03Z" fill="#fff"/><path d="M497.18,153.41c.63-1.54,1.05-3.18,1.34-4.84.2-1.17.33-2.36.38-3.56.17-1.66-.35-8.1-.69-8.08-.2-.27-5.45,3.5-6.6,4.71-.88.82-1.71,1.69-2.46,2.6-1.07,1.3-2.06,2.68-2.82,4.15-.69,1.34-1.16,2.87-.75,4.51.24.97.83,1.99,1.67,2.83.04.04.08.08.11.11.05.05.11.1.16.15.28.26.6.49.95.7.01,0,.02.01.03.02.02.01.04.02.06.03.13.07.26.14.4.2.14.06.27.12.41.17.02,0,.04.02.06.03.01,0,.02,0,.04.01.38.13.76.22,1.14.27.07.01.15.02.22.03.05,0,.11,0,.16.01,1.18.1,2.34-.12,3.23-.56,1.52-.75,2.37-2.1,2.95-3.5Z" fill="#90bada"/><path d="M496.47,151.19c.5-1.2.82-2.49,1.05-3.79.16-.92.26-1.85.3-2.79.14-1.3-.27-6.35-.54-6.33-.16-.22-4.27,2.75-5.17,3.69-.69.65-1.34,1.32-1.93,2.04-.84,1.02-1.61,2.1-2.21,3.26-.54,1.05-.91,2.25-.59,3.54.19.76.65,1.56,1.31,2.22.03.03.06.06.09.09.04.04.08.08.13.12.22.2.47.39.74.55,0,0,.02.01.02.02.02,0,.03.02.05.02.1.06.2.11.31.16.11.05.22.09.32.13.02,0,.03.01.05.02,0,0,.02,0,.03,0,.3.1.6.17.9.21.06,0,.12.02.17.02.04,0,.08,0,.13.01.93.08,1.83-.09,2.53-.44,1.19-.59,1.86-1.65,2.31-2.74Z" fill="#cfedfc"/><path d="M495.58,147.26c.26-.63.43-1.31.55-1.99.08-.48.13-.97.16-1.47.07-.68-.14-3.34-.29-3.33-.08-.11-2.25,1.44-2.72,1.94-.36.34-.7.7-1.01,1.07-.44.53-.85,1.1-1.16,1.71-.28.55-.48,1.18-.31,1.86.1.4.34.82.69,1.16.02.02.03.03.05.05.02.02.04.04.07.06.12.11.25.2.39.29,0,0,0,0,.01,0,0,0,.02,0,.02.01.05.03.11.06.16.08.06.03.11.05.17.07,0,0,.02,0,.03.01,0,0,0,0,.01,0,.16.06.31.09.47.11.03,0,.06,0,.09.01.02,0,.04,0,.07,0,.49.04.96-.05,1.33-.23.62-.31.98-.87,1.21-1.44Z" fill="#fff"/><path d="M490.56,149.47c-.07-.21-.22-.39-.4-.53-.32-.25-.79-.27-1.14-.07-.12.05-.24.12-.34.2-.19.16-.3.4-.34.64-.08.47.2.96.66,1.11.53.17,1.22-.1,1.48-.6.12-.23.15-.49.07-.75Z" fill="#fff"/><path d="M489.42,150.02s0,0,0,0c0,0,0,0,0,0,0,0,0,0,0,0,0,0,0,0,0,0,0,0,0,0,0,0,0,0-.02,0-.02,0Z" fill="#fff"/><path d="M489.36,149.33s0,0,0,0c0,0,0,0-.01,0,0,0,0,0,0,0,0,0,0,0,0,0,0,0,0,0,0,0,0,0,0,0,.01,0,0,0,0,0,0,0Z" fill="#fff"/><path d="M489.35,149.34s-.02.02-.03.03c0,0,0,0,0,0,.02-.02.03-.03.03-.03Z" fill="#fff"/><path d="M516.05,46.64c-4.57-14.55-19.84-21.78-34.18-22.66-4.16-.25-8.36.07-12.43.92-.47.1-.94.22-1.41.34-.48.13-.98-.11-1.18-.56-.16-.35-.32-.69-.48-1.03-1.67-3.49-3.94-6.75-6.5-9.64-5.23-5.9-12.15-10.25-19.73-12.4-14.72-4.17-30.64-.05-41.59,10.29-.31.3-.77.36-1.16.16-.79-.41-1.61-.79-2.44-1.11-3.43-1.32-7.04-2.15-10.69-2.49-7-.64-14.13.2-20.77,2.48-13.4,4.6-24.21,15.17-27.65,29.09-.5,2.01-.84,4.1-1.01,6.22-.03.38-.27.71-.63.85-.36.14-.72.29-1.08.44-4.33,1.85-8.26,4.62-11.55,7.99-6.64,6.8-10.41,15.98-9.94,25.52.45,9.21,4.71,18.22,11.36,24.57,6.85,6.55,15.97,9.7,25.39,9.33,4.59-.18,9.22-1.22,13.45-3.05.38-.17.82-.08,1.12.22,1.75,1.8,3.77,3.38,6.05,4.67,5.03,2.85,11.73,4.29,17.86,3.44.31-.04.61.06.83.28,2.05,2.06,4.31,3.89,6.72,5.53,6.64,4.51,14.45,7.29,22.43,8.18,16.12,1.79,31.98-4.76,42.5-17.03.21-.25.42-.5.63-.76,4.94,3.27,11.79,3.72,17.46,2.99,6.72-.86,13.23-3.5,18.88-7.19,10.16-6.64,18.84-18.3,16.16-31.05-.43-2.06-1.12-3.96-2.05-5.69-.19-.36-.15-.8.11-1.11,2.07-2.49,3.72-5.35,4.86-8.22,2.49-6.25,2.67-13.12.65-19.52Z" fill="#4c5358"/><path d="M513.2,63.17c-.88,3.11-2.32,5.79-4.14,8.21-.37.49-1.1.54-1.52.09-1.28-1.37-2.77-2.56-4.47-3.56,1.51,2.24,3.03,4.48,4.09,6.98.57,1.33.99,2.69,1.3,4.06.19.61.35,1.23.49,1.83,1.17,5.22.56,10.46-1.7,15.3-4.77,10.2-16.09,17.26-26.87,19.38-3.35.66-6.78.92-10.18.52-2.4-.28-4.64-.97-6.86-1.8-.63-.23-.86-.99-.48-1.54,3.21-4.58,5.79-9.76,7.02-15.16-.71,1.34-1.44,2.67-2.22,3.97-2.25,3.77-4.96,7.11-7.78,10.46-.18.22-.37.43-.55.65-.1.13-.19.27-.29.41-4.26,5.6-9.83,10.25-16.12,13.41-13.34,6.72-29.23,5.77-42.32-1.08-2.79-1.46-5.37-3.21-7.79-5.18-.57-.47-.45-1.37.22-1.69.86-.4,1.69-.87,2.47-1.41.5-.35.76-.97.71-1.47-2.13.61-4.3,1.1-6.51,1.4-2.12.3-4.47.64-6.6.22-.19,0-.39,0-.58,0-4.22-.2-8.33-1.39-11.98-3.52-1.75-1.02-3.4-2.26-4.92-3.65.06-.03.11-.07.17-.1-.82-.61-1.63-1.24-2.4-1.89-.58-.48-1.14-.98-1.69-1.49-4.29,3.51,2.33-1.91-1.96,1.6.02.04.05.07.07.11.37.56.15,1.33-.49,1.54-2.41.8-4.89,1.37-7.42,1.65-8.37.94-17.02-1.24-23.65-6.51-6.53-5.19-11.11-12.81-12.55-21.03-1.49-8.49.68-16.82,5.86-23.67,2.18-2.88,4.86-5.29,7.83-7.3.02-.01.03-.02.05-.04,4.22-3.54,9.21-5.96,14.54-7.49-.29-.02-.57-.04-.86-.03-1.18.02-2.36.08-3.54.24-.22.03-.44.07-.66.11-.68.13-1.27-.46-1.18-1.14.1-.75.23-1.49.39-2.24,1.33-6.18,4.21-12.15,8.46-16.85,8.62-9.54,21.65-14.28,34.39-13.72,3.89.17,7.86.73,11.58,1.9,1.08.34,2.15.72,3.2,1.13-.34.39-.69.76-1.02,1.16-2.77,3.42-4.98,7.36-6.57,11.46-.78,2.02-1.4,4.08-1.81,6.2-.14.71-.21,1.42-.27,2.12.17-.51.34-1.02.54-1.53,2.48-6.34,5.91-12.15,10.49-17.21,2.02-2.23,4.28-4.21,6.76-5.84,2.69-1.99,5.63-3.64,8.79-4.87,14.54-5.63,31.3-2.23,42.49,8.56,2.94,2.84,5.46,6.05,7.48,9.6.2.35.39.69.57,1.05.28.54.02,1.19-.55,1.4-1.84.68-3.64,1.45-5.45,2.27-.21.09-.35.28-.43.48.68-.18,1.36-.4,2.03-.62,1.23-.41,2.49-.74,3.76-.97,2.33-.42,4.72-.78,7.09-.93,2.65-.31,5.31-.42,7.89-.34,6.96.22,13.78,1.7,20.06,4.75,5.96,2.89,10.99,7.3,13.86,13.34,2.69,5.65,3.44,12.22,1.72,18.27Z" fill="#a4b0b7"/><path d="M509.07,71.39c1.81-2.42,3.26-5.11,4.14-8.21,1.71-6.05.97-12.62-1.72-18.27-2.87-6.04-7.9-10.45-13.86-13.34-6.28-3.05-13.1-4.53-20.06-4.75-2.58-.08-5.24.03-7.89.34-2.37.15-4.75.51-7.09.93-1.28.23-2.53.56-3.76.97-.67.23-1.34.45-2.03.62.08-.2.22-.39.43-.48,1.8-.82,3.61-1.58,5.45-2.27.57-.21.83-.87.55-1.4-.19-.35-.38-.7-.57-1.05-2.02-3.55-4.54-6.77-7.48-9.6-11.2-10.79-27.95-14.19-42.49-8.56-3.15,1.22-6.09,2.88-8.79,4.87-2.48,1.63-4.74,3.61-6.76,5.84-4.18,4.62-7.41,9.87-9.82,15.58,1.47-2.15,3.19-4.13,5.13-5.88,4.58-4.11,10.19-6.99,16.1-8.63,5.96-1.65,12.27-2.06,18.37-1.09,5.87.93,11.54,3.22,16.16,6.98,3.91,3.19,6.8,7.37,8.61,12.03,3.08-1.72,6.43-2.97,9.87-3.74,5.17-1.16,10.56-1.31,15.8-.48,4.97.78,9.89,2.5,14.06,5.34,3.93,2.67,7.12,6.35,8.84,10.81,1.98,5.11,1.74,10.75.31,15.97-.12.45-.68.57-1.01.27-3.68-3.38-8.82-3.79-13.69-3.83,3.42,1.53,6.49,3.85,8.23,7.26,3.72,7.32.38,16.15-3.79,22.5-2.46,3.75-5.49,7.16-8.96,10-3.14,2.58-6.7,4.78-10.62,5.94-.49.14-.98-.45-.69-.89,1.58-2.36,2.89-4.91,3.6-7.67,1.91-7.43-1.43-14.21-5.89-19.96-.32,1.37-.72,2.71-1.19,4.02-2.48,6.94-6.69,13.28-11.84,18.53-4.58,4.67-9.98,8.43-16.21,10.51-6.12,2.04-12.84,2.94-19.28,2.46-6.09-.45-12.64-2.33-16.32-7.56-.17-.25-.07-.7.22-.83,3.68-1.64,6.33-5.2,8.06-8.73.53-1.07,1-2.24,1.38-3.45-1.26,1.74-2.73,3.35-4.39,4.75-4.12,3.48-9.21,5.72-14.55,6.44-2.28.3-4.63.18-6.91-.06-2.57-.26-5.15-.72-7.61-1.55-2.21-.74-4.46-1.79-6.1-3.49-.75-.78-1.57-1.75-2.07-2.72-.32-.63-.11-1.11.36-1.57.93-.9,1.56-1.93,2.26-3.02.02-.04.05-.07.07-.11-4.23,4.55-9.5,8.16-15.31,10.31-8.25,3.06-17.71,2.87-25.21-2.05-3.88-2.54-7.32-6.25-9.4-10.41-1.81-3.63-2.49-7.73-2.33-11.76.33-8.47,4.04-17.01,9.99-23.05,2.85-2.89,6.32-5.23,10.23-6.43,3.37-1.03,6.92-1.09,10.32-.29-.17-.23-.35-.45-.56-.63-.41-.35-.91-.6-1.38-.86-.97-.53-1.99-.99-2.87-1.67-.66-.51-.98-1.14-1.13-1.96-.58-3.25,1.72-6.43,3.72-8.74,2.35-2.73,5.16-5.12,8.15-7.12,3.89-2.6,8.59-3.54,13.21-3.66,5.56-.15,11.1.8,16.65.3.48-.04.73.54.52.91-2.86,5.05-5.05,11.11-5.06,17.06.75-2.43,1.81-4.74,3.11-6.91.03-.2.05-.39.09-.59.42-2.12,1.03-4.19,1.81-6.2,1.59-4.1,3.8-8.04,6.57-11.46.33-.4.68-.77,1.02-1.16-1.06-.41-2.13-.79-3.2-1.13-3.72-1.17-7.69-1.73-11.58-1.9-12.74-.56-25.78,4.18-34.39,13.72-4.25,4.71-7.13,10.67-8.46,16.85-.16.75-.29,1.49-.39,2.24-.09.68.5,1.27,1.18,1.14.22-.04.44-.08.66-.11,1.17-.16,2.35-.22,3.54-.24.29,0,.57,0,.86.03-5.33,1.53-10.32,3.96-14.54,7.49-.02.01-.03.03-.05.04-2.97,2.01-5.65,4.42-7.83,7.3-5.19,6.85-7.35,15.17-5.86,23.67,1.44,8.22,6.02,15.84,12.55,21.03,6.63,5.28,15.28,7.45,23.65,6.51,2.53-.28,5.01-.85,7.42-1.65.64-.21.87-.98.49-1.54-.02-.04-.05-.07-.07-.11.22-.18.38-.31.55-.45,0,0,.02-.02.03-.02.22-.18.41-.33.54-.44-.02.01-.03.03-.05.04.1-.08.19-.16.32-.26,0,0,.02-.02.03-.02.16-.13.33-.27.55-.45.55.51,1.11,1.01,1.69,1.49.78.64,1.58,1.27,2.4,1.89-.06.03-.11.07-.17.1,1.52,1.39,3.17,2.63,4.92,3.65,3.65,2.13,7.76,3.32,11.98,3.52.2,0,.39,0,.58,0,2.13.43,4.48.08,6.6-.22,2.2-.31,4.37-.79,6.51-1.4.04.5-.21,1.12-.71,1.47-.78.54-1.61,1.01-2.47,1.41-.67.31-.8,1.22-.22,1.69,2.42,1.97,5,3.72,7.79,5.18,13.09,6.85,28.98,7.8,42.32,1.08,6.29-3.17,11.86-7.81,16.12-13.41.1-.13.19-.27.29-.41.18-.22.37-.43.55-.65,2.82-3.35,5.53-6.69,7.78-10.46.78-1.3,1.51-2.63,2.22-3.97-1.23,5.4-3.81,10.58-7.02,15.16-.38.55-.15,1.3.48,1.54,2.22.82,4.46,1.52,6.86,1.8,3.4.4,6.83.14,10.18-.52,10.78-2.12,22.11-9.18,26.88-19.38,2.26-4.84,2.87-10.07,1.7-15.3-.14-.61-.3-1.22-.49-1.83-.31-1.38-.74-2.73-1.3-4.06-1.06-2.5-2.58-4.74-4.09-6.98,1.7,1,3.19,2.19,4.47,3.56.42.45,1.15.4,1.52-.09Z" fill="#a4b0b7" mix-blend-mode="multiply" opacity=".56"/><path d="M509.07,71.39c1.81-2.42,3.26-5.11,4.14-8.21,1.71-6.05.97-12.62-1.72-18.27-2.87-6.04-7.9-10.45-13.86-13.34,0,0,0,0,0,0,3.62,3.42,6.69,7.4,8.78,11.93,3.55,7.72,3.72,16.3,1.18,24.36-.12.37-.54.57-.89.36-2.29-1.34-4.72-2.51-7.26-3.3,1.22,3.14,2.18,6.38,2.7,9.71.81,5.21.52,10.6-1.42,15.54-1.75,4.44-4.62,8.17-8.27,11.21-3.63,3.03-7.82,5.43-12.29,6.96-4.13,1.42-8.66,2.1-12.96,1.07-.31-.07-.53-.44-.42-.75,1.36-4.08,2.86-8.12,3.68-12.35.26-1.33.44-2.71.52-4.09-1.92,3.6-4.17,7.02-6.78,10.17-8.28,9.97-19.88,16.99-32.64,19.42-5.87,1.12-12.08,1.5-18.04,1.01-5.87-.48-12.27-2.02-16.24-6.71-.21-.25-.25-.62,0-.86,1.84-1.77,3.13-3.95,4.4-6.15-1.02.66-2.07,1.27-3.15,1.81-7.05,3.55-15.39,4.47-22.75,1.26-3.32-1.45-6.31-3.9-8.08-7.09-.52-.95-.9-1.94-1.17-2.95-3.39,2.32-7.04,4.22-11.14,5.22-7.96,1.94-17.2.97-24.28-3.24-5.62-3.34-9.85-8.46-11.91-14.67-2.01-6.06-1.99-12.63-.99-18.88.45-2.8,1.11-5.56,1.93-8.28-4.14,6.43-5.78,13.95-4.44,21.62,1.44,8.22,6.02,15.84,12.55,21.03,6.63,5.28,15.28,7.45,23.65,6.51,2.53-.28,5.01-.85,7.42-1.65.64-.21.87-.98.49-1.54-.02-.04-.05-.07-.07-.11.22-.18.38-.31.55-.45,0,0,.02-.02.03-.02.22-.18.41-.33.54-.44-.02.01-.03.03-.05.04.1-.08.19-.16.32-.26,0,0,.02-.02.03-.02.16-.13.33-.27.55-.45.55.51,1.11,1.01,1.69,1.49.78.64,1.58,1.27,2.4,1.89-.06.03-.11.07-.17.1,1.52,1.39,3.17,2.63,4.92,3.65,3.65,2.13,7.76,3.32,11.98,3.52.2,0,.39,0,.58,0,2.13.43,4.48.08,6.6-.22,2.2-.31,4.37-.79,6.51-1.4.04.5-.21,1.12-.71,1.47-.78.54-1.61,1.01-2.47,1.41-.67.31-.8,1.22-.22,1.69,2.42,1.97,5,3.72,7.79,5.18,13.09,6.85,28.98,7.8,42.32,1.08,6.29-3.17,11.86-7.81,16.12-13.41.1-.13.19-.27.29-.41.18-.22.37-.43.55-.65,2.82-3.35,5.53-6.69,7.78-10.46.78-1.3,1.51-2.63,2.22-3.97-1.23,5.4-3.81,10.58-7.02,15.16-.38.55-.15,1.3.48,1.54,2.22.82,4.46,1.52,6.86,1.8,3.4.4,6.83.14,10.18-.52,10.78-2.12,22.11-9.18,26.88-19.38,2.26-4.84,2.87-10.07,1.7-15.3-.14-.61-.3-1.22-.49-1.83-.31-1.38-.74-2.73-1.3-4.06-1.06-2.5-2.58-4.74-4.09-6.98,1.7,1,3.19,2.19,4.47,3.56.42.45,1.15.4,1.52-.09Z" fill="#a4b0b7" mix-blend-mode="multiply" opacity=".56"/><path d="M364.94,53.95c-1.43-1.23-3.21-2.12-5.1-2.69-4.57-1.36-9.29-1.2-13.85.14-9.22,2.72-16.08,10.75-17.78,20.15-.8,4.44-.63,9.84,2.02,13.66,2.31,3.33,6.31,4.92,10.25,5.24,8.95.74,18.22-3.97,24.17-10.44,3.71-4.04,6.96-9.27,7.18-14.89.17-4.5-2.11-10.11-6.9-11.17Z" fill="#a4b0b7" mix-blend-mode="screen" opacity=".55"/><path d="M364.96,27.46c-2.36.73-4.58,2.23-6.19,4.11-.97,1.14-1.96,2.57-2.45,4.09-.07.12-.15.24-.21.37-1.04,2.07-.81,4.79,1.16,6.21,2.06,1.49,4.89,1.41,7.23.78,2.53-.68,4.79-2.17,6.75-3.88,1.9-1.65,4.05-3.89,4.29-6.53.51-5.59-6.67-6.36-10.58-5.15Z" fill="#a4b0b7" mix-blend-mode="screen" opacity=".55"/><path d="M424.42,21.72c-5.71-5.63-14.99-2.7-20.96,1.66-3.17,1.33-6.01,3.41-8.18,6.23-2.01,2.63-3.07,6.17-1.72,9.33,1.24,2.9,4.12,4.9,7.06,5.79,6.97,2.09,14.33-.99,19.68-5.43,2.76-2.28,5.43-5.18,6.44-8.7.93-3.22.06-6.53-2.32-8.89Z" fill="#a4b0b7" mix-blend-mode="screen" opacity=".55"/><path d="M482.85,38.94c-.91-2.4-3.4-3.81-5.72-4.57-3.09-1.01-6.32-1.37-9.56-1.1-3.35.28-6.93,1.17-9.52,3.41-.26.22-.42.56-.49.92-.39.31-.77.63-1.11.99-1.8,1.91-2.35,4.72-.48,6.78,1.75,1.93,4.73,2.65,7.15,3.23,3.08.73,6.28.92,9.43.66,2.91-.24,5.95-.95,8.13-3.02,1.93-1.83,3.13-4.7,2.15-7.31Z" fill="#a4b0b7" mix-blend-mode="screen" opacity=".55"/><path d="M463.98,91.47l43.43-1.71-32.57,33.14h24.57l-32.57,40h13.33s-61.91,70.29-61.91,68.57,38.29-57.71,38.29-57.71h-23.43l33.14-41.14h-32.22l29.93-41.14Z" fill="#fcc331" stroke="#ad5a1f" stroke-miterlimit="10" stroke-width="8.33"/><path d="M455.85,109.8c4.48-6.16,8.97-12.31,13.35-18.53l-5.21.21-29.93,41.14h5.69c5.19-7.73,10.63-15.29,16.1-22.82Z" fill="#fcc331" mix-blend-mode="screen"/><path d="M435.58,173.76c.3-.33.59-.65.89-.98,7.23-7.94,14.65-15.75,21.57-23.95,2.94-3.48,14.13-15.06,17.11-16.83-3.09-.06-6.18.19-9.25.61h.37l-33.14,41.14h2.45Z" fill="#fcc331" mix-blend-mode="screen"/><path d="M421.98,227.92c1.4-1.91,2.79-3.82,4.19-5.72,3.71-5.04,33.5-47.47,36.46-50.16-3.11.41-6.19.96-9.23,1.72h3.16s-38.29,56-38.29,57.72c0,.25,1.38-1.09,3.71-3.56Z" fill="#fcc331" mix-blend-mode="screen"/><path d="M474.84,122.9l32.57-33.14-15.17.6c-1.42,1.7-27.31,34.6-28.39,36.04,7.36.5,14.76.56,22.14.76.55.01-25.9,30.72-32.88,38.6,5.22-.08,16.16,1.15,15.97,1.46-3.41,5.58-24.16,33.78-30.62,42.65,18.06-20.11,41.71-46.95,41.71-46.95h-13.33l32.57-40h-24.57Z" fill="#fcc331" mix-blend-mode="multiply"/></g></g></svg>