<?xml version="1.0" encoding="UTF-8"?><svg xmlns="http://www.w3.org/2000/svg" viewBox="0 0 539.2 569.39"><g isolation="isolate"><g id="a"><path d="M.74,194.51L224.15,52.05s1.36,10.64,11.57,16.77c28.11,16.87,204.36,181.65,202.74,182.48l-245.45,177.79L.74,194.51Z" fill="#7fac34" stroke="#000" stroke-miterlimit="10"/><path d="M307.13,507.03v61.27L.74,376.3v-181.78s47.24,5.1,60,57.19c.52,2.12,1.18,4.3,1.98,6.52,11.59,32.46,51.1,74.74,78.19,79.26,18.39,3.07,25.95,34.51,40.85,57.2,11.75,17.87,26.05,10.21,43.41,22.46,21.64,15.28,20.93,37.79,37.79,56.17,19.81,21.62,44.17,33.71,44.17,33.71Z" fill="#b69e7f" stroke="#000" stroke-miterlimit="10"/><polygon points="307.13 507.03 538.19 313.49 538.19 369.66 307.13 568.3 307.13 507.03" fill="#b69e7f" stroke="#000" stroke-miterlimit="10"/><polygon points="538.19 299.13 538.19 313.49 307.13 507.03 307.13 486.78 538.19 299.13" fill="#3b7684" stroke="#000" stroke-miterlimit="10"/><path d="M299.59,345.2l7.54,161.83s-24.36-12.09-44.17-33.71c-16.86-18.38-20.05-54.82-52.95-63.14l89.58-64.97Z" fill="#3b7684" stroke="#000" stroke-miterlimit="10"/><path d="M245.76,34.09c1.34-2.52,2.1-5.4,2.1-8.46,0-9.98-8.09-18.06-18.06-18.06-1.59,0-3.14.21-4.61.6-3.31-4.92-8.94-8.16-15.32-8.16-10.19,0-18.45,8.26-18.45,18.45,0,2.13.37,4.17,1.03,6.08-8.04,1.55-14.12,8.63-14.12,17.12,0,5.56,2.61,10.51,6.66,13.71-.17.97-.27,1.97-.27,2.99,0,9.35,7.58,16.92,16.92,16.92,2.77,0,5.38-.67,7.68-1.85,2.27,3.38,6.12,5.61,10.5,5.61,5.34,0,9.89-3.31,11.74-7.99,1.06.17,2.15.27,3.26.27,11.16,0,20.21-9.05,20.21-20.21,0-7.14-3.7-13.4-9.28-17Z" fill="#76ab35"/><path d="M247.76,27.48c-.1.21-.2.41-.3.61.07.05.14.1.21.14.04-.25.07-.5.09-.76Z" fill="#6e952a"/><path d="M254.97,49.45c-2.45,7.31-9.34,12.58-17.48,12.58-1.01,0-2-.09-2.97-.24-1.69,4.27-5.84,7.29-10.7,7.29-3.99,0-7.51-2.03-9.57-5.11-8.62,6.98-21.27-2.37-19.62-9.63-4.62-.66-8.08-7.41-8.08-12.76,0-8.17,5.84-14.98,13.58-16.47-.64-1.83-.99-3.8-.99-5.85,0-9.8,7.95-17.75,17.75-17.75.1,0,.19,0,.28,0-2.24-.97-4.71-1.51-7.3-1.51-10.19,0-18.45,8.26-18.45,18.45,0,2.13.37,4.17,1.03,6.08-8.04,1.55-14.12,8.63-14.12,17.12,0,5.56,2.61,10.51,6.66,13.71-.17.97-.27,1.97-.27,2.99,0,9.35,7.58,16.92,16.92,16.92.32,0,.64-.01.96-.03.11,0,.22-.02.34-.03.2-.02.4-.03.6-.05.14-.02.27-.03.41-.05.17-.02.34-.05.5-.08.15-.03.3-.05.45-.08.15-.03.29-.06.44-.09.16-.04.33-.07.49-.11.12-.03.24-.07.36-.1.18-.05.36-.1.54-.16.05-.01.09-.03.14-.05.85-.28,1.67-.61,2.45-1.01,2.27,3.38,6.12,5.61,10.5,5.61,5.34,0,9.89-3.31,11.74-7.99,1.06.17,2.15.27,3.26.27,11.16,0,20.21-9.05,20.21-20.21,0-.55-.03-1.1-.07-1.64Z" fill="#6e952a"/><path d="M234.1,7.07c1.17-1.07,3.08-.88,3.08-.88,0,0,.02,1.93-1.15,2.99-1.17,1.07-3.08.88-3.08.88,0,0-.02-1.93,1.15-2.99Z" fill="#76ab35"/><path d="M187.12,33.1c1.39-.76,3.21-.11,3.21-.11,0,0-.44,1.87-1.84,2.63-1.39.76-3.21.11-3.21.11,0,0,.44-1.87,1.84-2.63Z" fill="#76ab35"/><path d="M231.92,42.37c1.11-1.13,3.03-1.05,3.03-1.05,0,0,.13,1.92-.97,3.06-1.11,1.13-3.03,1.05-3.03,1.05,0,0-.13-1.92.97-3.06Z" fill="#76c535"/><path d="M228.61,19.91c.77,1.38.15,3.2.15,3.2,0,0-1.88-.42-2.65-1.8-.77-1.38-.15-3.2-.15-3.2,0,0,1.88.42,2.65,1.8Z" fill="#76c535"/><path d="M230.95,21.81c1.05-1.19,2.97-1.21,2.97-1.21,0,0,.23,1.91-.82,3.1-1.05,1.19-2.97,1.21-2.97,1.21,0,0-.23-1.91.82-3.1Z" fill="#76c535"/><path d="M194.52,75.31c-1.49.55-3.19-.36-3.19-.36,0,0,.71-1.79,2.2-2.34s3.19.36,3.19.36c0,0-.71,1.79-2.2,2.34Z" fill="#6e952a"/><path d="M195.89,60.07c-.06-1.58,1.32-2.92,1.32-2.92,0,0,1.49,1.22,1.55,2.81.06,1.58-1.32,2.92-1.32,2.92,0,0-1.49-1.22-1.55-2.81Z" fill="#6e952a"/><path d="M201.23,38.99c-.97-1.25-.63-3.14-.63-3.14,0,0,1.92.13,2.89,1.38s.63,3.14.63,3.14c0,0-1.92-.13-2.89-1.38Z" fill="#6e952a"/><path d="M201.97,44.1c-1.42.7-3.21-.02-3.21-.02,0,0,.52-1.85,1.94-2.56,1.42-.7,3.21.02,3.21.02,0,0-.52,1.85-1.94,2.56Z" fill="#6e952a"/><path d="M208.62,49.85c1.21-1.02,3.12-.76,3.12-.76,0,0-.05,1.92-1.26,2.95-1.21,1.02-3.12.76-3.12.76,0,0,.05-1.92,1.26-2.95Z" fill="#6e952a"/><path d="M245.75,59.24c-.32,1.55-1.98,2.52-1.98,2.52,0,0-1.15-1.55-.83-3.1.32-1.55,1.98-2.52,1.98-2.52,0,0,1.15,1.55.83,3.1Z" fill="#6e952a"/><path d="M251.93,42.49c-1.41-.72-1.91-2.58-1.91-2.58,0,0,1.79-.7,3.21.02s1.91,2.58,1.91,2.58c0,0-1.79.7-3.21-.02Z" fill="#76ab35"/><path d="M251.94,38.91c-.89,1.31-2.79,1.58-2.79,1.58,0,0-.47-1.87.42-3.18.89-1.31,2.79-1.58,2.79-1.58,0,0,.47,1.87-.42,3.18Z" fill="#76ab35"/><path d="M176.66,43.41c-.9-1.31-.44-3.18-.44-3.18,0,0,1.91.25,2.81,1.55s.44,3.18.44,3.18c0,0-1.91-.25-2.81-1.55Z" fill="#6e952a"/><path d="M179.96,48.11c-.92,1.29-2.83,1.51-2.83,1.51,0,0-.43-1.88.49-3.17.92-1.29,2.83-1.51,2.83-1.51,0,0,.43,1.88-.49,3.17Z" fill="#6e952a"/><polygon points="218.58 67.14 220.31 69.07 228.31 61.15 227.29 60.01 218.58 67.14" fill="#856034"/><polygon points="218.58 74.05 216.29 76.59 205.62 66.04 206.97 64.54 218.58 74.05" fill="#856034"/><polygon points="222.54 95.44 214.62 95.44 217.78 41.49 219.37 41.49 222.54 95.44" fill="#856034"/><polygon points="239.05 91.25 239.05 160.74 146.18 160.74 146.18 91.25 146.19 91.25 191.58 59.86 238.89 91.25 239.05 91.25" fill="#fff"/><polygon points="239.05 90.75 192.49 59.86 146.42 91.72 146.42 102.73 192.49 70.87 239.05 101.76 239.05 90.75" fill="#c6c6c5" mix-blend-mode="multiply"/><polygon points="192.49 65.6 246.68 101.55 257.75 97.89 192.49 54.59 129.89 97.89 140.51 101.55 192.49 65.6" fill="#8e4d3d"/><path d="M232.02,106.43h-28.76v54.31h28.76v-54.31ZM205.71,157.11v-47.05h23.87v47.05h-23.87Z" fill="#8e4d3d"/><path d="M232.02,106.43h-28.76v54.31h28.76v-54.31ZM204.24,158.46v-49.75h26.35v49.75h-26.35Z" fill="#5e5e5e" mix-blend-mode="multiply"/><rect x="205.71" y="110.06" width="23.87" height="47.05" fill="#5c3124"/><path d="M227.91,133.7c0,1.28-.97,2.31-2.17,2.31s-2.17-1.04-2.17-2.31.97-2.31,2.17-2.31,2.17,1.03,2.17,2.31Z" fill="#f8b133"/><rect x="152.28" y="104.11" width="38.8" height="38.59" fill="#552d20"/><rect x="155.2" y="107.01" width="32.97" height="32.78" fill="#341f0e"/><rect x="157.03" y="109.12" width="13.45" height="13.37" fill="#6ebdbf"/><rect x="172.9" y="109.12" width="13.45" height="13.37" fill="#6ebdbf"/><rect x="157.02" y="124.32" width="13.45" height="13.37" fill="#6ebdbf"/><rect x="172.89" y="124.32" width="13.45" height="13.37" fill="#6ebdbf"/><polygon points="157.03 110.09 170.47 115.81 170.47 116.35 157.03 110.71 157.03 110.09" fill="#afd2d3"/><polygon points="170.48 116.85 170.48 117.42 157.02 111.97 157.02 111.31 170.48 116.85" fill="#afd2d3"/><polygon points="157.02 112.45 170.48 117.97 170.48 118.51 157.03 113.08 157.02 112.45" fill="#afd2d3"/><polygon points="157.03 127.33 170.47 133.05 170.47 133.59 157.03 127.96 157.03 127.33" fill="#afd2d3"/><polygon points="170.48 134.09 170.48 134.66 157.02 129.21 157.02 128.56 170.48 134.09" fill="#afd2d3"/><polygon points="157.02 129.69 170.48 135.21 170.48 135.75 157.03 130.32 157.02 129.69" fill="#afd2d3"/><polygon points="172.9 126.79 186.34 132.51 186.34 133.05 172.9 127.42 172.9 126.79" fill="#afd2d3"/><polygon points="186.35 133.55 186.35 134.12 172.89 128.67 172.89 128.01 186.35 133.55" fill="#afd2d3"/><polygon points="172.89 129.15 186.35 134.67 186.35 135.21 172.9 129.78 172.89 129.15" fill="#afd2d3"/><polygon points="172.9 112.14 186.34 117.86 186.34 118.4 172.9 112.76 172.9 112.14" fill="#afd2d3"/><polygon points="186.35 118.9 186.35 119.46 172.89 114.02 172.89 113.36 186.35 118.9" fill="#afd2d3"/><polygon points="172.89 114.5 186.35 120.02 186.35 120.56 172.9 115.12 172.89 114.5" fill="#afd2d3"/><path d="M158.71,108.3c.2-.6.31-1.24.31-1.91,0-3.32-2.7-6.02-6.02-6.02-.49,0-.96.06-1.42.17-.51-5.22-4.91-9.31-10.27-9.31-3.71,0-6.95,1.97-8.77,4.91-1.43-.66-3.01-1.03-4.69-1.03-6.23,0-11.28,5.05-11.28,11.28,0,.08,0,.15.01.22-3.16.79-5.5,3.63-5.5,7.03,0,4.01,3.25,7.26,7.26,7.26.53,0,1.05-.06,1.54-.17,1.98,3.25,5.55,5.43,9.63,5.43.31,0,.61-.02.92-.05,2.07,2.5,5.2,4.1,8.7,4.1s6.79-1.69,8.86-4.31c1.66,1.14,3.66,1.8,5.83,1.8,5.7,0,10.32-4.62,10.32-10.32,0-3.93-2.2-7.34-5.43-9.09Z" fill="#76ab35"/><path d="M157.88,122.24c-1.84,0-3.54-.57-4.95-1.53-1.76,2.23-4.47,3.66-7.53,3.66s-5.63-1.35-7.39-3.48c-.26.02-.52.04-.78.04-3.47,0-6.5-1.85-8.18-4.61-.42.09-.86.14-1.31.14-3.41,0-6.17-2.76-6.17-6.17,0-2.89,1.99-5.31,4.67-5.98,0-.06,0-.13,0-.19,0-3.66,2.05-6.84,5.07-8.46-1.08-.35-2.24-.55-3.44-.55-6.23,0-11.28,5.05-11.28,11.28,0,.08,0,.15.01.22-3.16.79-5.5,3.63-5.5,7.03,0,4.01,3.25,7.26,7.26,7.26.53,0,1.05-.06,1.54-.17,1.98,3.25,5.55,5.43,9.63,5.43.31,0,.61-.02.92-.05,2.07,2.5,5.2,4.1,8.7,4.1s6.79-1.69,8.86-4.31c1.66,1.14,3.66,1.8,5.83,1.8,4.83,0,8.87-3.32,10-7.8-1.56,1.44-3.64,2.33-5.94,2.33Z" fill="#6e952a"/><path d="M143.2,75.14c0-4.3-3.48-7.78-7.78-7.78s-7.44,3.17-7.75,7.18c-1.16-1.55-3-2.56-5.09-2.56-3.51,0-6.36,2.85-6.36,6.36s2.85,6.36,6.36,6.36c.25,0,.49-.02.72-.04,0,.03,0,.06,0,.1,0,4.69,3.8,8.49,8.49,8.49,2.98,0,5.59-1.54,7.11-3.86,1.23.81,2.7,1.29,4.29,1.29,4.3,0,7.78-3.48,7.78-7.78s-3.48-7.78-7.78-7.78Z" fill="#76ab35"/><path d="M145.22,87.31c-1.39,0-2.67-.42-3.75-1.13-1.33,2.03-3.61,3.37-6.21,3.37-4.1,0-7.42-3.32-7.42-7.42,0-.03,0-.06,0-.09-.21.02-.42.04-.63.04-3.07,0-5.56-2.49-5.56-5.56,0-1.79.85-3.38,2.17-4.4-.4-.08-.81-.13-1.23-.13-3.51,0-6.36,2.85-6.36,6.36s2.85,6.36,6.36,6.36c.25,0,.49-.02.72-.04,0,.03,0,.06,0,.1,0,4.69,3.8,8.49,8.49,8.49,2.98,0,5.59-1.54,7.11-3.86,1.23.81,2.7,1.29,4.29,1.29,3.81,0,6.98-2.75,7.64-6.37-1.22,1.8-3.28,2.98-5.62,2.98Z" fill="#6e952a"/><path d="M132.09,39.95c-.45,0-.89.02-1.33.07-1.06-6.12-6.38-10.77-12.8-10.77s-11.28,4.26-12.64,9.99c-1.13-.69-2.45-1.1-3.87-1.1-4.09,0-7.41,3.32-7.41,7.41,0,.21.01.42.03.63-5.23,1.68-9.02,6.58-9.02,12.37,0,7.18,5.82,13,13,13,3.48,0,6.64-1.38,8.98-3.61,2.32,3.58,6.34,5.96,10.92,5.96,5.45,0,10.12-3.36,12.05-8.12.68.11,1.37.18,2.08.18,7.18,0,13-5.82,13-13s-5.82-13-13-13Z" fill="#76ab35"/><path d="M144.34,48.63c.04.4.07.81.07,1.22,0,6.06-4.91,10.97-10.97,10.97-.6,0-1.18-.06-1.75-.15-1.63,4.02-5.56,6.86-10.17,6.86-3.87,0-7.26-2.01-9.21-5.03-1.97,1.88-4.63,3.05-7.57,3.05-6.06,0-10.97-4.91-10.97-10.97,0-4.89,3.2-9.02,7.61-10.44-.01-.18-.03-.35-.03-.53,0-2.07,1.01-3.89,2.55-5.03-.76-.27-1.58-.43-2.44-.43-4.09,0-7.41,3.32-7.41,7.41,0,.21.01.42.03.63-5.23,1.68-9.02,6.58-9.02,12.37,0,7.18,5.82,13,13,13,3.48,0,6.64-1.38,8.98-3.61,2.32,3.58,6.34,5.96,10.92,5.96,5.45,0,10.12-3.36,12.05-8.12.68.11,1.37.18,2.08.18,7.18,0,13-5.82,13-13,0-1.52-.27-2.97-.75-4.32Z" fill="#6e952a"/><polygon points="115.83 137.81 118.28 139.59 137.62 111.77 136.17 110.73 115.83 137.81" fill="#856034"/><polygon points="115.83 97.18 117.92 98.69 134.44 74.93 133.21 74.04 115.83 97.18" fill="#856034"/><polygon points="117.97 72.58 116.42 73.7 104.18 56.11 105.1 55.45 117.97 72.58" fill="#856034"/><polygon points="120.81 183.54 113.12 183.54 116.19 47.9 117.74 47.9 120.81 183.54" fill="#856034"/><path d="M127.32,96.13c0-6.55-5.31-11.86-11.86-11.86-.65,0-1.28.07-1.9.17.07-.48.12-.96.12-1.45,0-5.38-4.36-9.74-9.74-9.74-2.48,0-4.73.93-6.45,2.46-2.37-3.22-6.17-5.33-10.48-5.33-6.38,0-11.67,4.59-12.78,10.65-4.11.27-7.36,3.68-7.36,7.86,0,1.46.4,2.82,1.09,3.99-4.9,3.69-5.97,10.64-2.36,15.63,3.66,5.05,10.72,6.19,15.77,2.53.05-.03.09-.07.13-.11,2.41,4.55,7.18,7.65,12.69,7.65,4.89,0,9.21-2.45,11.8-6.19,1.25.64,2.66,1,4.16,1,3.9,0,7.22-2.44,8.55-5.87,4.97-1.41,8.61-5.98,8.61-11.4Z" fill="#76ab35"/><path d="M127.15,94.18c-.72,4.05-3.71,7.32-7.61,8.43-1.2,3.1-4.2,5.3-7.72,5.3-1.35,0-2.63-.33-3.76-.91-2.34,3.38-6.24,5.59-10.66,5.59-4.97,0-9.29-2.8-11.46-6.91-.04.03-.08.07-.12.1-4.57,3.3-10.95,2.28-14.25-2.29-3.26-4.51-2.3-10.79,2.13-14.13-.62-1.06-.99-2.29-.99-3.6,0-3.77,2.94-6.85,6.65-7.1.64-3.51,2.85-6.47,5.87-8.15-5.55.77-9.98,5.04-10.98,10.51-4.11.27-7.36,3.68-7.36,7.86,0,1.46.4,2.82,1.09,3.99-4.9,3.69-5.97,10.64-2.36,15.63,3.66,5.05,10.72,6.19,15.77,2.53.05-.03.09-.07.13-.11,2.41,4.55,7.18,7.65,12.69,7.65,4.89,0,9.21-2.45,11.8-6.19,1.25.64,2.66,1,4.16,1,3.9,0,7.22-2.44,8.55-5.87,4.97-1.41,8.61-5.98,8.61-11.4,0-.67-.07-1.31-.17-1.95Z" fill="#6e952a"/><polygon points="117.08 119.64 114.91 121.21 97.8 96.6 99.08 95.67 117.08 119.64" fill="#856034"/><path d="M134.57,40.71c.55-2.08,2.89-3.27,2.89-3.27,0,0,1.44,2.19.89,4.27-.55,2.08-2.89,3.27-2.89,3.27,0,0-1.44-2.19-.89-4.27Z" fill="#76ab35"/><path d="M92.02,54.84c1.3-1.72,3.91-1.93,3.91-1.93,0,0,.5,2.57-.8,4.29-1.3,1.72-3.91,1.93-3.91,1.93,0,0-.5-2.57.8-4.29Z" fill="#76ab35"/><path d="M137.01,80.83c1.3-1.72,3.91-1.93,3.91-1.93,0,0,.5,2.57-.8,4.29-1.3,1.72-3.91,1.93-3.91,1.93,0,0-.5-2.57.8-4.29Z" fill="#76c535"/><path d="M122.52,40.43c1.05,1.88.2,4.36.2,4.36,0,0-2.56-.57-3.61-2.45-1.05-1.88-.2-4.36-.2-4.36,0,0,2.56.57,3.61,2.46Z" fill="#76c535"/><path d="M146.05,105.55c1.88,1.05,2.46,3.61,2.46,3.61,0,0-2.48.85-4.36-.2-1.88-1.05-2.46-3.61-2.46-3.61,0,0,2.48-.85,4.36.2Z" fill="#76c535"/><path d="M129.5,49.87c1.88,1.05,2.46,3.61,2.46,3.61,0,0-2.48.85-4.36-.2-1.88-1.05-2.46-3.61-2.46-3.61,0,0,2.48-.85,4.36.2Z" fill="#76c535"/><path d="M144.31,122.99c-1.96.89-4.36-.16-4.36-.16,0,0,.78-2.5,2.75-3.39s4.36.16,4.36.16c0,0-.78,2.5-2.75,3.39Z" fill="#6e952a"/><path d="M82.56,94.19c-2-.8-2.89-3.27-2.89-3.27,0,0,2.35-1.16,4.35-.35,2,.8,2.89,3.27,2.89,3.27,0,0-2.35,1.16-4.35.35Z" fill="#6e952a"/><path d="M161.14,113.4c-1.92-.97-2.6-3.5-2.6-3.5,0,0,2.44-.95,4.36.02,1.92.97,2.6,3.5,2.6,3.5,0,0-2.44.95-4.36-.02Z" fill="#76ab35"/><path d="M159.32,103.17c-1.21,1.79-3.8,2.14-3.8,2.14,0,0-.64-2.54.57-4.33s3.8-2.14,3.8-2.14c0,0,.64,2.54-.57,4.33Z" fill="#76ab35"/><path d="M65.85,86.33c-1.22-1.78-.6-4.32-.6-4.32,0,0,2.6.33,3.82,2.11s.6,4.32.6,4.32c0,0-2.6-.33-3.82-2.11Z" fill="#6e952a"/><path d="M82.48,113.79c-1.25,1.76-3.85,2.05-3.85,2.05,0,0-.58-2.55.67-4.31,1.25-1.76,3.85-2.05,3.85-2.05,0,0,.58,2.55-.67,4.31Z" fill="#6e952a"/><path d="M108.2,90.65c-1.32,1.7-3.93,1.89-3.93,1.89,0,0-.47-2.58.85-4.28,1.32-1.7,3.93-1.89,3.93-1.89,0,0,.47,2.58-.85,4.28Z" fill="#6e952a"/><path d="M87.01,87.98c.51-2.09,2.82-3.33,2.82-3.33,0,0,1.48,2.16.97,4.25-.51,2.09-2.82,3.33-2.82,3.33,0,0-1.48-2.16-.97-4.25Z" fill="#6e952a"/><path d="M538.19,299.13l-231.06,187.65s-8.66-13.07-13.4-14.25c-11.18-2.77-14.89-21.57-22.77-24.21-10.2-3.41-14.63-25.2-26.7-28.39-6.87-1.82-19.47-20.7-19.47-20.7,0,0,27.21-26.74,38.87-30.36s30.81-25.06,43.37-29.03c13.43-4.24,33.06-29.36,45.67-32.99s29.49-26.04,43.09-31.12c11.32-4.22,39.19-28.31,39.19-28.31,0,0,14.19,5.12,17.45,8.74,6.12,6.79,22.74,8.44,28.2,14.13,6.51,6.77,28.26,9.64,34.2,17.13,3.97,5.01,23.36,11.7,23.36,11.7Z" fill="#00b1e0" stroke="#000" stroke-miterlimit="10"/><polygon points="226.35 240.99 226.35 310.48 133.48 310.48 133.48 240.99 133.49 240.99 178.87 209.6 226.19 240.99 226.35 240.99" fill="#fff"/><polygon points="226.35 240.49 179.79 209.6 133.72 241.46 133.72 252.48 179.79 220.61 226.35 251.51 226.35 240.49" fill="#c6c6c5" mix-blend-mode="multiply"/><polygon points="179.79 215.34 233.98 251.29 245.05 247.63 179.79 204.33 117.19 247.63 127.81 251.29 179.79 215.34" fill="#8e4d3d"/><path d="M219.32,256.17h-28.76v54.31h28.76v-54.31ZM193.01,306.85v-47.05h23.87v47.05h-23.87Z" fill="#8e4d3d"/><path d="M219.32,256.17h-28.76v54.31h28.76v-54.31ZM191.54,308.2v-49.75h26.35v49.75h-26.35Z" fill="#5e5e5e" mix-blend-mode="multiply"/><rect x="193.01" y="259.8" width="23.87" height="47.05" fill="#5c3124"/><path d="M215.21,283.44c0,1.28-.97,2.31-2.17,2.31s-2.17-1.04-2.17-2.31.97-2.31,2.17-2.31,2.17,1.03,2.17,2.31Z" fill="#f8b133"/><rect x="139.58" y="253.85" width="38.8" height="38.59" fill="#552d20"/><rect x="142.5" y="256.76" width="32.97" height="32.78" fill="#341f0e"/><rect x="144.33" y="258.86" width="13.45" height="13.37" fill="#6ebdbf"/><rect x="160.19" y="258.86" width="13.45" height="13.37" fill="#6ebdbf"/><rect x="144.32" y="274.06" width="13.45" height="13.37" fill="#6ebdbf"/><rect x="160.19" y="274.06" width="13.45" height="13.37" fill="#6ebdbf"/><polygon points="144.33 259.83 157.77 265.55 157.77 266.09 144.33 260.46 144.33 259.83" fill="#afd2d3"/><polygon points="157.78 266.59 157.78 267.16 144.32 261.71 144.32 261.05 157.78 266.59" fill="#afd2d3"/><polygon points="144.32 262.19 157.78 267.71 157.78 268.25 144.33 262.82 144.32 262.19" fill="#afd2d3"/><polygon points="144.33 277.07 157.77 282.79 157.77 283.33 144.33 277.7 144.33 277.07" fill="#afd2d3"/><polygon points="157.78 283.83 157.78 284.4 144.32 278.95 144.32 278.3 157.78 283.83" fill="#afd2d3"/><polygon points="144.32 279.44 157.78 284.96 157.78 285.5 144.33 280.06 144.32 279.44" fill="#afd2d3"/><polygon points="160.2 276.53 173.64 282.25 173.64 282.79 160.2 277.16 160.2 276.53" fill="#afd2d3"/><polygon points="173.65 283.29 173.65 283.86 160.19 278.41 160.19 277.76 173.65 283.29" fill="#afd2d3"/><polygon points="160.19 278.9 173.65 284.41 173.65 284.96 160.2 279.52 160.19 278.9" fill="#afd2d3"/><polygon points="160.2 261.88 173.64 267.6 173.64 268.14 160.2 262.5 160.2 261.88" fill="#afd2d3"/><polygon points="173.65 268.64 173.65 269.21 160.19 263.76 160.19 263.1 173.65 268.64" fill="#afd2d3"/><polygon points="160.19 264.24 173.65 269.76 173.65 270.3 160.2 264.87 160.19 264.24" fill="#afd2d3"/><polygon points="382.34 180.43 382.34 249.92 289.46 249.92 289.46 180.43 289.47 180.43 334.86 149.04 382.18 180.43 382.34 180.43" fill="#fff"/><polygon points="382.34 179.93 335.77 149.04 289.7 180.9 289.7 191.92 335.77 160.05 382.34 190.95 382.34 179.93" fill="#c6c6c5" mix-blend-mode="multiply"/><polygon points="335.77 154.78 389.97 190.73 401.04 187.07 335.77 143.77 273.17 187.07 283.79 190.73 335.77 154.78" fill="#8e4d3d"/><path d="M375.31,195.61h-28.76v54.31h28.76v-54.31ZM348.99,246.29v-47.05h23.87v47.05h-23.87Z" fill="#8e4d3d"/><path d="M375.31,195.61h-28.76v54.31h28.76v-54.31ZM347.52,247.64v-49.75h26.35v49.75h-26.35Z" fill="#5e5e5e" mix-blend-mode="multiply"/><rect x="348.99" y="199.24" width="23.87" height="47.05" fill="#5c3124"/><path d="M371.19,222.88c0,1.28-.97,2.31-2.17,2.31s-2.17-1.04-2.17-2.31.97-2.31,2.17-2.31,2.17,1.03,2.17,2.31Z" fill="#f8b133"/><rect x="295.56" y="193.29" width="38.8" height="38.59" fill="#552d20"/><rect x="298.48" y="196.2" width="32.97" height="32.78" fill="#341f0e"/><rect x="300.31" y="198.3" width="13.45" height="13.37" fill="#6ebdbf"/><rect x="316.18" y="198.3" width="13.45" height="13.37" fill="#6ebdbf"/><rect x="300.31" y="213.5" width="13.45" height="13.37" fill="#6ebdbf"/><rect x="316.17" y="213.5" width="13.45" height="13.37" fill="#6ebdbf"/><polygon points="300.31 199.27 313.76 204.99 313.76 205.53 300.31 199.9 300.31 199.27" fill="#afd2d3"/><polygon points="313.76 206.03 313.76 206.6 300.31 201.15 300.31 200.49 313.76 206.03" fill="#afd2d3"/><polygon points="300.31 201.63 313.76 207.15 313.76 207.69 300.31 202.26 300.31 201.63" fill="#afd2d3"/><polygon points="300.31 216.51 313.76 222.23 313.76 222.77 300.31 217.14 300.31 216.51" fill="#afd2d3"/><polygon points="313.76 223.27 313.76 223.84 300.31 218.39 300.31 217.74 313.76 223.27" fill="#afd2d3"/><polygon points="300.31 218.88 313.76 224.4 313.76 224.94 300.31 219.5 300.31 218.88" fill="#afd2d3"/><polygon points="316.18 215.97 329.63 221.69 329.63 222.23 316.18 216.6 316.18 215.97" fill="#afd2d3"/><polygon points="329.63 222.73 329.63 223.3 316.18 217.85 316.18 217.2 329.63 222.73" fill="#afd2d3"/><polygon points="316.18 218.34 329.63 223.85 329.63 224.4 316.18 218.96 316.18 218.34" fill="#afd2d3"/><polygon points="316.18 201.32 329.63 207.04 329.63 207.58 316.18 201.94 316.18 201.32" fill="#afd2d3"/><polygon points="329.63 208.08 329.63 208.65 316.18 203.2 316.18 202.54 329.63 208.08" fill="#afd2d3"/><polygon points="316.18 203.68 329.63 209.2 329.63 209.74 316.18 204.31 316.18 203.68" fill="#afd2d3"/></g></g></svg>