<?xml version="1.0" encoding="UTF-8"?><svg xmlns="http://www.w3.org/2000/svg" viewBox="0 0 793.23 762.04"><defs><style>.b{fill:#4ac4d5;}.c{fill:#5c3124;}.d{fill:#5e5e5e;}.d,.e,.f,.g,.h,.i,.j{mix-blend-mode:multiply;}.k{fill:#6ebdbf;}.l{fill:#799331;}.m{fill:#eaf3fa;}.n,.g{fill:#b7e4ea;}.e,.o{fill:#c6c6c5;}.p{fill:#0097a9;}.q{isolation:isolate;}.f{fill:#b1b1b1;}.r{fill:#a2d7e4;}.s{fill:#f7edd4;}.s,.t{mix-blend-mode:soft-light;}.u{fill:#341f0e;}.i{fill:#ececec;}.v{fill:#00b0c2;}.j{fill:#d9d9d9;}.t{fill:#fff;}.w{fill:#f8b133;}.x{fill:#afd2d3;}.y{fill:#552d20;}.z{fill:#8e4d3d;}</style></defs><g class="q"><g id="a"><ellipse class="m" cx="333.4" cy="387.97" rx="258.13" ry="278.57"/><rect class="r" x="311.59" y="447.82" width="364.07" height="293.96"/><polygon class="r" points="311.63 447.82 675.03 447.82 489.55 315.03 311.63 447.82"/><path class="s" d="M534.33,379.86c-10.05,7.97-19.17,16.61-27.51,25.71-15.24,16.63-29.71,34.11-39.61,53.12-14.63,28.11-22.7,59.69-16.59,90,6.14,30.5,25.96,58.71,58.1,77.11,32.94,18.85,70.98,25.38,111.21,25.67,19.54.15,37.94-2.09,55.1-9v-175.36h-.51l-132-94.5c-3.12,2.59-5.89,5.42-8.2,7.25Z"/><path class="i" d="M628.75,688.42c-45.98,2.71-95.12-1.72-136.7-18.01-42.31-16.58-76.5-43.66-95.52-77.71-18.77-33.61-21.11-71.93-12.62-107.69,9.03-38,29.57-72.41,56.82-104.4,15-17.61,31.77-33.28,49.59-49.1,2.97-2.64,6.34-5.75,10.06-8.7l-10.84-7.77-177.92,132.79h-.04v293.96h364.07v-63.29c-14.51,5.38-30.11,8.94-46.91,9.93Z"/><rect class="v" x="311.59" y="712.98" width="364.07" height="28.8"/><polygon class="e" points="675.67 445.72 493.12 315.03 312.54 449.82 312.54 496.4 493.12 361.61 675.67 492.3 675.67 445.72"/><polygon class="z" points="493.12 339.31 705.56 491.4 748.97 475.89 493.12 292.73 247.73 475.89 289.36 491.4 493.12 339.31"/><polygon class="f" points="269.16 483.28 492.62 316.48 725.59 483.28 748.07 475.25 493.12 292.73 248.26 475.49 269.16 483.28"/><path class="z" d="M648.1,512.05h-112.73v229.73h112.73v-229.73ZM544.94,726.44v-199.04h93.59v199.04h-93.59Z"/><path class="d" d="M648.1,512.05h-112.73v229.73h112.73v-229.73ZM539.18,732.15v-210.47h103.28v210.47h-103.28Z"/><rect class="c" x="544.94" y="527.39" width="93.59" height="199.04"/><path class="j" d="M562.56,644.63c2.83-29.45,10.84-62.57,28.2-81.13,9.52-10.17,20.95-16.62,32.69-19.45,4.96-1.2,10.03-2.18,15.07-2.48v-14.18h-93.59v199.04h29.12c-11.61-23.39-14.17-54.02-11.5-81.81Z"/><path class="w" d="M631.97,627.39c0,5.4-3.81,9.78-8.51,9.78s-8.51-4.38-8.51-9.78,3.81-9.78,8.51-9.78,8.51,4.38,8.51,9.78Z"/><rect class="y" x="335.51" y="502.24" width="152.11" height="163.23"/><rect class="u" x="346.95" y="514.51" width="129.22" height="138.68"/><rect class="k" x="354.12" y="523.42" width="52.72" height="56.57"/><rect class="k" x="416.32" y="523.42" width="52.72" height="56.57"/><rect class="k" x="354.1" y="587.7" width="52.72" height="56.58"/><rect class="k" x="416.3" y="587.7" width="52.72" height="56.58"/><polygon class="x" points="354.12 527.52 406.82 551.71 406.82 554 354.12 530.16 354.12 527.52"/><polygon class="x" points="406.84 556.11 406.84 558.51 354.1 535.46 354.1 532.69 406.84 556.11"/><polygon class="x" points="354.1 537.51 406.84 560.86 406.84 563.15 354.12 540.15 354.1 537.51"/><polygon class="x" points="354.12 600.46 406.82 624.66 406.82 626.95 354.12 603.11 354.12 600.46"/><polygon class="x" points="406.84 629.05 406.84 631.46 354.1 608.4 354.1 605.64 406.84 629.05"/><polygon class="x" points="354.1 610.46 406.84 633.81 406.84 636.09 354.12 613.1 354.1 610.46"/><polygon class="x" points="416.34 598.17 469.03 622.37 469.03 624.66 416.34 600.82 416.34 598.17"/><polygon class="x" points="469.06 626.77 469.06 629.17 416.31 606.12 416.31 603.35 469.06 626.77"/><polygon class="x" points="416.31 608.17 469.06 631.52 469.06 633.81 416.34 610.81 416.31 608.17"/><polygon class="x" points="416.34 536.18 469.03 560.38 469.03 562.67 416.34 538.83 416.34 536.18"/><polygon class="x" points="469.06 564.77 469.06 567.18 416.31 544.13 416.31 541.36 469.06 564.77"/><polygon class="x" points="416.31 546.18 469.06 569.52 469.06 571.81 416.34 548.82 416.31 546.18"/><path class="l" d="M240.46,750.36c.51,1.6,4.4,11.68,21.17,11.68h0c2.23,0,4.64-.18,7.14-.54.35-.05.72-.08,1.07-.08h139.03c5.06,0,12.09-2.79,17.09-6.78,6.63-5.29,7.02-14.84,4.47-21.96-2.94-8.21-9.62-14.16-15.89-14.16-1.73,0-3.47.44-5.17,1.32-.48.25-1,.61-1.61,1.13-2.87,3.37-5.74,5.7-7.69,7.08-.62.46-1.39.97-2.15,1.4-.05.03-.11.06-.16.09-3.98,2.15-8.82.44-10.86-3.83-2.03-4.28-.51-9.52,3.42-11.77.06-.04.36-.23.8-.53.79-.59,1.85-1.65,2.96-2.77.74-.75,1.5-1.52,2.34-2.31,6.49-8.22,6.62-18.61.4-30.93h0s-7.55-13.84-18.97-13.84c-2.49,0-5.12.66-7.8,1.95-2.34,1.13-5.05,1-7.29-.36-2.24-1.36-3.75-3.78-4.08-6.53-.34-2.63-4-26.04-25.61-26.04-.17,0-.37,0-.54-.02-.04,0-.28,0-.65,0-8.51,0-28.34,3.09-28.64,31.65-.03,2.84-1.33,5.49-3.49,7.11-2.15,1.62-4.91,2.01-7.39,1.05h0s-3.66-1.33-8.6-1.33c-9.25,0-16.53,4.52-21.65,13.42-1.08,2.22-5.57,13.59,8.4,24.93,2.83,2.3,3.96,6.31,2.78,9.93-1.17,3.61-4.34,5.97-7.93,5.85h-.42c-6.55,0-18.89,1.84-23.66,8.75-2.6,3.78-2.89,9.12-.88,16.33,0,.03.01.04.02.06,0,.01,0,.02,0,.02.01.03,0,0,.01.04Z"/><g class="h"><path class="o" d="M427.98,751.48h-113.99c-.3,0-.59.02-.89.07-2.05.29-4.02.44-5.86.44h0c-13.75,0-16.94-8.27-17.36-9.58,0-.03,0,0-.01-.03,0,0,0-.01,0-.02,0,0,0-.02-.01-.05-1.65-5.92-1.41-10.3.72-13.39,3.91-5.66,14.03-7.18,19.4-7.18h.33c2.94.1,5.54-1.84,6.51-4.8.96-2.96.04-6.25-2.28-8.14-11.46-9.3-7.78-18.63-6.89-20.44,4.2-7.31,10.17-11.01,17.75-11.01,4.05,0,7.05,1.09,7.05,1.09,2.04.79,4.3.47,6.06-.86,1.77-1.33,2.84-3.5,2.86-5.83.16-15.35,7.19-21.7,13.99-24.27-3.32-7.11-9.8-14.91-22.28-14.91-.17,0-.37,0-.54-.02-.04,0-.28,0-.65,0-8.51,0-28.34,3.09-28.64,31.65-.03,2.84-1.33,5.49-3.49,7.11-2.15,1.62-4.91,2.01-7.39,1.05,0,0-3.66-1.33-8.6-1.33-9.25,0-16.53,4.52-21.65,13.42-1.08,2.22-5.57,13.59,8.4,24.93,2.83,2.3,3.96,6.31,2.78,9.93-1.17,3.61-4.34,5.97-7.93,5.85h-.42c-6.55,0-18.89,1.84-23.66,8.75-2.6,3.78-2.89,9.12-.88,16.33,0,.03.01.04.02.06,0,.01,0,.02,0,.02.01.03,0,0,.01.04.51,1.6,4.4,11.68,21.17,11.68h0c2.23,0,4.64-.18,7.14-.54.35-.05.72-.08,1.07-.08h139.03c5.06,0,12.09-2.79,17.09-6.78,1.17-.94,2.09-2.04,2.89-3.22-.3.02-.6.06-.89.06Z"/></g><path class="e" d="M362.78,665.14s-1.31,1.91-3.27,4.77c-.43.73-.95,1.45-1.41,2.27-.5.79-.96,1.64-1.43,2.51-.51.84-.84,1.81-1.33,2.69-.29.97-.83,1.86-1.02,2.85l-.45,1.44-.28,1.46c-.25.96-.29,1.94-.38,2.89-.17.96-.01,1.9-.04,2.82-.05.93.1,1.79.19,2.63.13.81.08,1.64.28,2.31.15.68.25,1.31.34,1.82.16,1.04.23,1.7.23,1.7,0,0-.43-.4-1.14-1.17-.34-.4-.78-.88-1.23-1.47-.51-.56-.84-1.34-1.29-2.17-.42-.84-.95-1.75-1.19-2.84-.26-1.07-.69-2.21-.72-3.46-.1-1.24-.22-2.55,0-3.85.09-.65.12-1.33.27-1.98l.53-1.92c.33-1.3.98-2.42,1.5-3.6.67-1.05,1.27-2.16,2.03-3.02.72-.92,1.48-1.74,2.26-2.43.74-.74,1.56-1.27,2.27-1.8,2.94-2.03,5.28-2.44,5.28-2.44Z"/><path class="e" d="M385.9,716.14s-2.2,0-5.5-.01c-.8.06-1.64.04-2.53.12-.88.03-1.79.13-2.72.25-.94.05-1.85.33-2.8.44-.89.32-1.88.38-2.73.79l-1.34.47-1.26.62c-.87.35-1.61.9-2.38,1.39-.82.42-1.42,1.11-2.13,1.63-.72.5-1.28,1.15-1.85,1.72-.53.6-1.17,1.05-1.56,1.62-.41.53-.83.98-1.16,1.37-.69.76-1.13,1.2-1.13,1.2,0,0,.04-.61.2-1.69.09-.53.19-1.2.37-1.94.11-.78.5-1.53.86-2.41.37-.87.74-1.86,1.41-2.71.65-.87,1.24-1.92,2.16-2.68.87-.83,1.77-1.71,2.88-2.29.54-.31,1.06-.68,1.63-.94l1.74-.68c1.16-.48,2.39-.58,3.57-.82,1.18-.05,2.36-.18,3.46-.02,1.12.08,2.17.26,3.15.53.98.2,1.87.6,2.69.9,3.25,1.35,4.94,3.15,4.95,3.15Z"/><path class="l" d="M601.79,750.36c.51,1.6,4.4,11.68,21.17,11.68h.01c2.23,0,4.64-.18,7.14-.54.35-.05.72-.08,1.08-.08h139.03c5.06,0,12.09-2.79,17.09-6.78,6.63-5.29,7.02-14.84,4.47-21.96-2.94-8.21-9.62-14.16-15.89-14.16-1.72,0-3.46.44-5.16,1.32-.48.25-1,.61-1.61,1.13-2.87,3.37-5.74,5.7-7.69,7.08-.62.46-1.39.97-2.15,1.4-.05.03-.11.06-.16.09-3.98,2.15-8.82.44-10.86-3.83-2.04-4.28-.51-9.52,3.42-11.77.07-.04.36-.23.8-.53.79-.59,1.84-1.65,2.96-2.77.74-.75,1.5-1.52,2.34-2.31,6.49-8.22,6.63-18.61.4-30.93h0s-7.55-13.84-18.96-13.84c-2.49,0-5.12.66-7.81,1.95-2.34,1.13-5.05,1-7.29-.36-2.24-1.36-3.75-3.78-4.08-6.53-.34-2.63-3.99-26.04-25.61-26.04-.17,0-.37,0-.54-.02-.04,0-.28,0-.65,0-8.51,0-28.34,3.09-28.64,31.65-.03,2.84-1.33,5.49-3.49,7.11-2.15,1.62-4.91,2.01-7.39,1.05h0s-3.67-1.33-8.6-1.33c-9.25,0-16.53,4.52-21.65,13.42-1.08,2.22-5.57,13.59,8.4,24.93,2.83,2.3,3.96,6.31,2.78,9.93-1.17,3.61-4.34,5.97-7.93,5.85h-.41c-6.55,0-18.89,1.84-23.66,8.75-2.6,3.78-2.89,9.12-.88,16.33,0,.03.01.04.02.06v.02s0,0,.02.04Z"/><g class="h"><path class="o" d="M789.32,751.48h-114c-.3,0-.59.02-.88.07-2.05.29-4.02.44-5.86.44h0c-13.75,0-16.94-8.27-17.36-9.58,0-.03,0,0,0-.03,0,0,0-.01,0-.02,0,0-.01-.02-.01-.05-1.65-5.92-1.41-10.3.72-13.39,3.91-5.66,14.03-7.18,19.4-7.18h.34c2.94.1,5.54-1.84,6.51-4.8.96-2.96.04-6.25-2.28-8.14-11.46-9.3-7.78-18.63-6.89-20.44,4.2-7.31,10.17-11.01,17.75-11.01,4.05,0,7.05,1.09,7.05,1.09,2.03.79,4.29.47,6.06-.86,1.77-1.33,2.83-3.5,2.86-5.83.16-15.35,7.19-21.7,13.99-24.27-3.32-7.11-9.8-14.91-22.28-14.91-.17,0-.37,0-.54-.02-.04,0-.28,0-.65,0-8.51,0-28.34,3.09-28.64,31.65-.03,2.84-1.33,5.49-3.49,7.11-2.15,1.62-4.91,2.01-7.39,1.05,0,0-3.67-1.33-8.6-1.33-9.25,0-16.53,4.52-21.65,13.42-1.08,2.22-5.57,13.59,8.4,24.93,2.83,2.3,3.96,6.31,2.78,9.93-1.17,3.61-4.34,5.97-7.93,5.85h-.41c-6.55,0-18.89,1.84-23.66,8.75-2.6,3.78-2.89,9.12-.88,16.33,0,.03.01.04.02.06v.02s0,0,.02.04c.51,1.6,4.4,11.68,21.17,11.68h.01c2.23,0,4.64-.18,7.14-.54.35-.05.72-.08,1.08-.08h139.03c5.06,0,12.09-2.79,17.09-6.78,1.18-.94,2.09-2.04,2.9-3.22-.3.02-.6.06-.89.06Z"/></g><path class="e" d="M724.11,665.14s-1.31,1.91-3.27,4.77c-.43.73-.95,1.45-1.4,2.27-.5.79-.96,1.64-1.43,2.51-.52.84-.85,1.81-1.33,2.69-.29.97-.82,1.86-1.02,2.85l-.44,1.44-.28,1.46c-.25.96-.28,1.94-.38,2.89-.17.96-.01,1.9-.05,2.82-.05.93.1,1.79.19,2.63.13.81.09,1.64.28,2.31.15.68.25,1.31.34,1.82.16,1.04.23,1.7.23,1.7,0,0-.43-.4-1.14-1.17-.34-.4-.78-.88-1.23-1.47-.51-.56-.84-1.34-1.29-2.17-.43-.84-.95-1.75-1.19-2.84-.26-1.07-.69-2.21-.71-3.46-.1-1.24-.22-2.55,0-3.85.08-.65.12-1.33.27-1.98l.53-1.92c.33-1.3.98-2.42,1.5-3.6.67-1.05,1.26-2.16,2.03-3.02.72-.92,1.48-1.74,2.26-2.43.73-.74,1.56-1.27,2.27-1.8,2.93-2.03,5.28-2.44,5.28-2.44Z"/><path class="e" d="M747.23,716.14s-2.19,0-5.49-.01c-.8.06-1.64.04-2.53.12-.88.03-1.79.13-2.72.25-.94.05-1.85.33-2.8.44-.89.32-1.88.38-2.73.79l-1.34.47-1.26.62c-.87.35-1.61.9-2.38,1.39-.82.42-1.42,1.11-2.13,1.63-.72.5-1.28,1.15-1.85,1.72-.52.6-1.17,1.05-1.56,1.62-.41.53-.82.98-1.16,1.37-.68.76-1.13,1.2-1.13,1.2,0,0,.04-.61.21-1.69.09-.53.19-1.2.37-1.94.11-.78.5-1.53.86-2.41.37-.87.74-1.86,1.41-2.71.64-.87,1.24-1.92,2.16-2.68.86-.83,1.77-1.71,2.88-2.29.53-.31,1.06-.68,1.63-.94l1.75-.68c1.16-.48,2.39-.58,3.57-.82,1.18-.05,2.36-.18,3.46-.02,1.12.08,2.17.26,3.15.53.98.2,1.87.6,2.69.9,3.25,1.35,4.95,3.15,4.95,3.15Z"/><path class="p" d="M3.14,154.77c5.31,12.47,16.37,21.45,28.5,25.61,12.14,4.18,25.25,3.98,37.8,1.68-3.41,6.28-2.24,15.05,2.66,20.05,4.92,4.99,13.74,6.3,19.36,2.27.31,8,4.27,15.5,9.73,20.93,5.45,5.44,12.29,9.01,19.29,11.66,14.6,5.53,30.72,7.35,45.64,2.89,14.91-4.46,28.39-15.74,34.3-31.16,4.44,4.2,10.43,6.43,16.32,6.06,5.89-.37,11.25-3.19,15.2-7.92,10.91,12.95,27.66,19.9,43.8,18.15s31.26-12.14,39.58-27.16c2.22,1.92,6.15.31,6.62-2.71,11.92,7.3,26.86,8.79,39.66,3.52,12.79-5.25,23.12-17.32,26.53-31.64,3.4-14.32-.38-30.5-10.01-41.04-2.37-2.6-5.12-4.88-8.13-6.74-9.13-5.75-20.52-7.83-30.34-4.4.72-3.35-1.01-6.98-3.71-8.86-2.7-1.88-6.13-2.17-9.27-1.46-3.12.74-5.99,2.38-8.72,4.18,2.48-14.1-3.48-29.5-14.53-37.52-11.05-8-26.4-9.1-37.55-1.27,2.34-6.08.02-13.78-5.16-17.25-5.19-3.45-12.62-2.23-16.6,2.75.48-17.8-7.38-35.77-20.8-46.08-13.44-10.34-32.13-12.38-46.92-4.53-14.8,7.83-24.83,25.5-23.92,43.26-4.42-1.75-11-2.14-15.26.04-4.25,2.16-7.39,6.17-8.96,10.96-4.75-11.72-13.83-21.58-25.12-25.48-11.27-3.89-24.59-1.23-33.02,7.74-8.42,8.97-10.93,24.21-4.87,35.19-6.23-1.53-13.18,1.18-17.09,6.65-3.89,5.45-4.54,13.4-1.59,19.51-11.39.77-23.68,2.06-33,8.55-2.07,1.4-3.98,3.1-5.7,5.07-8.73,9.99-10.06,26-4.75,38.49Z"/><path class="g" d="M3.14,154.77c5.31,12.47,16.37,21.45,28.5,25.61,12.14,4.18,25.25,3.98,37.8,1.68-3.41,6.28-2.24,15.05,2.66,20.05,4.92,4.99,13.74,6.3,19.36,2.27.31,8,4.27,15.5,9.73,20.93,5.45,5.44,12.29,9.01,19.29,11.66,14.6,5.53,30.72,7.35,45.64,2.89,14.91-4.46,28.39-15.74,34.3-31.16,4.44,4.2,10.43,6.43,16.32,6.06,5.89-.37,11.25-3.19,15.2-7.92,10.91,12.95,27.66,19.9,43.8,18.15s31.26-12.14,39.58-27.16c2.22,1.92,6.15.31,6.62-2.71,11.92,7.3,26.86,8.79,39.66,3.52,12.79-5.25,23.12-17.32,26.53-31.64,3.4-14.32-.38-30.5-10.01-41.04-2.37-2.6-5.12-4.88-8.13-6.74,3.26,3.15,5.7,7.35,6.81,11.94,2.22,9.19-.7,19.46-6.81,26.31-6.11,6.85-15.09,10.37-23.92,10.17-8.81-.18-17.4-3.87-24.43-9.62-1.2,2.28-4.25,3.11-6.32,1.75-8.23,13.3-21.96,22.48-36.66,24.49-14.72,2.01-30.14-3.19-41.17-13.87-4,8.37-11.2,14.04-19.86,15.18-8.66,1.14-17.74-2.58-23.49-9.66-5.62,10.39-14.53,18.67-24.89,23.12-10.35,4.46-22.09,5.07-32.8,1.71-5.91-1.86-11.56-4.94-16-9.51-4.44-4.59-7.63-10.72-8.26-17.32-3.36,4.51-9.97,6.41-15.04,4.51-5.07-1.92-8.78-7.46-8.83-13.27-12.5,3-25.56,3.61-38.04.48-12.48-3.15-24.28-10.72-31.35-22.26-5.74-9.34-7.94-21.43-5.36-32.19-2.07,1.4-3.98,3.1-5.7,5.07-8.73,9.99-10.06,26-4.75,38.49Z"/><path class="g" d="M262.91,75.04c1.55,4.36.77,9.59-1.98,13.21-2.75,3.61-7.34,5.47-11.61,4.68.72,9.81-3.88,20.29-11.83,25.1-7.95,4.81-18.47,4.13-25.84-1.65,7.49,2.74,16.39.25,21.94-5.83,5.56-6.08,7.53-15.68,4.88-23.73,5.12.88,10.32,1.65,15.36.3,5.04-1.35,8.47-6.51,9.08-12.08Z"/><path class="g" d="M129.88,66.25c-1.84,9.92,1.47,20.77,8.41,27.58,6.94,6.8,17.27,9.31,26.24,6.38-8.39.9-17.13-2.41-23.34-8.56-6.21-6.15-11.42-16.3-11.31-25.39Z"/><path class="g" d="M150.57,133.82c-.83,2.49-2.75,4.41-4.9,5.68-3.46,2.04-7.66,2.56-11.46,1.42-3.8-1.14-7.15-3.93-9.14-7.6-4.52,2.89-10.14,2.84-14.7.03-4.56-2.81-7.54-8.37-7.54-14.03,2.6,3.42,6.59,5.3,10.66,5.83,4.07.53,8.31-.7,11.58-3.36,2.24,5.2,6.4,9.41,11.36,11.48,4.96,2.07,9.23,2.78,14.13.55Z"/><path class="p" d="M337.03,42.7c2.32,1.72,3.83,4.96,3.03,7.88-.69,2.53-2.9,4.27-5.21,5.15-3.1,1.18-6.71,1.08-9.51-.76-2.81-1.84-4.6-5.57-3.91-9.04,1.43-7.22,11.19-6.5,15.59-3.23Z"/><path class="p" d="M143.85,12.7c3.06,4.42,3.03,11,0,15.44-3.03,4.44-8.79,6.42-13.66,4.77-4.87-1.65-8.53-6.77-8.85-12.28-.3-5.11,2.82-12.48,8-13.42,4.84-.88,11.55,1.22,14.51,5.5Z"/><path class="p" d="M329.31,80.07v.03c.08.5.16.99.24,1.46.6,3.77,3.09,7.11,6.34,8.6,3.28,1.46,7.23.97,10.11-1.23,2.9-2.19,4.66-6.02,4.5-9.85,1.44,1.81,3.93,2.37,6.07,1.73,2.11-.64,3.87-2.34,5.09-4.33,1.46-2.4,2.17-5.35,2.01-8.19-.08-1.46-.41-2.92-1-4.27-1.68-3.95-5.66-6.73-9.67-6.49-4.04.26-7.78,3.71-8.37,8.01-2.19-2.4-6.5-2.63-9.35-1.32-2.85,1.35-4.9,4.27-5.8,7.49-.79,2.75-.57,5.56-.16,8.36Z"/><path class="g" d="M329.31,80.1c.08.5.16.99.24,1.46.6,3.77,3.09,7.11,6.34,8.6,3.28,1.46,7.23.97,10.11-1.23,2.9-2.19,4.66-6.02,4.5-9.85,1.44,1.81,3.93,2.37,6.07,1.73,2.11-.64,3.87-2.34,5.09-4.33,1.46-2.4,2.17-5.35,2.01-8.19-.08.38-.22.76-.35,1.14-1.06,2.75-3.44,4.85-6.15,5.38-2.71.56-5.66-.44-7.56-2.57.11,3.25-1.41,6.46-3.77,8.54-2.36,2.05-5.47,2.95-8.48,2.75-2.93-.18-5.77-1.43-8.05-3.42Z"/><path class="n" d="M255.87,254.45v.15c.02,2.36.28,4.7.78,6.97.46,2.04,1.15,4.1,2.55,5.58,1.4,1.46,3.63,2.16,5.35,1.18,1.12-.65,1.88-1.93,2.17-3.27.31-1.34.2-2.76-.03-4.12-.05-.23-.09-.48-.14-.71-.43-1.99-1.12-3.92-2.09-5.68-.88-1.61-5.52-8.72-7.57-6.66-1.26,1.28-1.02,4.88-1.03,6.56Z"/><path class="g" d="M255.87,254.6c.02,2.36.28,4.7.78,6.97.46,2.04,1.15,4.1,2.55,5.58,1.4,1.46,3.63,2.16,5.35,1.18,1.12-.65,1.88-1.93,2.17-3.27.31-1.34.2-2.76-.03-4.12-.05-.23-.09-.48-.14-.71-.31.48-.72.88-1.2,1.15-1.22.7-2.71.56-3.97.03-1.91-.81-3.42-2.49-4.46-4.4-.42-.76-.75-1.58-1.06-2.41Z"/><path class="t" d="M262.18,252.97c.18.51.31,1.06.22,1.59-.09.53-.43,1.05-.93,1.17-.38.09-.77-.06-1.11-.26-1.36-.81-2.17-2.42-2.58-4.04-.11-.42-.2-.85-.15-1.28.05-.43.25-.86.61-1.07.78-.45,1.82.67,2.32,1.21.71.76,1.27,1.68,1.62,2.69Z"/><path class="n" d="M171.18,282.46v.15c.02,2.36.28,4.7.78,6.97.46,2.04,1.15,4.1,2.55,5.58,1.4,1.46,3.63,2.16,5.35,1.18,1.12-.65,1.88-1.93,2.17-3.27.31-1.34.2-2.76-.03-4.12-.05-.23-.09-.48-.14-.71-.43-1.99-1.12-3.92-2.09-5.68-.88-1.61-5.52-8.72-7.57-6.66-1.26,1.28-1.02,4.88-1.03,6.56Z"/><path class="g" d="M171.18,282.61c.02,2.36.28,4.7.78,6.97.46,2.04,1.15,4.1,2.55,5.58,1.4,1.46,3.63,2.16,5.35,1.18,1.12-.65,1.88-1.93,2.17-3.27.31-1.34.2-2.76-.03-4.12-.05-.23-.09-.48-.14-.71-.31.48-.72.88-1.2,1.15-1.22.7-2.71.56-3.97.03-1.91-.81-3.42-2.49-4.46-4.4-.42-.76-.75-1.58-1.06-2.41Z"/><path class="t" d="M177.49,280.98c.18.51.31,1.06.22,1.59-.09.53-.43,1.05-.93,1.17-.38.09-.77-.06-1.11-.26-1.36-.81-2.17-2.42-2.59-4.04-.11-.42-.2-.85-.15-1.28.05-.43.25-.86.61-1.07.78-.45,1.82.67,2.32,1.21.71.76,1.27,1.68,1.62,2.69Z"/><path class="n" d="M199.08,354.5v.15c.02,2.36.28,4.7.78,6.97.46,2.04,1.15,4.1,2.55,5.58,1.4,1.46,3.63,2.16,5.35,1.18,1.12-.65,1.88-1.93,2.17-3.27.31-1.34.2-2.76-.03-4.12-.05-.23-.09-.48-.14-.71-.43-1.99-1.12-3.92-2.09-5.68-.88-1.61-5.52-8.72-7.57-6.66-1.26,1.28-1.02,4.88-1.03,6.56Z"/><path class="g" d="M199.08,354.65c.02,2.36.28,4.7.78,6.97.46,2.04,1.15,4.1,2.55,5.58,1.4,1.46,3.63,2.16,5.35,1.18,1.12-.65,1.88-1.93,2.17-3.27.31-1.34.2-2.76-.03-4.12-.05-.23-.09-.48-.14-.71-.31.48-.72.88-1.2,1.15-1.22.7-2.71.56-3.97.03-1.91-.81-3.42-2.49-4.46-4.4-.42-.76-.75-1.58-1.06-2.41Z"/><path class="t" d="M205.39,353.02c.18.51.31,1.06.22,1.59s-.43,1.05-.93,1.17c-.38.09-.77-.06-1.11-.26-1.36-.81-2.17-2.42-2.59-4.04-.11-.42-.2-.85-.15-1.28.05-.43.25-.86.61-1.07.78-.45,1.82.67,2.32,1.21.71.76,1.27,1.68,1.62,2.69Z"/><path class="b" d="M120.94,316.09v.15c.02,2.36.28,4.7.78,6.97.46,2.04,1.15,4.1,2.55,5.58,1.4,1.46,3.63,2.16,5.35,1.18,1.12-.65,1.88-1.93,2.17-3.27.31-1.34.2-2.76-.03-4.12-.05-.23-.09-.48-.14-.71-.43-1.99-1.12-3.92-2.09-5.68-.88-1.61-5.52-8.72-7.57-6.66-1.26,1.28-1.02,4.88-1.03,6.56Z"/><path class="g" d="M120.94,316.24c.02,2.36.28,4.7.78,6.97.46,2.04,1.15,4.1,2.55,5.58,1.4,1.46,3.63,2.16,5.35,1.18,1.12-.65,1.88-1.93,2.17-3.27.31-1.34.2-2.76-.03-4.12-.05-.23-.09-.48-.14-.71-.31.48-.72.88-1.2,1.15-1.22.7-2.71.56-3.97.03-1.91-.81-3.42-2.49-4.46-4.4-.42-.76-.75-1.58-1.06-2.41Z"/><path class="t" d="M127.24,314.61c.18.51.31,1.06.22,1.59-.09.53-.43,1.05-.93,1.17-.38.09-.77-.06-1.11-.26-1.36-.81-2.17-2.42-2.58-4.04-.11-.42-.2-.85-.15-1.28.05-.43.25-.86.61-1.07.78-.45,1.82.67,2.32,1.21.71.76,1.27,1.68,1.62,2.69Z"/><path class="n" d="M96.83,257.64v.15c.02,2.36.28,4.7.78,6.97.46,2.04,1.15,4.1,2.55,5.58,1.4,1.46,3.63,2.16,5.35,1.18,1.12-.65,1.88-1.93,2.17-3.27.31-1.34.2-2.76-.03-4.12-.05-.23-.09-.48-.14-.71-.43-1.99-1.12-3.92-2.09-5.68-.88-1.61-5.52-8.72-7.57-6.66-1.26,1.28-1.02,4.88-1.03,6.56Z"/><path class="g" d="M96.83,257.79c.02,2.36.28,4.7.78,6.97.46,2.04,1.15,4.1,2.55,5.58,1.4,1.46,3.63,2.16,5.35,1.18,1.12-.65,1.88-1.93,2.17-3.27.31-1.34.2-2.76-.03-4.12-.05-.23-.09-.48-.14-.71-.31.48-.72.88-1.2,1.15-1.22.7-2.71.56-3.97.03-1.91-.81-3.42-2.49-4.46-4.4-.42-.76-.75-1.58-1.06-2.41Z"/><path class="t" d="M103.14,256.16c.18.51.31,1.06.22,1.59-.09.53-.43,1.05-.93,1.17-.38.09-.77-.06-1.11-.26-1.36-.81-2.17-2.42-2.59-4.04-.11-.42-.2-.85-.15-1.28.05-.43.25-.86.61-1.07.78-.45,1.82.67,2.32,1.21.71.76,1.27,1.68,1.62,2.69Z"/><path class="n" d="M261.4,310.3v.15c.02,2.36.28,4.7.78,6.97.46,2.04,1.15,4.1,2.55,5.58,1.4,1.46,3.63,2.16,5.35,1.18,1.12-.65,1.88-1.93,2.17-3.27.31-1.34.2-2.76-.03-4.12-.05-.23-.09-.48-.14-.71-.43-1.99-1.12-3.92-2.09-5.68-.88-1.61-5.52-8.72-7.57-6.66-1.26,1.28-1.02,4.88-1.03,6.56Z"/><path class="g" d="M261.4,310.45c.02,2.36.28,4.7.78,6.97.46,2.04,1.15,4.1,2.55,5.58,1.4,1.46,3.63,2.16,5.35,1.18,1.12-.65,1.88-1.93,2.17-3.27.31-1.34.2-2.76-.03-4.12-.05-.23-.09-.48-.14-.71-.31.48-.72.88-1.2,1.15-1.22.7-2.71.56-3.97.03-1.91-.81-3.42-2.49-4.46-4.4-.42-.76-.75-1.58-1.06-2.41Z"/><path class="t" d="M267.71,308.82c.18.51.31,1.06.22,1.59-.09.53-.43,1.05-.93,1.17-.38.09-.77-.06-1.11-.26-1.36-.81-2.17-2.42-2.59-4.04-.11-.42-.2-.85-.15-1.28.05-.43.25-.86.61-1.07.78-.45,1.82.67,2.32,1.21.71.76,1.27,1.68,1.62,2.69Z"/><path class="b" d="M391.91,306.91v.15c.02,2.36.28,4.7.78,6.97.46,2.04,1.15,4.1,2.55,5.58,1.4,1.46,3.63,2.16,5.35,1.18,1.12-.65,1.88-1.93,2.17-3.27.31-1.34.2-2.76-.03-4.12-.05-.23-.09-.48-.14-.71-.43-1.99-1.12-3.92-2.09-5.68-.88-1.61-5.52-8.72-7.57-6.66-1.26,1.28-1.02,4.88-1.03,6.56Z"/><path class="g" d="M391.91,307.06c.02,2.36.28,4.7.78,6.97.46,2.04,1.15,4.1,2.55,5.58,1.4,1.46,3.63,2.16,5.35,1.18,1.12-.65,1.88-1.93,2.17-3.27.31-1.34.2-2.76-.03-4.12-.05-.23-.09-.48-.14-.71-.31.48-.72.88-1.2,1.15-1.22.7-2.71.56-3.97.03-1.91-.81-3.42-2.49-4.46-4.4-.42-.76-.75-1.58-1.06-2.41Z"/><path class="t" d="M398.21,305.42c.18.51.31,1.06.22,1.59-.09.53-.43,1.05-.93,1.17-.38.09-.77-.06-1.11-.26-1.36-.81-2.17-2.42-2.59-4.04-.11-.42-.2-.85-.15-1.28.05-.43.25-.86.61-1.07.78-.45,1.82.67,2.32,1.21.71.76,1.27,1.68,1.62,2.69Z"/><path class="n" d="M298.36,340.82v.15c.02,2.36.28,4.7.78,6.97.46,2.04,1.15,4.1,2.55,5.58,1.4,1.46,3.63,2.16,5.35,1.18,1.12-.65,1.88-1.93,2.17-3.27.31-1.34.2-2.76-.03-4.12-.05-.23-.09-.48-.14-.71-.43-1.99-1.12-3.92-2.09-5.68-.88-1.61-5.52-8.72-7.57-6.66-1.26,1.28-1.02,4.88-1.03,6.56Z"/><path class="g" d="M298.36,340.97c.02,2.36.28,4.7.78,6.97.46,2.04,1.15,4.1,2.55,5.58,1.4,1.46,3.63,2.16,5.35,1.18,1.12-.65,1.88-1.93,2.17-3.27.31-1.34.2-2.76-.03-4.12-.05-.23-.09-.48-.14-.71-.31.48-.72.88-1.2,1.15-1.22.7-2.71.56-3.97.03-1.91-.81-3.42-2.49-4.46-4.4-.42-.76-.75-1.58-1.06-2.41Z"/><path class="t" d="M304.66,339.34c.18.51.31,1.06.22,1.59-.09.53-.43,1.05-.93,1.17-.38.09-.77-.06-1.11-.26-1.36-.81-2.17-2.42-2.59-4.04-.11-.42-.2-.85-.15-1.28.05-.43.25-.86.61-1.07.78-.45,1.82.67,2.32,1.21.71.76,1.27,1.68,1.62,2.69Z"/><path class="b" d="M294.93,259.23v.24c.02,3.82.45,7.62,1.27,11.3.75,3.31,1.87,6.65,4.14,9.04,2.27,2.37,5.88,3.5,8.68,1.91,1.82-1.05,3.04-3.12,3.52-5.3.5-2.18.32-4.47-.05-6.67-.07-.38-.15-.78-.22-1.16-.7-3.23-1.82-6.35-3.39-9.2-1.42-2.61-8.95-14.13-12.27-10.79-2.04,2.07-1.65,7.91-1.67,10.63Z"/><path class="g" d="M294.93,259.47c.02,3.82.45,7.62,1.27,11.3.75,3.31,1.87,6.65,4.14,9.04,2.27,2.37,5.88,3.5,8.68,1.91,1.82-1.05,3.04-3.12,3.52-5.3.5-2.18.32-4.47-.05-6.67-.07-.38-.15-.78-.22-1.16-.5.78-1.17,1.43-1.94,1.86-1.97,1.13-4.39.91-6.43.05-3.09-1.32-5.54-4.04-7.23-7.13-.67-1.24-1.22-2.56-1.72-3.9Z"/><path class="t" d="M305.15,256.83c.29.82.5,1.71.35,2.58-.14.87-.7,1.7-1.5,1.89-.61.15-1.25-.1-1.8-.42-2.21-1.32-3.51-3.92-4.19-6.55-.17-.68-.32-1.38-.24-2.08.08-.7.41-1.4.99-1.73,1.27-.73,2.96,1.09,3.76,1.96,1.15,1.23,2.05,2.72,2.63,4.36Z"/><path class="n" d="M201.78,238.35v.24c.02,3.82.45,7.62,1.27,11.3.75,3.31,1.87,6.65,4.14,9.04,2.27,2.37,5.88,3.5,8.68,1.91,1.82-1.05,3.04-3.12,3.52-5.3.5-2.18.32-4.47-.05-6.67-.07-.38-.15-.78-.22-1.16-.7-3.23-1.82-6.35-3.39-9.2-1.42-2.61-8.95-14.13-12.27-10.79-2.04,2.07-1.65,7.91-1.67,10.63Z"/><path class="g" d="M201.78,238.59c.02,3.82.45,7.62,1.27,11.3.75,3.31,1.87,6.65,4.14,9.04,2.27,2.37,5.88,3.5,8.68,1.91,1.82-1.05,3.04-3.12,3.52-5.3.5-2.18.32-4.47-.05-6.67-.07-.38-.15-.78-.22-1.16-.5.78-1.17,1.43-1.94,1.86-1.97,1.13-4.39.91-6.43.05-3.09-1.32-5.54-4.04-7.23-7.13-.67-1.24-1.22-2.56-1.72-3.9Z"/><path class="t" d="M212,235.94c.29.82.5,1.71.35,2.58-.14.87-.7,1.7-1.5,1.89-.61.15-1.25-.1-1.8-.42-2.21-1.32-3.51-3.92-4.19-6.55-.17-.68-.32-1.38-.24-2.08.08-.7.41-1.4.99-1.73,1.27-.73,2.96,1.09,3.76,1.96,1.15,1.23,2.05,2.72,2.63,4.36Z"/><path class="b" d="M221.31,312.55v.24c.02,3.82.45,7.62,1.27,11.3.75,3.31,1.87,6.65,4.14,9.04,2.27,2.37,5.88,3.5,8.68,1.91,1.82-1.05,3.04-3.12,3.52-5.3.5-2.18.32-4.47-.05-6.67-.07-.38-.15-.78-.22-1.16-.7-3.23-1.82-6.35-3.39-9.2-1.42-2.61-8.95-14.13-12.27-10.79-2.04,2.07-1.65,7.91-1.67,10.63Z"/><path class="g" d="M221.31,312.79c.02,3.82.45,7.62,1.27,11.3.75,3.31,1.87,6.65,4.14,9.04,2.27,2.37,5.88,3.5,8.68,1.91,1.82-1.05,3.04-3.12,3.52-5.3.5-2.18.32-4.47-.05-6.67-.07-.38-.15-.78-.22-1.16-.5.78-1.17,1.43-1.94,1.86-1.97,1.13-4.39.91-6.43.05-3.09-1.32-5.54-4.04-7.23-7.13-.67-1.24-1.22-2.56-1.72-3.9Z"/><path class="t" d="M231.53,310.15c.29.82.5,1.71.35,2.58-.14.87-.7,1.7-1.5,1.89-.61.15-1.25-.1-1.8-.42-2.21-1.32-3.51-3.92-4.19-6.55-.17-.68-.32-1.38-.24-2.08.08-.7.41-1.4.99-1.73,1.27-.73,2.96,1.09,3.76,1.96,1.15,1.23,2.05,2.72,2.63,4.36Z"/><path class="n" d="M337.06,321.29v.24c.02,3.82.45,7.62,1.27,11.3.75,3.31,1.87,6.65,4.14,9.04,2.27,2.37,5.88,3.5,8.68,1.91,1.82-1.05,3.04-3.12,3.52-5.3.5-2.18.32-4.47-.05-6.67-.07-.38-.15-.78-.22-1.16-.7-3.23-1.82-6.35-3.39-9.2-1.42-2.61-8.95-14.13-12.27-10.79-2.04,2.07-1.65,7.91-1.67,10.63Z"/><path class="g" d="M337.06,321.53c.02,3.82.45,7.62,1.27,11.3.75,3.31,1.87,6.65,4.14,9.04,2.27,2.37,5.88,3.5,8.68,1.91,1.82-1.05,3.04-3.12,3.52-5.3.5-2.18.32-4.47-.05-6.67-.07-.38-.15-.78-.22-1.16-.5.78-1.17,1.43-1.94,1.86-1.97,1.13-4.39.92-6.43.05-3.09-1.32-5.54-4.04-7.23-7.13-.67-1.24-1.22-2.56-1.72-3.9Z"/><path class="t" d="M347.29,318.89c.29.82.5,1.71.35,2.58-.14.87-.7,1.7-1.5,1.89-.61.15-1.25-.1-1.8-.42-2.21-1.32-3.51-3.92-4.19-6.55-.17-.68-.32-1.38-.24-2.08.08-.7.41-1.4.99-1.73,1.27-.73,2.96,1.09,3.76,1.96,1.15,1.23,2.05,2.72,2.63,4.36Z"/><path class="n" d="M330.33,234.46v.24c.02,3.82.45,7.62,1.27,11.3.75,3.31,1.87,6.65,4.14,9.04,2.27,2.37,5.88,3.5,8.68,1.91,1.82-1.05,3.04-3.12,3.52-5.3.5-2.18.32-4.47-.05-6.67-.07-.38-.15-.78-.22-1.16-.7-3.23-1.82-6.35-3.39-9.2-1.42-2.61-8.95-14.13-12.27-10.79-2.04,2.07-1.65,7.91-1.67,10.63Z"/><path class="g" d="M330.33,234.7c.02,3.82.45,7.62,1.27,11.3.75,3.31,1.87,6.65,4.14,9.04,2.27,2.37,5.88,3.5,8.68,1.91,1.82-1.05,3.04-3.12,3.52-5.3.5-2.18.32-4.47-.05-6.67-.07-.38-.15-.78-.22-1.16-.5.78-1.17,1.43-1.94,1.86-1.97,1.13-4.39.91-6.43.05-3.09-1.32-5.54-4.04-7.23-7.13-.67-1.24-1.22-2.56-1.72-3.9Z"/><path class="t" d="M340.55,232.06c.29.82.5,1.71.35,2.58-.14.87-.7,1.7-1.5,1.89-.61.15-1.25-.1-1.8-.42-2.21-1.32-3.51-3.92-4.19-6.55-.17-.68-.32-1.38-.24-2.08.08-.7.41-1.4.99-1.73,1.27-.73,2.96,1.09,3.76,1.96,1.15,1.23,2.05,2.72,2.63,4.36Z"/><path class="b" d="M129.16,264.97v.24c.02,3.82.45,7.62,1.27,11.3.75,3.31,1.87,6.65,4.14,9.04,2.27,2.37,5.88,3.5,8.68,1.91,1.82-1.05,3.04-3.12,3.52-5.3.5-2.18.32-4.47-.05-6.67-.07-.38-.15-.78-.22-1.16-.7-3.23-1.82-6.35-3.39-9.2-1.42-2.61-8.95-14.13-12.27-10.79-2.04,2.07-1.65,7.91-1.67,10.63Z"/><path class="g" d="M129.16,265.21c.02,3.82.45,7.62,1.27,11.3.75,3.31,1.87,6.65,4.14,9.04,2.27,2.37,5.88,3.5,8.68,1.91,1.82-1.05,3.04-3.12,3.52-5.3.5-2.18.32-4.47-.05-6.67-.07-.38-.15-.78-.22-1.16-.5.78-1.17,1.43-1.94,1.86-1.97,1.13-4.39.91-6.43.05-3.09-1.32-5.54-4.04-7.23-7.13-.67-1.24-1.22-2.56-1.72-3.9Z"/><path class="t" d="M139.39,262.57c.29.82.5,1.71.35,2.58-.14.87-.7,1.7-1.5,1.89-.61.15-1.25-.1-1.8-.42-2.21-1.32-3.51-3.92-4.19-6.55-.17-.68-.32-1.38-.24-2.08.08-.7.41-1.4.99-1.73,1.27-.73,2.96,1.09,3.76,1.96,1.15,1.23,2.05,2.72,2.63,4.36Z"/><path class="n" d="M162.22,352.2v.24c.02,3.82.45,7.62,1.27,11.3.75,3.31,1.87,6.65,4.14,9.04,2.27,2.37,5.88,3.5,8.68,1.91,1.82-1.05,3.04-3.12,3.52-5.3.5-2.18.32-4.47-.05-6.67-.07-.38-.15-.78-.22-1.16-.7-3.23-1.82-6.35-3.39-9.2-1.42-2.61-8.95-14.13-12.27-10.79-2.04,2.07-1.65,7.91-1.67,10.63Z"/><path class="g" d="M162.22,352.44c.02,3.82.45,7.62,1.27,11.3.75,3.31,1.87,6.65,4.14,9.04,2.27,2.37,5.88,3.5,8.68,1.91,1.82-1.05,3.04-3.12,3.52-5.3.5-2.18.32-4.47-.05-6.67-.07-.38-.15-.78-.22-1.16-.5.78-1.17,1.43-1.94,1.86-1.97,1.13-4.39.92-6.43.05-3.09-1.32-5.54-4.04-7.23-7.13-.67-1.24-1.22-2.56-1.72-3.9Z"/><path class="t" d="M172.44,349.8c.29.82.5,1.71.35,2.58-.14.87-.7,1.7-1.5,1.89-.61.15-1.25-.1-1.8-.42-2.21-1.32-3.51-3.92-4.19-6.55-.17-.68-.32-1.38-.24-2.08.08-.7.41-1.4.99-1.73,1.27-.73,2.96,1.09,3.76,1.96,1.15,1.23,2.05,2.72,2.63,4.36Z"/></g></g></svg>