<?xml version="1.0" encoding="UTF-8"?><svg xmlns="http://www.w3.org/2000/svg" xmlns:xlink="http://www.w3.org/1999/xlink" viewBox="0 0 707.46 806.81"><defs><linearGradient id="b" x1="359.32" y1="805.68" x2="359.32" y2="0" gradientUnits="userSpaceOnUse"><stop offset="0" stop-color="#a392b8"/><stop offset="1" stop-color="#612c73"/></linearGradient><radialGradient id="c" cx="2068.12" cy="531.48" fx="2068.12" fy="531.48" r="2117.1" gradientTransform="translate(-218.44 54.74) scale(.28 .3)" gradientUnits="userSpaceOnUse"><stop offset="0" stop-color="#e5d9e3"/><stop offset=".79" stop-color="#96789c"/><stop offset="1" stop-color="#ffb2b6"/></radialGradient><radialGradient id="d" cx="2030.7" cy="2405.65" fx="2030.7" fy="2405.65" r="1344.75" gradientTransform="translate(-218.44 54.74) scale(.28 .3)" gradientUnits="userSpaceOnUse"><stop offset="0" stop-color="#8b8dc2"/><stop offset=".95" stop-color="#8a6991"/></radialGradient><radialGradient id="e" cx="2062.42" cy="816.6" fx="2062.42" fy="816.6" r="1800.74" gradientTransform="translate(-218.44 54.74) scale(.28 .3)" gradientUnits="userSpaceOnUse"><stop offset="0" stop-color="#d8c5d5"/><stop offset=".72" stop-color="#94759a"/><stop offset=".96" stop-color="#ffaeb9"/></radialGradient><linearGradient id="f" x1="123.86" y1="99.06" x2="598.4" y2="99.06" gradientUnits="userSpaceOnUse"><stop offset="0" stop-color="#541d5e"/><stop offset="1" stop-color="#8e83c9"/></linearGradient><linearGradient id="g" x1="70.72" y1="83.24" x2="123.85" y2="83.24" gradientUnits="userSpaceOnUse"><stop offset="0" stop-color="#6e5f85"/><stop offset="1" stop-color="#3f1f49"/></linearGradient><linearGradient id="h" x1="598.33" y1="82.14" x2="651.24" y2="82.14" gradientUnits="userSpaceOnUse"><stop offset="0" stop-color="#3f1f49"/><stop offset="1" stop-color="#6e5f85"/></linearGradient><linearGradient id="i" x1="599.26" y1="805.69" x2="599.26" y2="531.32" xlink:href="#b"/><linearGradient id="j" x1="104.69" y1="806.79" x2="104.69" y2="629.49" xlink:href="#b"/><linearGradient id="k" x1="624.79" y1="86.48" x2="624.79" y2="82.99" gradientUnits="userSpaceOnUse"><stop offset="0" stop-color="#000"/><stop offset="1" stop-color="#e5d9e3"/></linearGradient><linearGradient id="l" x1="97.29" y1="88.08" x2="97.29" y2="85.18" xlink:href="#k"/><linearGradient id="m" x1="338.38" y1="81.29" x2="338.38" y2="0" xlink:href="#k"/><radialGradient id="n" cx="2111.07" cy="1052.75" fx="2111.07" fy="1052.75" r="963.22" gradientTransform="translate(-218.44 54.74) scale(.28 .3)" gradientUnits="userSpaceOnUse"><stop offset="0" stop-color="#8183c8"/><stop offset="1" stop-color="#795e88"/></radialGradient><radialGradient id="o" cx="2011.77" cy="26454.36" fx="2011.77" fy="26454.36" r="494.12" gradientTransform="translate(-218.44 -1589.52) scale(.28 .09)" gradientUnits="userSpaceOnUse"><stop offset="0" stop-color="#686195"/><stop offset="1" stop-color="#54337a"/></radialGradient><radialGradient id="p" cx="1762.06" cy="-2136.56" fx="1762.06" fy="-2136.56" r="889.75" gradientTransform="translate(-226.49 1266.81) scale(.34 .47)" gradientUnits="userSpaceOnUse"><stop offset="0" stop-color="#e5d9e3"/><stop offset=".94" stop-color="#7c6c9c"/></radialGradient><linearGradient id="q" x1="360.3" y1="300.17" x2="360.3" y2="116.8" xlink:href="#b"/><linearGradient id="r" x1="360.3" y1="156.67" x2="360.3" y2="116.8" xlink:href="#b"/><radialGradient id="s" cx="2078.02" cy="261.59" fx="2078.02" fy="261.59" r="402.04" gradientTransform="translate(-218.44 54.74) scale(.28 .3)" gradientUnits="userSpaceOnUse"><stop offset="0" stop-color="#fff2e3"/><stop offset="1" stop-color="#ecc5c4"/></radialGradient><radialGradient id="t" cx="2078.02" cy="226.22" fx="2078.02" fy="226.22" r="401.52" gradientTransform="translate(-218.44 54.74) scale(.28 .3)" gradientUnits="userSpaceOnUse"><stop offset="0" stop-color="#6861ab"/><stop offset="1" stop-color="#6e5885"/></radialGradient><radialGradient id="u" cx="927.15" cy="436.02" fx="927.15" fy="436.02" r="174.2" gradientTransform="translate(-327.99 120.53) scale(.73 .32)" gradientUnits="userSpaceOnUse"><stop offset=".02" stop-color="#ffdea4"/><stop offset=".08" stop-color="#e4c793"/><stop offset=".22" stop-color="#a8936c"/><stop offset=".37" stop-color="#75664b"/><stop offset=".51" stop-color="#4b4130"/><stop offset=".64" stop-color="#2a241b"/><stop offset=".77" stop-color="#12100c"/><stop offset=".89" stop-color="#040403"/><stop offset=".99" stop-color="#000"/></radialGradient><radialGradient id="v" cx="860.38" cy="463.28" fx="860.38" fy="463.28" r="226.5" gradientTransform="translate(-345.81 128.25) scale(.82 .25)" gradientUnits="userSpaceOnUse"><stop offset=".02" stop-color="#ffb14e"/><stop offset=".08" stop-color="#e49e45"/><stop offset=".22" stop-color="#a87533"/><stop offset=".37" stop-color="#755123"/><stop offset=".51" stop-color="#4b3416"/><stop offset=".64" stop-color="#2a1d0c"/><stop offset=".77" stop-color="#120d05"/><stop offset=".89" stop-color="#040301"/><stop offset=".99" stop-color="#000"/></radialGradient><radialGradient id="w" cx="860.38" cy="463.28" fx="860.38" fy="463.28" r="164.16" xlink:href="#v"/><radialGradient id="x" cx="848.65" cy="463.28" fx="848.65" fy="463.28" r="141.47" gradientTransform="translate(-345.81 128.25) scale(.82 .25)" xlink:href="#u"/><radialGradient id="y" cx="848.65" cy="463.28" fx="848.65" fy="463.28" r="112.5" gradientTransform="translate(-345.81 128.25) scale(.82 .25)" gradientUnits="userSpaceOnUse"><stop offset=".02" stop-color="#fff"/><stop offset=".08" stop-color="#e4e4e4"/><stop offset=".22" stop-color="#a8a8a8"/><stop offset=".37" stop-color="#757575"/><stop offset=".51" stop-color="#4b4b4b"/><stop offset=".64" stop-color="#2a2a2a"/><stop offset=".77" stop-color="#121212"/><stop offset=".89" stop-color="#040404"/><stop offset=".99" stop-color="#000"/></radialGradient><linearGradient id="z" x1="349.92" y1="782.74" x2="349.92" y2="597.21" gradientUnits="userSpaceOnUse"><stop offset="0" stop-color="#732c73"/><stop offset="1" stop-color="#fff"/></linearGradient><radialGradient id="aa" cx="3122.74" cy="1348.52" fx="3122.74" fy="1348.52" r="808.02" gradientTransform="translate(-170.11 54.74) scale(.14 .3)" gradientUnits="userSpaceOnUse"><stop offset="0" stop-color="#c4a8bf"/><stop offset="1" stop-color="#6e5885"/></radialGradient><radialGradient id="ab" cx="3826.83" cy="1350.52" fx="3826.83" fy="1350.52" r="810.58" gradientTransform="translate(-169.64 54.74) scale(.16 .3)" xlink:href="#aa"/><radialGradient id="ac" cx="2600.89" cy="816.63" fx="2600.89" fy="816.63" r="1648.42" xlink:href="#e"/><radialGradient id="ad" cx="1507.87" cy="816.63" fx="1507.87" fy="816.63" r="1644.8" xlink:href="#e"/><linearGradient id="ae" x1="361.1" y1="806.8" x2="361.1" y2="81.3" xlink:href="#b"/><linearGradient id="af" x1="202.44" y1="806.42" x2="202.44" y2="668.51" xlink:href="#b"/><linearGradient id="ag" x1="501.05" y1="806.8" x2="501.05" y2="541.37" xlink:href="#b"/><radialGradient id="ah" cx="935.08" cy="87.21" fx="935.08" fy="87.21" r="265.39" gradientTransform="translate(-327.99 120.53) scale(.73 .32)" gradientUnits="userSpaceOnUse"><stop offset=".02" stop-color="#a2364e"/><stop offset=".19" stop-color="#742638"/><stop offset=".37" stop-color="#4b1924"/><stop offset=".54" stop-color="#2a0e14"/><stop offset=".71" stop-color="#120609"/><stop offset=".86" stop-color="#040102"/><stop offset=".99" stop-color="#000"/></radialGradient><linearGradient id="ai" x1="267.75" y1="559.6" x2="441.32" y2="559.6" xlink:href="#b"/><radialGradient id="aj" cx="2042.73" cy="186113.76" fx="2042.73" fy="186113.76" r="299.93" gradientTransform="translate(-218.44 -2178.45) scale(.28 .01)" gradientUnits="userSpaceOnUse"><stop offset="0" stop-color="#e5d9e3"/><stop offset="1" stop-color="#a88fad"/></radialGradient></defs><g isolation="isolate"><g id="a"><polygon points="64.18 805.68 69.65 0 654.46 0 631.62 805.68 64.18 805.68" fill="url(#b)" fill-rule="evenodd" mix-blend-mode="multiply" opacity=".8"/><polygon points="79.9 805.68 69.65 0 654.46 0 619.82 805.68 79.9 805.68" fill="url(#c)" fill-rule="evenodd"/><polygon points="131.55 806.79 123.85 81.29 598.4 81.29 566.91 805.69 131.55 806.79" fill="url(#d)" fill-rule="evenodd"/><polygon points="142.4 806.81 142.4 116.8 577.05 116.8 551.88 805.62 142.4 806.81" fill="url(#e)" fill-rule="evenodd"/><polygon points="598.4 81.3 597.4 82.99 577.04 116.81 142.38 116.81 123.86 81.3 598.4 81.3" fill="url(#f)" fill-rule="evenodd" mix-blend-mode="multiply" opacity=".5"/><polygon points="123.85 81.29 70.72 83.97 70.74 85.18 123.85 85.18 123.85 81.29" fill="url(#g)" fill-rule="evenodd"/><polygon points="598.4 81.29 651.24 81.29 651.24 82.99 598.33 82.99 598.4 81.29" fill="url(#h)" fill-rule="evenodd"/><polygon points="631.62 531.32 578.23 545.28 566.91 805.69 619.82 805.68 631.62 531.32" fill="url(#i)" fill-rule="evenodd" mix-blend-mode="multiply" opacity=".2"/><polygon points="129.67 629.49 77.82 641.59 79.9 805.68 131.55 806.79 129.67 629.49" fill="url(#j)" fill-rule="evenodd" mix-blend-mode="multiply" opacity=".2"/><path d="M598.33,82.99s29.99,7.84,52.92,0h-52.92Z" fill="url(#k)" fill-rule="evenodd" mix-blend-mode="screen"/><path d="M123.85,85.18h-53.11s14.27,6.53,53.11,0Z" fill="url(#l)" fill-rule="evenodd" mix-blend-mode="screen"/><polygon points="140.65 0 223.49 81.29 497.26 81.29 536.11 0 140.65 0" fill="url(#m)" fill-rule="evenodd" mix-blend-mode="screen" opacity=".5"/><polygon points="295.59 20.11 296.84 63.92 438.85 63.92 440.92 20.11 295.59 20.11" fill="#0e0012" fill-rule="evenodd"/><path d="M345.15,32.17h3.22v3.48h-3.22v-3.48ZM345.15,50.82h3.22v3.48h-3.22v-3.48ZM348.65,28.43h3.22v3.48h-3.22v-3.48ZM348.65,32.17h3.22v3.48h-3.22v-3.48ZM348.65,35.89h3.22v3.48h-3.22v-3.48ZM348.65,39.64h3.22v3.48h-3.22v-3.48ZM348.65,43.35h3.22v3.48h-3.22v-3.48ZM348.65,47.1h3.22v3.45h-3.22v-3.45ZM348.65,50.82h3.22v3.48h-3.22v-3.48ZM352.14,50.82h3.2v3.48h-3.2v-3.48Z" fill="#00ffef"/><rect x="394.58" y="28.38" width="3.34" height="3.61" transform="translate(792.5 60.37) rotate(180)" fill="#00ffef"/><rect x="390.71" y="28.38" width="3.34" height="3.61" transform="translate(784.75 60.37) rotate(180)" fill="#00ffef"/><rect x="386.83" y="28.38" width="3.34" height="3.61" transform="translate(777.01 60.37) rotate(180)" fill="#00ffef"/><rect x="382.96" y="28.38" width="3.34" height="3.61" transform="translate(769.27 60.37) rotate(180)" fill="#00ffef"/><rect x="379.09" y="28.38" width="3.34" height="3.61" transform="translate(761.53 60.37) rotate(180)" fill="#00ffef"/><rect x="390.71" y="32.35" width="3.34" height="3.61" transform="translate(784.75 68.3) rotate(180)" fill="#00ffef"/><rect x="386.83" y="32.35" width="3.34" height="3.61" transform="translate(777.01 68.3) rotate(180)" fill="#00ffef"/><rect x="382.96" y="32.35" width="3.34" height="3.61" transform="translate(769.27 68.3) rotate(180)" fill="#00ffef"/><rect x="386.83" y="36.35" width="3.34" height="3.61" transform="translate(777.01 76.31) rotate(180)" fill="#00ffef"/><rect x="382.96" y="36.35" width="3.34" height="3.61" transform="translate(769.27 76.31) rotate(180)" fill="#00ffef"/><rect x="382.96" y="40.35" width="3.34" height="3.61" transform="translate(769.27 84.31) rotate(180)" fill="#00ffef"/><rect x="379.09" y="36.35" width="3.34" height="3.61" transform="translate(761.53 76.31) rotate(180)" fill="#00ffef"/><rect x="379.09" y="32.35" width="3.34" height="3.61" transform="translate(761.53 68.3) rotate(180)" fill="#00ffef"/><rect x="375.22" y="32.35" width="3.34" height="3.61" transform="translate(753.78 68.3) rotate(180)" fill="#00ffef"/><rect x="375.22" y="28.38" width="3.34" height="3.61" transform="translate(753.78 60.37) rotate(180)" fill="#00ffef"/><rect x="371.41" y="28.38" width="3.34" height="3.61" transform="translate(746.17 60.37) rotate(180)" fill="#00ffef"/><polygon points="152.89 805.6 152.89 116.8 567.14 116.8 539.88 805.6 152.89 805.6" fill="url(#n)" fill-rule="evenodd"/><polygon points="152.89 785.12 202.2 758.68 486.46 758.68 540.69 785.12 539.88 805.6 152.89 805.6 152.89 785.12" fill="url(#o)" fill-rule="evenodd"/><polygon points="202.2 758.68 194.99 156.67 516.81 156.67 486.46 758.68 202.2 758.68" fill="url(#p)" fill-rule="evenodd"/><rect x="283.4" y="156.66" width="1.51" height="602.03" transform="translate(-3.81 2.39) rotate(-.48)" fill="#6e5f85"/><polygon points="407.42 758.7 405.91 758.65 423.95 156.64 425.46 156.7 407.42 758.7" fill="#6e5f85"/><path d="M161.61,298.02l35.06-.8s56.28-117,159.23-117,153.93,114.87,153.93,114.87l44.17,5.08,7.84-183.38H158.77l2.84,181.22Z" fill="url(#q)" fill-rule="evenodd" mix-blend-mode="multiply" opacity=".6"/><polygon points="194.99 156.67 158.77 130.28 158.77 116.8 561.83 116.8 561.34 128.36 516.81 156.67 194.99 156.67" fill="url(#r)" fill-rule="evenodd" mix-blend-mode="multiply" opacity=".6"/><polygon points="203.36 124.72 520.53 124.72 500.38 142.46 222.58 142.46 203.36 124.72" fill="url(#s)" fill-rule="evenodd"/><rect x="203.36" y="121.13" width="317.17" height="3.59" fill="url(#t)"/><polygon points="159.98 799.18 532.52 801.53 532.38 805.78 159.96 805.6 159.98 799.18" fill="#371e46" fill-rule="evenodd"/><ellipse cx="345.91" cy="259.08" rx="126.62" ry="55.35" fill="url(#u)" mix-blend-mode="screen"/><ellipse cx="355.9" cy="243.41" rx="184.73" ry="56.3" fill="url(#v)" mix-blend-mode="screen"/><ellipse cx="355.9" cy="243.41" rx="133.88" ry="40.81" fill="url(#w)" mix-blend-mode="screen"/><ellipse cx="346.33" cy="243.41" rx="115.38" ry="35.16" fill="url(#x)" mix-blend-mode="screen"/><ellipse cx="346.33" cy="243.41" rx="91.75" ry="27.96" fill="url(#y)" mix-blend-mode="screen"/><polygon points="539.89 597.21 489.27 712.44 200.94 718.14 159.96 646.58 159.96 781.33 202.2 758.68 486.46 758.68 532.52 782.74 539.89 597.21" fill="url(#z)" fill-rule="evenodd" mix-blend-mode="multiply" opacity=".2"/><polygon points="264.21 805.6 267.75 805.6 267.15 116.8 264.21 116.8 264.21 805.6" fill="url(#aa)" fill-rule="evenodd"/><polygon points="440.26 806.81 435.46 806.81 450.83 116.8 455.48 116.8 440.26 806.81" fill="url(#ab)" fill-rule="evenodd"/><polygon points="577.04 116.81 551.88 805.62 551.88 806.09 440.27 806.8 455.11 133.18 455.47 116.81 577.04 116.81" fill="url(#ac)" fill-rule="evenodd"/><polygon points="264.22 116.81 264.22 805.59 142.38 806.8 142.38 116.81 264.22 116.81" fill="url(#ad)" fill-rule="evenodd"/><polygon points="598.34 82.99 566.91 805.68 551.88 805.62 544.22 805.59 567.14 127.49 455.11 133.18 455.47 116.81 264.22 116.81 264.22 142.88 158.76 148.25 159.97 805.59 142.38 806.42 134.28 806.8 123.86 81.3 597.4 82.99 598.34 82.99" fill="url(#ae)" fill-rule="evenodd" mix-blend-mode="multiply" opacity=".6"/><polygon points="140.65 679.51 264.21 668.51 264.22 805.59 142.38 806.42 140.65 679.51" fill="url(#af)" fill-rule="evenodd" mix-blend-mode="multiply" opacity=".2"/><polygon points="445.47 570.67 561.83 541.37 551.88 806.09 440.27 806.8 445.47 570.67" fill="url(#ag)" fill-rule="evenodd" mix-blend-mode="multiply" opacity=".2"/><ellipse cx="351.67" cy="148.25" rx="192.9" ry="84.33" fill="url(#ah)" mix-blend-mode="screen"/><polygon points="267.75 552.87 441.32 552.87 441.09 566.32 267.75 565.23 267.75 552.87" fill="url(#ai)" fill-rule="evenodd" mix-blend-mode="multiply" opacity=".6"/><polygon points="267.75 543.6 441.32 543.6 441.09 557.06 267.75 555.96 267.75 543.6" fill="url(#aj)" fill-rule="evenodd"/><polygon points="707.46 66.1 28.79 798.51 0 767.44 678.67 35.03 707.46 66.1" fill="#bc4a4a"/><polygon points="678.67 791.61 0 59.2 28.79 28.12 707.46 760.53 678.67 791.61" fill="#bc4a4a"/></g></g></svg>