<?xml version="1.0" encoding="UTF-8"?><svg xmlns="http://www.w3.org/2000/svg" viewBox="0 0 101.43 77.19"><g isolation="isolate"><g id="a"><path d="M56.12,43.04c0,10.33,1.26,19.97,3.43,28.13.91,3.41,4.3,5.78,8.16,5.78h22.14c3.86,0,7.25-2.38,8.16-5.78,2.17-8.16,3.43-17.8,3.43-28.13s-1.26-19.97-3.43-28.13c-.91-3.41-4.3-5.78-8.16-5.78h-22.14c-3.86,0-7.25,2.38-8.16,5.78-2.17,8.16-3.43,17.8-3.43,28.13Z" fill="#d0f3fb" fill-rule="evenodd"/><path d="M60.33,43.04c0,9.13,1.02,17.65,2.79,24.86.74,3.01,3.5,5.11,6.64,5.11h18.01c3.14,0,5.9-2.1,6.64-5.11,1.77-7.21,2.79-15.73,2.79-24.86s-1.02-17.65-2.79-24.86c-.74-3.01-3.5-5.11-6.64-5.11h-18.01c-3.14,0-5.9,2.1-6.64,5.11-1.77,7.21-2.79,15.73-2.79,24.86Z" fill="#99cbd7" fill-rule="evenodd"/><path d="M85.55,69.62c-2.88-1.97,1.5-14.39.96-27.58-.54-13.19-4.09-24.31-.31-26.53,3.78-2.22,6.69,16.23,6.88,30.92.19,14.69-3.01,26.28-7.53,23.19Z" fill="#a4d9e6" fill-rule="evenodd"/><path d="M78.29,71.73c-3-1.72.44-15.05-1.06-28.64-1.5-13.59-5.84-24.7-2.24-27.41,3.6-2.71,7.84,16.06,9.09,31.23,1.25,15.17-1.08,27.52-5.79,24.82Z" fill="#a4d9e6" fill-rule="evenodd"/><path d="M70.18,69.64c2.85-1.9-1.68-13.88-1.3-26.61.37-12.73,3.79-23.45-.02-25.59s-6.49,15.66-6.49,29.83,3.34,25.35,7.82,22.37Z" fill="#a4d9e6" fill-rule="evenodd"/><path d="M91.3,69.41c2.46-2.63-3.96-14.03-5.73-27.34s-.25-25.23-4.31-26.58c-4.07-1.35-3.69,17.76-1.31,32.47,2.38,14.72,7.51,25.56,11.36,21.44Z" fill="#afe8f5" fill-rule="evenodd"/><path d="M86.91,69.71c3.02-2.15-.35-13.8,1.23-26.61,1.58-12.81,6-23.87,2.41-25.7s-7.96,16.27-9.3,30.5c-1.35,14.23.92,25.18,5.66,21.8Z" fill="#afe8f5" fill-rule="evenodd"/><path d="M77.52,69.72c2.62-2.64-2.79-14.11-3.49-27.49-.7-13.38,1.73-25.37-2.15-26.73-3.89-1.36-5.01,17.85-3.83,32.65,1.18,14.8,5.37,25.72,9.47,21.57Z" fill="#afe8f5" fill-rule="evenodd"/><path d="M56.12,43.04c0,3.2.12,6.33.35,9.37h44.61c.23-3.04.35-6.17.35-9.37,0-3.41-.14-6.75-.4-9.98h-44.51c-.26,3.23-.4,6.57-.4,9.98Z" fill="#1f7962" fill-rule="evenodd"/><circle cx="78.77" cy="42.5" r="14.86" transform="translate(-6.98 68.15) rotate(-45)" fill="#2b9e82"/><path d="M72.79,40.34c.89-2.45,3.22-4.2,5.98-4.2s5.09,1.75,5.98,4.2h5.31c-1.01-5.31-5.68-9.33-11.28-9.33s-10.27,4.02-11.28,9.33h5.31Z" fill="#fff" fill-rule="evenodd"/><path d="M84.56,45.12c-1,2.2-3.21,3.74-5.79,3.74s-4.79-1.54-5.79-3.74h-5.39c1.19,5.08,5.74,8.87,11.18,8.87s9.99-3.79,11.18-8.87h-5.39Z" fill="#fff" fill-rule="evenodd"/><circle cx="78.77" cy="42.5" r="4.16" transform="translate(24.23 113.47) rotate(-80.81)" fill="#fff"/><path d="M98,14.91c-.62-2.34-2.42-4.2-4.74-5.13.24.44.45.91.58,1.4,2.17,7.78,3.43,16.97,3.43,26.81s-1.26,19.04-3.43,26.81c-.91,3.25-4.3,5.51-8.16,5.51h-22.14c-1.63,0-3.18-.41-4.5-1.13.16.66.32,1.32.5,1.97.91,3.41,4.3,5.78,8.16,5.78h22.14c3.86,0,7.25-2.38,8.16-5.78,2.17-8.16,3.43-17.8,3.43-28.13s-1.26-19.97-3.43-28.13Z" fill-rule="evenodd" mix-blend-mode="multiply" opacity=".15"/><path d="M67.94,11.54c-3.24,0-6.09,2.1-6.86,5.11-1.51,5.96-2.49,12.81-2.78,20.17h2.22c3.24,0,6.09-2.1,6.86-5.11,1.51-5.96,2.49-12.81,2.78-20.17h-2.22Z" fill="#fff" fill-rule="evenodd" opacity=".3"/><rect x="61.98" y="0" width="33.58" height="9.96" rx="3.17" ry="3.17" fill="#2b9e82"/><rect x="61.98" y="0" width="33.58" height="9.96" rx="3.17" ry="3.17" fill="#2b9e82"/><path d="M89.29,1.34v7.28c0,.74-.6,1.34-1.34,1.34h6c.89,0,1.61-.73,1.61-1.61V1.61c0-.89-.73-1.61-1.61-1.61h-6c.74,0,1.34.6,1.34,1.34Z" fill-rule="evenodd" mix-blend-mode="multiply" opacity=".15"/><path d="M86.78,1.34C86.78.6,86.18,0,85.44,0h-2.51c.74,0,1.34.6,1.34,1.34v7.28c0,.74-.6,1.34-1.34,1.34h2.51c.74,0,1.34-.6,1.34-1.34V1.34Z" fill-rule="evenodd" mix-blend-mode="multiply" opacity=".1"/><path d="M63.91,8.62c0,.74.6,1.34,1.34,1.34h2.51c-.74,0-1.34-.6-1.34-1.34V1.34C66.42.6,67.03,0,67.76,0h-2.51c-.74,0-1.34.6-1.34,1.34v7.28Z" fill="#fff" fill-rule="evenodd" opacity=".2"/><rect x="48.09" y="41.67" width="46.95" height="33.11" fill="#ff5252"/><path d="M71.56,45.61c8.78,0,16.89.9,23.48,2.43v-6.37h-46.95v6.37c6.58-1.53,14.69-2.43,23.48-2.43Z" fill-rule="evenodd" mix-blend-mode="multiply" opacity=".15"/><path d="M71.56,70.85c-8.78,0-16.89-.9-23.48-2.43v6.37h46.95v-6.37c-6.58,1.53-14.69,2.43-23.48,2.43Z" fill-rule="evenodd" mix-blend-mode="multiply" opacity=".15"/><rect x="48.09" y="54.23" width="46.95" height="8" fill="#c23636"/><path d="M96.25,73.1h-49.38c-1.12,0-2.04.92-2.04,2.04h0c0,1.12.92,2.04,2.04,2.04h49.38c1.12,0,2.04-.92,2.04-2.04h0c0-1.12-.92-2.04-2.04-2.04Z" fill="#d5d1cf" fill-rule="evenodd"/><path d="M96.25,75.08h-49.38c-.74,0-1.38-.4-1.74-.99-.19.31-.3.67-.3,1.05,0,1.12.92,2.04,2.04,2.04h49.38c1.12,0,2.04-.92,2.04-2.04,0-.39-.11-.75-.3-1.05-.36.59-1,.99-1.74.99Z" fill-rule="evenodd" mix-blend-mode="multiply" opacity=".15"/><path d="M96.25,39.63h-49.38c-1.12,0-2.04.92-2.04,2.04h0c0,1.12.92,2.04,2.04,2.04h49.38c1.12,0,2.04-.92,2.04-2.04h0c0-1.12-.92-2.04-2.04-2.04Z" fill="#d5d1cf" fill-rule="evenodd"/><path d="M83.87,65.57c.53-1.44.78-3,.71-4.62-.27-6.3-5.6-11.5-12.19-11.89-7.57-.45-13.85,5.28-13.85,12.41,0,1.43.25,2.81.72,4.09.41,1.11,1.5,1.86,2.73,1.86h19.15c1.23,0,2.32-.75,2.73-1.85Z" fill="#fff" fill-rule="evenodd"/><path d="M64.64,63.24c-.01-.19-.02-.39-.02-.58,0-4.13,3.35-7.46,7.39-7.2,3.52.23,6.36,3.24,6.5,6.89.01.3,0,.59-.02.88h1.96c.24-.81.36-1.67.32-2.56-.19-4.25-3.96-7.75-8.62-8.01-5.35-.3-9.8,3.56-9.8,8.37,0,.76.12,1.5.33,2.21h1.96Z" fill="#ffa9a9" fill-rule="evenodd"/><path d="M58.62,70.93v-30.81c0-.16-.01-.32-.02-.49h-11.73c-1.12,0-2.04.92-2.04,2.04s.92,2.04,2.04,2.04h1.22v29.39h-1.22c-.74,0-1.38.4-1.74.99,0,0,0,0,0,0-.07.12-.13.25-.18.39-.02.06-.04.12-.05.17-.01.05-.02.09-.03.14-.02.11-.04.23-.04.35,0,1.12.92,2.04,2.04,2.04h5.48c3.44,0,6.26-2.82,6.26-6.26Z" fill-rule="evenodd" mix-blend-mode="multiply" opacity=".15"/><path d="M25.14,27.31h4.26c13.88,0,25.14,11.27,25.14,25.14v12.43c0,6.79-5.51,12.3-12.3,12.3H12.3C5.51,77.19,0,71.68,0,64.89v-12.43C0,38.58,11.27,27.31,25.14,27.31Z" fill="#d0f3fb"/><path d="M25.64,30.34h3.25c12.05,0,21.83,9.78,21.83,21.83v11.2c0,5.89-4.79,10.68-10.68,10.68H14.5c-5.89,0-10.68-4.79-10.68-10.68v-11.2c0-12.05,9.78-21.83,21.83-21.83Z" fill="#99cbd7"/><path d="M43.75,49.72c-1.83,1.47-5.49-.75-8.62-4.62-3.13-3.87-4.53-7.92-2.71-9.4,1.83-1.47,7.22-5.83,12.89,1.18,5.37,6.66.26,11.37-1.56,12.85Z" fill="#ffcaaa" fill-rule="evenodd"/><path d="M42.78,48.45c-1.17.94-4.2-.87-6.77-4.06s-3.71-6.53-2.54-7.47c1.17-.94,4.2.87,6.77,4.06,2.57,3.18,3.71,6.53,2.54,7.47Z" fill="#dea181" fill-rule="evenodd"/><path d="M33.78,49.63c-1.28,1.03-3.07.94-4-.21-.93-1.15-.64-2.92.64-3.95s8.02-4.93,8.94-3.79c.93,1.15-4.3,6.91-5.58,7.94Z" fill="#ffcaaa" fill-rule="evenodd"/><path d="M20.76,33.9c2.15-.94,5.1,2.18,7.09,6.74,1.99,4.56,2.28,8.84.13,9.78-2.15.94-8.51,3.72-12.12-4.54-3.43-7.84,2.75-11.04,4.9-11.98Z" fill="#dea181" fill-rule="evenodd"/><path d="M21.37,35.39c1.37-.6,3.82,1.95,5.46,5.7,1.64,3.75,1.85,7.28.48,7.88-1.37.6-3.82-1.95-5.46-5.7s-1.85-7.28-.48-7.88Z" fill="#b8856b" fill-rule="evenodd"/><path d="M30.35,36.63c1.51-.66,3.21-.1,3.8,1.26s-.15,2.98-1.66,3.64c-1.51.66-9.03,2.64-9.63,1.29s5.98-5.53,7.48-6.19Z" fill="#dea181" fill-rule="evenodd"/><path d="M23.4,36.94c1.68,1.64-.11,5.54-3.59,9.1-3.48,3.56-7.34,5.43-9.02,3.78-1.68-1.64-6.64-6.5-.33-12.94,5.98-6.11,11.26-1.59,12.94.05Z" fill="#ffcaaa" fill-rule="evenodd"/><path d="M22.24,38.05c1.07,1.05-.38,4.27-3.24,7.2-2.86,2.92-6.05,4.44-7.12,3.4-1.07-1.05.38-4.27,3.24-7.2,2.86-2.92,6.05-4.44,7.12-3.4Z" fill="#dea181" fill-rule="evenodd"/><path d="M24.46,46.85c1.18,1.15,1.29,2.94.26,3.99-1.03,1.06-2.82.98-4-.17s-5.84-7.38-4.8-8.44c1.03-1.06,7.37,3.47,8.54,4.62Z" fill="#ffcaaa" fill-rule="evenodd"/><path d="M46.8,58.77c-.86,2.18-5.15,2.06-9.78.24-4.63-1.82-7.86-4.65-7-6.84s3.4-8.64,11.79-5.34c7.96,3.13,5.85,9.76,4.99,11.94Z" fill="#dea181" fill-rule="evenodd"/><path d="M45.32,58.14c-.55,1.4-4.08,1.31-7.89-.18-3.81-1.5-6.45-3.84-5.9-5.24.55-1.4,4.08-1.31,7.89.18,3.81,1.5,6.45,3.84,5.9,5.24Z" fill="#b8856b" fill-rule="evenodd"/><path d="M38.08,63.61c-.6,1.53-2.2,2.33-3.58,1.79-1.37-.54-2-2.22-1.4-3.75.6-1.53,4.53-8.25,5.91-7.71,1.37.54-.33,8.14-.93,9.67Z" fill="#dea181" fill-rule="evenodd"/><path d="M17.76,45.7c.96-1.34,2.71-1.72,3.91-.86,1.2.86,1.39,2.64.43,3.98-.96,1.34-6.42,6.88-7.62,6.02-1.2-.86,2.32-7.8,3.28-9.14Z" fill="#dea181" fill-rule="evenodd"/><path d="M8.12,48.25c1.37-1.91,5.49-.73,9.54,2.18,4.04,2.91,6.47,6.44,5.1,8.35-1.37,1.91-5.42,7.54-12.74,2.28-6.95-4.99-3.27-10.9-1.9-12.8Z" fill="#b8856b" fill-rule="evenodd"/><path d="M29.1,62.58c-1.5-.68-2.22-2.32-1.61-3.67.61-1.34,2.32-1.88,3.82-1.2,1.5.68,8.01,4.95,7.4,6.29-.61,1.34-8.11-.74-9.61-1.42Z" fill="#dea181" fill-rule="evenodd"/><path d="M33.61,71.53c-2.14-.97-1.79-5.24.26-9.78,2.06-4.53,5.05-7.61,7.18-6.64,2.14.97,8.46,3.84,4.73,12.04-3.54,7.79-10.04,5.34-12.18,4.37Z" fill="#ffcaaa" fill-rule="evenodd"/><path d="M25.58,70.03c-.61,1.53-2.22,2.32-3.59,1.77-1.37-.55-1.98-2.24-1.37-3.76.61-1.53,4.6-8.21,5.97-7.66,1.37.55-.39,8.13-1.01,9.66Z" fill="#dea181" fill-rule="evenodd"/><path d="M34.33,65.14c-.88,2.18-5.16,2.02-9.78.16-4.62-1.86-7.82-4.71-6.94-6.89.88-2.18,3.47-8.61,11.83-5.25,7.94,3.19,5.77,9.8,4.89,11.98Z" fill="#ffcaaa" fill-rule="evenodd"/><path d="M9.13,57.39c1.31-1.95,5.47-.9,9.6,1.88,4.13,2.78,6.67,6.24,5.36,8.18-1.31,1.95-5.18,7.71-12.66,2.67-7.1-4.78-3.6-10.79-2.29-12.74Z" fill="#dea181" fill-rule="evenodd"/><path d="M10.39,58.24c.84-1.24,4.27-.4,7.66,1.88s5.47,5.14,4.63,6.39c-.84,1.24-4.27.4-7.66-1.88s-5.47-5.14-4.63-6.39Z" fill="#b8856b" fill-rule="evenodd"/><path d="M18.69,54.54c.92-1.37,2.66-1.8,3.88-.98,1.22.82,1.47,2.6.56,3.96-.92,1.37-6.2,7.08-7.43,6.25-1.22-.82,2.07-7.87,2.99-9.24Z" fill="#dea181" fill-rule="evenodd"/><path d="M46.69,28.32c1.71,2.18,2.74,4.92,2.74,7.89v30.81c0,3.44-2.82,6.26-6.26,6.26H1.16c-.24,0-.47-.02-.71-.04.92,2.31,3.18,3.96,5.81,3.96h42.01c3.44,0,6.26-2.82,6.26-6.26v-30.81c0-5.29-3.25-9.85-7.85-11.8Z" fill-rule="evenodd" mix-blend-mode="multiply" opacity=".15"/><path d="M12.59,29.49c-5.89,0-10.7,4.82-10.7,10.7v20.56c0,.75.61,1.36,1.36,1.36h0c6.25,0,11.35-5.11,11.35-11.35v-19.91c0-.75-.61-1.36-1.36-1.36h-.65Z" fill="#fff" fill-rule="evenodd" opacity=".3"/><rect x="7.35" y="19.12" width="39.85" height="8.78" rx="3.24" ry="3.24" fill="#ff5252"/><path d="M47.19,26.25v-5.48c0-.91-.74-1.65-1.65-1.65h-8.11c.65,0,1.18.53,1.18,1.18v6.41c0,.65-.53,1.18-1.18,1.18h8.11c.91,0,1.65-.74,1.65-1.65Z" fill-rule="evenodd" mix-blend-mode="multiply" opacity=".15"/><path d="M36.4,20.3c0-.65-.53-1.18-1.18-1.18h-2.21c.65,0,1.18.53,1.18,1.18v6.41c0,.65-.53,1.18-1.18,1.18h2.21c.65,0,1.18-.53,1.18-1.18v-6.41Z" fill-rule="evenodd" mix-blend-mode="multiply" opacity=".1"/><path d="M9.45,26.72c0,.65.53,1.18,1.18,1.18h2.21c-.65,0-1.18-.53-1.18-1.18v-6.41c0-.65.53-1.18,1.18-1.18h-2.21c-.65,0-1.18.53-1.18,1.18v6.41Z" fill="#fff" fill-rule="evenodd" opacity=".2"/></g></g></svg>