<?xml version="1.0" encoding="UTF-8"?><svg id="a" xmlns="http://www.w3.org/2000/svg" viewBox="0 0 56 69.11"><path d="M7.28,4.35h3.08v1.45c0,.35,2.27,1.98,3.31,4.36,1.05,2.38.87,4.36.87,4.36v34.14s-.7,4.77-2.62,5.12c0,0-.47.93-2.09.93s-1.74-.81-1.8-1.11-.43,0-.76,0-.7-.3-.76,0c-.06.29-.17,1.11-1.8,1.11s-2.09-.93-2.09-.93C.71,53.44.01,48.67.01,48.67V14.53s-.17-1.98.87-4.36,3.31-4.01,3.31-4.36v-1.45h3.08Z" fill="#c5eaff"/><path d="M7.28,53.62c.33,0,.7-.3.76,0,.06.29.17,1.11,1.8,1.11s2.09-.93,2.09-.93c1.92-.35,2.62-5.12,2.62-5.12V14.53s.17-1.98-.87-4.36c-1.05-2.38-3.31-4.01-3.31-4.36v-1.45h-3.08v49.26Z" fill="#b0dcf9"/><path d="M9.76,5.37h-4.95c-.49,0-.89-.4-.89-.89V1.59c0-.49.4-.89.89-.89h4.95c.49,0,.89.4.89.89v2.89c0,.49-.4.89-.89.89Z" fill="#2e5e7f"/><path d="M7.28,5.37h2.6c.43,0,.77-.34.77-.77V1.47c0-.43-.34-.77-.77-.77h-2.6v4.67Z" fill="#1c466e"/><rect x="1.89" y="14.78" width="10.79" height="25.15" fill="#2e5e7f"/><rect x="7.28" y="14.78" width="5.39" height="25.15" fill="#1c466e"/><path d="M24.31,4h3.08v1.45c0,.35,2.27,1.98,3.31,4.36,1.05,2.38.87,4.36.87,4.36v34.14s-.7,4.77-2.62,5.12c0,0-.47.93-2.09.93s-1.74-.81-1.8-1.11-.43,0-.76,0-.7-.3-.76,0c-.06.29-.17,1.11-1.8,1.11s-2.09-.93-2.09-.93c-1.92-.35-2.62-5.12-2.62-5.12V14.18s-.17-1.98.87-4.36,3.31-4.01,3.31-4.36v-1.45h3.08Z" fill="#c5eaff"/><path d="M24.31,53.27c.33,0,.7-.3.76,0,.06.29.17,1.11,1.8,1.11s2.09-.93,2.09-.93c1.92-.35,2.62-5.12,2.62-5.12V14.18s.17-1.98-.87-4.36c-1.05-2.38-3.31-4.01-3.31-4.36v-1.45h-3.08v49.26Z" fill="#b0dcf9"/><path d="M26.78,5.02h-4.95c-.49,0-.89-.4-.89-.89V1.24c0-.49.4-.89.89-.89h4.95c.49,0,.89.4.89.89v2.89c0,.49-.4.89-.89.89Z" fill="#2e5e7f"/><path d="M24.31,5.02h2.6c.43,0,.77-.34.77-.77V1.12c0-.43-.34-.77-.77-.77h-2.6v4.67Z" fill="#1c466e"/><rect x="18.91" y="14.43" width="10.79" height="25.15" fill="#2e5e7f"/><rect x="24.31" y="14.43" width="5.39" height="25.15" fill="#1c466e"/><path d="M41.54,3.65h3.08v1.45c0,.35,2.27,1.98,3.31,4.36,1.05,2.38.87,4.36.87,4.36v34.14s-.7,4.77-2.62,5.12c0,0-.47.93-2.09.93s-1.74-.81-1.8-1.11-.43,0-.76,0-.7-.3-.76,0c-.06.29-.17,1.11-1.8,1.11s-2.09-.93-2.09-.93c-1.92-.35-2.62-5.12-2.62-5.12V13.83s-.17-1.98.87-4.36,3.31-4.01,3.31-4.36v-1.45h3.08Z" fill="#c5eaff"/><path d="M41.54,52.92c.33,0,.7-.3.76,0,.06.29.17,1.11,1.8,1.11s2.09-.93,2.09-.93c1.92-.35,2.62-5.12,2.62-5.12V13.83s.17-1.98-.87-4.36c-1.05-2.38-3.31-4.01-3.31-4.36v-1.45h-3.08v49.26Z" fill="#b0dcf9"/><path d="M44.02,4.67h-4.95c-.49,0-.89-.4-.89-.89V.89C38.17.4,38.57,0,39.06,0h4.95c.49,0,.89.4.89.89v2.89c0,.49-.4.89-.89.89Z" fill="#2e5e7f"/><path d="M41.54,4.67h2.6c.43,0,.77-.34.77-.77V.77c0-.43-.34-.77-.77-.77h-2.6v4.67Z" fill="#1c466e"/><rect x="36.14" y="14.08" width="10.79" height="25.15" fill="#2e5e7f"/><rect x="41.54" y="14.08" width="5.39" height="25.15" fill="#1c466e"/><path d="M14.46,18.75h3.08v1.45c0,.35,2.27,1.98,3.31,4.36,1.05,2.38.87,4.36.87,4.36v34.14s-.7,4.77-2.62,5.12c0,0-.47.93-2.09.93s-1.74-.81-1.8-1.11-.43,0-.76,0-.7-.3-.76,0c-.06.29-.17,1.11-1.8,1.11s-2.09-.93-2.09-.93c-1.92-.35-2.62-5.12-2.62-5.12V28.92s-.17-1.98.87-4.36,3.31-4.01,3.31-4.36v-1.45h3.08Z" fill="#c5eaff"/><path d="M14.46,68.01c.33,0,.7-.3.76,0,.06.29.17,1.11,1.8,1.11s2.09-.93,2.09-.93c1.92-.35,2.62-5.12,2.62-5.12V28.93s.17-1.98-.87-4.36c-1.05-2.38-3.31-4.01-3.31-4.36v-1.45h-3.08v49.26Z" fill="#b0dcf9"/><path d="M16.94,19.77h-4.95c-.49,0-.89-.4-.89-.89v-2.89c0-.49.4-.89.89-.89h4.95c.49,0,.89.4.89.89v2.89c0,.49-.4.89-.89.89Z" fill="#2e5e7f"/><path d="M14.46,19.77h2.6c.43,0,.77-.34.77-.77v-3.13c0-.43-.34-.77-.77-.77h-2.6v4.67Z" fill="#1c466e"/><rect x="9.07" y="29.18" width="10.79" height="25.15" fill="#2e5e7f"/><rect x="14.46" y="29.18" width="5.39" height="25.15" fill="#1c466e"/><path d="M31.48,18.4h3.08v1.45c0,.35,2.27,1.98,3.31,4.36,1.05,2.38.87,4.36.87,4.36v34.14s-.7,4.77-2.62,5.12c0,0-.47.93-2.09.93s-1.74-.81-1.8-1.11-.43,0-.76,0-.7-.3-.76,0c-.06.29-.17,1.11-1.8,1.11s-2.09-.93-2.09-.93c-1.92-.35-2.62-5.12-2.62-5.12V28.58s-.17-1.98.87-4.36,3.31-4.01,3.31-4.36v-1.45h3.08Z" fill="#c5eaff"/><path d="M31.48,67.66c.33,0,.7-.3.76,0,.06.29.17,1.11,1.8,1.11s2.09-.93,2.09-.93c1.92-.35,2.62-5.12,2.62-5.12V28.58s.17-1.98-.87-4.36c-1.05-2.38-3.31-4.01-3.31-4.36v-1.45h-3.08v49.26Z" fill="#b0dcf9"/><path d="M33.96,19.42h-4.95c-.49,0-.89-.4-.89-.89v-2.89c0-.49.4-.89.89-.89h4.95c.49,0,.89.4.89.89v2.89c0,.49-.4.89-.89.89Z" fill="#2e5e7f"/><path d="M31.48,19.42h2.6c.43,0,.77-.34.77-.77v-3.13c0-.43-.34-.77-.77-.77h-2.6v4.67Z" fill="#1c466e"/><rect x="26.09" y="28.83" width="10.79" height="25.15" fill="#2e5e7f"/><rect x="31.48" y="28.83" width="5.39" height="25.15" fill="#1c466e"/><path d="M48.72,18.05h3.08v1.45c0,.35,2.27,1.98,3.31,4.36,1.05,2.38.87,4.36.87,4.36v34.14s-.7,4.77-2.62,5.12c0,0-.47.93-2.09.93s-1.74-.81-1.8-1.11-.43,0-.76,0-.7-.3-.76,0c-.06.29-.17,1.11-1.8,1.11s-2.09-.93-2.09-.93c-1.92-.35-2.62-5.12-2.62-5.12V28.23s-.17-1.98.87-4.36,3.31-4.01,3.31-4.36v-1.45h3.08Z" fill="#c5eaff"/><path d="M48.72,67.31c.33,0,.7-.3.76,0,.06.29.17,1.11,1.8,1.11s2.09-.93,2.09-.93c1.92-.35,2.62-5.12,2.62-5.12V28.23s.17-1.98-.87-4.36c-1.05-2.38-3.31-4.01-3.31-4.36v-1.45h-3.08v49.26Z" fill="#b0dcf9"/><path d="M51.19,19.07h-4.95c-.49,0-.89-.4-.89-.89v-2.89c0-.49.4-.89.89-.89h4.95c.49,0,.89.4.89.89v2.89c0,.49-.4.89-.89.89Z" fill="#2e5e7f"/><path d="M48.72,19.07h2.6c.43,0,.77-.34.77-.77v-3.13c0-.43-.34-.77-.77-.77h-2.6v4.67Z" fill="#1c466e"/><rect x="43.32" y="28.48" width="10.79" height="25.15" fill="#2e5e7f"/><rect x="48.72" y="28.48" width="5.39" height="25.15" fill="#1c466e"/></svg>