<?xml version="1.0" encoding="UTF-8"?><svg xmlns="http://www.w3.org/2000/svg" viewBox="0 0 150.73 100.92"><g isolation="isolate"><g id="a"><path d="M150.67,31.76h0s-1.37-19.6-1.37-19.6c-.48-6.82-6.46-12.16-13.62-12.16h-34.15c-6.93,0-12.74,5-13.54,11.5h-.68c-1.54,0-2.88.86-3.58,2.12h-.07c-1.33,0-2.44.88-2.82,2.09H22.45C10.07,15.71,0,25.78,0,38.16v33.38c0,12.38,10.07,22.45,22.45,22.45h37.77v1.22c0,1.1.9,2,2,2h.75c.32.69,1.01,1.16,1.82,1.16h.13c.16.82.81,1.47,1.66,1.6l6.07.92c.1.01.2.02.3.02h16.29c1.1,0,2-.9,2-2v-.97h9.87c1.1,0,2-.9,2-2v-9.84c0-1.1-.9-2-2-2h-9.87v-.97c0-1.1-.9-2-2-2h-16.29c-.1,0-.2,0-.3.02l-6.07.92c-.85.13-1.51.78-1.66,1.6h-.13c-.81,0-1.5.48-1.82,1.16h-.75c-1.1,0-2,.9-2,2v.5H22.45c-8.71,0-15.8-7.09-15.8-15.8v-33.38c0-8.71,7.09-15.8,15.8-15.8h58.26c.1,1.54,1.38,2.77,2.94,2.77h.07c.64,1.13,1.78,1.93,3.13,2.08l-.32,4.55s0,0,0,0l-.04.62c-.11,1.55.44,3.09,1.5,4.23,1.06,1.14,2.56,1.79,4.12,1.79h15.79v10.88c0,3.04,2.47,5.5,5.5,5.5h.73v.6c0,.59.26,1.11.66,1.48v4.15c0,1.72,1.4,3.11,3.11,3.11h.72c1.72,0,3.11-1.4,3.11-3.11v-4.15c.4-.37.66-.89.66-1.48v-.6h7.63v.6c0,.59.26,1.11.66,1.48v4.15c0,1.72,1.4,3.11,3.11,3.11h.72c1.72,0,3.11-1.4,3.11-3.11v-4.15c.4-.37.66-.89.66-1.48v-.6h.73c3.03,0,5.5-2.47,5.5-5.5v-10.88h.57c1.56,0,3.06-.65,4.12-1.79,1.06-1.14,1.61-2.68,1.5-4.23l-.04-.62Z" fill="#523d3d" mix-blend-mode="multiply" opacity=".13"/><path d="M22.45,91.99h42.78c.73,0,1.32-.59,1.32-1.32s-.59-1.32-1.32-1.32H22.45c-9.81,0-17.8-7.98-17.8-17.8v-33.38c0-9.81,7.98-17.8,17.8-17.8h69.36c.73,0,1.32-.59,1.32-1.32s-.59-1.32-1.32-1.32H22.45c-11.27,0-20.45,9.17-20.45,20.45v33.38c0,11.28,9.17,20.45,20.45,20.45Z" fill="#2b2020"/><rect x="85.17" y="13.5" width="9.66" height="11.75" rx="2.13" ry="2.13" transform="translate(180 38.76) rotate(180)" fill="#2b2020"/><rect x="82.69" y="15.63" width="6.17" height="7.51" rx=".96" ry=".96" transform="translate(171.54 38.76) rotate(180)" fill="#2b2020"/><rect x="132.69" y="49.61" width="2.94" height="12.51" rx="1.11" ry="1.11" transform="translate(268.32 111.73) rotate(180)" fill="#dedede"/><rect x="132.03" y="48.92" width="4.27" height="6.46" transform="translate(268.32 104.3) rotate(180)" fill="#2b2020"/><rect x="116.79" y="49.61" width="2.94" height="12.51" rx="1.11" ry="1.11" transform="translate(236.53 111.73) rotate(180)" fill="#dedede"/><rect x="116.13" y="48.92" width="4.27" height="6.46" transform="translate(236.53 104.3) rotate(180)" fill="#2b2020"/><rect x="109.89" y="25.31" width="32.63" height="27.48" rx="3.5" ry="3.5" transform="translate(252.42 78.1) rotate(180)" fill="#4a3737"/><path d="M92.1,36.41c-2.1,0-3.77-1.78-3.62-3.88l1.41-20.22c.4-5.76,5.6-10.3,11.63-10.3h34.15c6.02,0,11.23,4.55,11.63,10.3l1.41,20.22c.15,2.1-1.52,3.88-3.62,3.88h-52.99Z" fill="#4a3737"/><path d="M148.68,31.9l.04.62c.15,2.1-1.52,3.88-3.62,3.88h-52.99c-2.1,0-3.77-1.78-3.62-3.88l.04-.62h60.15Z" fill="#2b2020"/><rect x="86.35" y="86.11" width="14.76" height="9.84" transform="translate(187.45 182.06) rotate(180)" fill="#8f8f8f"/><rect x="86.35" y="86.11" width="14.76" height="2.28" transform="translate(187.45 174.5) rotate(180)" fill="#dedede"/><polygon points="64.78 86.85 64.78 85.69 66.87 85.69 66.87 84.06 72.94 83.14 72.94 83.14 89.23 83.14 89.23 98.92 72.94 98.92 72.94 98.92 66.87 98 66.87 96.37 64.78 96.37 64.78 95.21 62.22 95.21 62.22 86.85 64.78 86.85" fill="#2b2020"/></g></g></svg>