<?xml version="1.0" encoding="UTF-8"?><svg id="a" xmlns="http://www.w3.org/2000/svg" viewBox="0 0 93.93 92.11"><path d="M60.32,26.23l-1.65-.75c.32-.7.56-1.41.72-2.12l1.77.4c-.19.83-.47,1.66-.84,2.47Z" fill="#dee2e3"/><path d="M60.73,19.15c-.02.58-.03,2.16-.1,2.73" fill="none" stroke="#dee2e3" stroke-miterlimit="10" stroke-width="7"/><path d="M31.66,32.85c-.58-.53-1.14-1.12-1.68-1.75l1.37-1.18c.5.58,1.02,1.12,1.54,1.61l-1.23,1.33Z" fill="#dee2e3"/><path d="M23.57,43.97l-4.47,13.31c-.12.35-.5.54-.85.42l-.73-.25c-.35-.12-.74.07-.85.42l-10.21,30.4c-.12.35-.45.83-.74,1.06l-1.78,1.42-1.35,1.08s-.06.05-.1.07c-.29.18-.73.25-1.03.15-.23-.08-.44-.23-.57-.41-.06-.08-.1-.16-.11-.23-.04-.24-.14-.74-.2-1.1l-.11-.58-.43-2.28c-.07-.36-.03-.95.09-1.3l10.21-30.4c.12-.35-.07-.74-.42-.85l-.74-.25c-.35-.12-.54-.5-.42-.85l4.47-13.31c.12-.35.5-.54.85-.42l9.08,3.05c.35.12.54.5.42.85Z" fill="#dee2e3"/><path d="M12.3,57.66L.88,91.66c-.06-.08-.1-.16-.11-.23-.04-.24-.14-.74-.2-1.1l-.11-.58,10.88-32.41c.57-1.71.55-3.02-.06-3.92-.55-.81-1.47-1.11-2-1.22l.32-.96c.71.16,1.8.58,2.5,1.6.8,1.18.87,2.8.19,4.82Z" fill="#9ea3a6"/><path d="M13.9,61.09l-10.01,29.82-1.31.94s-.06.04-.1.06l10.46-31.15.96.32Z" fill="#9ea3a6"/><path d="M34.76,26.69h0c-.25-.13-.52-.25-.79-.34l-18.38-6.17c-2.93-.99-6.11.6-7.1,3.53l-4.02,11.96c-.19.56-.28,1.14-.29,1.7-.38,5.3,4.28,10.97,11.37,13.35,2.36.79,4.72,1.13,6.93,1.07,0,0,0,0,0,0,4.44-.13,8.26-1.88,10.19-4.85.34-.45.61-.97.8-1.53l4.02-11.96c.89-2.65-.32-5.51-2.73-6.76ZM32.77,31.37c-.33.98-1.39,1.5-2.37,1.18l-15.72-5.28c-.98-.33-1.51-1.39-1.18-2.37s1.39-1.5,2.37-1.18l15.72,5.28c.98.33,1.51,1.39,1.18,2.37" fill="#2d3e50"/><path d="M16.76,47.1c-4.16-1.4-6.41-5.92-5.02-10.09,1.4-4.16,5.92-6.41,10.09-5.02,4.16,1.4,6.41,5.92,5.02,10.09-1.4,4.16-5.92,6.41-10.09,5.02ZM21.62,32.63c-3.81-1.28-7.95.78-9.23,4.59-1.28,3.81.78,7.96,4.59,9.23,3.81,1.28,7.96-.78,9.24-4.59,1.28-3.81-.78-7.96-4.59-9.24Z" fill="#6f879b"/><g opacity=".4"><path d="M16.12,21.37s.27.07.73.2c.46.13,1.13.31,1.92.55.79.23,1.71.51,2.69.83.49.16,1,.31,1.51.49.51.17,1.04.34,1.56.51.52.18,1.04.36,1.55.53.51.17,1.01.36,1.5.53.97.34,1.88.68,2.65.97.77.29,1.41.55,1.86.72.45.18.7.29.7.29,0,0-.27-.07-.73-.2-.46-.13-1.13-.31-1.92-.55-.79-.23-1.71-.51-2.69-.83-.49-.16-1-.31-1.51-.49-.51-.17-1.04-.34-1.56-.51-.52-.18-1.04-.36-1.55-.53-.51-.17-1.01-.36-1.5-.53-.97-.34-1.88-.68-2.65-.97-.77-.29-1.41-.55-1.86-.72-.45-.18-.7-.29-.7-.29Z" fill="#fff"/></g><g opacity=".4"><path d="M12.56,20.91s-.06.03-.16.08c-.1.05-.25.14-.44.26-.37.23-.88.6-1.38,1.14-.25.27-.48.6-.67.96-.1.18-.16.38-.23.59-.07.22-.14.44-.21.66-.14.45-.29.92-.44,1.39-.16.47-.31.95-.47,1.43-.16.48-.33.95-.49,1.42-.16.47-.33.93-.48,1.37-.32.89-.62,1.72-.89,2.42-.27.71-.51,1.29-.67,1.7-.16.41-.27.64-.27.64,0,0,.06-.25.18-.67.12-.42.28-1.04.49-1.76.21-.73.47-1.57.75-2.47.14-.45.29-.92.44-1.39.16-.47.31-.95.47-1.43.16-.48.33-.95.49-1.42.16-.47.33-.93.48-1.37.08-.22.16-.44.23-.66.09-.22.18-.44.29-.63.23-.39.5-.72.79-.99.28-.27.57-.47.83-.64.27-.16.5-.29.7-.39.2-.1.36-.16.48-.2.11-.04.17-.06.17-.06Z" fill="#fff"/></g><g opacity=".4"><path d="M5.22,38.57s0,.05.03.13c.02.09.05.21.09.37.05.16.1.35.17.57.07.22.16.46.25.72.04.13.1.27.16.4.06.14.11.28.18.43.14.29.27.6.44.9.08.15.16.31.25.47.09.15.19.31.28.46l.14.24.16.23.31.46c.21.3.45.59.67.88.24.28.47.55.7.81.24.25.48.49.7.72.11.12.23.22.34.32.11.1.22.2.32.3.21.19.39.37.57.51.18.15.33.27.46.38.25.22.4.34.4.34,0,0-.17-.09-.45-.26-.14-.08-.32-.19-.52-.31-.2-.11-.41-.27-.64-.44-.23-.17-.49-.34-.73-.57-.24-.22-.51-.44-.77-.69-.24-.26-.51-.53-.75-.81-.23-.3-.48-.59-.7-.9l-.32-.48-.16-.24-.14-.25c-.09-.16-.18-.33-.27-.49-.09-.16-.16-.33-.24-.49-.16-.32-.27-.65-.4-.96-.11-.31-.2-.61-.27-.88-.03-.14-.07-.27-.1-.4-.02-.13-.05-.25-.07-.36-.05-.23-.06-.43-.08-.6-.03-.33-.03-.52-.03-.52Z" fill="#fff"/></g><path d="M37.15,34.45l-3.68,10.96c-.19.56-.46,1.08-.8,1.53-1.94,2.97-5.76,4.72-10.19,4.85,7.25-1.2,9.31-6.58,9.31-6.58,0,0,1.65-4.66,3.41-10.15,2.11-6.57-.36-8.25-.45-8.37,2.41,1.25,3.62,4.11,2.73,6.76l-.34,1" fill="#212121" isolation="isolate" opacity=".5"/><path d="M75.08,25.3h0c-1.28-.06-2.6.03-3.96.25v-.03c-2.11-3.85-6.31-5.87-10.45-5.36h0c-1.18.14-2.36.5-3.48,1.07-5.04,2.59-7.07,8.76-4.59,13.84-4.61,4.61-6.36,10.32-2.85,17.16,5.25,10.21,19.6,30.02,34.78,22.22,3.47-1.78,5.8-4.2,7.28-7h0c5.49-10.43-.95-26.17-5.08-34.22-2.77-5.39-6.88-7.72-11.65-7.93ZM61.21,29.06c-2.08,1.07-4,2.24-5.7,3.51-1-3.1.36-6.56,3.35-8.1,2.99-1.54,6.6-.62,8.53,2-2.03.64-4.1,1.52-6.18,2.59Z" fill="#2d3e50"/><path d="M75.41,36.07c1,1.95.23,4.34-1.72,5.34l-9.71,4.99c-1.95,1-4.34.23-5.34-1.72l-.76-1.47c-1-1.95-.23-4.34,1.72-5.34l9.71-4.99c1.95-1,4.34-.23,5.34,1.72l.76,1.47Z" fill="#a0a0a0"/><path d="M73.81,41.64l-9.71,4.99c-2.07,1.06-4.61.24-5.68-1.82l-.75-1.47c-1.06-2.07-.24-4.61,1.82-5.68l9.71-4.98c2.07-1.06,4.61-.24,5.68,1.82l.76,1.47c1.06,2.07.24,4.61-1.82,5.68ZM59.72,38.09c-1.82.94-2.55,3.18-1.61,5.01l.75,1.47c.94,1.82,3.18,2.55,5.01,1.61l9.71-4.99c1.82-.94,2.55-3.18,1.61-5.01l-.76-1.47c-.94-1.82-3.18-2.55-5.01-1.61l-9.7,4.98Z" fill="#121a2a"/><path d="M81.3,47.54c1,1.95.23,4.34-1.72,5.34l-9.71,4.99c-1.95,1-4.34.23-5.34-1.72l-.76-1.47c-1-1.95-.23-4.34,1.72-5.34l9.7-4.99c1.95-1,4.34-.23,5.34,1.72l.76,1.47Z" fill="#a0a0a0"/><path d="M79.7,53.11l-9.71,4.99c-2.07,1.06-4.61.24-5.68-1.82l-.76-1.47c-1.06-2.07-.24-4.61,1.82-5.68l9.71-4.99c2.07-1.06,4.61-.24,5.68,1.82l.76,1.47c1.06,2.07.24,4.61-1.82,5.68ZM65.61,49.56c-1.82.94-2.55,3.18-1.61,5.01l.76,1.47c.94,1.82,3.18,2.55,5.01,1.61l9.71-4.98c1.82-.94,2.55-3.18,1.61-5.01l-.76-1.47c-.94-1.82-3.18-2.55-5.01-1.61l-9.71,4.99Z" fill="#121a2a"/><path d="M87.19,59.01c1,1.95.23,4.34-1.72,5.34l-9.71,4.98c-1.95,1-4.34.23-5.34-1.72l-.76-1.47c-1-1.95-.23-4.34,1.72-5.34l9.71-4.99c1.95-1,4.34-.23,5.34,1.72l.75,1.47Z" fill="#f9505d"/><path d="M85.59,64.58l-9.71,4.98c-2.07,1.06-4.61.24-5.68-1.82l-.76-1.47c-1.06-2.07-.24-4.61,1.82-5.68l9.71-4.98c2.07-1.06,4.61-.24,5.68,1.82l.76,1.47c1.06,2.07.24,4.61-1.82,5.68ZM71.5,61.03c-1.82.94-2.55,3.18-1.61,5.01l.76,1.47c.94,1.82,3.18,2.55,5.01,1.61l9.71-4.99c1.82-.94,2.55-3.18,1.61-5.01l-.76-1.47c-.94-1.82-3.18-2.55-5.01-1.61l-9.71,4.99Z" fill="#121a2a"/><path d="M75.55,52.3c.25.49.06,1.09-.43,1.34l-2.28,1.17c-.49.25-1.09.06-1.34-.43l-1.17-2.28c-.25-.48-.06-1.09.43-1.34l2.28-1.17c.49-.25,1.09-.06,1.34.43l1.17,2.28Z" fill="#fff"/><path d="M72.88,52.08c-.82.42-1.84.1-2.26-.73l-.6-1.18c-.42-.82-.1-1.84.73-2.26.82-.42,1.84-.1,2.26.73l.6,1.18c.42.82.1,1.84-.73,2.26ZM70.97,48.35c-.58.3-.81,1.01-.51,1.6l.6,1.18c.3.58,1.01.81,1.6.51.58-.3.81-1.01.51-1.59l-.6-1.18c-.3-.58-1.01-.81-1.6-.51Z" fill="#fff"/><path d="M69.66,40.83c.25.49.06,1.09-.43,1.34l-2.28,1.17c-.49.25-1.09.06-1.34-.43l-1.17-2.28c-.25-.49-.06-1.09.43-1.34l2.28-1.17c.49-.25,1.09-.06,1.34.43l1.17,2.28Z" fill="#fff"/><path d="M64.56,38.48l-.44.23c-.16-.32-.22-.68-.16-1.03l.49.08c-.04.25,0,.5.12.73Z" fill="#fff"/><path d="M66.99,40.61l-.23-.44c.58-.3.81-1.01.51-1.6l-.6-1.18c-.3-.58-1.01-.81-1.59-.51-.34.17-.57.49-.63.87l-.49-.08c.08-.53.42-.99.89-1.23.82-.42,1.84-.1,2.26.73l.6,1.18c.42.82.1,1.84-.73,2.26Z" fill="#fff"/><path d="M76.77,60.63l-.54,2.07-1.14.59,1.1,2.14,1.14-.58,2.09.58c-.87-3.3-2.65-4.79-2.65-4.79Z" fill="#fff"/><path d="M78.69,61.68c-.05.03-.12.03-.17-.01-.08-.05-.1-.15-.04-.23l1.69-2.51c.05-.08.15-.1.23-.04.08.05.1.15.04.23l-1.69,2.51s-.04.04-.06.05Z" fill="#fff"/><path d="M82.67,63.63s-.05.02-.08.02l-3.02-.09c-.09,0-.16-.08-.16-.17,0-.09.08-.16.17-.16l3.02.09c.09,0,.16.08.16.17,0,.06-.04.12-.09.14Z" fill="#fff"/><path d="M81.55,61.44l-2.36,1.21c-.08.04-.18,0-.22-.07-.04-.08-.01-.18.07-.22l2.35-1.21c.08-.04.18,0,.22.07.04.08,0,.18-.07.22Z" fill="#fff"/><g opacity=".4"><path d="M53.77,35.2s-.05.05-.13.15c-.09.1-.21.25-.37.43-.31.37-.73.92-1.19,1.61-.23.34-.47.73-.71,1.13-.23.41-.47.85-.69,1.31-.23.46-.42.96-.62,1.46-.09.25-.19.51-.26.77l-.12.39-.1.4c-.07.26-.12.53-.17.8-.05.27-.08.54-.12.8-.02.27-.05.53-.07.8,0,.26-.03.52-.02.78,0,.51.04,1.01.1,1.48.04.23.07.46.1.68.05.22.09.43.13.63.04.2.11.39.15.57.05.18.09.36.15.51.11.32.19.6.29.82.18.45.28.71.28.71,0,0-.14-.24-.37-.67-.12-.21-.23-.49-.37-.8-.08-.15-.13-.33-.2-.51-.06-.18-.14-.37-.2-.57-.06-.2-.12-.42-.18-.63-.05-.22-.09-.45-.14-.69-.08-.48-.15-.99-.17-1.52-.02-.53,0-1.08.05-1.64.04-.28.07-.56.12-.83.06-.28.1-.56.17-.83l.11-.41.12-.4c.08-.27.18-.53.27-.79.2-.52.43-1.02.67-1.49.24-.47.51-.91.77-1.31.27-.4.53-.78.79-1.11.26-.33.51-.62.74-.88.23-.25.44-.47.61-.64.35-.34.57-.52.57-.52Z" fill="#fff"/></g><g opacity=".4"><path d="M52.26,30.39s-.03-.18-.04-.49c0-.16,0-.35,0-.57,0-.11.02-.23.02-.35.01-.12.03-.25.05-.39.03-.27.11-.56.17-.86.1-.3.17-.62.31-.93.06-.16.13-.32.19-.48.08-.16.16-.32.24-.48.15-.33.37-.62.56-.93.21-.3.45-.57.67-.86.24-.26.5-.51.74-.75.26-.22.52-.42.76-.62.24-.2.5-.33.73-.48.23-.14.44-.28.64-.37.2-.09.37-.18.51-.24.28-.13.45-.2.45-.2,0,0-.15.1-.4.29-.13.09-.28.19-.46.32-.18.11-.37.27-.58.44-.1.08-.21.17-.32.26-.11.09-.23.17-.34.28-.22.2-.45.42-.69.64-.22.24-.45.49-.68.74-.21.27-.43.54-.63.83-.19.29-.4.57-.55.88-.08.15-.16.3-.25.45-.07.15-.14.3-.21.45-.03.07-.07.15-.1.22-.03.07-.06.15-.09.22-.06.15-.11.29-.17.43-.08.29-.19.56-.25.81-.27,1.02-.31,1.74-.31,1.74Z" fill="#fff"/></g><g opacity=".4"><path d="M54.47,57.97s.06.09.18.25c.12.16.29.4.51.7.44.6,1.09,1.45,1.88,2.44.4.49.84,1.03,1.32,1.58.47.56.99,1.13,1.52,1.72.54.58,1.11,1.18,1.7,1.76.59.59,1.21,1.17,1.84,1.74.31.29.64.56.95.84.33.27.65.54.97.8.66.51,1.31,1.01,1.97,1.45.33.22.65.44.98.64.32.2.64.41.96.58.63.37,1.24.68,1.81.96.29.13.57.26.83.38.27.11.52.21.76.31.24.1.47.18.68.25.21.07.41.14.58.2.72.2,1.13.32,1.13.32,0,0-.1-.02-.3-.06-.2-.04-.49-.09-.85-.17-.18-.05-.38-.1-.6-.16-.22-.06-.45-.12-.7-.21-.25-.08-.51-.17-.79-.26-.27-.11-.56-.22-.86-.34-.59-.25-1.23-.54-1.87-.9-.65-.35-1.32-.74-1.99-1.19-.67-.44-1.35-.92-2.02-1.44-.33-.26-.66-.53-.99-.8-.32-.28-.65-.55-.97-.84-.63-.58-1.26-1.16-1.85-1.77-.6-.6-1.15-1.21-1.69-1.81-.53-.6-1.03-1.2-1.49-1.77-.46-.57-.88-1.13-1.26-1.64-.76-1.03-1.34-1.93-1.74-2.56-.4-.63-.6-1.01-.6-1.01Z" fill="#fff"/></g><path d="M86.73,33.24c4.13,8.05,10.57,23.79,5.08,34.21h0c2.49-11.1-1.16-23.05-4.92-31.12-4.79-10.29-11.56-10.95-11.81-11.03,4.77.22,8.88,2.54,11.65,7.93Z" fill="#212121" isolation="isolate" opacity=".5"/><path d="M69.8,26.06c-2.24-4.96-8.93-5.86-9.13-5.89,4.14-.51,8.34,1.51,10.43,5.36l-1.3.52Z" fill="#212121" isolation="isolate" opacity=".5"/><path d="M61.64,19.18l-1.81-.07c0-.05,0-.11,0-.16.25-9.12-6.92-16.78-16.05-17.12-9.19-.34-16.95,6.86-17.29,16.05-.14,3.79,1.63,8.23,4.75,11.9.04.05.08.09.11.13l-1.37,1.19c-3.48-4.04-5.46-9.01-5.3-13.29C25.05,7.62,33.65-.37,43.84.01c10.19.38,18.17,8.98,17.8,19.17Z" fill="#dee2e3"/><g opacity=".3"><path d="M59.83,18.95h0c.25-9.12-6.92-16.78-16.05-17.12-9.19-.34-16.95,6.86-17.29,16.05-.14,3.79,1.63,8.23,4.75,11.9h0c-3.27-3.79-5.58-8.07-5.43-12.09C26.16,8.12,34.23.62,43.81.97c9.57.36,16.38,8.41,16.02,17.98Z" fill="#3a3a3a"/></g><path d="M42.47,36.98c-1.97-.07-3.9-.45-5.73-1.13l.63-1.7c1.65.61,3.39.95,5.17,1.02,6.35.24,13.59-4.11,16.13-9.69l1.65.75c-2.82,6.19-10.82,11.01-17.85,10.75Z" fill="#dee2e3"/></svg>