<?xml version="1.0" encoding="UTF-8"?><svg xmlns="http://www.w3.org/2000/svg" viewBox="0 0 1000 1000"><g isolation="isolate"><g id="a"><path d="M80.97,645.09h558.25c13.72,0,24.84-12,24.84-26.8v-131.41c0-15.24-11.76-27.42-25.87-26.78l-532.77,24.06c-23.1,1.04-44.89,11.85-60.68,30.08l-11.21,12.96c-38.76,44.78-9.34,117.9,47.45,117.9Z" fill="#7acaef"/><g mix-blend-mode="multiply" opacity=".62"><path d="M666.85,458.03s-236.73-5.47-195.65,18.48c31.03,18.1-119.3-23.97-191.74.66,0,0,73.75,28.08,122.29,29.45,48.54,1.37,188.93,39.01,266.6,23.95" fill="#7acaef"/><path d="M304.85,475.56c27.14,3.27,90.92,23.53,133.49,18.06,85.9-11.05,123.35.95,151.84,12.01,36.79,14.28,77.42-10.98,76.67-47.59h0s-154-3.56-192.02,7.63c1.45,2.09-1.45,3.22-7.6,3.76-1.77,2.02-84.64-2.97-162.37,6.14Z" fill="#7acaef" mix-blend-mode="multiply" opacity=".44"/><path d="M337.45,516.47l2.23,4.37c.05.72.08,1.48.08,2.27,0,2.83-.36,5.86-1.02,8.85l-5.06-5.32,4.28,8.39c-.33,1.15-.71,2.28-1.12,3.38l-2.32-2.44,1.86,3.64c-1.33,3.25-3,6.19-4.91,8.43l-2.34-2.46,1.65,3.23c-2.17,2.29-4.61,3.69-7.2,3.69-3.39,0-6.53-2.39-9.13-6.06l2.96-5.81-4.01,4.22c-.63-1.03-1.22-2.13-1.76-3.28l1.92-3.76-2.45,2.58c-.43-1-.84-2.04-1.2-3.1l4.49-8.8-5.44,5.72c-.54-1.99-.95-4.02-1.21-6.02l3.81-7.47-4.11,4.32c-.03-.65-.05-1.29-.05-1.92,0-12.72,7.25-16.67,16.18-16.67,7.76,0,14.24,2.98,15.82,12.07l-1.94-2.04Z" fill="#7acaef"/><g mix-blend-mode="multiply" opacity=".33"><path d="M339.77,523.11c0,2.83-.36,5.86-1.02,8.85l-5.06-5.32,1.24,2.44c-5.34-7.95-11.13-13.32-19.99-13.32-2.17,0-5.39.42-7.29,3.42,1.37-9.62,7.98-12.74,15.92-12.74,7.76,0,14.24,2.98,15.82,12.07l-1.94-2.04,2.23,4.37c.05.72.08,1.48.08,2.27Z" fill="#7acaef"/><path d="M337.97,535.03c-.03.1-.06.19-.09.29-.12-.42-.25-.83-.4-1.24l.48.95Z" fill="#7acaef"/></g><polygon points="314.61 532.14 322.55 513.8 320.8 482.01 327.81 482.01 325.4 513.44 329.78 533.11 323.87 515.38 314.61 532.14" fill="#7acaef"/><polygon points="318.98 536.87 325.45 518.39 326 520.24 318.98 536.87" fill="#7acaef"/><polygon points="314.3 519.05 323.63 508.69 323.56 510.38 314.3 519.05" fill="#7acaef"/><polygon points="314.23 526.65 320.74 519.42 320.69 520.59 314.23 526.65" fill="#7acaef"/><polygon points="325.74 538.21 323.53 523.97 324.42 522.79 325.74 538.21" fill="#7acaef"/><polygon points="332.71 523.39 324.84 509.28 324.2 511.43 332.71 523.39" fill="#7acaef"/><polygon points="333.69 531.04 326.67 520.48 326.35 522 333.69 531.04" fill="#7acaef"/><polygon points="334.06 518.5 326.16 512.27 326.26 513.73 334.06 518.5" fill="#7acaef"/><polygon points="324.04 512.1 323.43 491.61 324.51 494.58 323.27 485.26 324.81 488.36 323.7 482.01 327.81 482.01 325.61 510.67 326.78 512.77 334.06 518.5 327.87 514.72 332.71 523.39 325.42 513.15 325.4 513.44 327.12 521.15 333.69 531.04 327.67 523.64 329.78 533.11 324.04 512.1" fill="#7acaef" mix-blend-mode="multiply" opacity=".29"/><polygon points="323.87 515.38 314.61 532.14 323.43 514.5 323.87 515.38" fill="#7acaef" mix-blend-mode="multiply" opacity=".29"/><polygon points="325.7 521.08 324.44 523.86 325.74 538.21 323.89 524.38 325.55 520.34 325.7 521.08" fill="#7acaef" mix-blend-mode="multiply" opacity=".29"/><polygon points="323.58 525.09 323.7 525.63 318.98 536.87 323.58 525.09" fill="#7acaef" mix-blend-mode="multiply" opacity=".29"/><path d="M438.39,527.3c0-18.03-9.37-14.89-20.93-14.89-11.56,0-20.93-3.14-20.93,14.89s9.37,74.44,20.93,74.44c11.56,0,20.93-56.41,20.93-74.44Z" fill="#7acaef"/><path d="M424.79,594.36c3.55-8.42,4.84-19.46,3.02-31.24-3.48-22.54-17.07-39.65-31.09-39.9,1.39-13.43,10.14-10.81,20.73-10.81,11.56,0,20.93-3.14,20.93,14.89,0,14-5.66,51.16-13.6,67.05Z" fill="#7acaef" mix-blend-mode="multiply" opacity=".29"/><polygon points="404.65 558.22 414.03 512.58 412.77 489.51 422.77 489.51 420.8 512.88 429.01 569.1 417.77 518.71 404.65 558.22" fill="#7acaef"/><polygon points="412.77 562.8 409.64 538.75 411.52 534.17 412.77 562.8" fill="#7acaef"/><polygon points="417.14 549.63 420.89 529.02 422.14 531.31 417.14 549.63" fill="#7acaef"/><polygon points="420.27 520.43 430.89 533.03 420.27 516.42 420.27 519.86 420.27 520.43" fill="#7acaef"/><polygon points="402.77 535.89 414.02 522.15 415.27 516.42 402.77 535.89" fill="#7acaef"/><polygon points="417.14 574.83 424.48 546.54 425.8 549.48 417.14 574.83" fill="#7acaef"/><polyline points="423.39 536.46 430.89 543.91 422.44 532.64 422.73 537.05" fill="#7acaef"/><polygon points="418.21 512.6 415.27 495.81 417.77 499.82 415.89 491.8 418.39 494.09 417.29 489.51 422.77 489.51 420.8 512.88 421.63 518.56 430.89 533.03 422.25 522.78 423.99 534.71 430.89 543.91 424.39 537.46 429.01 569.1 418.21 512.6" fill="#7acaef" mix-blend-mode="multiply" opacity=".41"/><polygon points="424.74 550.36 424.93 551.67 417.14 574.83 424.74 550.36" fill="#7acaef" mix-blend-mode="multiply" opacity=".41"/><polygon points="410.89 538.75 412.77 562.8 411.67 536.95 410.89 538.75" fill="#7acaef" mix-blend-mode="multiply" opacity=".41"/><polygon points="409.85 540.35 409.91 542.19 404.65 558.22 409.85 540.35" fill="#7acaef" mix-blend-mode="multiply" opacity=".41"/><path d="M593.85,564.8l4.87,9.54c.12,1.58.18,3.23.18,4.96,0,6.18-.79,12.79-2.22,19.33l-11.05-11.62,9.35,18.32c-.73,2.51-1.55,4.98-2.45,7.38l-5.08-5.33,4.05,7.94c-2.91,7.11-6.56,13.52-10.72,18.42l-5.12-5.38,3.6,7.06c-4.74,5.01-10.08,8.06-15.73,8.06-7.4,0-14.27-5.23-19.94-13.23l6.47-12.69-8.76,9.21c-1.37-2.24-2.66-4.64-3.85-7.17l4.19-8.21-5.36,5.63c-.95-2.19-1.83-4.46-2.63-6.78l9.81-19.22-11.88,12.49c-1.17-4.34-2.07-8.77-2.65-13.14l8.33-16.31-8.97,9.43c-.08-1.41-.12-2.81-.12-4.19,0-27.78,15.83-36.41,35.36-36.41,16.94,0,31.1,6.5,34.55,26.37l-4.25-4.46Z" fill="#7acaef"/><g mix-blend-mode="multiply" opacity=".33"><path d="M598.9,579.3c0,6.18-.79,12.79-2.22,19.33l-11.05-11.62,2.72,5.33c-11.67-17.36-24.32-29.09-43.66-29.09-4.75,0-11.79.93-15.93,7.47,3-21.02,17.43-27.84,34.78-27.84,16.94,0,31.1,6.5,34.55,26.37l-4.25-4.46,4.87,9.54c.12,1.58.18,3.23.18,4.96Z" fill="#7acaef"/><path d="M594.97,605.33c-.06.21-.13.42-.19.63-.26-.91-.55-1.81-.87-2.7l1.06,2.07Z" fill="#7acaef"/></g><polygon points="543.95 599.02 561.3 558.96 557.47 489.51 572.78 489.51 567.52 558.16 577.09 601.14 564.17 562.41 543.95 599.02" fill="#7acaef"/><polygon points="553.5 609.36 567.62 568.99 568.84 573.03 553.5 609.36" fill="#7acaef"/><polygon points="543.26 570.44 563.64 547.8 563.49 551.48 543.26 570.44" fill="#7acaef"/><polygon points="543.11 587.04 557.34 571.23 557.24 573.8 543.11 587.04" fill="#7acaef"/><polygon points="568.26 612.28 563.42 581.18 565.37 578.59 568.26 612.28" fill="#7acaef"/><polygon points="583.48 579.92 566.29 549.1 564.89 553.77 583.48 579.92" fill="#7acaef"/><polygon points="585.63 596.63 570.3 573.55 569.58 576.88 585.63 596.63" fill="#7acaef"/><polygon points="586.44 569.23 569.17 555.63 569.39 558.81 586.44 569.23" fill="#7acaef"/><polygon points="564.55 555.24 563.21 510.49 565.56 516.97 562.87 496.61 566.24 503.4 563.8 489.51 572.78 489.51 567.98 552.13 570.53 556.7 586.44 569.23 572.91 560.96 583.48 579.92 567.57 557.54 567.52 558.16 571.27 575.01 585.63 596.63 572.48 580.45 577.09 601.14 564.55 555.24" fill="#7acaef" mix-blend-mode="multiply" opacity=".29"/><polygon points="564.17 562.41 543.95 599.02 563.21 560.48 564.17 562.41" fill="#7acaef" mix-blend-mode="multiply" opacity=".29"/><polygon points="568.17 574.87 565.42 580.94 568.26 612.28 564.22 582.08 567.84 573.24 568.17 574.87" fill="#7acaef" mix-blend-mode="multiply" opacity=".29"/><polygon points="563.54 583.62 563.8 584.79 553.5 609.36 563.54 583.62" fill="#7acaef" mix-blend-mode="multiply" opacity=".29"/><path d="M372.85,527.93l2.66,5.22c.07.86.1,1.77.1,2.71,0,3.38-.43,6.99-1.21,10.57l-6.04-6.35,5.11,10.01c-.4,1.37-.85,2.72-1.34,4.04l-2.77-2.92,2.22,4.34c-1.59,3.89-3.58,7.39-5.86,10.07l-2.8-2.94,1.97,3.86c-2.59,2.74-5.51,4.4-8.6,4.4-4.04,0-7.8-2.86-10.9-7.23l3.54-6.93-4.79,5.03c-.75-1.23-1.45-2.54-2.1-3.92l2.29-4.49-2.93,3.08c-.52-1.2-1-2.44-1.44-3.71l5.36-10.51-6.49,6.83c-.64-2.37-1.13-4.8-1.45-7.18l4.55-8.92-4.91,5.16c-.04-.77-.06-1.54-.06-2.29,0-15.19,8.65-19.9,19.33-19.9,9.26,0,17,3.56,18.89,14.42l-2.32-2.44Z" fill="#7acaef"/><g mix-blend-mode="multiply" opacity=".33"><path d="M375.61,535.86c0,3.38-.43,6.99-1.21,10.57l-6.04-6.35,1.49,2.91c-6.38-9.49-13.3-15.9-23.87-15.9-2.6,0-6.44.51-8.71,4.09,1.64-11.49,9.53-15.22,19.02-15.22,9.26,0,17,3.56,18.89,14.42l-2.32-2.44,2.66,5.22c.07.86.1,1.77.1,2.71Z" fill="#7acaef"/><path d="M373.47,550.09c-.03.12-.07.23-.1.35-.14-.5-.3-.99-.47-1.48l.58,1.13Z" fill="#7acaef"/></g><polygon points="345.57 546.64 355.06 524.74 352.97 486.77 361.34 486.77 358.46 524.3 363.69 547.8 356.63 526.62 345.57 546.64" fill="#7acaef"/><polygon points="350.8 552.29 358.52 530.22 359.18 532.43 350.8 552.29" fill="#7acaef"/><polygon points="345.2 531.01 356.34 518.64 356.26 520.65 345.2 531.01" fill="#7acaef"/><polygon points="345.12 540.09 352.9 531.45 352.84 532.85 345.12 540.09" fill="#7acaef"/><polygon points="358.87 553.89 356.22 536.88 357.28 535.47 358.87 553.89" fill="#7acaef"/><polygon points="367.18 536.2 357.79 519.35 357.02 521.9 367.18 536.2" fill="#7acaef"/><polygon points="368.36 545.33 359.98 532.71 359.59 534.54 368.36 545.33" fill="#7acaef"/><polygon points="368.8 530.35 359.36 522.92 359.48 524.66 368.8 530.35" fill="#7acaef"/><polygon points="356.84 522.7 356.1 498.24 357.39 501.79 355.92 490.65 357.76 494.36 356.43 486.77 361.34 486.77 358.71 521 360.11 523.5 368.8 530.35 361.4 525.83 367.18 536.2 358.49 523.96 358.46 524.3 360.51 533.52 368.36 545.33 361.17 536.49 363.69 547.8 356.84 522.7" fill="#7acaef" mix-blend-mode="multiply" opacity=".29"/><polygon points="356.63 526.62 345.57 546.64 356.1 525.57 356.63 526.62" fill="#7acaef" mix-blend-mode="multiply" opacity=".29"/><polygon points="358.81 533.43 357.31 536.75 358.87 553.89 356.65 537.38 358.64 532.54 358.81 533.43" fill="#7acaef" mix-blend-mode="multiply" opacity=".29"/><polygon points="356.29 538.22 356.43 538.86 350.8 552.29 356.29 538.22" fill="#7acaef" mix-blend-mode="multiply" opacity=".29"/><path d="M649.07,528.4c0-26.71-13.89-22.06-31.02-22.06-17.13,0-31.02-4.65-31.02,22.06,0,26.71,13.89,110.3,31.02,110.3,17.13,0,31.02-83.59,31.02-110.3Z" fill="#7acaef"/><path d="M628.92,627.75c5.26-12.47,7.17-28.84,4.48-46.28-5.15-33.39-25.29-58.75-46.07-59.12,2.06-19.9,15.03-16.01,30.72-16.01,17.13,0,31.02-4.65,31.02,22.06,0,20.75-8.38,75.8-20.15,99.35Z" fill="#7acaef" mix-blend-mode="multiply" opacity=".29"/><polygon points="599.08 574.21 612.98 506.59 611.11 472.4 625.93 472.4 623.02 507.02 635.18 590.33 618.52 515.67 599.08 574.21" fill="#7acaef"/><polygon points="611.11 581 606.48 545.37 609.26 538.58 611.11 581" fill="#7acaef"/><polygon points="617.59 561.49 623.15 530.94 625 534.34 617.59 561.49" fill="#7acaef"/><polygon points="622.22 518.22 637.96 536.88 622.22 512.28 622.22 517.37 622.22 518.22" fill="#7acaef"/><polygon points="596.3 541.13 612.96 520.76 614.82 512.28 596.3 541.13" fill="#7acaef"/><polygon points="617.59 598.82 628.47 556.9 630.41 561.25 617.59 598.82" fill="#7acaef"/><polyline points="626.85 541.97 637.96 553 625.45 536.31 625.88 542.84" fill="#7acaef"/><polygon points="619.18 506.62 614.82 481.74 618.52 487.67 615.74 475.8 619.45 479.19 617.82 472.4 625.93 472.4 623.02 507.02 624.25 515.44 637.96 536.88 625.16 521.7 627.74 539.37 637.96 553 628.34 543.45 635.18 590.33 619.18 506.62" fill="#7acaef" mix-blend-mode="multiply" opacity=".41"/><polygon points="628.85 562.56 629.14 564.5 617.59 598.82 628.85 562.56" fill="#7acaef" mix-blend-mode="multiply" opacity=".41"/><polygon points="608.34 545.37 611.11 581 609.48 542.69 608.34 545.37" fill="#7acaef" mix-blend-mode="multiply" opacity=".41"/><polygon points="606.79 547.72 606.88 550.46 599.08 574.21 606.79 547.72" fill="#7acaef" mix-blend-mode="multiply" opacity=".41"/><path d="M552.6,527.71c0-26.71-13.89-22.06-31.02-22.06s-31.02-4.65-31.02,22.06c0,26.71,13.89,110.3,31.02,110.3,17.13,0,31.02-83.59,31.02-110.3Z" fill="#7acaef"/><path d="M532.45,627.07c5.26-12.47,7.17-28.84,4.48-46.28-5.15-33.39-25.29-58.75-46.07-59.12,2.06-19.9,15.03-16.01,30.72-16.01,17.13,0,31.02-4.65,31.02,22.06,0,20.75-8.38,75.8-20.15,99.35Z" fill="#7acaef" mix-blend-mode="multiply" opacity=".29"/><polygon points="502.6 573.53 516.51 505.9 514.64 471.72 529.45 471.72 526.54 506.34 538.71 589.65 522.05 514.99 502.6 573.53" fill="#7acaef"/><polygon points="514.64 580.32 510.01 544.68 512.79 537.9 514.64 580.32" fill="#7acaef"/><polygon points="521.12 560.8 526.67 530.26 528.53 533.65 521.12 560.8" fill="#7acaef"/><polygon points="525.75 517.53 541.49 536.2 525.75 511.59 525.75 516.69 525.75 517.53" fill="#7acaef"/><polygon points="499.82 540.44 516.49 520.08 518.34 511.59 499.82 540.44" fill="#7acaef"/><polygon points="521.12 598.13 532 556.22 533.94 560.57 521.12 598.13" fill="#7acaef"/><polyline points="530.38 541.29 541.49 552.32 528.97 535.63 529.4 542.16" fill="#7acaef"/><polygon points="522.71 505.93 518.34 481.05 522.05 486.99 519.27 475.11 522.97 478.51 521.34 471.72 529.45 471.72 526.54 506.34 527.77 514.76 541.49 536.2 528.69 521.02 531.27 538.69 541.49 552.32 531.86 542.76 538.71 589.65 522.71 505.93" fill="#7acaef" mix-blend-mode="multiply" opacity=".41"/><polygon points="532.37 561.87 532.66 563.81 521.12 598.13 532.37 561.87" fill="#7acaef" mix-blend-mode="multiply" opacity=".41"/><polygon points="511.86 544.68 514.64 580.32 513.01 542.01 511.86 544.68" fill="#7acaef" mix-blend-mode="multiply" opacity=".41"/><polygon points="510.31 547.04 510.41 549.78 502.6 573.53 510.31 547.04" fill="#7acaef" mix-blend-mode="multiply" opacity=".41"/></g><path d="M286.81,512.65c-52.99,2.39-106.75,1.95-159.69-1.38,52.99-2.42,106.75-1.93,159.69,1.38h0Z" fill="#fff"/><path d="M206.16,526.35c-38.57.67-77.58.22-116.12-1.38,38.57-.68,77.58-.21,116.12,1.38h0Z" fill="#fff"/><path d="M285.32,541.43c-38.57.6-77.57.3-116.12-.92,38.57-.61,77.57-.3,116.12.92h0Z" fill="#fff"/><path d="M227.07,543.85c-38.57.6-77.57.3-116.12-.92,38.57-.61,77.57-.3,116.12.92h0Z" fill="#fff"/><path d="M239.02,553.52c-38.57.6-77.57.3-116.12-.92,38.57-.61,77.57-.3,116.12.92h0Z" fill="#fff"/><path d="M615.39,519.1c-38.57.67-77.58.22-116.12-1.38,38.57-.68,77.58-.21,116.12,1.38h0Z" fill="#fff"/><path d="M694.55,534.18c-38.57.6-77.57.3-116.12-.92,38.57-.61,77.57-.3,116.12.92h0Z" fill="#fff"/><path d="M636.3,536.6c-38.57.6-77.57.3-116.12-.92,38.57-.61,77.57-.3,116.12.92h0Z" fill="#fff"/><path d="M648.25,546.27c-38.57.6-77.57.3-116.12-.92,38.57-.61,77.57-.3,116.12.92h0Z" fill="#fff"/><path d="M282.33,492.5c-19.05,1.44-38.95,1.52-58.09,1.39-19.15-.32-39.01-.87-58.04-2.77,19.05-1.45,38.95-1.52,58.09-1.39,19.15.33,39.01.88,58.04,2.77h0Z" fill="#fff"/><path d="M222.9,497.5c-38.7,1.25-77.46.81-116.12-1.38,38.7-1.27,77.46-.79,116.12,1.38h0Z" fill="#fff"/><path d="M496.65,514.38c-38.69,2.38-77.56,1.65-116.12-2.26,38.69-2.41,77.56-1.63,116.12,2.26h0Z" fill="#fff"/><path d="M478.73,532.83c-56.47,2.1-113.75,1.36-170.14-2.26,56.47-2.12,113.75-1.34,170.14,2.26h0Z" fill="#fff"/><path d="M389.87,587.25c-38.72.71-77.46-.04-116.12-2.26,38.72-.72,77.46.05,116.12,2.26h0Z" fill="#fff"/><path d="M527.27,620.78c-38.57.68-77.58.19-116.12-1.5,38.57-.69,77.58-.18,116.12,1.5h0Z" fill="#fff"/><path d="M469.02,624.74c-38.57.68-77.58.19-116.12-1.5,38.57-.69,77.58-.18,116.12,1.5h0Z" fill="#fff"/><path d="M564.97,640.56c-38.57.68-77.58.19-116.12-1.5,38.57-.69,77.58-.18,116.12,1.5h0Z" fill="#fff"/><path d="M555.65,565.79c-38.72.71-77.46-.04-116.12-2.26,38.72-.72,77.46.05,116.12,2.26h0Z" fill="#fff"/><path d="M382.4,479.61c-28.9.67-58.14.22-87-1.38,28.9-.68,58.14-.21,87,1.38h0Z" fill="#fff"/><path d="M748.05,647.71c-260.86,17.44-286.45-138.84-283.09-145.93.18-.38,2.29-3.68,3.44-4.47,31.03-21.31-126.2,8.86-198.64-20.15,30.95-2.66,75.64-7.22,129.19-15.31,172.87-26.12,215.06-55.32,266.6-28.21,78.78,41.45,127.37,211.06,82.51,214.06Z" fill="#4f9228"/><path d="M310.3,487.06c27.14-3.85,82.67-16.33,125.23-9.89,85.9,13.01,123.35-1.12,151.84-14.14,36.79-16.81,77.42,12.94,76.67,56.05h0s-154,4.19-192.02-8.98c1.45-2.46-1.45-3.79-7.6-4.43-1.77-2.37-.7-5.14,3.97-8.35,26.02-17.87-80.36.46-158.09-10.26Z" fill="#4f9228" mix-blend-mode="multiply" opacity=".44"/><path d="M336.15,434.17l2.23-5.14c.05-.85.08-1.74.08-2.67,0-3.33-.36-6.9-1.02-10.42l-5.06,6.26,4.28-9.87c-.33-1.35-.71-2.68-1.12-3.98l-2.32,2.88,1.86-4.28c-1.33-3.83-3-7.29-4.91-9.93l-2.34,2.9,1.65-3.81c-2.17-2.7-4.61-4.34-7.2-4.34-3.39,0-6.53,2.82-9.13,7.13l2.96,6.84-4.01-4.96c-.63,1.21-1.22,2.5-1.76,3.86l1.92,4.43-2.45-3.04c-.43,1.18-.84,2.4-1.2,3.65l4.49,10.36-5.44-6.73c-.54,2.34-.95,4.73-1.21,7.09l3.81,8.8-4.11-5.09c-.03.76-.05,1.52-.05,2.26,0,14.98,7.25,19.63,16.19,19.63,7.76,0,14.24-3.51,15.82-14.22l-1.94,2.41Z" fill="#5eac84"/><g mix-blend-mode="multiply" opacity=".33"><path d="M338.46,426.35c0-3.33-.36-6.9-1.02-10.42l-5.06,6.26,1.24-2.87c-5.34,9.36-11.13,15.68-19.99,15.68-2.17,0-5.39-.5-7.29-4.03,1.37,11.33,7.98,15.01,15.92,15.01,7.76,0,14.24-3.51,15.82-14.22l-1.94,2.41,2.23-5.14c.05-.85.08-1.74.08-2.67Z" fill="#4f9228"/><path d="M336.66,412.31c-.03-.11-.06-.23-.09-.34-.12.49-.25.98-.4,1.46l.48-1.12Z" fill="#4f9228"/></g><polygon points="313.3 415.72 321.24 437.31 319.49 474.75 326.5 474.75 324.09 437.74 328.47 414.58 322.56 435.46 313.3 415.72" fill="#4f210b"/><polygon points="317.67 410.14 324.14 431.91 324.7 429.73 317.67 410.14" fill="#4f210b"/><polygon points="312.99 431.13 322.32 443.33 322.25 441.35 312.99 431.13" fill="#4f210b"/><polygon points="312.92 422.18 319.43 430.7 319.39 429.31 312.92 422.18" fill="#4f210b"/><polygon points="324.43 408.57 322.22 425.34 323.11 426.73 324.43 408.57" fill="#4f210b"/><polygon points="331.4 426.02 323.53 442.63 322.89 440.11 331.4 426.02" fill="#4f210b"/><polygon points="332.38 417.01 325.36 429.45 325.04 427.65 332.38 417.01" fill="#4f210b"/><polygon points="332.75 431.78 324.85 439.11 324.95 437.39 332.75 431.78" fill="#4f210b"/><polygon points="322.73 439.32 322.12 463.44 323.2 459.95 321.96 470.93 323.51 467.27 322.39 474.75 326.5 474.75 324.3 441 325.47 438.53 332.75 431.78 326.56 436.24 331.4 426.02 324.11 438.08 324.09 437.74 325.81 428.66 332.38 417.01 326.36 425.73 328.47 414.58 322.73 439.32" fill="#4f210b" mix-blend-mode="multiply" opacity=".29"/><polygon points="322.56 435.46 313.3 415.72 322.12 436.49 322.56 435.46" fill="#4f210b" mix-blend-mode="multiply" opacity=".29"/><polygon points="324.39 428.74 323.13 425.47 324.43 408.57 322.58 424.85 324.24 429.62 324.39 428.74" fill="#4f210b" mix-blend-mode="multiply" opacity=".29"/><polygon points="322.27 424.02 322.39 423.39 317.67 410.14 322.27 424.02" fill="#4f210b" mix-blend-mode="multiply" opacity=".29"/><path d="M435.58,437.5c0,21.23-9.37,17.53-20.93,17.53-11.56,0-20.93,3.7-20.93-17.53,0-21.23,9.37-87.66,20.93-87.66,11.56,0,20.93,66.43,20.93,87.66Z" fill="#5eac84"/><path d="M421.99,358.54c3.55,9.91,4.84,22.92,3.02,36.78-3.48,26.54-17.07,46.69-31.09,46.99,1.39,15.82,10.14,12.73,20.73,12.73,11.56,0,20.93,3.7,20.93-17.53,0-16.49-5.66-60.25-13.6-78.97Z" fill="#8cd699" mix-blend-mode="multiply"/><polygon points="401.84 401.09 411.23 454.84 409.97 482.01 419.96 482.01 418 454.49 426.21 388.28 414.96 447.62 401.84 401.09" fill="#4f210b"/><polygon points="409.97 395.69 406.84 424.02 408.72 429.41 409.97 395.69" fill="#4f210b"/><polygon points="414.34 411.2 418.09 435.48 419.34 432.78 414.34 411.2" fill="#4f210b"/><polygon points="417.46 445.59 428.09 430.76 417.46 450.31 417.46 446.27 417.46 445.59" fill="#4f210b"/><polygon points="399.97 427.39 411.22 443.57 412.47 450.31 399.97 427.39" fill="#4f210b"/><polygon points="414.34 381.53 421.68 414.85 422.99 411.39 414.34 381.53" fill="#4f210b"/><polyline points="420.59 426.71 428.09 417.95 419.64 431.21 419.93 426.02" fill="#4f210b"/><polygon points="415.41 454.81 412.47 474.59 414.96 469.87 413.09 479.31 415.59 476.61 414.49 482.01 419.96 482.01 418 454.49 418.83 447.8 428.09 430.76 419.45 442.83 421.19 428.78 428.09 417.95 421.59 425.54 426.21 388.28 415.41 454.81" fill="#4f210b" mix-blend-mode="multiply" opacity=".41"/><polygon points="421.93 410.35 422.13 408.81 414.34 381.53 421.93 410.35" fill="#4f210b" mix-blend-mode="multiply" opacity=".41"/><polygon points="408.09 424.02 409.97 395.69 408.87 426.14 408.09 424.02" fill="#4f210b" mix-blend-mode="multiply" opacity=".41"/><polygon points="407.05 422.14 407.11 419.97 401.84 401.09 407.05 422.14" fill="#4f210b" mix-blend-mode="multiply" opacity=".41"/><path d="M370.05,436.76l2.66-6.14c.07-1.02.1-2.08.1-3.19,0-3.98-.43-8.24-1.21-12.45l-6.04,7.48,5.11-11.79c-.4-1.61-.85-3.2-1.34-4.75l-2.77,3.43,2.22-5.11c-1.59-4.58-3.58-8.7-5.86-11.86l-2.8,3.46,1.97-4.55c-2.59-3.22-5.51-5.19-8.6-5.19-4.04,0-7.8,3.37-10.9,8.52l3.54,8.17-4.79-5.93c-.75,1.44-1.45,2.99-2.1,4.61l2.29,5.29-2.93-3.63c-.52,1.41-1,2.87-1.44,4.36l5.36,12.37-6.49-8.04c-.64,2.8-1.13,5.65-1.45,8.46l4.55,10.5-4.91-6.07c-.04.91-.06,1.81-.06,2.7,0,17.88,8.65,23.44,19.33,23.44,9.26,0,17-4.19,18.89-16.98l-2.32,2.87Z" fill="#4f9228"/><g mix-blend-mode="multiply" opacity=".33"><path d="M372.81,427.42c0-3.98-.43-8.24-1.21-12.45l-6.04,7.48,1.49-3.43c-6.38,11.18-13.3,18.73-23.87,18.73-2.6,0-6.44-.6-8.71-4.81,1.64,13.53,9.53,17.92,19.02,17.92,9.26,0,17-4.19,18.89-16.98l-2.32,2.87,2.66-6.14c.07-1.02.1-2.08.1-3.19Z" fill="#4f9228"/><path d="M370.67,410.67c-.03-.14-.07-.27-.1-.41-.14.59-.3,1.17-.47,1.74l.58-1.33Z" fill="#4f9228"/></g><polygon points="342.77 414.73 352.26 440.52 350.16 485.23 358.53 485.23 355.66 441.03 360.89 413.37 353.83 438.3 342.77 414.73" fill="#4f210b"/><polygon points="347.99 408.07 355.71 434.06 356.38 431.47 347.99 408.07" fill="#4f210b"/><polygon points="342.4 433.13 353.54 447.7 353.46 445.34 342.4 433.13" fill="#4f210b"/><polygon points="342.31 422.45 350.09 432.62 350.04 430.97 342.31 422.45" fill="#4f210b"/><polygon points="356.06 406.19 353.42 426.22 354.48 427.88 356.06 406.19" fill="#4f210b"/><polygon points="364.38 427.03 354.99 446.87 354.22 443.86 364.38 427.03" fill="#4f210b"/><polygon points="365.56 416.27 357.18 431.13 356.78 428.98 365.56 416.27" fill="#4f210b"/><polygon points="366 433.91 356.56 442.67 356.68 440.62 366 433.91" fill="#4f210b"/><polygon points="354.03 442.92 353.3 471.72 354.59 467.55 353.11 480.66 354.95 476.29 353.62 485.23 358.53 485.23 355.91 444.92 357.3 441.98 366 433.91 358.6 439.23 364.38 427.03 355.68 441.43 355.66 441.03 357.71 430.19 365.56 416.27 358.37 426.69 360.89 413.37 354.03 442.92" fill="#4f210b" mix-blend-mode="multiply" opacity=".29"/><polygon points="353.83 438.3 342.77 414.73 353.3 439.54 353.83 438.3" fill="#4f210b" mix-blend-mode="multiply" opacity=".29"/><polygon points="356.01 430.28 354.51 426.37 356.06 406.19 353.85 425.64 355.83 431.33 356.01 430.28" fill="#4f210b" mix-blend-mode="multiply" opacity=".29"/><polygon points="353.48 424.64 353.62 423.89 347.99 408.07 353.48 424.64" fill="#4f210b" mix-blend-mode="multiply" opacity=".29"/><path d="M605.96,522.81c0,50.09-22.12,41.37-49.4,41.37-27.28,0-49.4,8.72-49.4-41.37s22.12-206.87,49.4-206.87c27.28,0,49.4,156.77,49.4,206.87Z" fill="#044735"/><path d="M573.88,336.46c8.38,23.39,11.42,54.09,7.14,86.8-8.2,62.63-40.28,110.19-73.37,110.88,3.28,37.32,23.93,30.03,48.93,30.03,27.28,0,49.4,8.72,49.4-41.37,0-38.91-13.35-142.18-32.09-186.35Z" fill="#4f210b" mix-blend-mode="multiply" opacity=".29"/><polygon points="526.34 436.88 548.49 563.72 545.51 627.83 569.1 627.83 564.47 562.9 583.85 406.64 557.3 546.68 526.34 436.88" fill="#4f210b"/><polygon points="545.51 424.15 538.14 490.98 542.56 503.71 545.51 424.15" fill="#4f210b"/><polygon points="555.83 460.75 564.68 518.03 567.63 511.67 555.83 460.75" fill="#4f210b"/><polygon points="563.2 541.9 588.27 506.89 563.2 553.04 563.2 543.49 563.2 541.9" fill="#4f210b"/><polygon points="521.92 498.94 548.46 537.13 551.41 553.04 521.92 498.94" fill="#4f210b"/><polygon points="555.83 390.73 573.15 469.35 576.25 461.18 555.83 390.73" fill="#4f210b"/><polyline points="570.58 497.35 588.27 476.66 568.34 507.97 569.02 495.71" fill="#4f210b"/><polygon points="558.36 563.66 551.41 610.33 557.3 599.19 552.88 621.47 558.78 615.1 556.19 627.83 569.1 627.83 564.47 562.9 566.42 547.11 588.27 506.89 567.88 535.37 571.99 502.22 588.27 476.66 572.94 494.58 583.85 406.64 558.36 563.66" fill="#4f210b" mix-blend-mode="multiply" opacity=".41"/><polygon points="573.75 458.74 574.21 455.1 555.83 390.73 573.75 458.74" fill="#4f210b" mix-blend-mode="multiply" opacity=".41"/><polygon points="541.09 490.98 545.51 424.15 542.91 496 541.09 490.98" fill="#4f210b" mix-blend-mode="multiply" opacity=".41"/><polygon points="538.62 486.56 538.77 481.43 526.34 436.88 538.62 486.56" fill="#4f210b" mix-blend-mode="multiply" opacity=".41"/><path d="M679.42,618.54l-6.05-2.12s-1.26-17.73,1.44-38.98c1.7-13.46,4.83-28.04,10.5-39.75,2.56-5.3,5.65-10.01,9.35-13.77,0,0,4.64-11.64,10.8-27.2,6.84-17.3,49.64-22.37,25.22,13.87-5.01,7.43-10.39,20.52-16.84,28.47-11.02,13.59-18.8,29.45-24.14,43.41-7.63,19.97-10.27,36.06-10.27,36.06Z" fill="#ffb27d"/><path d="M665.64,619.53c-1.83,3.21,2.13,6.35,7.03,9.32,4.9,2.96,2.87,3.26,9.14,8.3,6.27,5.04,9.96,4.48,10.92,3.74.85-.65-1.71-3.76-4.39-7.17-.34-.43-.68-.86-1.01-1.29-3-3.88-3.45-8.75-4.86-13.8-1.33-4.78.78-16.68.78-16.68l-8.37-7.17s-1.7,10.82-2.63,15.32c-.55,2.65-2.56,4.87-4.18,6.5-.88.89-1.78,1.81-2.42,2.94Z" fill="#ffb27d"/><path d="M672.67,628.85c4.9,2.96,2.87,3.26,9.14,8.3,6.27,5.04,9.96,4.48,10.92,3.74.85-.65-1.71-3.76-4.39-7.17l-.08.03s-5.66-.82-10.49-5.45c-3.94-3.78-6.99-9.07-9.7-11.71-.88.89-1.78,1.81-2.42,2.94-1.83,3.21,2.13,6.35,7.03,9.32Z" fill="#1c468a"/><path d="M721.33,278.5s-14.76-1.94-22.19,12.89c-7.42,14.83-6.82,36.31-14.02,46.44-7.2,10.13,1.2,19.74,1.2,19.74l56.07,2.04s3.9-11.33,0-24.92c-3.9-13.59,15.14-54.13-21.06-56.19Z" fill="#b64c41"/><path d="M768.8,458.45c-.58,2.37-2.45,7.71-3.91,7.71-1.19,0-1.62-6.54-3.15-7.93-2.22-2.01-4.03-6.24-4.32-7.26-.59-2.11-1.15-2.55-1.15-2.55h0s0,0,0,0c0,0-17.73-34.98-19.11-43.93-.46-2.91-1.62-8.76-2.98-15.31-1.48-7.12-3.2-15.08-4.5-21.04,5.66-1.19,11.92-1.61,17.03-1.72,1.04,7.25,1.97,14.65,2.77,21.09,1.19,9.57,2.1,17,2.66,18.59,1.54,4.37,5.79,27.91,9.8,40.13.46,1.2,1.76,4.33,3.19,5.4,1.78,1.33,4.26,4.46,3.69,6.83Z" fill="#e8945b"/><path d="M736.67,423.92c-9.79-33.78,9.92-33.34,8.9-50.25-1.02-16.91-13.15-35.08-13.15-35.08,0,0-.43-.05-1.19-.12-.42-.04-.77-.33-.92-.76-.45-1.34-.58-4.26-.58-7.31,0-4.65.34-9.59.34-9.59l-14.55-3.11-.87-.18c.03,7.9-1.36,13.83-2.86,17.15-.71,1.58-2.1,2.66-3.71,2.9-3.12.47-8.62,1.48-12.33,3.15-1.8.81-3.17,1.78-3.65,2.91-3.99,9.48-7.98,33.4-10.79,50.46-1.56,9.51-2.75,16.89-3.38,18.46-1.73,4.36-7.03,28.38-11.56,40.23l5.78,1.87s19.07-34.15,20.81-43.03c.57-2.89,1.95-8.68,3.57-15.17.24-.98.49-1.98.75-2.98,2.86,8.36,4.32,12.23,4.24,15.85-.11,5.14-3.34,9.76-10.1,26.11-3.73,9.03,55.23,23.01,45.23-11.5Z" fill="#ffb27d"/><path d="M730.07,320.81s-.33,4.94-.34,9.59c-8.14-.25-12.44-8.26-14.2-12.7l14.55,3.11Z" fill="#e8945b"/><path d="M732.79,325.22s-19.26.34-19.27-12.6c-.01-12.95-2.51-21.62,9.79-22.39,12.3-.77,14.69,4.17,15.67,8.49.98,4.32-1.17,26.08-6.18,26.5Z" fill="#ffb27d"/><path d="M759.66,626.92l-6.18,1.64s-9.72-14.36-17.8-33.95c-5.12-12.41-9.57-26.59-10.47-39.76-.41-5.96-.09-11.72,1.23-17.02,0,0-1.73-12.53-4.09-29.25-2.62-18.59-6.02-42.36-8.69-59.84l1.61-.51,26.29-16.59s12.08,29.72,9,74.4c-.63,9.17,1.18,23.35-.43,33.77-2.74,17.81-1.61,35.72.66,50.62,3.26,21.31,8.86,36.49,8.86,36.49Z" fill="#ffb27d"/><path d="M696.15,390.1c3.61,10.76,5.47,15.15,5.38,19.21,11.5-19.22,32.28-22.12,32.28-22.12l-39.46-4.87c.36,2.63.95,5.24,1.8,7.78Z" fill="#cb7d45"/><path d="M738.4,291.52c-2.97-3.89-5.22-3.04-6.48-1.87-10.33-6.18-17.31,2.99-17.31,2.99-1.29,9.29-7.49,14.61-7.49,14.61,0,0,3.43,1.97,11.6.09,9.7-2.22,12.37-14.02,12.76-15.55,1.18,1.14,3.49,3.61,4.2,6.04.96,3.3,1.39,10.08,3.22,9.85,0,0,3.97-10.32-.49-16.16Z" fill="#b64c41"/><path d="M666.8,451.74s-1.76,4.47-3.59,5.72c-1.83,1.25-4.43,4.26-3.95,6.65.48,2.39.96,6.13,3.27,6.13s7.71-11.02,8.38-13.1c.67-2.08,1.25-2.5,1.25-2.5l-5.37-2.91Z" fill="#ffb27d"/><path d="M757.54,549.99c-23.25,14.34-84.47-8.49-84.4-9.81.32-7.02,6.21-49.27,13.12-89.58,4.25-24.79,15.55-34.05,13.74-35.62-.02-.02-.03-.03-.03-.03-6.97-5.34-3.96-14.5-3.5-17.79-2.14.62-9.05,2.03-16.96-2.68,3.26-17.18,7.9-41.28,12.55-50.82.22-.47.61-.89,1.14-1.3-.04-.04-.04-.06-.04-.06,4.35-3.43,13.25-4.48,13.25-4.48,0,0,4.79,12.67,6.26,14.65,9.49,12.79,26.54,7.02,24.22-.95-.84-2.9-5.15-12.04-5.67-13.06-.03-.05,1.21.13,1.21.13,2.86.41,4.88.72,6.34.99,2.86.52,3.57.89,4.28,1.49,2.51,2.71,5.78,9.44,6.04,21.44.1,4.46,4.41,53.77-9.53,52.92-.31-.02-.04.79.56,2.31,1.97,4.88,7.56,17.13,9.18,32.85,5.27,51.13,8.26,99.4,8.26,99.4Z" fill="#fff"/><path d="M670.92,457.15s-.63,5.03-1.86,6.19c-1.23,1.16-1.41,3.25-2.67,2.13-1.26-1.12,4.53-8.32,4.53-8.32Z" fill="#ffb27d"/><path d="M748.43,635.59c0,3.77,4.91,4.19,10.52,3.92,5.61-.27,4.03,1.14,11.82,1.86,7.79.72,10.66-1.85,11.11-3.02.41-1.04-3.29-2.23-7.23-3.59-.5-.17-.99-.35-1.49-.52-4.45-1.59-7.2-5.48-10.86-8.98-3.47-3.31-7.47-14.62-7.47-14.62l-10.61-1.34s3.83,10.16,5.23,14.52c.83,2.56.2,5.59-.39,7.9-.32,1.26-.63,2.55-.63,3.87Z" fill="#ffb27d"/><path d="M758.95,639.52c5.61-.27,4.03,1.14,11.82,1.86,7.79.72,10.66-1.85,11.11-3.02.41-1.04-3.29-2.23-7.23-3.59l-.05.08s-5.21,2.52-11.58,1.33c-5.19-.97-10.37-3.74-13.95-4.44-.32,1.26-.63,2.55-.63,3.87,0,3.77,4.91,4.19,10.52,3.92Z" fill="#1c468a"/><path d="M757.54,549.99c-23.25,14.34-84.47-8.49-84.4-9.81.32-7.02,6.21-49.27,13.12-89.58,4.25-24.79,15.55-34.05,13.74-35.62.43.38,6.99,6.09,19.02,5.31,10.77-.7,19.06-2.15,21.09-2.54,1.97,4.88,7.56,17.13,9.18,32.85,5.27,51.13,8.26,99.4,8.26,99.4Z" fill="#f99746"/><path d="M699.97,414.94s19.04,8.57,39.58.49l1.04,3.47s-21.13,7.92-41.45-1.09l.82-2.87Z" fill="#ed7d2b"/><ellipse cx="548.37" cy="629.03" rx="21.93" ry="11.21" fill="#7acaef" opacity=".43"/><polygon points="908.04 523.15 908.04 498.41 804.54 498.41 804.54 470.92 908.04 470.92 908.04 443.43 972.01 483.29 908.04 523.15" fill="#bc4a4a"/></g></g></svg>