<?xml version="1.0" encoding="UTF-8"?><svg id="a" xmlns="http://www.w3.org/2000/svg" viewBox="0 0 107.66 107.66"><path d="M53.83,0c14.93,0,27.63,5.24,38.11,15.72,10.48,10.48,15.72,23.19,15.72,38.11s-5.24,27.63-15.72,38.11c-10.48,10.48-23.18,15.72-38.11,15.72s-27.63-5.24-38.11-15.72C5.24,81.46,0,68.76,0,53.83S5.24,26.2,15.72,15.72C26.2,5.24,38.9,0,53.83,0ZM84.08,86.34c9.48-8.83,14.21-19.66,14.21-32.51s-4.35-22.82-13.03-31.43c-8.61-8.68-19.09-13.03-31.43-13.03s-22.86,4.35-31.54,13.03c-8.61,8.61-12.92,19.09-12.92,31.43s4.7,23.58,14.11,32.41h3.44l-.75,2.37.64.55,30.47,9.14c.86-.08,1.58-.15,2.16-.23s1-.15,1.29-.23l4.2-1.04-3.34-3.66-2.9-.32-.54,1.4-26.8-7.96h3.55l2.58-7.21,3.34-13.89.32.11-2.26,14.21,1.08,3.12,1.18,3.88,1.08.21-.97-3.01c.79-4.31,1.41-7.75,1.88-10.34.46-2.58.84-4.34,1.13-5.27.07-.36.14-.54.21-.54.07,0,.14.18.21.54l2.48,9.9c.36-1.65.67-3.14.92-4.47.25-1.33.52-2.49.81-3.5l8.07,13.13c.43-2.16.64-4.27.64-6.35,0-.57-.02-1.15-.05-1.72-.04-.57-.09-1.15-.16-1.73-.36-.79-.68-1.59-.97-2.42-.29-.82-.58-1.63-.86-2.42-.72-1.29-1.8-2.96-3.23-5.01-1.44-2.05-3.19-4.43-5.27-7.16-3.81-4.95-6.57-9.54-8.29-13.78-7.04-1.08-10.91-1.87-11.63-2.37-.21.21-1.44.93-3.66,2.16l-2.48-.75-4.2-8.72,4.74-1.29,6.35,1.83-1.08-8.29,6.45-1.51,8.91-2.37,11.39-.75,5.16.32,20.2,3.01,7.43,5.71,2.8,6.35c.21,1.65-.07,2.76-.86,3.34l-3.77,1.62c-1-.72-2.28-1.44-3.82-2.16-1.55-.72-3.36-1.47-5.44-2.26-.07.5-.11.99-.11,1.45v1.45l8.07.97-.54,2.26-4.52,3.55-3.34-2.26c-.78,6.89-2.48,12.27-5.11,16.15-.92,1.36-1.67,2.46-2.24,3.29-.57.82-.96,1.41-1.17,1.77-.78,2.23-1.17,4.81-1.17,7.75v7.86l-2.58-11.63-3.01,15.61,1.51,6.89,1.83.86,1.51-1.07,1.08,2.15.97-7.21-1.18-5.06,5.06-3.99,1.72-2.8-.54,11.74-1.29,2.05,3.24-.32c-.14-.5-.04-2.53.31-6.11.14-1.86.28-3.32.43-4.39.14-1.07.25-1.75.32-2.04.28-1.35.39-2.64.32-3.85l-.75-6.32,2.89,9.79-3,11.52,3.44.21-.21-7.43,4.63-12.59-.54,5.92,2.05,4.84-1.29,8.83,2.05.11ZM40.59,36.39l7.53,1.29c-.36-.72-.75-1.4-1.18-2.05-.43-.65-.86-1.26-1.29-1.83-1.08.14-2.08.31-3.01.49s-1.8.41-2.58.7l.54,1.4ZM50.49,43.28c-.57,0-1.2-.02-1.88-.06-.68-.04-1.42-.05-2.21-.05h-3.01c3.08,7.04,5.88,11.77,8.4,14.21,1,1.01,1.92,1.96,2.75,2.85.82.9,1.49,1.81,1.99,2.75l2.16,3.98c-.79-1.72-1.22-2.8-1.29-3.23,0-1.36-.25-2.94-.75-4.74-.57-2.3-1.33-4.74-2.26-7.32s-2.09-5.38-3.45-8.4h-.43ZM48.34,83.76c.07.72.12,1.33.16,1.83.04.5.02.9-.05,1.18h.86c0-.79-.32-1.79-.97-3.01ZM68.15,34.34c-2.93-.79-6.11-1.33-9.53-1.62-2.21-.21-5.21-.07-8.99.43l1.39,2.48c2.64.07,5.33.23,8.08.48,2.75.25,5.62.67,8.62,1.24l.43-3.01ZM55.23,43.49c1.44,3.16,2.64,6.12,3.61,8.88.97,2.76,1.63,5.37,1.99,7.81.57-1.72.95-2.69,1.17-2.9.78-.79,1.27-1.33,1.49-1.62,1.98-3.08,3.25-8,3.81-14.75l-1.17-.11-.85,3.01-5.02,1.29c-1.28-1.08-2.95-1.62-5.02-1.62ZM65.13,80.64l.11.54-.11.11v-.64Z" fill="#15803d"/></svg>