<?xml version="1.0" encoding="UTF-8"?><svg id="a" xmlns="http://www.w3.org/2000/svg" xmlns:xlink="http://www.w3.org/1999/xlink" viewBox="0 0 888.51 888.51"><defs><clipPath id="b"><rect x="14.93" y="14.9" width="858.66" height="858.7" fill="none"/></clipPath></defs><path d="M444.26,888.51c245.37,0,444.26-198.89,444.26-444.26S689.63,0,444.26,0,0,198.89,0,444.26s198.89,444.26,444.26,444.26" fill="#fff"/><g clip-path="url(#b)"><path d="M444.25,14.96c119.1,0,220.41,41.78,303.98,125.35,83.57,83.62,125.35,184.93,125.35,303.98s-41.78,220.41-125.35,303.98c-83.57,83.57-184.88,125.35-303.98,125.35s-220.41-41.78-303.98-125.35C56.7,664.69,14.92,563.34,14.92,444.28s41.78-220.36,125.35-303.98C223.84,56.74,325.19,14.96,444.25,14.96M685.52,703.59c75.59-70.39,113.38-156.85,113.38-259.31s-34.67-182.04-103.91-250.75c-68.71-69.24-152.28-103.91-250.75-103.91s-182.33,34.67-251.57,103.91c-68.71,68.71-103.04,152.28-103.04,250.75s37.46,188.05,112.51,258.49h27.46l-6.01,18.85,5.1,4.38,243.01,72.89c6.88-.63,12.65-1.2,17.21-1.83,4.57-.63,7.98-1.25,10.29-1.88l33.47-8.32-26.59-29.19-23.18-2.55-4.33,11.16-213.77-63.52h28.32l20.63-57.55,26.59-110.78,2.6.87-18.03,113.33,8.61,24.91,9.42,30.92,8.61,1.73-7.74-24.04c6.3-34.33,11.3-61.83,15.05-82.46,3.7-20.58,6.68-34.62,8.99-42.07.58-2.84,1.11-4.28,1.73-4.28.53,0,1.15,1.44,1.68,4.28l19.76,79c2.84-13.13,5.29-25,7.31-35.63,1.97-10.58,4.14-19.91,6.44-27.89l64.38,104.77c3.41-17.21,5.14-34.09,5.14-50.68,0-4.57-.14-9.14-.43-13.75-.29-4.57-.72-9.14-1.3-13.75-2.84-6.3-5.43-12.69-7.69-19.33-2.31-6.54-4.62-12.98-6.88-19.28-5.72-10.29-14.33-23.61-25.77-39.96-11.44-16.3-25.44-35.34-42.07-57.12-30.34-39.48-52.36-76.07-66.11-109.87-56.11-8.61-87.03-14.91-92.75-18.9-1.68,1.68-11.44,7.45-29.14,17.21l-19.81-6.01-33.47-69.58,37.79-10.34,50.63,14.62-8.61-66.16,51.45-12.02,71.11-18.85,90.78-6.01,41.16,2.55,161.12,24.04,59.24,45.53,22.36,50.68c1.68,13.17-.63,22.02-6.92,26.59l-30,12.89c-8.03-5.72-18.18-11.44-30.48-17.17-12.36-5.72-26.78-11.73-43.37-18.03-.58,4.04-.87,7.84-.87,11.59v11.59l64.38,7.74-4.28,18.03-36.06,28.32-26.64-17.98c-6.2,54.91-19.81,97.85-40.73,128.76-7.36,10.87-13.32,19.57-17.84,26.2-4.57,6.59-7.65,11.3-9.33,14.14-6.25,17.74-9.38,38.37-9.38,61.83v62.7l-20.58-92.75-24.04,124.49,12.02,54.96,14.57,6.88,12.02-8.56,8.61,17.17,7.69-57.51-9.42-40.39,40.34-31.78,13.75-22.31-4.28,93.57-10.29,16.35,25.87-2.6c-1.11-3.99-.29-20.19,2.45-48.71,1.11-14.81,2.31-26.49,3.41-35.05,1.15-8.51,2.02-13.94,2.6-16.25,2.26-10.77,3.13-21.06,2.55-30.72l-6.01-50.44,23.08,78.13-23.9,91.89,27.46,1.73-1.68-59.29,36.88-100.44-4.28,47.22,16.35,38.66-10.34,70.44,16.3.82ZM338.66,305.18l60.06,10.29c-2.84-5.72-6.01-11.16-9.42-16.3-3.41-5.14-6.83-10-10.29-14.62-8.61,1.15-16.59,2.45-24.04,3.89-7.45,1.44-14.33,3.27-20.63,5.58l4.33,11.16ZM417.66,360.14c-4.62,0-9.62-.14-15.05-.43-5.43-.29-11.3-.43-17.6-.43h-24.04c24.57,56.11,46.93,93.91,66.98,113.33,7.98,8.03,15.29,15.63,21.88,22.74,6.59,7.21,11.88,14.47,15.87,21.93l17.21,31.73c-6.35-13.7-9.76-22.31-10.34-25.72,0-10.87-2.02-23.46-5.96-37.79-4.62-18.32-10.63-37.74-18.03-58.37-7.45-20.63-16.64-42.94-27.5-66.98h-3.41ZM400.49,682.97c.53,5.72.96,10.63,1.25,14.62.29,4.04.14,7.16-.43,9.42h6.88c0-6.3-2.55-14.28-7.69-24.04M558.49,288.88c-23.42-6.3-48.71-10.58-76.02-12.89-17.65-1.73-41.54-.58-71.69,3.41l11.06,19.76c21.11.58,42.55,1.88,64.43,3.85,21.97,2.02,44.86,5.29,68.76,9.91l3.46-24.04ZM455.4,361.87c11.44,25.2,21.06,48.8,28.8,70.83,7.69,22.02,12.98,42.79,15.87,62.27,4.47-13.75,7.6-21.49,9.28-23.18,6.2-6.3,10.15-10.58,11.83-12.93,15.77-24.57,25.92-63.81,30.39-117.61l-9.33-.87-6.83,24.09-40,10.29c-10.19-8.61-23.56-12.89-40-12.89M534.4,658.11l.87,4.28-.87.87v-5.14Z" fill="#268a2b"/></g></svg>