<?xml version="1.0" encoding="UTF-8"?><svg id="a" xmlns="http://www.w3.org/2000/svg" viewBox="0 0 110.03 110.03"><path d="M110.03,55.01c0,14.97-5.28,27.84-15.84,38.62l.11.11c-1.03.29-3.38,1.94-7.04,4.95-2.13,1.69-4.16,3.15-6.11,4.4-1.95,1.24-3.87,2.27-5.78,3.08-6.16,2.57-12.95,3.85-20.36,3.85-15.18,0-28.16-5.39-38.95-16.17C5.35,83.15,0,70.2,0,55.01S5.35,26.88,16.06,16.18C26.85,5.39,39.83,0,55.01,0s28.13,5.39,38.84,16.18c10.78,10.71,16.18,23.66,16.18,38.84ZM7.7,55.01v.83c0,.33.04.68.11,1.04,1.24.15,2.48.26,3.68.33,1.21.07,2.44.11,3.68.11,2.64,0,5.41-.17,8.31-.49,2.9-.33,5.92-.86,9.07-1.6l-.11-11h-9.13L55.45,11.99l31.25,32.13h-9.13v12.65c5.57,1.98,11.11,2.97,16.61,2.97,2.64,0,5.28-.22,7.92-.66.07-.73.13-1.45.16-2.15.04-.69.06-1.33.06-1.93,0-13.05-4.62-24.21-13.87-33.45-9.24-9.24-20.39-13.86-33.45-13.86s-24.21,4.62-33.45,13.86S7.7,41.96,7.7,55.01ZM8.36,62.83c.14.81.31,1.65.49,2.53.18.88.42,1.76.72,2.64.73.08,1.47.13,2.2.17.73.04,1.5.05,2.31.05,5.94,0,12.1-.81,18.48-2.42v-4.73c-3.08.73-6.05,1.27-8.91,1.59-2.86.33-5.69.5-8.47.5-2.27,0-4.55-.11-6.82-.33ZM73.94,76.91c5.35,2.57,10.56,3.85,15.62,3.85.95,0,1.88-.04,2.81-.11.91-.07,1.78-.18,2.58-.33.66-1.1,1.43-2.49,2.31-4.18-.66.07-1.32.11-1.98.11h-2.09c-6.38,0-14.23-1.65-23.54-4.95h-35.21c-8.29,1.98-15.88,2.86-22.77,2.64.29.59.59,1.2.88,1.82.29.62.62,1.3.99,2.03,1.17.15,2.38.28,3.63.39,1.24.11,2.57.17,3.96.17,7.33,0,14.52-1.17,21.56-3.52,4.62-1.54,9.1-2.31,13.43-2.31,5.79,0,11.73,1.47,17.82,4.4ZM87.8,89.01c.44-.37.86-.77,1.26-1.21s.79-.88,1.16-1.32c-6.31.15-12.58-1.32-18.81-4.4-4.99-2.49-10.12-3.74-15.41-3.74-3.67,0-7.48.66-11.44,1.98-8.73,3.01-17.71,4.22-26.96,3.63l2.2,2.64c1.54.22,3.26.33,5.17.33,3.59,0,7.04-.29,10.34-.88s6.6-1.54,9.9-2.86c1.98-.81,3.96-1.38,5.94-1.71,1.98-.33,3.92-.5,5.83-.5,5.35,0,10.64,1.43,15.84,4.29,5.14,2.86,10.12,4.11,14.97,3.74ZM76.8,96.93c1.61-.73,3.04-1.58,4.29-2.53-3.67-.59-7.34-1.94-11-4.07-4.33-2.42-8.69-3.63-13.1-3.63-3.23,0-6.46.62-9.68,1.87-3.3,1.24-6.68,2.22-10.12,2.91-3.45.7-7.01,1.12-10.67,1.27.81.59,1.61,1.14,2.42,1.65.81.51,1.62,1.03,2.42,1.54,3.08.08,5.94-.13,8.58-.6,2.64-.47,5.1-1.23,7.37-2.26,2.42-1.17,5.02-1.76,7.81-1.76,3.52,0,7,1.1,10.45,3.3,2.49,1.61,4.95,2.42,7.37,2.42,1.03,0,2.27-.18,3.74-.55l.11.44ZM38.84,53.58c4.92-1.39,9.94-2.09,15.07-2.09,5.72,0,11.51.99,17.38,2.97v-16.72h.44l-16.39-16.73-16.73,16.83h.11l.11,15.74ZM38.95,64.15c4.47-1.17,9.13-1.76,13.97-1.76,5.14,0,10.53.84,16.18,2.53h2.2v-4.29c-5.94-2.2-11.77-3.3-17.49-3.3-4.26,0-9.21.73-14.85,2.2v4.62ZM55.01,102.33c1.69,0,3.39-.11,5.12-.33s3.5-.51,5.34-.88c-1.03-.44-2.02-.99-2.97-1.65-2.57-1.54-5.02-2.31-7.37-2.31-1.76,0-3.59.4-5.5,1.21s-4.37,1.54-7.37,2.2c3.96,1.17,8.22,1.76,12.76,1.76ZM99.79,70.09c.3-.81.57-1.65.83-2.53.26-.88.46-1.72.6-2.53-1.17.15-2.35.26-3.52.33-1.17.08-2.35.11-3.52.11-5.5,0-11.04-.88-16.61-2.64v5.17c5.43,1.69,10.64,2.53,15.62,2.53,1.1,0,2.2-.04,3.3-.11s2.2-.18,3.3-.33Z" fill="#fff"/></svg>