<?xml version="1.0" encoding="UTF-8"?><svg id="a" xmlns="http://www.w3.org/2000/svg" viewBox="0 0 746.49 746.49"><path d="M373.24,746.49c206.15,0,373.24-167.1,373.24-373.24S579.39,0,373.24,0,0,167.1,0,373.24s167.1,373.24,373.24,373.24" fill="#fff"/><rect width="746.49" height="746.49" fill="none"/><path d="M731.66,373.25c0,97.5-34.44,181.36-103.21,251.59l.71.75c-6.7,1.89-21.99,12.65-45.87,32.24-13.87,11-27.11,20.53-39.8,28.69-12.69,8.12-25.22,14.82-37.6,20.06-40.16,16.71-84.38,25.06-132.65,25.06-98.88,0-183.49-35.07-253.76-105.34C49.72,556.54,14.84,472.21,14.84,373.25S49.72,190,119.47,120.24C189.74,49.97,274.35,14.82,373.23,14.82s183.25,35.15,253.05,105.42c70.27,69.75,105.38,154.09,105.38,253.01M65.01,373.25v5.4c0,2.13.24,4.41.71,6.78,8.12.99,16.16,1.69,24.04,2.17,7.88.47,15.88.71,24,.71,17.18,0,35.23-1.1,54.11-3.19,18.88-2.17,38.58-5.64,59.11-10.44l-.67-71.65h-59.51l209.3-210.05,203.59,209.3h-59.51v82.44c36.3,12.93,72.39,19.35,108.26,19.35,17.18,0,34.4-1.42,51.63-4.26.47-4.81.79-9.46,1.02-14.03.24-4.49.39-8.67.39-12.53,0-85.05-30.15-157.72-90.33-217.89-60.22-60.22-132.89-90.33-217.93-90.33s-157.68,30.11-217.89,90.33c-60.22,60.18-90.33,132.85-90.33,217.89M69.31,424.13c.95,5.32,2.01,10.8,3.23,16.51,1.18,5.71,2.72,11.47,4.65,17.18,4.81.51,9.58.87,14.34,1.1,4.77.24,9.77.35,15.05.35,38.7,0,78.86-5.28,120.4-15.76v-30.82c-20.06,4.77-39.37,8.24-58.01,10.36-18.64,2.17-37.04,3.23-55.21,3.23-14.82,0-29.64-.71-44.45-2.17M496.54,515.91c34.88,16.75,68.81,25.06,101.79,25.06,6.23,0,12.26-.2,18.29-.71,5.95-.47,11.59-1.18,16.83-2.13,4.3-7.17,9.34-16.24,15.05-27.23-4.3.43-8.59.67-12.89.67h-13.64c-41.58,0-92.73-10.72-153.38-32.24h-229.4c-53.99,12.93-103.45,18.64-148.38,17.22,1.89,3.82,3.82,7.76,5.75,11.82,1.89,4.06,4.02,8.47,6.42,13.24,7.65.95,15.53,1.81,23.68,2.52,8.08.71,16.71,1.06,25.77,1.06,47.8,0,94.62-7.65,140.49-22.94,30.11-10.01,59.27-15.05,87.45-15.05,37.75,0,76.45,9.58,116.14,28.69M586.87,594.73c2.88-2.36,5.6-5,8.24-7.84,2.6-2.88,5.12-5.75,7.53-8.63-41.1.99-81.97-8.59-122.56-28.65-32.51-16.28-65.97-24.39-100.38-24.39-23.88,0-48.75,4.34-74.56,12.93-56.87,19.59-115.39,27.47-175.61,23.65l14.34,17.22c10.05,1.42,21.28,2.13,33.69,2.13,23.37,0,45.87-1.89,67.39-5.71,21.48-3.82,42.96-10.05,64.51-18.64,12.89-5.24,25.77-8.99,38.7-11.11,12.89-2.17,25.54-3.23,37.99-3.23,34.88,0,69.28,9.34,103.21,27.94,33.46,18.64,65.93,26.76,97.5,24.35M515.18,646.39c10.48-4.81,19.82-10.33,27.98-16.51-23.92-3.82-47.84-12.69-71.72-26.52-28.18-15.8-56.63-23.65-85.28-23.65-21.04,0-42.09,4.02-63.09,12.18-21.52,8.12-43.47,14.42-65.93,19-22.5,4.53-45.64,7.29-69.52,8.24,5.24,3.82,10.48,7.41,15.72,10.76,5.28,3.35,10.52,6.7,15.8,10.01,20.06.51,38.7-.83,55.88-3.94,17.22-3.07,33.22-8,48.04-14.7,15.76-7.65,32.75-11.47,50.92-11.47,22.94,0,45.6,7.21,68.06,21.56,16.24,10.48,32.28,15.72,48.04,15.72,6.7,0,14.82-1.18,24.35-3.59l.75,2.92ZM267.85,363.95c32.04-9.06,64.75-13.64,98.21-13.64,37.28,0,75.04,6.46,113.26,19.35v-108.93h2.92l-106.84-108.97-108.97,109.68h.75l.67,102.5ZM268.6,432.76c29.12-7.65,59.51-11.47,91.04-11.47,33.46,0,68.57,5.48,105.38,16.47h14.31v-27.94c-38.7-14.34-76.69-21.52-113.93-21.52-27.74,0-60.02,4.77-96.79,14.34v30.11ZM373.23,681.47c11,0,22.11-.71,33.34-2.13,11.23-1.46,22.82-3.35,34.8-5.71-6.74-2.88-13.16-6.5-19.39-10.76-16.75-10.05-32.71-15.05-48-15.05-11.51,0-23.41,2.6-35.86,7.84-12.41,5.28-28.41,10.05-48.04,14.38,25.81,7.65,53.52,11.43,83.15,11.43M664.98,471.46c1.93-5.24,3.7-10.76,5.4-16.47,1.66-5.75,2.96-11.23,3.94-16.47-7.65.95-15.33,1.66-22.98,2.13-7.65.47-15.29.71-22.9.71-35.86,0-71.96-5.75-108.26-17.22v33.69c35.35,11,69.32,16.47,101.79,16.47,7.17,0,14.31-.2,21.52-.67,7.17-.47,14.34-1.22,21.48-2.17" fill="#136091"/><rect x="14.82" y="14.86" width="716.81" height="716.81" fill="none"/></svg>