<?xml version="1.0" encoding="UTF-8"?><svg xmlns="http://www.w3.org/2000/svg" xmlns:xlink="http://www.w3.org/1999/xlink" viewBox="0 0 93.02 161.89"><defs><linearGradient id="b" x1="-318.66" y1="-336.63" x2="-318.66" y2="-326.16" gradientTransform="translate(-258.15 413.57) rotate(90)" gradientUnits="userSpaceOnUse"><stop offset="0" stop-color="#e78443"/><stop offset=".17" stop-color="#d27b4a"/><stop offset=".38" stop-color="#bf7450"/><stop offset=".53" stop-color="#b97253"/><stop offset=".94" stop-color="#e5cdab"/><stop offset="1" stop-color="#eddcba"/></linearGradient><linearGradient id="c" x1="-314.8" y1="-328.86" x2="-314.8" y2="-327.17" gradientTransform="translate(-258.15 413.57) rotate(90)" gradientUnits="userSpaceOnUse"><stop offset=".02" stop-color="#fff"/><stop offset=".11" stop-color="#f7f7f7"/><stop offset=".24" stop-color="#e1e1e1"/><stop offset=".4" stop-color="#bdbebe"/><stop offset=".59" stop-color="#8c8d8d"/><stop offset=".77" stop-color="#535555"/><stop offset="1" stop-color="#47494b"/></linearGradient><linearGradient id="d" x1="-315.08" y1="-335.06" x2="-315.08" y2="-335.98" gradientTransform="translate(-258.15 413.57) rotate(90)" gradientUnits="userSpaceOnUse"><stop offset=".02" stop-color="#fff"/><stop offset=".25" stop-color="#fcfcfc"/><stop offset=".38" stop-color="#f4f4f4"/><stop offset=".49" stop-color="#e6e6e6"/><stop offset=".59" stop-color="#d2d2d2"/><stop offset=".67" stop-color="#b8b9b9"/><stop offset=".75" stop-color="#989999"/><stop offset=".82" stop-color="#737575"/><stop offset=".88" stop-color="#535555"/><stop offset="1" stop-color="#47494b"/></linearGradient><filter id="f" x="74.68" y="91.53" width="1.4" height="14.9" color-interpolation-filters="sRGB" filterUnits="userSpaceOnUse"><feFlood flood-color="#fff" result="bg"/><feBlend in="SourceGraphic" in2="bg"/></filter><filter id="h" x="74.68" y="-8241.99" width="1.4" height="32766" color-interpolation-filters="sRGB" filterUnits="userSpaceOnUse"><feFlood flood-color="#fff" result="bg"/><feBlend in="SourceGraphic" in2="bg"/></filter><mask id="g" x="74.68" y="-8241.99" width="1.4" height="32766" maskUnits="userSpaceOnUse"/><linearGradient id="i" x1="-314.59" y1="-334.25" x2="-314.59" y2="-332.87" gradientTransform="translate(-258.15 413.57) rotate(90)" gradientUnits="userSpaceOnUse"><stop offset="0" stop-color="#272727"/><stop offset=".18" stop-color="#6c6c6c"/><stop offset=".54" stop-color="#fff"/><stop offset=".58" stop-color="#f2f2f2"/><stop offset=".66" stop-color="#cfcfcf"/><stop offset=".76" stop-color="#989898"/><stop offset=".88" stop-color="#4d4d4d"/><stop offset="1" stop-color="#000"/></linearGradient><mask id="e" x="74.68" y="91.53" width="1.4" height="14.9" maskUnits="userSpaceOnUse"><g filter="url(#f)"><g mask="url(#g)"><path d="M74.68,106.43c.51-.09.99-.24,1.4-.42v-14.48h-1.4v14.9Z" fill="url(#i)" mix-blend-mode="multiply"/></g></g></mask><linearGradient id="j" x1="-314.59" y1="-334.25" x2="-314.59" y2="-332.87" gradientTransform="translate(-258.15 413.57) rotate(90)" gradientUnits="userSpaceOnUse"><stop offset="0" stop-color="#636567"/><stop offset=".45" stop-color="#a7a7a8"/><stop offset=".54" stop-color="#b5b5b5"/><stop offset=".62" stop-color="#a8a8a8"/><stop offset=".77" stop-color="#868787"/><stop offset=".97" stop-color="#4f5153"/><stop offset="1" stop-color="#47494b"/></linearGradient><linearGradient id="k" x1="-324.94" y1="-331.43" x2="-320.53" y2="-331.54" gradientTransform="translate(-258.15 413.57) rotate(90)" gradientUnits="userSpaceOnUse"><stop offset="0" stop-color="#e9be62"/><stop offset="0" stop-color="#e8bd61"/><stop offset=".22" stop-color="#cf9f55"/><stop offset=".4" stop-color="#c08c4e"/><stop offset=".52" stop-color="#bb864c"/><stop offset=".92" stop-color="#e4cda7"/><stop offset="1" stop-color="#eddcba"/></linearGradient><filter id="m" x="69.4" y="92.64" width="8.08" height="1.86" color-interpolation-filters="sRGB" filterUnits="userSpaceOnUse"><feFlood flood-color="#fff" result="bg"/><feBlend in="SourceGraphic" in2="bg"/></filter><filter id="o" x="69.4" y="-8241.99" width="8.08" height="32766" color-interpolation-filters="sRGB" filterUnits="userSpaceOnUse"><feFlood flood-color="#fff" result="bg"/><feBlend in="SourceGraphic" in2="bg"/></filter><mask id="n" x="69.4" y="-8241.99" width="8.08" height="32766" maskUnits="userSpaceOnUse"/><linearGradient id="p" x1="-320.01" y1="-334.87" x2="-320.01" y2="-328.93" xlink:href="#i"/><mask id="l" x="69.4" y="92.64" width="8.08" height="1.86" maskUnits="userSpaceOnUse"><g filter="url(#m)"><g mask="url(#n)"><path d="M77.48,92.64s-.63,1.1-2.91,1.44c-2.29.34-4.17-.34-4.94-1.02,0,0-.26-.24-.23-.09.04.15.87,1.77,4.68,1.49,0,0,2.67-.15,3.39-1.83Z" fill="url(#p)" mix-blend-mode="multiply"/></g></g></mask><linearGradient id="q" x1="-320.01" y1="-334.87" x2="-320.01" y2="-328.93" xlink:href="#j"/><filter id="s" x="69.4" y="104.59" width="8.08" height="1.86" color-interpolation-filters="sRGB" filterUnits="userSpaceOnUse"><feFlood flood-color="#fff" result="bg"/><feBlend in="SourceGraphic" in2="bg"/></filter><filter id="u" x="69.4" y="-8241.99" width="8.08" height="32766" color-interpolation-filters="sRGB" filterUnits="userSpaceOnUse"><feFlood flood-color="#fff" result="bg"/><feBlend in="SourceGraphic" in2="bg"/></filter><mask id="t" x="69.4" y="-8241.99" width="8.08" height="32766" maskUnits="userSpaceOnUse"/><linearGradient id="v" x1="-307.9" y1="-331.59" x2="-305.74" y2="-331.59" xlink:href="#i"/><mask id="r" x="69.4" y="104.59" width="8.08" height="1.86" maskUnits="userSpaceOnUse"><g filter="url(#s)"><g mask="url(#t)"><path d="M77.48,104.59s-.63,1.1-2.91,1.44c-2.29.34-4.17-.33-4.94-1.02,0,0-.26-.24-.23-.09.04.15.87,1.77,4.68,1.49,0,0,2.67-.15,3.39-1.83Z" fill="url(#v)" mix-blend-mode="multiply"/></g></g></mask><linearGradient id="w" x1="-307.9" y1="-331.59" x2="-305.74" y2="-331.59" xlink:href="#j"/><linearGradient id="x" x1="-318.42" y1="-348.28" x2="-318.42" y2="-337.8" xlink:href="#b"/><linearGradient id="y" x1="-314.56" y1="-340.5" x2="-314.56" y2="-338.82" xlink:href="#c"/><linearGradient id="z" x1="-314.84" y1="-346.7" x2="-314.84" y2="-347.63" xlink:href="#d"/><filter id="ab" x="86.32" y="91.77" width="1.4" height="14.9" color-interpolation-filters="sRGB" filterUnits="userSpaceOnUse"><feFlood flood-color="#fff" result="bg"/><feBlend in="SourceGraphic" in2="bg"/></filter><filter id="ad" x="86.32" y="-8241.99" width="1.4" height="32766" color-interpolation-filters="sRGB" filterUnits="userSpaceOnUse"><feFlood flood-color="#fff" result="bg"/><feBlend in="SourceGraphic" in2="bg"/></filter><mask id="ac" x="86.32" y="-8241.99" width="1.4" height="32766" maskUnits="userSpaceOnUse"/><linearGradient id="ae" x1="-314.35" y1="-345.9" x2="-314.35" y2="-344.51" xlink:href="#i"/><mask id="aa" x="86.32" y="91.77" width="1.4" height="14.9" maskUnits="userSpaceOnUse"><g filter="url(#ab)"><g mask="url(#ac)"><path d="M86.32,106.67c.51-.09.99-.24,1.4-.42v-14.48h-1.4v14.9Z" fill="url(#ae)" mix-blend-mode="multiply"/></g></g></mask><linearGradient id="af" x1="-314.35" y1="-345.9" x2="-314.35" y2="-344.51" xlink:href="#j"/><linearGradient id="ag" x1="-324.7" y1="-343.07" x2="-320.29" y2="-343.18" xlink:href="#k"/><filter id="ai" x="81.04" y="92.87" width="8.08" height="1.86" color-interpolation-filters="sRGB" filterUnits="userSpaceOnUse"><feFlood flood-color="#fff" result="bg"/><feBlend in="SourceGraphic" in2="bg"/></filter><filter id="ak" x="81.04" y="-8241.99" width="8.08" height="32766" color-interpolation-filters="sRGB" filterUnits="userSpaceOnUse"><feFlood flood-color="#fff" result="bg"/><feBlend in="SourceGraphic" in2="bg"/></filter><mask id="aj" x="81.04" y="-8241.99" width="8.08" height="32766" maskUnits="userSpaceOnUse"/><linearGradient id="al" x1="-319.77" y1="-346.52" x2="-319.77" y2="-340.57" xlink:href="#i"/><mask id="ah" x="81.04" y="92.87" width="8.08" height="1.86" maskUnits="userSpaceOnUse"><g filter="url(#ai)"><g mask="url(#aj)"><path d="M89.13,92.87s-.63,1.1-2.91,1.44c-2.29.34-4.17-.34-4.94-1.02,0,0-.26-.24-.23-.09.04.15.87,1.77,4.68,1.49,0,0,2.67-.15,3.39-1.83Z" fill="url(#al)" mix-blend-mode="multiply"/></g></g></mask><linearGradient id="am" x1="-319.77" y1="-346.52" x2="-319.77" y2="-340.57" xlink:href="#j"/><filter id="ao" x="81.04" y="104.83" width="8.08" height="1.86" color-interpolation-filters="sRGB" filterUnits="userSpaceOnUse"><feFlood flood-color="#fff" result="bg"/><feBlend in="SourceGraphic" in2="bg"/></filter><filter id="aq" x="81.04" y="-8241.99" width="8.08" height="32766" color-interpolation-filters="sRGB" filterUnits="userSpaceOnUse"><feFlood flood-color="#fff" result="bg"/><feBlend in="SourceGraphic" in2="bg"/></filter><mask id="ap" x="81.04" y="-8241.99" width="8.08" height="32766" maskUnits="userSpaceOnUse"/><linearGradient id="ar" x1="-307.66" y1="-343.23" x2="-305.5" y2="-343.23" xlink:href="#i"/><mask id="an" x="81.04" y="104.83" width="8.08" height="1.86" maskUnits="userSpaceOnUse"><g filter="url(#ao)"><g mask="url(#ap)"><path d="M89.13,104.83s-.63,1.1-2.91,1.44c-2.29.34-4.17-.33-4.94-1.02,0,0-.26-.24-.23-.09.04.15.87,1.77,4.68,1.49,0,0,2.67-.15,3.39-1.83Z" fill="url(#ar)" mix-blend-mode="multiply"/></g></g></mask><linearGradient id="as" x1="-307.66" y1="-343.23" x2="-305.5" y2="-343.23" xlink:href="#j"/><linearGradient id="at" x1="-70.07" y1="11.7" x2="-66.02" y2="16.99" gradientTransform="translate(9.2) rotate(-180) scale(1 -1)" gradientUnits="userSpaceOnUse"><stop offset="0" stop-color="#fff"/><stop offset="1" stop-color="#a6a6a6"/></linearGradient><linearGradient id="au" x1="-70.03" y1="11.76" x2="-66.06" y2="16.94" gradientTransform="translate(9.2) rotate(-180) scale(1 -1)" gradientUnits="userSpaceOnUse"><stop offset="0" stop-color="#928f88"/><stop offset=".06" stop-color="#95928b"/><stop offset=".11" stop-color="#9f9b94"/><stop offset=".15" stop-color="#b0aca4"/><stop offset=".19" stop-color="#c5bfb7"/><stop offset=".26" stop-color="#dddcd8"/><stop offset=".31" stop-color="#e8e9e7"/><stop offset=".32" stop-color="#dfe0de"/><stop offset=".35" stop-color="#c9c9c6"/><stop offset=".38" stop-color="#a4a39f"/><stop offset=".41" stop-color="#75726d"/><stop offset=".46" stop-color="#9b9a97"/><stop offset=".52" stop-color="#bebebd"/><stop offset=".55" stop-color="#ccc"/><stop offset=".59" stop-color="#c9c6c3"/><stop offset=".64" stop-color="#c5bfb7"/><stop offset=".71" stop-color="#dddcd8"/><stop offset=".75" stop-color="#e8e9e7"/><stop offset=".77" stop-color="#e0e0de"/><stop offset=".8" stop-color="#cccbc6"/><stop offset=".85" stop-color="#aca79f"/><stop offset=".87" stop-color="#948c82"/><stop offset=".88" stop-color="#948d83"/><stop offset=".96" stop-color="#b1afa9"/><stop offset="1" stop-color="#bdbcb8"/></linearGradient><linearGradient id="av" x1="-70.07" y1="11.7" x2="-66.02" y2="16.99" gradientTransform="translate(9.2) rotate(-180) scale(1 -1)" gradientUnits="userSpaceOnUse"><stop offset="0" stop-color="#fff"/><stop offset="1" stop-color="#000"/></linearGradient><radialGradient id="aw" cx="-67.92" cy="14.52" fx="-67.92" fy="14.52" r="2.89" gradientTransform="translate(9.2) rotate(-180) scale(1 -1)" gradientUnits="userSpaceOnUse"><stop offset="0" stop-color="#807d75"/><stop offset=".49" stop-color="#817e76"/><stop offset=".66" stop-color="#88857c"/><stop offset=".79" stop-color="#949087"/><stop offset=".89" stop-color="#a5a196"/><stop offset=".98" stop-color="#bbb6aa"/><stop offset="1" stop-color="#c2bdb1"/></radialGradient><radialGradient id="ax" cx="-67.92" cy="14.52" fx="-67.92" fy="14.52" r="2.89" gradientTransform="translate(9.2) rotate(-180) scale(1 -1)" gradientUnits="userSpaceOnUse"><stop offset="0" stop-color="#000"/><stop offset=".08" stop-color="#222"/><stop offset=".22" stop-color="#5c5c5c"/><stop offset=".36" stop-color="#8e8e8e"/><stop offset=".5" stop-color="#b6b6b6"/><stop offset=".64" stop-color="#d6d6d6"/><stop offset=".77" stop-color="#ececec"/><stop offset=".89" stop-color="#fafafa"/><stop offset="1" stop-color="#fff"/></radialGradient><linearGradient id="ay" x1="-80.37" y1="78.74" x2="-59.13" y2="78.74" gradientTransform="translate(9.2) rotate(-180) scale(1 -1)" gradientUnits="userSpaceOnUse"><stop offset="0" stop-color="#ce8404"/><stop offset=".09" stop-color="#eabd1c"/><stop offset=".19" stop-color="#f3da1d"/><stop offset=".21" stop-color="#edca1c"/><stop offset=".53" stop-color="#f7d21a"/><stop offset=".85" stop-color="#f7e91e"/><stop offset=".87" stop-color="#f0c800"/><stop offset="1" stop-color="#b57c00"/></linearGradient><radialGradient id="az" cx="-63.5" cy="-103.7" fx="-63.5" fy="-103.7" r="10.62" gradientTransform="translate(2.53 91.95) rotate(-180) scale(1.2 -.13)" gradientUnits="userSpaceOnUse"><stop offset="0" stop-color="#9c9c9c"/><stop offset=".09" stop-color="#aaa"/><stop offset=".36" stop-color="#cfcfcf"/><stop offset=".61" stop-color="#e9e9e9"/><stop offset=".83" stop-color="#f9f9f9"/><stop offset="1" stop-color="#fff"/></radialGradient><linearGradient id="ba" x1="-80.94" y1="52.78" x2="-58.56" y2="52.78" gradientTransform="translate(9.2) rotate(-180) scale(1 -1)" gradientUnits="userSpaceOnUse"><stop offset="0" stop-color="#ce8404"/><stop offset=".09" stop-color="#eabd1c"/><stop offset=".19" stop-color="#f3da1d"/><stop offset=".22" stop-color="#edca1c"/><stop offset=".53" stop-color="#f7d21a"/><stop offset=".81" stop-color="#f7e91e"/><stop offset=".83" stop-color="#f0c800"/><stop offset="1" stop-color="#b57c00"/></linearGradient><linearGradient id="bb" x1="-80.94" y1="24.49" x2="-58.56" y2="24.49" gradientTransform="translate(9.2) rotate(-180) scale(1 -1)" gradientUnits="userSpaceOnUse"><stop offset="0" stop-color="#32332e"/><stop offset=".06" stop-color="#353630"/><stop offset=".11" stop-color="#3e4039"/><stop offset=".15" stop-color="#4e5148"/><stop offset=".19" stop-color="#5f6358"/><stop offset=".29" stop-color="#53574d"/><stop offset=".48" stop-color="#353731"/><stop offset=".53" stop-color="#2d2f2a"/><stop offset=".82" stop-color="#151715"/><stop offset="1" stop-color="#161716"/></linearGradient><linearGradient id="bc" x1="-69.75" y1="24.13" x2="-69.75" y2="22.61" gradientTransform="translate(9.2) rotate(-180) scale(1 -1)" gradientUnits="userSpaceOnUse"><stop offset="0" stop-color="#000"/><stop offset=".32" stop-color="#020202"/><stop offset=".5" stop-color="#0a0a0a"/><stop offset=".66" stop-color="#181818"/><stop offset=".79" stop-color="#2d2d2d"/><stop offset=".91" stop-color="#464646"/><stop offset="1" stop-color="#5e5e5e"/></linearGradient><linearGradient id="bd" x1="-69.75" y1="26.37" x2="-69.75" y2="24.85" gradientTransform="translate(9.2) rotate(-180) scale(1 -1)" gradientUnits="userSpaceOnUse"><stop offset="0" stop-color="#999"/><stop offset=".09" stop-color="#b0b0b0"/><stop offset=".23" stop-color="#cdcdcd"/><stop offset=".39" stop-color="#e3e3e3"/><stop offset=".55" stop-color="#f2f2f2"/><stop offset=".74" stop-color="#fcfcfc"/><stop offset="1" stop-color="#fff"/></linearGradient><linearGradient id="be" x1="-69.75" y1="27.89" x2="-69.75" y2="26.37" gradientTransform="translate(9.2) rotate(-180) scale(1 -1)" gradientUnits="userSpaceOnUse"><stop offset="0" stop-color="#fff"/><stop offset=".26" stop-color="#fcfcfc"/><stop offset=".45" stop-color="#f2f2f2"/><stop offset=".61" stop-color="#e3e3e3"/><stop offset=".77" stop-color="#cdcdcd"/><stop offset=".91" stop-color="#b0b0b0"/><stop offset="1" stop-color="#999"/></linearGradient><linearGradient id="bf" x1="-80.94" y1="17.54" x2="-66.21" y2="17.54" gradientTransform="translate(9.2) rotate(-180) scale(1 -1)" gradientUnits="userSpaceOnUse"><stop offset="0" stop-color="#c8c6c1"/><stop offset=".04" stop-color="#d1cfca"/><stop offset=".15" stop-color="#e4e0da"/><stop offset=".28" stop-color="#f2ece6"/><stop offset=".45" stop-color="#f9f3ed"/><stop offset=".78" stop-color="#fcf6f0"/><stop offset=".82" stop-color="#f8f2ec"/><stop offset=".86" stop-color="#eee9e2"/><stop offset=".9" stop-color="#ded8d2"/><stop offset=".93" stop-color="#c6c1ba"/><stop offset=".96" stop-color="#a7a39b"/><stop offset=".99" stop-color="#827e76"/><stop offset="1" stop-color="#736f67"/></linearGradient><linearGradient id="bg" x1="-80.63" y1="17.74" x2="-66.51" y2="17.74" gradientTransform="translate(9.2) rotate(-180) scale(1 -1)" gradientUnits="userSpaceOnUse"><stop offset="0" stop-color="#a4a199"/><stop offset=".08" stop-color="#a7a49c"/><stop offset=".15" stop-color="#b1ada5"/><stop offset=".21" stop-color="#c2beb5"/><stop offset=".26" stop-color="#d7d1c8"/><stop offset=".29" stop-color="#efeeea"/><stop offset=".31" stop-color="#fafbf9"/><stop offset=".51" stop-color="#f2f2f0"/><stop offset=".84" stop-color="#dcdbd8"/><stop offset="1" stop-color="#cfceca"/></linearGradient><linearGradient id="bh" x1="-80.94" y1="21.74" x2="-80.38" y2="21.74" gradientTransform="translate(9.2) rotate(-180) scale(1 -1)" gradientUnits="userSpaceOnUse"><stop offset="0" stop-color="#252624"/><stop offset="1" stop-color="#000"/></linearGradient><linearGradient id="bi" x1="-81.75" y1="21.13" x2="-80.4" y2="22.37" gradientTransform="translate(9.2) rotate(-180) scale(1 -1)" gradientUnits="userSpaceOnUse"><stop offset="0" stop-color="#878787"/><stop offset=".19" stop-color="#6e6e6e"/><stop offset=".55" stop-color="#474746"/><stop offset=".83" stop-color="#2e2e2d"/><stop offset="1" stop-color="#262624"/></linearGradient><linearGradient id="bj" x1="-73.29" y1="22.63" x2="-73.29" y2="21.11" gradientTransform="translate(9.2) rotate(-180) scale(1 -1)" gradientUnits="userSpaceOnUse"><stop offset="0" stop-color="#fff"/><stop offset=".02" stop-color="#f3f3f3"/><stop offset=".09" stop-color="silver"/><stop offset=".17" stop-color="#929292"/><stop offset=".25" stop-color="#6b6b6b"/><stop offset=".34" stop-color="#4a4a4a"/><stop offset=".44" stop-color="#2e2e2e"/><stop offset=".54" stop-color="#1a1a1a"/><stop offset=".65" stop-color="#0b0b0b"/><stop offset=".79" stop-color="#020202"/><stop offset="1" stop-color="#000"/></linearGradient><linearGradient id="bk" x1="-64.66" y1="20.06" x2="-61.79" y2="20.06" gradientTransform="translate(9.2) rotate(-180) scale(1 -1)" gradientUnits="userSpaceOnUse"><stop offset="0" stop-color="#010302"/><stop offset=".07" stop-color="#050706"/><stop offset=".15" stop-color="#121512"/><stop offset=".23" stop-color="#282b27"/><stop offset=".32" stop-color="#464b44"/><stop offset=".35" stop-color="#51564e"/><stop offset=".59" stop-color="#323431"/><stop offset=".73" stop-color="#262725"/><stop offset="1" stop-color="#191a13"/></linearGradient><radialGradient id="bl" cx="-63.81" cy="17.51" fx="-63.81" fy="17.51" r="2.66" gradientTransform="translate(9.2 -1.89) rotate(-180) scale(1 -1.27)" gradientUnits="userSpaceOnUse"><stop offset="0" stop-color="#53594e"/><stop offset=".05" stop-color="#4c5248"/><stop offset=".31" stop-color="#2f322c"/><stop offset=".55" stop-color="#1a1c18"/><stop offset=".79" stop-color="#0e0e0d"/><stop offset="1" stop-color="#0a0a09"/></radialGradient><linearGradient id="bm" x1="-22.34" y1="44.41" x2="-22.34" y2="43.09" gradientTransform="translate(34.15 41.5) rotate(90) scale(1 -1)" gradientUnits="userSpaceOnUse"><stop offset="0" stop-color="#aba69e"/><stop offset=".08" stop-color="#beb9b0"/><stop offset=".19" stop-color="#cfc9bf"/><stop offset=".32" stop-color="#dbd5ca"/><stop offset=".5" stop-color="#e2dcd1"/><stop offset="1" stop-color="#e4ded3"/></linearGradient><linearGradient id="bn" x1="-22.75" y1="43.22" x2="-22.75" y2="42.97" gradientTransform="translate(34.15 41.5) rotate(90) scale(1 -1)" gradientUnits="userSpaceOnUse"><stop offset="0" stop-color="#c4c3be"/><stop offset=".28" stop-color="#d2d1cd"/><stop offset=".61" stop-color="#dbdad7"/><stop offset="1" stop-color="#dfdedb"/></linearGradient><linearGradient id="bo" x1="-22.75" y1="45.57" x2="-22.75" y2="45.3" gradientTransform="translate(34.15 41.5) rotate(90) scale(1 -1)" gradientUnits="userSpaceOnUse"><stop offset="0" stop-color="#e0e0dc"/><stop offset="1" stop-color="#f2efec"/></linearGradient><linearGradient id="bp" x1="-25.27" y1="44.27" x2="-24.2" y2="44.27" gradientTransform="translate(34.15 41.5) rotate(90) scale(1 -1)" gradientUnits="userSpaceOnUse"><stop offset="0" stop-color="#eeefec"/><stop offset=".22" stop-color="#eaebe8"/><stop offset=".4" stop-color="#e1e1de"/><stop offset=".56" stop-color="#d1d1cd"/><stop offset=".72" stop-color="#bbbab4"/><stop offset=".88" stop-color="#9e9c95"/><stop offset="1" stop-color="#827e76"/></linearGradient><linearGradient id="bq" x1="-20.48" y1="44.27" x2="-20.23" y2="44.27" gradientTransform="translate(34.15 41.5) rotate(90) scale(1 -1)" gradientUnits="userSpaceOnUse"><stop offset="0" stop-color="#fff7f7"/><stop offset="1" stop-color="#d4d3cf"/></linearGradient><linearGradient id="br" x1="-81.22" y1="21.76" x2="-80.39" y2="21.76" xlink:href="#av"/><linearGradient id="bs" x1="-66.21" y1="17.74" x2="-59.42" y2="17.74" gradientTransform="translate(9.2) rotate(-180) scale(1 -1)" gradientUnits="userSpaceOnUse"><stop offset="0" stop-color="#010302"/><stop offset=".08" stop-color="#050706"/><stop offset=".16" stop-color="#121512"/><stop offset=".25" stop-color="#282b27"/><stop offset=".34" stop-color="#464b44"/><stop offset=".37" stop-color="#51564e"/><stop offset=".49" stop-color="#464a43"/><stop offset=".69" stop-color="#2a2c27"/><stop offset=".73" stop-color="#232521"/><stop offset=".9" stop-color="#242622"/><stop offset=".96" stop-color="#2b2d29"/><stop offset="1" stop-color="#353633"/></linearGradient><linearGradient id="bt" x1="-64" y1="15.24" x2="-64" y2="14.48" gradientTransform="translate(9.2 -3.68) rotate(-180) scale(1 -1.57)" gradientUnits="userSpaceOnUse"><stop offset="0" stop-color="#fff"/><stop offset=".13" stop-color="#fbfbfb"/><stop offset=".26" stop-color="#efefef"/><stop offset=".38" stop-color="#dcdcdc"/><stop offset=".51" stop-color="#c1c1c1"/><stop offset=".63" stop-color="#9e9e9e"/><stop offset=".75" stop-color="#747474"/><stop offset=".87" stop-color="#414141"/><stop offset=".98" stop-color="#080808"/><stop offset="1" stop-color="#000"/></linearGradient><linearGradient id="bu" x1="-62.22" y1="17.13" x2="-62.22" y2="16.46" gradientTransform="translate(9.2) rotate(-180) scale(1 -1)" gradientUnits="userSpaceOnUse"><stop offset="0" stop-color="#000"/><stop offset=".2" stop-color="#030303"/><stop offset=".36" stop-color="#0c0c0c"/><stop offset=".5" stop-color="#1d1d1d"/><stop offset=".63" stop-color="#343434"/><stop offset=".76" stop-color="#515151"/><stop offset=".87" stop-color="#767676"/><stop offset=".99" stop-color="#a0a0a0"/><stop offset="1" stop-color="#a6a6a6"/></linearGradient><linearGradient id="bv" x1="-62.82" y1="19.02" x2="-62.82" y2="18.43" gradientTransform="translate(9.2) rotate(-180) scale(1 -1)" gradientUnits="userSpaceOnUse"><stop offset="0" stop-color="#000"/><stop offset=".02" stop-color="#0e0e0e"/><stop offset=".09" stop-color="#404040"/><stop offset=".17" stop-color="#6d6d6d"/><stop offset=".25" stop-color="#949494"/><stop offset=".34" stop-color="#b5b5b5"/><stop offset=".43" stop-color="#d0d0d0"/><stop offset=".53" stop-color="#e5e5e5"/><stop offset=".65" stop-color="#f3f3f3"/><stop offset=".78" stop-color="#fcfcfc"/><stop offset="1" stop-color="#fff"/></linearGradient><linearGradient id="bw" x1="-63.23" y1="21.87" x2="-63.23" y2="20.67" gradientTransform="translate(9.2) rotate(-180) scale(1 -1)" gradientUnits="userSpaceOnUse"><stop offset="0" stop-color="#000"/><stop offset=".02" stop-color="#121212"/><stop offset=".09" stop-color="#434343"/><stop offset=".17" stop-color="#707070"/><stop offset=".25" stop-color="#969696"/><stop offset=".34" stop-color="#b7b7b7"/><stop offset=".43" stop-color="#d1d1d1"/><stop offset=".53" stop-color="#e5e5e5"/><stop offset=".64" stop-color="#f4f4f4"/><stop offset=".77" stop-color="#fcfcfc"/><stop offset="1" stop-color="#fff"/></linearGradient><linearGradient id="bx" x1="-65" y1="20.43" x2="-65" y2="19.8" gradientTransform="translate(9.2) rotate(-180) scale(1 -1)" gradientUnits="userSpaceOnUse"><stop offset="0" stop-color="#000"/><stop offset=".05" stop-color="#1a1a1a"/><stop offset=".15" stop-color="#4f4f4f"/><stop offset=".26" stop-color="#7e7e7e"/><stop offset=".37" stop-color="#a5a5a5"/><stop offset=".48" stop-color="#c6c6c6"/><stop offset=".6" stop-color="#dfdfdf"/><stop offset=".72" stop-color="#f1f1f1"/><stop offset=".85" stop-color="#fbfbfb"/><stop offset="1" stop-color="#fff"/></linearGradient></defs><g isolation="isolate"><g id="a"><path d="M.93,24.26c.05,1.09.42,2.1,1,2.95v13.9s0,0,0,0c0,.03,0,.05,0,.08,0,.12.02.24.04.35,0,0,0,.02,0,.03l5.78,24.19,1.71,74.78-.48,4.58c0,.07,0,.14,0,.21,0,.07,0,.14,0,.21l1.51,14.54c.11,1.02.96,1.79,1.99,1.79h31.54c1.02,0,1.88-.77,1.99-1.79l1.51-14.54c0-.07,0-.14,0-.21,0-.07,0-.14,0-.21l-.48-4.58,1.13-49.6h.84c4.25,0,7.75-3.19,8.28-7.29,1.47-1.22,2.4-3.06,2.4-5.12v-24.75c0-1.66-.95-3.09-2.32-3.83v-1.07c0-2.24-1.43-4.14-3.42-4.87l.59-2.47s0-.02,0-.03c.03-.11.04-.23.04-.35,0-.03,0-.05,0-.08,0,0,0,0,0,0v-13.9c.58-.85.94-1.86,1-2.95l.92-18.31c.08-1.62-.49-3.19-1.55-4.32-1-1.05-2.35-1.63-3.78-1.63H5.35c-1.44,0-2.78.58-3.78,1.63C.49,2.76-.07,4.33,0,5.95l.92,18.31Z" fill="#523d3d" mix-blend-mode="multiply" opacity=".13"/><path d="M6.46,27.7h43.6c1.86,0,3.44-1.58,3.54-3.53l.92-18.31c.11-2.12-1.39-3.85-3.34-3.85H5.35c-1.95,0-3.45,1.73-3.34,3.85l.92,18.31c.1,1.96,1.68,3.53,3.54,3.53Z" fill="#222"/><path d="M28.26,3.57h0c.61,0,1.11.5,1.11,1.11v19.7c0,.61-.5,1.11-1.11,1.11h0c-.61,0-1.11-.5-1.11-1.11V4.68c0-.61.5-1.11,1.11-1.11Z" fill="#404040"/><path d="M33.4,3.35h0c.61,0,1.11.5,1.11,1.11v19.7c0,.61-.5,1.11-1.11,1.11h0c-.61,0-1.11-.5-1.11-1.11V4.46c0-.61.5-1.11,1.11-1.11Z" fill="#404040"/><path d="M38.6,3.35h0c.61,0,1.11.5,1.11,1.11v19.7c0,.61-.5,1.11-1.11,1.11h0c-.61,0-1.11-.5-1.11-1.11V4.46c0-.61.5-1.11,1.11-1.11Z" fill="#404040"/><path d="M17.92,3.57h0c.61,0,1.11.5,1.11,1.11v19.7c0,.61-.5,1.11-1.11,1.11h0c-.61,0-1.11-.5-1.11-1.11V4.68c0-.61.5-1.11,1.11-1.11Z" fill="#404040"/><path d="M23.12,3.57h0c.61,0,1.11.5,1.11,1.11v19.7c0,.61-.5,1.11-1.11,1.11h0c-.61,0-1.11-.5-1.11-1.11V4.68c0-.61.5-1.11,1.11-1.11Z" fill="#404040"/><path d="M7.38,3.57h0c.61,0,1.11.5,1.11,1.11v19.7c0,.61-.5,1.11-1.11,1.11h0c-.61,0-1.11-.5-1.11-1.11V4.68c0-.61.5-1.11,1.11-1.11Z" fill="#404040"/><path d="M12.59,3.57h0c.61,0,1.11.5,1.11,1.11v19.7c0,.61-.5,1.11-1.11,1.11h0c-.61,0-1.11-.5-1.11-1.11V4.68c0-.61.5-1.11,1.11-1.11Z" fill="#404040"/><path d="M43.87,3.57h0c.61,0,1.11.5,1.11,1.11v19.7c0,.61-.5,1.11-1.11,1.11h0c-.61,0-1.11-.5-1.11-1.11V4.68c0-.61.5-1.11,1.11-1.11Z" fill="#404040"/><path d="M49.07,3.57h0c.61,0,1.11.5,1.11,1.11v19.7c0,.61-.5,1.11-1.11,1.11h0c-.61,0-1.11-.5-1.11-1.11V4.68c0-.61.5-1.11,1.11-1.11Z" fill="#404040"/><path d="M55.35,51.45h0c1.3,0,2.35,1.05,2.35,2.35v24.75c0,2.58-2.09,4.66-4.66,4.66h-2.86c-1.2,0-2.2-.9-2.34-2.09l-2.22-20.16c-.08-.74.19-1.47.73-1.97l7.39-6.9c.43-.41,1.01-.63,1.6-.63Z" fill="#222"/><path d="M52.18,45.71h0c1.77,0,3.2,1.43,3.2,3.2v33.69c0,3.51-2.84,6.35-6.35,6.35h-3.89c-1.63,0-3-1.23-3.18-2.85l-3.02-27.45c-.11-1,.26-2,1-2.69l10.07-9.4c.59-.55,1.37-.86,2.18-.86Z" fill="#f8e061"/><polygon points="46.77 65.3 9.75 65.3 11.47 140.89 45.05 140.89 46.77 65.3" fill="#e8ce45"/><polygon points="52.6 41.11 3.92 41.11 10.01 66.59 46.51 66.59 52.6 41.11" fill="#d6be38"/><polygon points="44.03 159.89 12.49 159.89 10.98 145.35 45.54 145.35 44.03 159.89" fill="#222"/><polygon points="11.47 140.58 10.98 145.34 45.54 145.34 45.05 140.58 11.47 140.58" fill="#f8e061"/><path d="M28.26,158.58h0c-.57,0-1.04-.46-1.04-1.04v-10.05c0-.57.46-1.04,1.04-1.04h0c.57,0,1.04.46,1.04,1.04v10.05c0,.57-.46,1.04-1.04,1.04Z" fill="#404040"/><path d="M23.46,158.79h0c-.57,0-1.04-.46-1.04-1.04v-10.05c0-.57.46-1.04,1.04-1.04h0c.57,0,1.04.46,1.04,1.04v10.05c0,.57-.46,1.04-1.04,1.04Z" fill="#404040"/><path d="M18.6,158.79h0c-.57,0-1.04-.46-1.04-1.04v-10.05c0-.57.46-1.04,1.04-1.04h0c.57,0,1.04.46,1.04,1.04v10.05c0,.57-.46,1.04-1.04,1.04Z" fill="#404040"/><path d="M37.92,158.58h0c-.57,0-1.04-.46-1.04-1.04v-10.05c0-.57.46-1.04,1.04-1.04h0c.57,0,1.04.46,1.04,1.04v10.05c0,.57-.46,1.04-1.04,1.04Z" fill="#404040"/><path d="M33.06,158.58h0c-.57,0-1.04-.46-1.04-1.04v-10.05c0-.57.46-1.04,1.04-1.04h0c.57,0,1.04.46,1.04,1.04v10.05c0,.57-.46,1.04-1.04,1.04Z" fill="#404040"/><rect x="3.92" y="26.64" width="48.68" height="14.47" fill="#f8e061"/><path d="M28.26,158.58h0c-.57,0-1.04-.46-1.04-1.04v-10.05c0-.57.46-1.04,1.04-1.04h0c.57,0,1.04.46,1.04,1.04v10.05c0,.57-.46,1.04-1.04,1.04Z" fill="#404040"/><path d="M23.46,158.79h0c-.57,0-1.04-.46-1.04-1.04v-10.05c0-.57.46-1.04,1.04-1.04h0c.57,0,1.04.46,1.04,1.04v10.05c0,.57-.46,1.04-1.04,1.04Z" fill="#404040"/><path d="M18.6,158.79h0c-.57,0-1.04-.46-1.04-1.04v-10.05c0-.57.46-1.04,1.04-1.04h0c.57,0,1.04.46,1.04,1.04v10.05c0,.57-.46,1.04-1.04,1.04Z" fill="#404040"/><path d="M37.92,158.58h0c-.57,0-1.04-.46-1.04-1.04v-10.05c0-.57.46-1.04,1.04-1.04h0c.57,0,1.04.46,1.04,1.04v10.05c0,.57-.46,1.04-1.04,1.04Z" fill="#404040"/><path d="M33.06,158.58h0c-.57,0-1.04-.46-1.04-1.04v-10.05c0-.57.46-1.04,1.04-1.04h0c.57,0,1.04.46,1.04,1.04v10.05c0,.57-.46,1.04-1.04,1.04Z" fill="#404040"/><polygon points="67.64 123.38 77.6 122.31 93.02 126.52 84.64 128.1 67.64 123.38" fill="#8e7557"/><polygon points="68.79 114.27 68.8 123.25 77.6 122.31 84.69 124.35 92.11 115.59 68.79 114.27" fill="#8e7557"/><rect x="72.1" y="118.49" width="1.1" height="6.62" fill="#d3aa50"/><rect x="73.2" y="118.49" width=".19" height="6.62" fill="#d3aa50"/><path d="M71.93,118.54c-.09-.32-.22-.63-.29-.97-.07-.33-.06-.7.12-.98.13-.21.35-.36.57-.45.37-.15.8-.16,1.14.05.1.06.2.14.26.24.07.1.1.21.13.33.12.46.12.96-.02,1.43-.15.51-.44.98-.46,1.51-.07,0-.12-.08-.13-.16-.02-.07-.03-.16-.08-.21-.07-.07-.18-.05-.27-.07-.14-.03-.25-.14-.37-.2-.12-.07-.31-.07-.37.06-.04.09-.02.19,0,.29.02.11.02.24-.02.35-.13-.04-.08-.4-.09-.52-.02-.23-.07-.46-.13-.68Z" fill="#51170a"/><rect x="74.22" y="119.05" width="1.1" height="6.47" fill="#d3aa50"/><rect x="75.32" y="119.05" width=".19" height="6.47" fill="#d3aa50"/><path d="M74.05,119.09c-.09-.32-.22-.62-.29-.94-.07-.32-.06-.68.12-.96.13-.21.35-.35.57-.44.37-.14.8-.15,1.14.04.1.06.2.14.26.23.07.1.1.21.13.32.12.45.12.94-.02,1.39-.15.5-.44.95-.46,1.47-.07,0-.12-.08-.13-.16-.02-.07-.03-.15-.08-.21-.07-.07-.18-.05-.27-.07-.14-.03-.25-.13-.37-.2-.12-.06-.31-.07-.37.06-.04.08-.02.19,0,.28.02.11.02.23-.02.34-.13-.04-.08-.39-.09-.51-.02-.22-.07-.45-.13-.66Z" fill="#51170a"/><rect x="76.97" y="119.62" width="1.1" height="6.69" fill="#d3aa50"/><rect x="78.07" y="119.62" width=".19" height="6.69" fill="#d3aa50"/><path d="M76.8,119.67c-.09-.33-.22-.64-.29-.98-.07-.33-.06-.71.12-.99.13-.22.35-.36.57-.45.37-.15.8-.16,1.14.05.1.06.2.14.26.24.07.1.1.21.13.33.12.47.12.98-.02,1.44-.15.51-.44.99-.46,1.52-.07,0-.12-.09-.13-.16-.02-.08-.03-.16-.08-.21-.07-.07-.18-.05-.27-.07-.14-.03-.25-.14-.37-.2-.12-.07-.31-.07-.37.06-.04.09-.02.19,0,.29.02.12.02.24-.02.35-.13-.04-.08-.41-.09-.53-.02-.23-.07-.46-.13-.68Z" fill="#51170a"/><rect x="79.39" y="120.25" width="1.1" height="6.66" fill="#d3aa50"/><rect x="80.49" y="120.25" width=".19" height="6.66" fill="#d3aa50"/><path d="M79.22,120.3c-.09-.33-.22-.64-.29-.97-.07-.33-.06-.7.12-.99.13-.21.35-.36.57-.45.37-.15.8-.16,1.14.05.1.06.2.14.26.24.07.1.1.21.13.33.12.47.12.97-.02,1.44-.15.51-.44.98-.46,1.52-.07,0-.12-.09-.13-.16-.02-.07-.03-.16-.08-.21-.07-.07-.18-.05-.27-.07-.14-.03-.25-.14-.37-.2-.12-.07-.31-.07-.37.06-.04.09-.02.19,0,.29.02.11.02.24-.02.35-.13-.04-.08-.4-.09-.53-.02-.23-.07-.46-.13-.68Z" fill="#51170a"/><rect x="81.99" y="121.12" width="1.1" height="6.86" fill="#d3aa50"/><rect x="83.09" y="121.12" width=".19" height="6.86" fill="#d3aa50"/><path d="M81.82,121.17c-.09-.34-.22-.66-.29-1-.07-.34-.06-.72.12-1.02.13-.22.35-.37.57-.46.37-.15.8-.16,1.14.05.1.06.2.14.26.25.07.1.1.22.13.34.12.48.12,1-.02,1.48-.15.53-.44,1.01-.46,1.56-.07,0-.12-.09-.13-.17-.02-.08-.03-.16-.08-.22-.07-.07-.18-.05-.27-.07-.14-.03-.25-.14-.37-.21-.12-.07-.31-.08-.37.06-.04.09-.02.2,0,.3.02.12.02.25-.02.36-.13-.04-.08-.42-.09-.54-.02-.24-.07-.47-.13-.7Z" fill="#51170a"/><polygon points="84.64 128.1 93.02 126.52 93.02 156.26 84.64 159.89 84.64 128.1" fill="#ceaf7a"/><polygon points="84.64 129.18 93.02 127.36 93.02 155.3 84.64 158.68 84.64 129.18" fill="#77413e"/><rect x="70.92" y="118.58" width="1.1" height="6.26" fill="#ffd169"/><path d="M71.09,120.23c.11.62.1,1.26.09,1.89-.01.67-.03,1.34-.04,2.01,0,.11,0,.25.1.3.09.05.2-.01.25-.11.05-.1.04-.21.04-.32-.06-1.21-.16-2.43-.03-3.63.02-.18.04-.51-.19-.55-.23-.05-.24.24-.21.41Z" fill="#fff" opacity=".43"/><rect x="72.02" y="118.58" width=".19" height="6.26" fill="#d3aa50"/><path d="M70.75,118.62c-.09-.31-.22-.6-.29-.91s-.06-.66.12-.93c.13-.2.35-.34.57-.42.37-.14.8-.15,1.14.04.1.06.2.13.26.23.07.09.1.2.13.31.12.44.12.91-.02,1.35-.15.48-.44.92-.46,1.42-.07,0-.12-.08-.13-.15s-.03-.15-.08-.2c-.07-.07-.18-.05-.27-.07-.14-.03-.25-.13-.37-.19-.12-.06-.31-.07-.37.05-.04.08-.02.18,0,.27.02.11.02.23-.02.33-.13-.04-.08-.38-.09-.5-.02-.22-.07-.43-.13-.64Z" fill="#a43812"/><path d="M70.84,117c-.08.19-.08.41-.01.6.03.08.07.17.13.23.07.06.17.09.25.05.07-.03.11-.1.13-.16s.02-.14.03-.21c0-.15.04-.31.14-.42.08-.09.2-.16.19-.27-.02-.18-.27-.21-.41-.17-.19.06-.36.17-.45.35Z" fill="#fff" opacity=".43"/><path d="M72.22,119.71c.01-.5.31-.94.46-1.42.13-.44.14-.91.02-1.35-.03-.11-.07-.22-.13-.31-.07-.1-.16-.17-.26-.23-.02-.01-.04-.02-.06-.03.03.04.06.08.09.12.27.32.23.8.12,1.2-.06.24-.15.49-.3.69-.15.2-.38.36-.63.36-.15,0-.35-.03-.42.11-.02.04-.02.08-.02.13,0,.03,0,.07.01.1.08-.03.19-.02.28.03.12.06.23.17.37.19.09.02.2,0,.27.07.05.05.06.13.08.2.02.07.06.15.13.15Z" fill="#7a270e"/><rect x="73.04" y="118.97" width="1.1" height="6.26" fill="#ffd169"/><path d="M73.22,120.62c.11.62.1,1.26.09,1.89-.01.67-.03,1.34-.04,2.01,0,.11,0,.25.1.3.09.05.2-.01.25-.11.05-.1.04-.21.04-.32-.06-1.21-.16-2.43-.03-3.63.02-.18.04-.51-.19-.55-.23-.05-.24.24-.21.41Z" fill="#fff" opacity=".43"/><rect x="74.14" y="118.97" width=".19" height="6.26" fill="#d3aa50"/><path d="M72.87,119.01c-.09-.31-.22-.6-.29-.91-.07-.31-.06-.66.12-.93.13-.2.35-.34.57-.42.37-.14.8-.15,1.14.04.1.06.2.13.26.23.07.09.1.2.13.31.12.44.12.91-.02,1.35-.15.48-.44.92-.46,1.42-.07,0-.12-.08-.13-.15s-.03-.15-.08-.2c-.07-.07-.18-.05-.27-.07-.14-.03-.25-.13-.37-.19-.12-.06-.31-.07-.37.05-.04.08-.02.18,0,.27.02.11.02.23-.02.33-.13-.04-.08-.38-.09-.5-.02-.22-.07-.43-.13-.64Z" fill="#a43812"/><path d="M72.96,117.39c-.08.19-.08.41-.01.6.03.08.07.17.13.23.07.06.17.09.25.05.07-.03.11-.1.13-.16s.02-.14.03-.21c0-.15.04-.31.14-.42.08-.09.2-.16.19-.27-.02-.18-.27-.21-.41-.17-.19.06-.36.17-.45.35Z" fill="#fff" opacity=".43"/><path d="M74.35,120.1c.01-.5.31-.94.46-1.42.13-.44.14-.91.02-1.35-.03-.11-.07-.22-.13-.31-.07-.1-.16-.17-.26-.23-.02-.01-.04-.02-.06-.03.03.04.06.08.09.12.27.32.23.8.12,1.2-.06.24-.15.49-.3.69-.15.2-.38.36-.63.36-.15,0-.35-.03-.42.11-.02.04-.02.08-.02.13,0,.03,0,.07.01.1.08-.03.19-.02.28.03.12.06.23.17.37.19.09.02.2,0,.27.07.05.05.06.13.08.2s.06.15.13.15Z" fill="#7a270e"/><rect x="75.3" y="119.73" width="1.1" height="6.26" fill="#ffd169"/><path d="M75.47,121.39c.11.62.1,1.26.09,1.89-.01.67-.03,1.34-.04,2.01,0,.11,0,.25.1.3.09.05.2-.01.25-.11.05-.1.04-.21.04-.32-.06-1.21-.16-2.43-.03-3.63.02-.18.04-.51-.19-.55-.23-.05-.24.24-.21.41Z" fill="#fff" opacity=".43"/><rect x="76.4" y="119.73" width=".19" height="6.26" fill="#d3aa50"/><path d="M75.13,119.78c-.09-.31-.22-.6-.29-.91-.07-.31-.06-.66.12-.93.13-.2.35-.34.57-.42.37-.14.8-.15,1.14.04.1.06.2.13.26.23.07.09.1.2.13.31.12.44.12.91-.02,1.35-.15.48-.44.92-.46,1.42-.07,0-.12-.08-.13-.15-.02-.07-.03-.15-.08-.2-.07-.07-.18-.05-.27-.07-.14-.03-.25-.13-.37-.19-.12-.06-.31-.07-.37.05-.04.08-.02.18,0,.27.02.11.02.23-.02.33-.13-.04-.08-.38-.09-.5-.02-.22-.07-.43-.13-.64Z" fill="#a43812"/><path d="M75.21,118.16c-.08.19-.08.41-.01.6.03.08.07.17.13.23s.17.09.25.05c.07-.03.11-.1.13-.16.02-.07.02-.14.03-.21,0-.15.04-.31.14-.42.08-.09.2-.16.19-.27-.02-.18-.27-.21-.41-.17-.19.06-.36.17-.45.35Z" fill="#fff" opacity=".43"/><path d="M76.6,120.87c.01-.5.31-.94.46-1.42.13-.44.14-.91.02-1.35-.03-.11-.07-.22-.13-.31-.07-.1-.16-.17-.26-.23-.02-.01-.04-.02-.06-.03.03.04.06.08.09.12.27.32.23.8.12,1.2-.06.24-.15.49-.3.69-.15.2-.38.36-.63.36-.15,0-.35-.03-.42.11-.02.04-.02.08-.02.13,0,.03,0,.07.01.1.08-.03.19-.02.28.03.12.06.23.17.37.19.09.02.2,0,.27.07.05.05.06.13.08.2.02.07.06.15.13.15Z" fill="#7a270e"/><rect x="77.66" y="120.34" width="1.1" height="6.26" fill="#ffd169"/><path d="M77.83,121.99c.11.62.1,1.26.09,1.89-.01.67-.03,1.34-.04,2.01,0,.11,0,.25.1.3.09.05.2-.01.25-.11.05-.1.04-.21.04-.32-.06-1.21-.16-2.43-.03-3.63.02-.18.04-.51-.19-.55-.23-.05-.24.24-.21.41Z" fill="#fff" opacity=".43"/><rect x="78.76" y="120.34" width=".19" height="6.26" fill="#d3aa50"/><path d="M77.49,120.38c-.09-.31-.22-.6-.29-.91-.07-.31-.06-.66.12-.93.13-.2.35-.34.57-.42.37-.14.8-.15,1.14.04.1.06.2.13.26.23.07.09.1.2.13.31.12.44.12.91-.02,1.35-.15.48-.44.92-.46,1.42-.07,0-.12-.08-.13-.15-.02-.07-.03-.15-.08-.2-.07-.07-.18-.05-.27-.07-.14-.03-.25-.13-.37-.19-.12-.06-.31-.07-.37.05-.04.08-.02.18,0,.27.02.11.02.23-.02.33-.13-.04-.08-.38-.09-.5-.02-.22-.07-.43-.13-.64Z" fill="#a43812"/><path d="M77.57,118.76c-.08.19-.08.41-.01.6.03.08.07.17.13.23.07.06.17.09.25.05.07-.03.11-.1.13-.16.02-.07.02-.14.03-.21,0-.15.04-.31.14-.42.08-.09.2-.16.19-.27-.02-.18-.27-.21-.41-.17-.19.06-.36.17-.45.35Z" fill="#fff" opacity=".43"/><path d="M78.96,121.47c.01-.5.31-.94.46-1.42.13-.44.14-.91.02-1.35-.03-.11-.07-.22-.13-.31-.07-.1-.16-.17-.26-.23-.02-.01-.04-.02-.06-.03.03.04.06.08.09.12.27.32.23.8.12,1.2-.06.24-.15.49-.3.69-.15.2-.38.36-.63.36-.15,0-.35-.03-.42.11-.02.04-.02.08-.02.13,0,.03,0,.07.01.1.08-.03.19-.02.28.03.12.06.23.17.37.19.09.02.2,0,.27.07.05.05.06.13.08.2.02.07.06.15.13.15Z" fill="#7a270e"/><rect x="80.22" y="121.07" width="1.1" height="6.74" fill="#ffd169"/><path d="M80.39,122.85c.11.67.1,1.36.09,2.04-.01.72-.03,1.45-.04,2.17,0,.12,0,.26.1.32.09.06.2-.01.25-.12.05-.1.04-.23.04-.34-.06-1.3-.16-2.62-.03-3.91.02-.2.04-.55-.19-.6-.23-.05-.24.26-.21.44Z" fill="#fff" opacity=".43"/><rect x="81.32" y="121.07" width=".19" height="6.74" fill="#d3aa50"/><path d="M80.05,121.12c-.09-.33-.22-.65-.29-.98-.07-.34-.06-.71.12-1,.13-.22.35-.36.57-.45.37-.15.8-.16,1.14.05.1.06.2.14.26.24.07.1.1.22.13.33.12.47.12.98-.02,1.45-.15.52-.44.99-.46,1.53-.07,0-.12-.09-.13-.16-.02-.08-.03-.16-.08-.21-.07-.07-.18-.05-.27-.07-.14-.03-.25-.14-.37-.21-.12-.07-.31-.07-.37.06-.04.09-.02.19,0,.29.02.12.02.24-.02.36-.13-.04-.08-.41-.09-.53-.02-.23-.07-.46-.13-.69Z" fill="#a43812"/><path d="M80.13,119.37c-.08.2-.08.44-.01.65.03.09.07.18.13.25s.17.1.25.06c.07-.03.11-.1.13-.18.02-.07.02-.15.03-.23,0-.16.04-.33.14-.45.08-.09.2-.17.19-.29-.02-.2-.27-.23-.41-.18-.19.06-.36.18-.45.38Z" fill="#fff" opacity=".43"/><path d="M81.52,122.29c.01-.54.31-1.02.46-1.53.13-.47.14-.98.02-1.45-.03-.12-.07-.23-.13-.33-.07-.1-.16-.18-.26-.24-.02-.01-.04-.02-.06-.03.03.04.06.09.09.13.27.34.23.86.12,1.29-.06.26-.15.53-.3.74-.15.22-.38.38-.63.39-.15,0-.35-.03-.42.12-.02.04-.02.09-.02.14,0,.04,0,.07.01.1.08-.03.19-.02.28.03.12.07.23.18.37.21.09.02.2,0,.27.07.05.05.06.14.08.21.02.08.06.16.13.16Z" fill="#7a270e"/><rect x="82.67" y="121.64" width="1.1" height="6.64" fill="#ffd169"/><path d="M82.85,123.39c.11.66.1,1.34.09,2.01-.01.71-.03,1.43-.04,2.14,0,.12,0,.26.1.32.09.06.2-.01.25-.12.05-.1.04-.22.04-.34-.06-1.29-.16-2.58-.03-3.85.02-.19.04-.54-.19-.59-.23-.05-.24.26-.21.43Z" fill="#fff" opacity=".43"/><rect x="83.77" y="121.64" width=".19" height="6.64" fill="#d3aa50"/><path d="M82.5,121.69c-.09-.32-.22-.64-.29-.97-.07-.33-.06-.7.12-.98.13-.21.35-.36.57-.45.37-.15.8-.16,1.14.05.1.06.2.14.26.24.07.1.1.21.13.33.12.47.12.97-.02,1.43-.15.51-.44.98-.46,1.51-.07,0-.12-.09-.13-.16-.02-.07-.03-.16-.08-.21-.07-.07-.18-.05-.27-.07-.14-.03-.25-.14-.37-.2-.12-.07-.31-.07-.37.06-.04.09-.02.19,0,.29.02.11.02.24-.02.35-.13-.04-.08-.4-.09-.53-.02-.23-.07-.46-.13-.68Z" fill="#a43812"/><path d="M82.59,119.96c-.08.2-.08.43-.01.64.03.09.07.18.13.24.07.06.17.09.25.05.07-.03.11-.1.13-.17.02-.07.02-.15.03-.23,0-.16.04-.33.14-.44.08-.09.2-.17.19-.29-.02-.19-.27-.23-.41-.18-.19.06-.36.18-.45.38Z" fill="#fff" opacity=".43"/><path d="M83.98,122.84c.01-.53.31-1,.46-1.51.13-.46.14-.96.02-1.43-.03-.12-.07-.23-.13-.33-.07-.1-.16-.18-.26-.24-.02-.01-.04-.02-.06-.03.03.04.06.09.09.12.27.34.23.85.12,1.28-.06.26-.15.52-.3.73-.15.21-.38.38-.63.38-.15,0-.35-.03-.42.12-.02.04-.02.09-.02.13,0,.04,0,.07.01.1.08-.03.19-.02.28.03.12.07.23.18.37.2.09.02.2,0,.27.07.05.05.06.14.08.21.02.07.06.16.13.16Z" fill="#7a270e"/><polygon points="84.64 116.76 68.79 114.27 79.16 113.51 92.47 115.53 84.64 116.76" fill="#f9d493"/><polygon points="84.64 127.82 92.47 126.37 92.47 115.53 84.64 116.76 84.64 127.82" fill="#e5c585"/><polygon points="67.64 123.38 67.64 151.91 84.64 159.89 84.64 128.1 67.64 123.38" fill="#e5c585"/><polygon points="68.43 124.6 68.43 150.96 83.53 158.26 83.53 128.84 68.43 124.6" fill="#533f70"/><polygon points="69.32 125.96 82.76 129.53 82.58 156.54 69.32 150.45 69.32 125.96" fill="#956baa"/><path d="M93.02,132.47c-.86,7.1-2.74,14.07-5.6,20.63-.82,1.88-1.72,3.74-2.78,5.5v.08l8.38-3.39v-22.82Z" fill="#603433"/><path d="M90.76,116.26c-.01,1.19.05,2.38-.17,3.55-.32,1.68-1.22,3.21-2.35,4.49-.9,1.03-1.95,1.92-3.04,2.75-.16.12-.38.23-.57.36v.41s7.83-1.45,7.83-1.45v-10.84l-1.68.26c-.01.15-.02.31-.02.46Z" fill="#d6b67f"/><path d="M85.12,117.39c-.14.19-.13.45-.11.68.15,1.83.3,3.66.45,5.49.01.13.03.28.14.36.13.09.32.02.41-.1.09-.13.11-.29.12-.45.09-1.42-.25-2.87-.02-4.28.05-.3.13-.61.1-.92-.03-.36-.69-1.31-1.09-.78Z" fill="#fff" opacity=".27"/><path d="M77.76,104.04h0v-12.52l-8.28.03h-.53v12.47c0,1.4,1.97,2.53,4.4,2.53s4.39-1.12,4.4-2.51Z" fill="#434242"/><path d="M68.88,104.02v-12.47s.03-.07.07-.07h.53l8.28-.03s.04,0,.05.02c.01.01.02.03.02.05v12.52s0,0,0,.01c-.03,1.42-2.03,2.57-4.47,2.57s-4.47-1.16-4.47-2.6ZM69.02,91.62v12.4c0,1.36,1.95,2.46,4.34,2.46s4.32-1.1,4.34-2.44c0,0,0,0,0,0v-12.44l-8.67.03Z" fill="#363636"/><path d="M77.76,96.21h0v-3.86h-8.81v3.84c0,1.4,1.97,2.53,4.4,2.53s4.39-1.12,4.4-2.51Z" fill="#e8e8e8"/><path d="M77.76,95.58h0v-3.86h-8.81v3.84c0,1.4,1.97,2.53,4.4,2.53s4.39-1.12,4.4-2.51Z" fill="url(#b)"/><path d="M68.88,95.56v-3.84s.03-.07.07-.07h8.81s.07.03.07.07v3.86s0,0,0,.01c-.03,1.42-2.03,2.57-4.47,2.57s-4.47-1.16-4.47-2.6ZM69.02,91.79v3.77c0,1.36,1.95,2.46,4.34,2.46s4.32-1.1,4.34-2.44c0,0,0,0,0,0v-3.78h-8.67Z" fill="#a66651"/><path d="M70.58,91.55h-1.1s-.53,0-.53,0v12.47c0,.79.64,1.5,1.63,1.97v-14.44Z" fill="url(#c)" mix-blend-mode="multiply" opacity=".8"/><path d="M76.96,105.47c.49-.41.79-.9.79-1.43h0v-12.52h-.79v13.94Z" fill="url(#d)" mix-blend-mode="multiply" opacity=".8"/><g mask="url(#e)"><path d="M74.68,106.43c.51-.09.99-.24,1.4-.42v-14.48h-1.4v14.9Z" fill="url(#j)" mix-blend-mode="color-dodge" opacity=".4"/></g><polygon points="73.82 96.96 73.82 96.32 74.46 96.32 74.46 95.92 73.82 95.92 73.82 95.28 73.41 95.28 73.41 95.92 72.78 95.92 72.78 96.32 73.41 96.32 73.41 96.96 73.82 96.96" fill="#e8e8e8"/><rect x="73.41" y="104.27" width=".41" height="1.68" fill="#e8e8e8"/><path d="M73.35,94.08c-2.43,0-4.4-1.13-4.4-2.53s1.97-2.53,4.4-2.53,4.4,1.13,4.4,2.53-1.97,2.53-4.4,2.53Z" fill="url(#k)"/><path d="M68.88,91.55c0-1.43,2.01-2.6,4.47-2.6s4.47,1.16,4.47,2.6-2.01,2.6-4.47,2.6-4.47-1.17-4.47-2.6ZM77.69,91.55c0-1.36-1.95-2.46-4.34-2.46s-4.34,1.1-4.34,2.46,1.95,2.46,4.34,2.46,4.34-1.1,4.34-2.46Z" fill="#a66651"/><path d="M73.35,93.77c-2.14,0-3.87-.99-3.87-2.22s1.73-2.22,3.87-2.22,3.87.99,3.87,2.22-1.73,2.22-3.87,2.22Z" fill="#929292"/><path d="M73.35,93.69c-2.06,0-3.72-.94-3.72-2.09s1.67-2.09,3.72-2.09,3.72.94,3.72,2.09-1.67,2.09-3.72,2.09Z" fill="#c3c3c3"/><path d="M73.35,93.17c-1.62,0-2.92-.74-2.92-1.65s1.31-1.65,2.92-1.65,2.92.74,2.92,1.65-1.31,1.65-2.92,1.65Z" fill="#9f9f9e"/><path d="M70.36,91.52c0-.94,1.34-1.71,2.99-1.71s2.99.77,2.99,1.71-1.34,1.71-2.99,1.71-2.99-.77-2.99-1.71ZM76.21,91.52c0-.87-1.28-1.58-2.86-1.58s-2.86.71-2.86,1.58,1.28,1.58,2.86,1.58,2.86-.71,2.86-1.58Z" fill="#828181"/><path d="M73.35,92.85c-1.54,0-2.79-.7-2.79-1.57s1.25-1.57,2.79-1.57,2.79.7,2.79,1.57-1.25,1.57-2.79,1.57Z" fill="#dcdcdc"/><path d="M70.49,91.28c0-.9,1.28-1.64,2.86-1.64s2.86.74,2.86,1.64-1.28,1.64-2.86,1.64-2.86-.74-2.86-1.64ZM76.08,91.28c0-.83-1.22-1.5-2.73-1.5s-2.73.68-2.73,1.5,1.22,1.5,2.73,1.5,2.73-.68,2.73-1.5Z" fill="#a4a4a4"/><path d="M73.35,92.6c-1.39,0-2.52-.63-2.52-1.42s1.13-1.42,2.52-1.42,2.52.63,2.52,1.42-1.13,1.42-2.52,1.42Z" fill="#fff" opacity=".3"/><path d="M74.46,91.23l-.05-.58h-2.1l-.05.58c0,.27.49.49,1.1.49s1.1-.22,1.1-.49Z" fill="#9f9f9e"/><path d="M72.19,91.23s0,0,0,0l.05-.58s.03-.06.07-.06h2.1s.06.03.07.06l.05.58h0c0,.32-.51.56-1.17.56s-1.17-.24-1.17-.56ZM72.36,90.72l-.04.52c0,.2.43.42,1.03.42s1.03-.22,1.03-.42l-.04-.51h-1.98Z" fill="#828181"/><path d="M73.35,91.12c-.58,0-1.05-.21-1.05-.47s.47-.47,1.05-.47,1.05.21,1.05.47-.47.47-1.05.47Z" fill="#dcdcdc"/><path d="M72.23,90.65c0-.3.49-.54,1.12-.54s1.12.24,1.12.54-.49.54-1.12.54-1.12-.24-1.12-.54ZM74.34,90.65c0-.19-.4-.4-.98-.4s-.98.21-.98.4.4.4.98.4.98-.21.98-.4Z" fill="#a4a4a4"/><path d="M73.43,90.86c-.36,0-.65-.13-.65-.29s.29-.29.65-.29.65.13.65.29-.29.29-.65.29Z" fill="#fff"/><g mask="url(#l)"><path d="M77.48,92.64s-.63,1.1-2.91,1.44c-2.29.34-4.17-.34-4.94-1.02,0,0-.26-.24-.23-.09.04.15.87,1.77,4.68,1.49,0,0,2.67-.15,3.39-1.83Z" fill="url(#q)" mix-blend-mode="color-dodge"/></g><g mask="url(#r)"><path d="M77.48,104.59s-.63,1.1-2.91,1.44c-2.29.34-4.17-.33-4.94-1.02,0,0-.26-.24-.23-.09.04.15.87,1.77,4.68,1.49,0,0,2.67-.15,3.39-1.83Z" fill="url(#w)" mix-blend-mode="color-dodge"/></g><path d="M89.4,104.28h0v-12.52l-8.28.03h-.53v12.47c0,1.4,1.97,2.53,4.4,2.53s4.39-1.12,4.4-2.51Z" fill="#434242"/><path d="M80.53,104.26v-12.47s.03-.07.07-.07h.53l8.28-.03s.04,0,.05.02c.01.01.02.03.02.05v12.52s0,0,0,.01c-.03,1.42-2.03,2.57-4.47,2.57s-4.47-1.16-4.47-2.6ZM80.66,91.86v12.4c0,1.36,1.95,2.46,4.34,2.46s4.32-1.1,4.34-2.44c0,0,0,0,0,0v-12.44l-8.67.03Z" fill="#363636"/><path d="M89.4,96.45h0v-3.86h-8.81v3.84c0,1.4,1.97,2.53,4.4,2.53s4.39-1.12,4.4-2.51Z" fill="#e8e8e8"/><path d="M89.4,95.82h0v-3.86h-8.81v3.84c0,1.4,1.97,2.53,4.4,2.53s4.39-1.12,4.4-2.51Z" fill="url(#x)"/><path d="M80.53,95.8v-3.84s.03-.07.07-.07h8.81s.07.03.07.07v3.86s0,0,0,.01c-.03,1.42-2.03,2.57-4.47,2.57s-4.47-1.16-4.47-2.6ZM80.66,92.03v3.77c0,1.36,1.95,2.46,4.34,2.46s4.32-1.1,4.34-2.44c0,0,0,0,0,0v-3.78h-8.67Z" fill="#a66651"/><path d="M82.23,91.79h-1.1s-.53,0-.53,0v12.47c0,.79.64,1.5,1.63,1.97v-14.44Z" fill="url(#y)" mix-blend-mode="multiply" opacity=".8"/><path d="M88.61,105.71c.49-.41.79-.9.79-1.43h0v-12.52h-.79v13.94Z" fill="url(#z)" mix-blend-mode="multiply" opacity=".8"/><g mask="url(#aa)"><path d="M86.32,106.67c.51-.09.99-.24,1.4-.42v-14.48h-1.4v14.9Z" fill="url(#af)" mix-blend-mode="color-dodge" opacity=".4"/></g><polygon points="85.46 97.2 85.46 96.56 86.1 96.56 86.1 96.16 85.46 96.16 85.46 95.52 85.06 95.52 85.06 96.16 84.42 96.16 84.42 96.56 85.06 96.56 85.06 97.2 85.46 97.2" fill="#e8e8e8"/><rect x="85.06" y="104.51" width=".41" height="1.68" fill="#e8e8e8"/><path d="M85,94.32c-2.43,0-4.4-1.13-4.4-2.53s1.97-2.53,4.4-2.53,4.4,1.13,4.4,2.53-1.97,2.53-4.4,2.53Z" fill="url(#ag)"/><path d="M80.53,91.79c0-1.43,2.01-2.6,4.47-2.6s4.47,1.16,4.47,2.6-2.01,2.6-4.47,2.6-4.47-1.17-4.47-2.6ZM89.34,91.79c0-1.36-1.95-2.46-4.34-2.46s-4.34,1.1-4.34,2.46,1.95,2.46,4.34,2.46,4.34-1.1,4.34-2.46Z" fill="#a66651"/><path d="M85,94.01c-2.14,0-3.87-.99-3.87-2.22s1.73-2.22,3.87-2.22,3.87.99,3.87,2.22-1.73,2.22-3.87,2.22Z" fill="#929292"/><path d="M85,93.93c-2.06,0-3.72-.94-3.72-2.09s1.67-2.09,3.72-2.09,3.72.94,3.72,2.09-1.67,2.09-3.72,2.09Z" fill="#c3c3c3"/><path d="M85,93.41c-1.62,0-2.92-.74-2.92-1.65s1.31-1.65,2.92-1.65,2.92.74,2.92,1.65-1.31,1.65-2.92,1.65Z" fill="#9f9f9e"/><path d="M82.01,91.76c0-.94,1.34-1.71,2.99-1.71s2.99.77,2.99,1.71-1.34,1.71-2.99,1.71-2.99-.77-2.99-1.71ZM87.86,91.76c0-.87-1.28-1.58-2.86-1.58s-2.86.71-2.86,1.58,1.28,1.58,2.86,1.58,2.86-.71,2.86-1.58Z" fill="#828181"/><path d="M85,93.09c-1.54,0-2.79-.7-2.79-1.57s1.25-1.57,2.79-1.57,2.79.7,2.79,1.57-1.25,1.57-2.79,1.57Z" fill="#dcdcdc"/><path d="M82.14,91.52c0-.9,1.28-1.64,2.86-1.64s2.86.74,2.86,1.64-1.28,1.64-2.86,1.64-2.86-.74-2.86-1.64ZM87.73,91.52c0-.83-1.22-1.5-2.73-1.5s-2.73.68-2.73,1.5,1.22,1.5,2.73,1.5,2.73-.68,2.73-1.5Z" fill="#a4a4a4"/><path d="M85,92.84c-1.39,0-2.52-.63-2.52-1.42s1.13-1.42,2.52-1.42,2.52.63,2.52,1.42-1.13,1.42-2.52,1.42Z" fill="#fff" opacity=".3"/><path d="M86.1,91.47l-.05-.58h-2.1l-.05.58c0,.27.49.49,1.1.49s1.1-.22,1.1-.49Z" fill="#9f9f9e"/><path d="M83.83,91.47s0,0,0,0l.05-.58s.03-.06.07-.06h2.1s.06.03.07.06l.05.58h0c0,.32-.51.56-1.17.56s-1.17-.24-1.17-.56ZM84.01,90.96l-.04.52c0,.2.43.42,1.03.42s1.03-.22,1.03-.42l-.04-.51h-1.98Z" fill="#828181"/><path d="M85,91.36c-.58,0-1.05-.21-1.05-.47s.47-.47,1.05-.47,1.05.21,1.05.47-.47.47-1.05.47Z" fill="#dcdcdc"/><path d="M83.88,90.89c0-.3.49-.54,1.12-.54s1.12.24,1.12.54-.49.54-1.12.54-1.12-.24-1.12-.54ZM85.98,90.89c0-.19-.4-.4-.98-.4s-.98.21-.98.4.4.4.98.4.98-.21.98-.4Z" fill="#a4a4a4"/><path d="M85.07,91.1c-.36,0-.65-.13-.65-.29s.29-.29.65-.29.65.13.65.29-.29.29-.65.29Z" fill="#fff"/><g mask="url(#ah)"><path d="M89.13,92.87s-.63,1.1-2.91,1.44c-2.29.34-4.17-.34-4.94-1.02,0,0-.26-.24-.23-.09.04.15.87,1.77,4.68,1.49,0,0,2.67-.15,3.39-1.83Z" fill="url(#am)" mix-blend-mode="color-dodge"/></g><g mask="url(#an)"><path d="M89.13,104.83s-.63,1.1-2.91,1.44c-2.29.34-4.17-.33-4.94-1.02,0,0-.26-.24-.23-.09.04.15.87,1.77,4.68,1.49,0,0,2.67-.15,3.39-1.83Z" fill="url(#as)" mix-blend-mode="color-dodge"/></g><polygon points="80.16 15.93 79.91 16.07 79.92 16.36 79.65 16.46 79.62 16.75 79.34 16.81 79.27 17.09 78.98 17.11 78.88 17.38 78.59 17.35 78.44 17.61 78.16 17.54 77.98 17.77 77.71 17.66 77.49 17.86 77.25 17.71 77 17.88 76.78 17.7 76.52 17.83 76.32 17.61 76.04 17.71 75.88 17.46 75.59 17.52 75.46 17.25 75.17 17.26 75.08 16.98 74.79 16.95 74.75 16.66 74.46 16.59 74.46 16.29 74.19 16.18 74.23 15.89 73.98 15.74 74.06 15.45 73.83 15.27 73.96 15 73.76 14.78 73.92 14.54 73.76 14.29 73.95 14.07 73.83 13.8 74.05 13.61 73.97 13.33 74.22 13.18 74.17 12.89 74.44 12.77 74.44 12.48 74.72 12.4 74.77 12.11 75.06 12.08 75.14 11.8 75.44 11.8 75.56 11.54 75.85 11.59 76.01 11.34 76.29 11.43 76.49 11.22 76.75 11.35 76.97 11.16 77.21 11.33 77.46 11.18 77.68 11.38 77.95 11.26 78.13 11.49 78.41 11.42 78.56 11.67 78.85 11.64 78.96 11.91 79.25 11.93 79.32 12.21 79.6 12.27 79.63 12.56 79.9 12.65 79.89 12.94 80.15 13.08 80.09 13.37 80.32 13.54 80.23 13.81 80.43 14.01 80.3 14.27 80.47 14.5 80.3 14.74 80.44 14.99 80.23 15.2 80.33 15.47 80.1 15.65 80.16 15.93" fill="url(#at)"/><polygon points="77.24 17.65 77.49 17.8 77.7 17.6 77.96 17.71 78.14 17.48 78.42 17.55 78.56 17.3 78.84 17.33 78.95 17.06 79.23 17.04 79.3 16.77 79.58 16.71 79.6 16.42 79.87 16.33 79.85 16.04 80.1 15.91 80.04 15.63 80.27 15.45 80.18 15.19 80.38 14.98 80.24 14.73 80.41 14.5 80.24 14.28 80.37 14.02 80.17 13.82 80.26 13.55 80.03 13.39 80.09 13.11 79.84 12.97 79.85 12.69 79.58 12.59 79.56 12.31 79.28 12.25 79.21 11.98 78.92 11.96 78.82 11.7 78.53 11.73 78.39 11.48 78.11 11.55 77.93 11.33 77.67 11.44 77.46 11.24 77.21 11.39 76.98 11.23 76.76 11.41 76.5 11.28 76.31 11.49 76.03 11.4 75.87 11.64 75.59 11.59 75.47 11.85 75.18 11.85 75.1 12.12 74.81 12.16 74.77 12.44 74.49 12.52 74.49 12.8 74.23 12.92 74.27 13.2 74.03 13.36 74.11 13.63 73.89 13.82 74.01 14.08 73.82 14.29 73.98 14.53 73.82 14.78 74.02 14.99 73.9 15.25 74.12 15.44 74.04 15.71 74.28 15.86 74.24 16.15 74.51 16.26 74.51 16.55 74.79 16.62 74.83 16.9 75.12 16.94 75.21 17.21 75.49 17.2 75.62 17.46 75.9 17.41 76.06 17.65 76.33 17.56 76.53 17.76 76.79 17.64 77.01 17.82 77.24 17.65" fill="url(#au)"/><polygon points="80.16 15.93 79.91 16.07 79.92 16.36 79.65 16.46 79.62 16.75 79.34 16.81 79.27 17.09 78.98 17.11 78.88 17.38 78.59 17.35 78.44 17.61 78.16 17.54 77.98 17.77 77.71 17.66 77.49 17.86 77.25 17.71 77 17.88 76.78 17.7 76.52 17.83 76.32 17.61 76.04 17.71 75.88 17.46 75.59 17.52 75.46 17.25 75.17 17.26 75.08 16.98 74.79 16.95 74.75 16.66 74.46 16.59 74.46 16.29 74.19 16.18 74.23 15.89 73.98 15.74 74.06 15.45 73.83 15.27 73.96 15 73.76 14.78 73.92 14.54 73.76 14.29 73.95 14.07 73.83 13.8 74.05 13.61 73.97 13.33 74.22 13.18 74.17 12.89 74.44 12.77 74.44 12.48 74.72 12.4 74.77 12.11 75.06 12.08 75.14 11.8 75.44 11.8 75.56 11.54 75.85 11.59 76.01 11.34 76.29 11.43 76.49 11.22 76.75 11.35 76.97 11.16 77.21 11.33 77.46 11.18 77.68 11.38 77.95 11.26 78.13 11.49 78.41 11.42 78.56 11.67 78.85 11.64 78.96 11.91 79.25 11.93 79.32 12.21 79.6 12.27 79.63 12.56 79.9 12.65 79.89 12.94 80.15 13.08 80.09 13.37 80.32 13.54 80.23 13.81 80.43 14.01 80.3 14.27 80.47 14.5 80.3 14.74 80.44 14.99 80.23 15.2 80.33 15.47 80.1 15.65 80.16 15.93" fill="url(#av)" mix-blend-mode="overlay"/><path d="M80,14.52c0,1.6-1.29,2.89-2.89,2.89s-2.89-1.29-2.89-2.89,1.29-2.89,2.89-2.89,2.89,1.29,2.89,2.89Z" fill="url(#aw)"/><path d="M80,14.52c0,1.6-1.29,2.89-2.89,2.89s-2.89-1.29-2.89-2.89,1.29-2.89,2.89-2.89,2.89,1.29,2.89,2.89Z" fill="url(#ax)" mix-blend-mode="multiply"/><path d="M89.56,79.06s-.06,1.2-10.44,1.2-10.8-1.2-10.8-1.2v-1.83h21.24v1.83Z" fill="url(#ay)"/><rect x="66.16" y="77.44" width="25.56" height="2.7" fill="url(#az)" mix-blend-mode="multiply"/><path d="M90.13,77.98s-.06,1.2-11,1.2-11.38-1.2-11.38-1.2V26.37h22.38v51.61Z" fill="url(#ba)"/><rect x="67.76" y="22.61" width="22.38" height="3.76" fill="url(#bb)"/><rect x="67.76" y="22.61" width="22.38" height="1.52" fill="url(#bc)" mix-blend-mode="screen"/><rect x="67.76" y="24.85" width="22.38" height="1.52" fill="url(#bd)" mix-blend-mode="multiply"/><rect x="67.76" y="26.37" width="22.38" height="1.52" fill="url(#be)" mix-blend-mode="multiply"/><path d="M90.13,22.61v-7.05c0-.3-1.01-1.02-3-1.57-1.99-.55-7.83-1.36-7.83-1.36-1.53-.32-2.57-.07-3.05.12-.47.19-.85.8-.85,1.83v8.03h14.73Z" fill="url(#bf)"/><path d="M89.83,22.61v-7.05c-.06-.1-.87-.75-2.78-1.28-1.94-.54-7.75-1.35-7.81-1.36-.74-.07-1.27-.07-1.84-.03-.44.03-.8.05-1.03.14-.32.13-.66.6-.66,1.55v8.03h14.12Z" fill="url(#bg)"/><rect x="89.57" y="20.86" width=".56" height="1.75" fill="url(#bh)"/><rect x="89.57" y="21.14" width="1.36" height="1.25" fill="url(#bi)"/><rect x="75.4" y="21.11" width="14.17" height="1.52" fill="url(#bj)" mix-blend-mode="screen"/><rect x="89.57" y="21.22" width="1.28" height="1.09" fill="#454642"/><rect x="70.98" y="18.25" width="2.87" height="3.62" rx=".25" ry=".25" fill="url(#bk)"/><rect x="73" y="18.99" width="2.41" height="1.44" fill="url(#bl)"/><rect x="78.56" y="17.17" width="1.03" height="3.97" fill="#22201c"/><rect x="77.24" y="17.17" width="1.32" height="3.97" fill="url(#bm)"/><polygon points="77.37 17.3 77.37 21.02 77.12 21.27 77.12 16.22 77.12 16.22 77.37 17.3 77.37 17.3" fill="url(#bn)"/><polygon points="79.46 17.3 79.72 16.22 79.72 21.27 79.46 21.02 79.46 17.3" fill="url(#bo)"/><polygon points="77.37 17.3 77.12 16.22 79.72 16.22 79.46 17.3 77.37 17.3" fill="url(#bp)"/><polygon points="77.37 21.02 79.46 21.02 79.72 21.27 77.12 21.27 77.37 21.02" fill="url(#bq)"/><rect x="89.57" y="21.14" width=".86" height="1.25" fill="url(#br)" mix-blend-mode="multiply"/><path d="M75.4,19.02h-6.78v-1.78c0-.15.04-.35.21-.52.17-.17.32-.25.53-.25h4.4s.34.95,1.64.95v1.6Z" fill="url(#bs)"/><rect x="70.98" y="19.02" width="4.42" height="1.21" fill="url(#bt)" mix-blend-mode="multiply"/><g mix-blend-mode="screen"><path d="M68.83,16.71c.17-.17.32-.25.53-.25h4.4s.11.28.42.54h-5.52c.03-.1.08-.2.17-.29Z" fill="url(#bu)"/></g><g mix-blend-mode="multiply"><path d="M75.4,18.43v.59h-6.78v-.59h6.78Z" fill="url(#bv)"/></g><path d="M70.98,20.67v.94c0,.14.11.25.25.25h2.37c.14,0,.25-.11.25-.25v-.94h-2.87Z" fill="url(#bw)" mix-blend-mode="multiply"/><rect x="73" y="19.8" width="2.41" height=".63" fill="url(#bx)" mix-blend-mode="multiply"/></g></g></svg>