<?xml version="1.0" encoding="UTF-8"?><svg id="a" xmlns="http://www.w3.org/2000/svg" viewBox="0 0 297.19 114.87"><path d="M0,114.87L105.37,0s32.47,34.96,82.95,34.58c70.67-.53,108.87-1.88,108.87-1.88v82.17H0Z" fill="#273375"/><rect x="71.77" y="56.38" width="192" height="49.02" fill="none"/><path d="M77.99,58.58h12.1c9.77,0,16.37,7.08,16.37,15.4s-6.6,15.4-16.37,15.4h-12.1v-30.8ZM84.23,64.26v19.45h5.94c5.72,0,9.86-4.27,9.86-9.73s-4.14-9.73-9.86-9.73h-5.94Z" fill="#fff"/><path d="M112.92,58.58h12.1c9.77,0,16.37,7.08,16.37,15.4s-6.6,15.4-16.37,15.4h-12.1v-30.8ZM119.17,64.26v19.45h5.94c5.72,0,9.86-4.27,9.86-9.73s-4.14-9.73-9.86-9.73h-5.94Z" fill="#fff"/><path d="M143.28,58.58h25.26v5.68h-9.51v25.13h-6.25v-25.13h-9.51v-5.68Z" fill="#fff"/><path d="M174.48,58.58h7.79l7.52,12.94,7.53-12.94h7.79v30.8h-6.25v-22.09l-6.86,11.53h-4.4l-6.86-11.53v22.09h-6.25v-30.8Z" fill="#fff"/><path d="M222.61,90.26c-5.81,0-9.55-2.55-12.06-6.95l5.19-3.21c1.72,3.39,3.79,4.88,6.82,4.88s5.24-1.8,5.24-4.67-2.2-4.58-5.46-4.58h-5.06v-5.28h4.67c2.6,0,4.49-1.45,4.49-3.83s-1.76-3.65-4.18-3.65-4.14,1.32-5.41,3.52l-4.84-2.99c2.24-3.65,5.72-5.81,10.69-5.81,5.63,0,9.81,3.21,9.81,8.27,0,2.86-1.23,5.28-3.52,6.87,3.12,1.58,4.84,4.36,4.84,7.74,0,5.85-4.8,9.68-11.22,9.68Z" fill="#fff"/><path d="M237.26,75.83l13.2-17.25h6.95v17.25h3.12v5.37h-3.12v8.19h-5.94v-8.19h-14.21v-5.37ZM251.48,75.83v-10.52l-8.1,10.52h8.1Z" fill="#fff"/></svg>