<?xml version="1.0" encoding="UTF-8"?><svg id="a" xmlns="http://www.w3.org/2000/svg" xmlns:xlink="http://www.w3.org/1999/xlink" viewBox="0 0 36.29 36.29"><defs><clipPath id="b"><rect x=".09" width="36.2" height="36.29" fill="none"/></clipPath></defs><g clip-path="url(#b)"><path d="M36.29,18.15c0,4.94-1.74,9.18-5.22,12.74l.04.04c-.34.1-1.11.64-2.32,1.63-.7.56-1.37,1.04-2.02,1.45s-1.28.75-1.9,1.02c-2.03.85-4.27,1.27-6.71,1.27-5.01,0-9.29-1.78-12.85-5.33C1.77,27.42,0,23.16,0,18.15S1.77,8.87,5.3,5.34C8.85,1.78,13.14,0,18.14,0s9.28,1.78,12.81,5.33c3.56,3.53,5.33,7.8,5.33,12.81M2.54,18.15v.27c0,.11.01.22.04.34.41.05.82.09,1.21.11.4.02.8.04,1.22.04.87,0,1.79-.05,2.74-.16.96-.11,1.95-.29,2.99-.53l-.04-3.63h-3.01L18.29,3.96l10.31,10.6h-3.01v4.17c1.84.65,3.67.98,5.48.98.87,0,1.74-.07,2.61-.22.02-.24.04-.48.05-.71.01-.23.02-.44.02-.64,0-4.31-1.53-7.99-4.58-11.03-3.05-3.05-6.72-4.57-11.03-4.57s-7.99,1.52-11.03,4.57c-3.05,3.05-4.58,6.72-4.58,11.03M2.76,20.72c.05.27.1.55.16.84.06.29.14.58.24.87.24.02.48.04.73.05.24.01.49.02.76.02,1.96,0,3.99-.27,6.1-.8v-1.56c-1.02.24-1.99.42-2.94.52-.94.11-1.87.17-2.79.17-.75,0-1.5-.04-2.25-.11M24.38,25.37c1.77.85,3.48,1.27,5.15,1.27.32,0,.62-.01.93-.04.3-.02.59-.06.85-.11.22-.36.47-.82.76-1.38-.22.02-.43.04-.65.04h-.69c-2.11,0-4.69-.54-7.77-1.63h-11.62c-2.73.65-5.24.94-7.51.87.1.19.2.39.29.6.1.21.21.43.33.67.39.05.79.09,1.2.13s.85.05,1.31.05c2.42,0,4.79-.39,7.11-1.16,1.52-.51,3-.76,4.43-.76,1.91,0,3.87.48,5.88,1.45M28.96,29.36c.14-.12.28-.25.42-.4.13-.15.26-.29.38-.44-2.08.05-4.15-.43-6.21-1.45-1.65-.82-3.34-1.23-5.08-1.23-1.21,0-2.47.22-3.77.65-2.88.99-5.84,1.39-8.89,1.2l.73.87c.51.07,1.08.11,1.71.11,1.18,0,2.32-.1,3.41-.29,1.09-.19,2.18-.51,3.27-.94.65-.27,1.31-.46,1.96-.56.65-.11,1.29-.17,1.92-.17,1.77,0,3.51.47,5.23,1.42,1.69.94,3.34,1.35,4.94,1.23M25.33,31.97c.53-.24,1-.52,1.42-.83-1.21-.19-2.42-.64-3.63-1.34-1.43-.8-2.87-1.2-4.32-1.2-1.07,0-2.13.2-3.19.62-1.09.41-2.2.73-3.34.96-1.14.23-2.31.37-3.52.42.27.19.53.37.8.54.27.17.53.34.8.51,1.02.02,1.96-.04,2.83-.2.87-.15,1.68-.4,2.43-.74.8-.39,1.66-.58,2.58-.58,1.16,0,2.31.36,3.45,1.09.82.53,1.63.8,2.43.8.34,0,.75-.06,1.23-.18l.04.14ZM12.81,17.68c1.62-.46,3.28-.69,4.97-.69,1.89,0,3.8.33,5.74.98v-5.52h.15l-5.41-5.52-5.52,5.55h.04l.04,5.19ZM12.85,21.16c1.48-.39,3.01-.58,4.61-.58,1.7,0,3.47.28,5.34.83h.73v-1.41c-1.96-.73-3.88-1.09-5.77-1.09-1.4,0-3.04.24-4.9.73v1.52ZM18.14,33.75c.56,0,1.12-.04,1.69-.11.57-.07,1.15-.17,1.76-.29-.34-.15-.67-.33-.98-.55-.85-.51-1.66-.76-2.43-.76-.58,0-1.19.13-1.81.4-.63.27-1.44.51-2.43.73,1.3.39,2.71.58,4.21.58M32.91,23.12c.1-.27.19-.55.27-.83.08-.29.15-.57.2-.83-.39.05-.77.08-1.16.11-.39.02-.77.04-1.16.04-1.81,0-3.64-.29-5.48-.87v1.71c1.79.56,3.51.83,5.15.83.36,0,.73-.01,1.09-.04.36-.02.73-.06,1.09-.11" fill="#136091"/></g></svg>