<?xml version="1.0" encoding="UTF-8"?><svg xmlns="http://www.w3.org/2000/svg" viewBox="0 0 121.52 102.78"><g isolation="isolate"><g id="a"><path d="M35.61,99.08c0,1.52-.73,2.86-1.86,3.7h3.44c2.17,0,3.93-1.76,3.93-3.94v-6.14h-5.51v6.37Z" fill="#ceb88b"/><path d="M41.12,63.29v-15.22c0-2.18-1.75-3.93-3.93-3.93h-1.58v19.14h5.51Z" fill="#ceb88b"/><path d="M35.61,99.08v-6.37H9.85v3.46c0,.66-.54,1.2-1.2,1.2h0c-.66,0-1.2-.54-1.2-1.2v-3.46h-3.71v6.14c0,2.17,1.8,3.94,3.98,3.94h26.04c1.13-.84,1.86-2.18,1.86-3.7Z" fill="#e6d4a5"/><path d="M7.44,58.28c0-.66.54-1.2,1.2-1.2h0c.66,0,1.2.54,1.2,1.2v5.01h25.76v-19.14H7.71c-2.17,0-3.98,1.75-3.98,3.93v15.22h3.71v-5.01Z" fill="#e6d4a5"/><path d="M7.44,96.17c0,.66.54,1.2,1.2,1.2h0c.66,0,1.2-.54,1.2-1.2v-3.46h-2.41v3.46Z" fill="#eee0bf"/><path d="M9.85,58.28c0-.66-.54-1.2-1.2-1.2h0c-.66,0-1.2.54-1.2,1.2v5.01h2.41v-5.01Z" fill="#eee0bf"/><rect x="35.63" y="63.3" width="5.49" height="29.4" fill="#e1d3b4"/><rect x="9.85" y="63.29" width="25.76" height="29.42" fill="#eee0bf"/><rect x="3.74" y="63.29" width="3.71" height="29.42" fill="#eee0bf"/><rect x="7.42" y="63.3" width="2.44" height="29.4" fill="#f5edde"/><path d="M40.93,36.63h-3.91c.88.75,1.39,1.93,1.39,3.19v9.42c0,1.57-.8,2.85-2.05,3.7h4.58c2.17,0,3.93-1.78,3.93-3.95v-8.42c0-2.17-1.76-3.94-3.93-3.94Z" fill="#d09416"/><path d="M38.4,49.24v-9.42c0-1.27-.51-2.44-1.39-3.19H3.96c-2.17,0-3.96,1.77-3.96,3.94v8.42c0,2.17,1.79,3.95,3.96,3.95h32.38c1.25-.85,2.05-2.13,2.05-3.7Z" fill="#e6ac1d"/><rect x="3.11" y="39.91" width="5.21" height="9.86" rx="2.56" ry="2.56" fill="#fcca64"/><rect x="79.34" y="37.15" width="42.18" height="64.69" rx="6.07" ry="6.07" fill="#bcb9b8"/><path d="M101.71,96.51c0,.72-.59,1.31-1.31,1.31h0c-.72,0-1.31-.59-1.31-1.31v-53.97c0-.72.59-1.31,1.31-1.31h0c.72,0,1.31.59,1.31,1.31v53.97Z" fill="#a19e9c"/><path d="M96.15,47.58c-.03,3.12-2.59,5.62-5.71,5.59-3.12-.03-5.62-2.59-5.59-5.71.03-3.12,2.59-5.62,5.71-5.59,3.12.03,5.62,2.59,5.59,5.71Z" fill="#e0dfdf"/><path d="M95.66,47.32c-.03,3.12-2.59,5.62-5.71,5.59-3.12-.03-5.62-2.59-5.59-5.71.03-3.12,2.59-5.62,5.71-5.59,3.12.03,5.62,2.59,5.59,5.71Z" fill="#fff"/><path d="M90.75,50.61c0,.42-.35.77-.78.76h0c-.42,0-.77-.35-.76-.78l.07-6.67c0-.42.35-.77.78-.76h0c.42,0,.77.35.76.78l-.07,6.67Z" fill="#e0dfdf"/><path d="M116.41,47.58c-.03,3.12-2.59,5.62-5.71,5.59-3.12-.03-5.62-2.59-5.59-5.71.03-3.12,2.59-5.62,5.71-5.59,3.12.03,5.62,2.59,5.59,5.71Z" fill="#e0dfdf"/><path d="M115.92,47.32c-.03,3.12-2.59,5.62-5.71,5.59-3.12-.03-5.62-2.59-5.59-5.71.03-3.12,2.59-5.62,5.71-5.59,3.12.03,5.62,2.59,5.59,5.71Z" fill="#fff"/><path d="M111.01,50.61c0,.42-.35.77-.78.76h0c-.42,0-.77-.35-.76-.78l.07-6.67c0-.42.35-.77.78-.76h0c.42,0,.77.35.76.78l-.07,6.67Z" fill="#e0dfdf"/><path d="M96.15,62.32c-.03,3.12-2.59,5.62-5.71,5.59-3.12-.03-5.62-2.59-5.59-5.71.03-3.12,2.59-5.62,5.71-5.59,3.12.03,5.62,2.59,5.59,5.71Z" fill="#e0dfdf"/><path d="M95.66,62.06c-.03,3.12-2.59,5.62-5.71,5.59-3.12-.03-5.62-2.59-5.59-5.71.03-3.12,2.59-5.62,5.71-5.59,3.12.03,5.62,2.59,5.59,5.71Z" fill="#fff"/><path d="M90.75,65.35c0,.42-.35.77-.78.76h0c-.42,0-.77-.35-.76-.78l.07-6.67c0-.42.35-.77.78-.76h0c.42,0,.77.35.76.78l-.07,6.67Z" fill="#e0dfdf"/><path d="M116.41,62.32c-.03,3.12-2.59,5.62-5.71,5.59-3.12-.03-5.62-2.59-5.59-5.71.03-3.12,2.59-5.62,5.71-5.59,3.12.03,5.62,2.59,5.59,5.71Z" fill="#e0dfdf"/><path d="M115.92,62.06c-.03,3.12-2.59,5.62-5.71,5.59-3.12-.03-5.62-2.59-5.59-5.71.03-3.12,2.59-5.62,5.71-5.59,3.12.03,5.62,2.59,5.59,5.71Z" fill="#fff"/><path d="M111.01,65.35c0,.42-.35.77-.78.76h0c-.42,0-.77-.35-.76-.78l.07-6.67c0-.42.35-.77.78-.76h0c.42,0,.77.35.76.78l-.07,6.67Z" fill="#e0dfdf"/><path d="M96.15,77.06c-.03,3.12-2.59,5.62-5.71,5.59-3.12-.03-5.62-2.59-5.59-5.71.03-3.12,2.59-5.62,5.71-5.59,3.12.03,5.62,2.59,5.59,5.71Z" fill="#e0dfdf"/><path d="M95.66,76.8c-.03,3.12-2.59,5.62-5.71,5.59-3.12-.03-5.62-2.59-5.59-5.71.03-3.12,2.59-5.62,5.71-5.59,3.12.03,5.62,2.59,5.59,5.71Z" fill="#fff"/><path d="M90.75,80.08c0,.42-.35.77-.78.76h0c-.42,0-.77-.35-.76-.78l.07-6.67c0-.42.35-.77.78-.76h0c.42,0,.77.35.76.78l-.07,6.67Z" fill="#e0dfdf"/><path d="M116.41,77.06c-.03,3.12-2.59,5.62-5.71,5.59-3.12-.03-5.62-2.59-5.59-5.71.03-3.12,2.59-5.62,5.71-5.59,3.12.03,5.62,2.59,5.59,5.71Z" fill="#e0dfdf"/><path d="M115.92,76.8c-.03,3.12-2.59,5.62-5.71,5.59-3.12-.03-5.62-2.59-5.59-5.71.03-3.12,2.59-5.62,5.71-5.59,3.12.03,5.62,2.59,5.59,5.71Z" fill="#fff"/><path d="M111.01,80.08c0,.42-.35.77-.78.76h0c-.42,0-.77-.35-.76-.78l.07-6.67c0-.42.35-.77.78-.76h0c.42,0,.77.35.76.78l-.07,6.67Z" fill="#e0dfdf"/><path d="M96.15,91.79c-.03,3.12-2.59,5.62-5.71,5.59-3.12-.03-5.62-2.59-5.59-5.71.03-3.12,2.59-5.62,5.71-5.59,3.12.03,5.62,2.59,5.59,5.71Z" fill="#e0dfdf"/><path d="M95.66,91.53c-.03,3.12-2.59,5.62-5.71,5.59-3.12-.03-5.62-2.59-5.59-5.71.03-3.12,2.59-5.62,5.71-5.59,3.12.03,5.62,2.59,5.59,5.71Z" fill="#fff"/><path d="M90.75,94.82c0,.43-.35.77-.78.76h0c-.42,0-.77-.35-.76-.78l.07-6.67c0-.43.35-.77.78-.76h0c.42,0,.77.35.76.78l-.07,6.67Z" fill="#e0dfdf"/><path d="M116.41,91.79c-.03,3.12-2.59,5.62-5.71,5.59-3.12-.03-5.62-2.59-5.59-5.71.03-3.12,2.59-5.62,5.71-5.59,3.12.03,5.62,2.59,5.59,5.71Z" fill="#e0dfdf"/><path d="M115.92,91.53c-.03,3.12-2.59,5.62-5.71,5.59-3.12-.03-5.62-2.59-5.59-5.71.03-3.12,2.59-5.62,5.71-5.59,3.12.03,5.62,2.59,5.59,5.71Z" fill="#fff"/><path d="M111.01,94.82c0,.43-.35.77-.78.76h0c-.42,0-.77-.35-.76-.78l.07-6.67c0-.43.35-.77.78-.76h0c.42,0,.77.35.76.78l-.07,6.67Z" fill="#e0dfdf"/><path d="M94.87,27.98c-3.79-3.22-9.28-9.46-9.28-12.01h-10.7c.93,3-5.96,8.47-2.44,11.46,3.89,3.31,10.19,8.75,10.19,8.75l-7.73,14.2,5.07,6.46,6.12,36.59c0,3.55,5.29,6.67,2.47,8.36h.72c5.27,0,9.5-4.26,9.5-9.54v-55.74s-.12-5.3-3.91-8.52Z" fill="#412c18"/><path d="M93.23,93.42v-57.24s-.11-5.41-4-8.72c-3.51-2.99-8.43-8.48-9.36-11.43h-20.07c0,2.61-5.51,8.76-9.3,11.98-3.79,3.22-3.93,8.5-3.93,8.5v55.74c0,5.27,4.3,9.59,9.57,9.59h32.43c2.82-1.75,4.67-4.87,4.67-8.42Z" fill="#5e3d1a"/><path d="M85.75,0h-3.5c.78.68,1.3,1.72,1.3,2.85v10.99c0,1.4-.77,2.59-1.9,3.32h4.1c1.95,0,3.52-1.61,3.52-3.55V3.52c0-1.95-1.57-3.52-3.52-3.52Z" fill="#d09416"/><path d="M83.54,13.84V2.85c0-1.14-.51-2.17-1.3-2.85h-22.56c-1.95,0-3.5,1.57-3.5,3.52v10.09c0,1.95,1.56,3.55,3.5,3.55h21.96c1.12-.74,1.9-1.92,1.9-3.32Z" fill="#e6ac1d"/><rect x="58.96" y="3.12" width="4.64" height="11.39" rx="2.29" ry="2.29" fill="#fcca64"/><polygon points="46.56 43.67 46.56 50.34 46.56 56.62 46.56 84.29 51.31 84.29 51.31 43.67 46.56 43.67" fill="#ddd0d0"/><polygon points="53.86 43.67 53.86 84.29 98.78 84.29 98.78 56.62 98.78 50.34 98.78 43.67 53.86 43.67" fill="#ddd0d0"/><path d="M51.31,89.96v.04c.01.31.54,7.66,5.89,9.54.14.05.28.07.42.07.53,0,1.03-.33,1.22-.86.24-.67-.13-1.41-.8-1.64-3.59-1.26-4.13-6.75-4.19-7.23v-5.58h-2.55v5.67Z" fill="#764d21"/><path d="M53.86,36.14c0-1.78,1.39-3.94,4.01-6.28,2.12-1.89,4.28-3.18,4.3-3.18h0c.61-.4.82-1.17.45-1.78-.36-.61-1.15-.82-1.77-.46-.1.06-2.36,1.41-4.66,3.45-3.25,2.89-4.89,5.66-4.89,8.24v7.53h2.55v-7.53Z" fill="#764d21"/><rect x="51.31" y="43.67" width="2.55" height="40.61" fill="#fff"/><path d="M66.34,71.05s.01,0,.01,0c.32.55.51,1.19.51,1.87h0c0,2.08-1.67,3.77-3.75,3.78l-5.35.03-5.35.03c-2.08.01-3.78-1.66-3.78-3.74h0c0-.68.17-1.32.48-1.87,0,0,0,0,0,0,.65-1.13,1.86-1.89,3.26-1.9l5.34-.03,5.35-.03c1.4,0,2.62.74,3.27,1.87Z" fill="#3a91cd"/><path d="M66.34,71.05c-.62-.31-1.33-.5-2.08-.49l-6.53.03v-1.38s5.34-.03,5.34-.03c1.4,0,2.62.74,3.27,1.86Z" fill="#a72f2c"/><path d="M66.87,72.91c0,2.08-1.67,3.77-3.75,3.78l-5.35.03-.03-6.14,6.53-.03c.75,0,1.46.18,2.09.49.32.55.51,1.19.51,1.87h0Z" fill="#bd3532"/><path d="M51.2,70.61c-.75,0-1.46.2-2.09.52.64-1.14,1.87-1.9,3.26-1.9l5.34-.03v1.38s-6.52.03-6.52.03Z" fill="#2381a9"/><path d="M57.73,70.58l.03,6.14-5.34.03c-2.08.01-3.78-1.66-3.78-3.74h0c0-.68.17-1.32.48-1.87.63-.32,1.33-.51,2.08-.51l6.53-.03Z" fill="#3a91cd"/><path d="M62.1,75.27h.62s0,0,.01,0c0,0,.46,0,1.01-.16.7-.22,1.22-.62,1.53-1.19.02-.04.05-.07.09-.1.09-.07.22-.08.33-.02.09.05.15.13.16.25h0s0,0,0,0c0,0,0,.01,0,.02,0,.05-.01.1-.04.15-.39.71-1.05,1.22-1.91,1.48-.61.18-1.11.18-1.18.18h-.62s-4.34.02-4.34.02v-.61s4.34-.02,4.34-.02Z" fill="#d45152"/><path d="M50.11,73.99c.32.57.84.96,1.55,1.17.55.16,1,.15,1.01.15,0,0,0,0,.01,0h.62s4.45-.02,4.45-.02v.61s-4.45.02-4.45.02h-.62c-.07,0-.57.01-1.18-.16-.86-.25-1.53-.76-1.93-1.46-.03-.05-.04-.1-.04-.15,0,0,0-.01,0-.02,0,0,0,0,0,0h0c0-.1.06-.2.16-.25.11-.06.24-.05.33.02.03.02.06.06.09.1Z" fill="#5bb0e1"/><path d="M97.17,75.39s0,0,0,0c.32.55.51,1.19.51,1.87h0c0,2.08-1.67,3.77-3.74,3.78l-5.35.03-5.35.03c-2.08.01-3.79-1.66-3.79-3.74h0c0-.68.17-1.32.49-1.87,0,0,0,0,0,0,.65-1.13,1.86-1.89,3.26-1.9l5.34-.03,5.35-.03c1.4,0,2.62.74,3.27,1.87Z" fill="#3a91cd"/><path d="M97.17,75.39c-.62-.31-1.33-.5-2.08-.49l-6.53.03v-1.38s5.34-.03,5.34-.03c1.4,0,2.62.74,3.27,1.86Z" fill="#a72f2c"/><path d="M97.69,77.26c0,2.08-1.67,3.77-3.74,3.78l-5.35.03-.03-6.14,6.53-.03c.75,0,1.46.18,2.08.49.32.55.51,1.19.51,1.87h0Z" fill="#bd3532"/><path d="M82.03,74.96c-.75,0-1.46.2-2.09.52.65-1.14,1.87-1.89,3.26-1.9l5.34-.03v1.38s-6.52.03-6.52.03Z" fill="#2381a9"/><path d="M88.56,74.93l.03,6.14-5.34.03c-2.08.01-3.78-1.66-3.78-3.74h0c0-.68.17-1.32.49-1.87.63-.32,1.33-.51,2.08-.51l6.53-.03Z" fill="#3a91cd"/><path d="M92.92,79.61h.62s0,0,.01,0c0,0,.46,0,1.01-.16.7-.22,1.22-.62,1.53-1.19.02-.04.05-.07.09-.1.09-.07.22-.08.33-.02.09.05.15.13.16.25h0s0,0,0,0c0,0,0,.01,0,.02,0,.05-.01.1-.04.15-.39.71-1.05,1.22-1.91,1.48-.61.18-1.11.18-1.18.18h-.62s-4.34.02-4.34.02v-.61s4.34-.02,4.34-.02Z" fill="#d45152"/><path d="M80.94,78.33c.32.57.84.96,1.55,1.17.55.16,1,.15,1.01.15,0,0,0,0,.01,0h.62s4.45-.02,4.45-.02v.61s-4.45.02-4.45.02h-.62c-.07,0-.57.01-1.18-.16-.86-.25-1.53-.76-1.93-1.46-.03-.05-.04-.1-.04-.15,0,0,0-.01,0-.02,0,0,0,0,0,0h0c0-.1.06-.2.16-.25.11-.06.24-.05.33.02.03.02.06.06.09.1Z" fill="#5bb0e1"/><path d="M94.86,85.65s0,0,0,0c.42-.47.74-1.06.88-1.72h0c.44-2.03-.84-4.03-2.87-4.47l-5.23-1.14-5.22-1.14c-2.03-.44-4.04.84-4.48,2.87h0c-.14.67-.11,1.33.09,1.93,0,0,0,0,0,0,.4,1.24,1.43,2.24,2.79,2.53l5.22,1.13,5.23,1.14c1.36.3,2.71-.18,3.59-1.15Z" fill="#3a91cd"/><path d="M94.86,85.65c-.68.18-1.41.21-2.13.05l-6.39-1.39-.29,1.34,5.23,1.14c1.36.3,2.71-.18,3.58-1.15Z" fill="#a72f2c"/><path d="M95.74,83.93c.44-2.03-.84-4.03-2.87-4.47l-5.23-1.14-1.3,6,6.39,1.39c.73.16,1.46.13,2.13-.05.43-.47.74-1.06.88-1.73h0Z" fill="#bd3532"/><path d="M79.96,82.93c-.73-.16-1.39-.5-1.93-.94.4,1.25,1.43,2.24,2.8,2.54l5.22,1.13.29-1.34-6.38-1.39Z" fill="#2381a9"/><path d="M86.34,84.32l1.3-6-5.22-1.13c-2.03-.44-4.04.84-4.48,2.87h0c-.14.67-.11,1.33.09,1.93.55.45,1.2.78,1.93.94l6.38,1.39Z" fill="#3a91cd"/><path d="M91.58,80.64l.61.13s0,0,0,0c0,0,.45.09.95.37.64.36,1.07.86,1.25,1.48.01.04.03.08.06.11.08.09.2.13.32.09.1-.03.18-.09.21-.21h0s0,0,0,0c0,0,0-.01,0-.02.01-.05,0-.1,0-.15-.24-.78-.78-1.41-1.56-1.85-.56-.31-1.05-.4-1.11-.42l-.61-.13-4.25-.92-.13.59,4.25.92Z" fill="#d45152"/><path d="M79.59,79.41c.43-.49,1.02-.77,1.76-.83.57-.05,1.01.06,1.02.06,0,0,0,0,.01,0l.61.13,4.35.95.13-.59-4.35-.95-.61-.13c-.06-.01-.56-.13-1.19-.08-.89.07-1.65.42-2.19,1.03-.04.04-.06.09-.07.14,0,0,0,.01,0,.02,0,0,0,0,0,0h0c-.01.1.02.2.1.28.09.08.22.1.33.05.04-.02.07-.04.1-.08Z" fill="#5bb0e1"/><path d="M70.97,73.51s0,0,0,0c0-.63-.15-1.28-.48-1.87h0c-1.01-1.82-3.3-2.47-5.11-1.46l-4.67,2.6-4.67,2.6c-1.82,1.01-2.47,3.3-1.46,5.12h0c.33.59.8,1.07,1.34,1.39,0,0,0,0,0,0,1.12.67,2.55.73,3.77.05l4.67-2.6,4.67-2.6c1.22-.68,1.92-1.93,1.93-3.23Z" fill="#3a91cd"/><path d="M70.97,73.51c-.39.58-.92,1.09-1.57,1.45l-5.71,3.18.67,1.2,4.68-2.6c1.22-.68,1.92-1.93,1.93-3.23Z" fill="#a72f2c"/><path d="M70.49,71.64c-1.01-1.82-3.3-2.47-5.11-1.46l-4.68,2.6,2.98,5.36,5.71-3.18c.65-.36,1.18-.87,1.57-1.45,0-.64-.15-1.29-.48-1.88h0Z" fill="#bd3532"/><path d="M57.98,81.32c-.66.37-1.37.54-2.07.57,1.12.67,2.55.74,3.78.06l4.67-2.6-.67-1.2-5.7,3.17Z" fill="#2381a9"/><path d="M63.69,78.14l-2.98-5.36-4.67,2.6c-1.82,1.01-2.47,3.3-1.46,5.12h0c.33.59.8,1.07,1.34,1.4.7-.03,1.41-.21,2.07-.57l5.7-3.17Z" fill="#3a91cd"/><path d="M65.2,71.92l.55-.3s0,0,.01,0c0,0,.4-.23.95-.35.72-.16,1.37-.06,1.92.28.04.02.08.04.12.04.12.01.23-.04.3-.14.06-.09.07-.19.01-.29h0s0,0,0,0c0,0,0-.01,0-.02-.02-.04-.06-.08-.11-.11-.69-.43-1.52-.55-2.39-.35-.62.14-1.06.39-1.11.42l-.54.3-3.8,2.11.29.53,3.8-2.11Z" fill="#d45152"/><path d="M55.38,78.91c0-.65.26-1.25.77-1.78.4-.41.8-.62.8-.63,0,0,0,0,0,0l.55-.3,3.89-2.17-.29-.53-3.89,2.17-.54.3c-.06.03-.5.27-.95.72-.63.64-.96,1.41-.96,2.22,0,.05.02.1.05.15,0,0,.02.01.02.02h0s0,0,0,0c.05.08.15.14.25.14.12,0,.23-.07.28-.18.02-.04.03-.08.03-.13Z" fill="#5bb0e1"/><path d="M54.69,84.86s0,.01,0,.01c-.63-.07-1.26-.29-1.81-.69h0c-1.68-1.23-2.06-3.57-.84-5.26l3.14-4.34,3.13-4.33c1.22-1.68,3.57-2.07,5.25-.85h0c.55.4.97.92,1.23,1.49,0,0,0,0,0,0,.53,1.19.43,2.62-.39,3.75l-3.13,4.33-3.13,4.33c-.82,1.13-2.14,1.68-3.43,1.54Z" fill="#3a91cd"/><path d="M54.69,84.86c.62-.32,1.19-.78,1.62-1.39l3.83-5.3,1.12.81-3.13,4.34c-.82,1.13-2.14,1.68-3.43,1.54Z" fill="#a72f2c"/><path d="M52.87,84.19c-1.68-1.23-2.06-3.57-.84-5.26l3.14-4.34,4.97,3.59-3.83,5.3c-.44.61-1,1.08-1.63,1.4-.63-.07-1.27-.29-1.82-.69h0Z" fill="#bd3532"/><path d="M63.97,72.89c.44-.61.7-1.3.81-1.99.54,1.19.43,2.62-.39,3.76l-3.13,4.33-1.12-.81,3.82-5.29Z" fill="#2381a9"/><path d="M60.14,78.18l-4.97-3.59,3.13-4.33c1.22-1.68,3.57-2.07,5.25-.85h0c.55.4.97.92,1.23,1.49-.11.7-.37,1.38-.81,1.98l-3.82,5.29Z" fill="#3a91cd"/><path d="M53.79,78.95l-.37.51s0,0,0,.01c0,0-.28.37-.46.91-.24.7-.22,1.35.05,1.94.02.04.03.08.03.13,0,.12-.07.23-.18.28-.1.05-.2.04-.29-.02h0s0,0,0,0c0,0,0,0-.01,0-.04-.03-.07-.07-.1-.12-.34-.74-.37-1.57-.07-2.42.21-.6.51-1,.55-1.06l.36-.5,2.54-3.52.49.35-2.55,3.52Z" fill="#d45152"/><path d="M61.89,70.02c-.65-.08-1.27.11-1.86.56-.45.35-.71.72-.72.72,0,0,0,0,0,0l-.37.51-2.61,3.61-.49-.35,2.61-3.61.36-.5c.04-.05.33-.47.83-.85.71-.55,1.51-.79,2.32-.69.05,0,.1.03.14.06,0,0,0,0,.01.01,0,0,0,0,0,0h0c.08.06.12.17.11.27-.01.12-.1.22-.21.26-.04.01-.08.02-.13.01Z" fill="#5bb0e1"/><path d="M75.49,81.14s0,0,0,0c.32.55.51,1.19.51,1.87h0c0,2.08-1.67,3.77-3.75,3.78l-5.35.03-5.35.03c-2.08.01-3.79-1.66-3.79-3.74h0c0-.68.17-1.32.49-1.87,0,0,0,0,0,0,.65-1.13,1.86-1.89,3.26-1.9l5.35-.03,5.35-.03c1.4,0,2.62.74,3.27,1.87Z" fill="#3a91cd"/><path d="M75.49,81.13c-.62-.31-1.33-.5-2.08-.49l-6.53.03v-1.38s5.34-.03,5.34-.03c1.4,0,2.62.74,3.27,1.86Z" fill="#a72f2c"/><path d="M76.01,83c0,2.08-1.67,3.77-3.75,3.78l-5.35.03-.03-6.14,6.53-.03c.75,0,1.46.18,2.08.49.32.55.51,1.19.51,1.87h0Z" fill="#bd3532"/><path d="M60.35,80.7c-.75,0-1.46.2-2.09.52.64-1.14,1.87-1.9,3.26-1.9l5.34-.03v1.38s-6.52.03-6.52.03Z" fill="#2381a9"/><path d="M66.87,80.67l.03,6.14-5.34.03c-2.08.01-3.78-1.66-3.78-3.74h0c0-.68.17-1.32.49-1.87.63-.32,1.33-.51,2.08-.51l6.53-.03Z" fill="#3a91cd"/><path d="M71.24,85.36h.62s0,0,.01,0c0,0,.46,0,1.01-.16.7-.22,1.22-.62,1.53-1.19.02-.04.05-.07.09-.1.09-.07.22-.08.33-.02.09.05.15.13.16.25h0s0,0,0,0c0,0,0,.01,0,.02,0,.05-.01.1-.04.15-.39.71-1.05,1.22-1.91,1.48-.61.18-1.11.18-1.18.18h-.62s-4.34.02-4.34.02v-.61s4.34-.02,4.34-.02Z" fill="#d45152"/><path d="M59.25,84.07c.32.57.84.96,1.55,1.17.55.16,1,.15,1.01.15,0,0,0,0,.01,0h.62s4.45-.02,4.45-.02v.61s-4.45.02-4.45.02h-.62c-.07,0-.57.01-1.18-.16-.86-.25-1.53-.76-1.93-1.46-.03-.05-.04-.1-.04-.15,0,0,0-.01,0-.02,0,0,0,0,0,0h0c0-.1.06-.2.16-.25.11-.06.24-.05.33.02.03.02.06.06.09.1Z" fill="#5bb0e1"/><path d="M71.24,77.26s-.02,0-.02,0c-.32-.55-.51-1.19-.51-1.87h0c0-2.08,1.68-3.77,3.76-3.77l5.35-.02,5.34-.02c2.08,0,3.77,1.67,3.77,3.75h0c0,.68-.17,1.32-.48,1.87,0,0,0,0,0,0-.65,1.13-1.87,1.89-3.26,1.89l-5.34.02-5.35.02c-1.4,0-2.61-.74-3.27-1.87Z" fill="#3a91cd"/><path d="M71.24,77.26c.62.31,1.33.5,2.08.5l6.53-.02v1.38s-5.35.02-5.35.02c-1.4,0-2.61-.74-3.27-1.87Z" fill="#a72f2c"/><path d="M70.71,75.39c0-2.08,1.68-3.76,3.76-3.77l5.36-.02.02,6.14-6.53.02c-.75,0-1.46-.18-2.09-.49-.32-.55-.51-1.19-.51-1.87h0Z" fill="#bd3532"/><path d="M86.38,77.72c.75,0,1.46-.2,2.09-.52-.65,1.13-1.87,1.89-3.27,1.9l-5.34.02v-1.38s6.52-.02,6.52-.02Z" fill="#2381a9"/><path d="M79.85,77.74l-.02-6.14,5.34-.02c2.08,0,3.77,1.67,3.77,3.75h0c0,.68-.17,1.32-.48,1.87-.63.32-1.33.51-2.08.51l-6.53.02Z" fill="#3a91cd"/><path d="M75.49,73.05h-.62s0,0-.01,0c0,0-.46,0-1.01.16-.7.22-1.22.61-1.54,1.18-.02.04-.05.07-.09.1-.09.07-.22.08-.33.02-.09-.05-.15-.13-.16-.25h0s0,0,0,0c0,0,0-.01,0-.02,0-.05.01-.1.04-.15.39-.71,1.06-1.22,1.91-1.48.61-.18,1.11-.18,1.18-.18h.62s4.34-.01,4.34-.01v.61s-4.34.01-4.34.01Z" fill="#d45152"/><path d="M87.48,74.35c-.32-.57-.84-.96-1.54-1.18-.55-.16-1-.15-1.01-.15,0,0,0,0-.01,0h-.62s-4.45.02-4.45.02v-.61s4.45-.01,4.45-.01h.62c.07,0,.57-.01,1.18.17.86.25,1.53.76,1.92,1.47.03.05.04.1.04.15,0,0,0,.01,0,.02,0,0,0,0,0,0h0c0,.1-.06.2-.16.25-.11.06-.24.05-.33-.02-.03-.03-.06-.06-.09-.1Z" fill="#5bb0e1"/><path d="M73.7,84.3s-.01,0-.01,0c-.32-.55-.51-1.19-.51-1.87h0c0-2.08,1.67-3.77,3.75-3.78l5.35-.03,5.35-.03c2.08-.01,3.78,1.66,3.78,3.74h0c0,.68-.17,1.32-.48,1.87,0,0,0,0,0,0-.65,1.13-1.86,1.89-3.26,1.9l-5.34.03-5.35.03c-1.4,0-2.62-.74-3.27-1.87Z" fill="#3a91cd"/><path d="M73.7,84.3c.62.31,1.33.5,2.08.49l6.53-.03v1.38s-5.34.03-5.34.03c-1.4,0-2.62-.74-3.27-1.87Z" fill="#a72f2c"/><path d="M73.17,82.43c0-2.08,1.67-3.77,3.75-3.78l5.35-.03.03,6.14-6.53.03c-.75,0-1.46-.18-2.09-.49-.32-.55-.51-1.19-.51-1.87h0Z" fill="#bd3532"/><path d="M88.84,84.73c.75,0,1.46-.2,2.09-.52-.65,1.14-1.87,1.9-3.26,1.9l-5.34.03v-1.38s6.52-.03,6.52-.03Z" fill="#2381a9"/><path d="M82.31,84.76l-.03-6.14,5.34-.03c2.08-.01,3.78,1.66,3.78,3.74h0c0,.68-.17,1.32-.48,1.87-.63.32-1.33.51-2.08.51l-6.53.03Z" fill="#3a91cd"/><path d="M77.94,80.08h-.62s0,0-.01,0c0,0-.46,0-1.01.16-.7.22-1.22.62-1.53,1.19-.02.04-.05.07-.09.1-.09.07-.22.08-.33.02-.09-.05-.15-.13-.16-.25h0s0,0,0,0c0,0,0-.01,0-.02,0-.05.01-.1.04-.15.39-.71,1.05-1.22,1.91-1.48.61-.18,1.11-.18,1.18-.18h.62s4.34-.02,4.34-.02v.61s-4.34.02-4.34.02Z" fill="#d45152"/><path d="M89.93,81.36c-.32-.57-.84-.96-1.55-1.17-.55-.16-1-.15-1.01-.15,0,0,0,0-.01,0h-.62s-4.45.02-4.45.02v-.61s4.45-.02,4.45-.02h.62c.07,0,.57-.01,1.18.16.86.25,1.53.76,1.93,1.46.03.05.04.1.04.15,0,0,0,.01,0,.02,0,0,0,0,0,0h0c0,.1-.06.2-.16.25-.11.06-.24.05-.33-.02-.03-.03-.06-.06-.09-.1Z" fill="#5bb0e1"/><path d="M81.3,80.18s.01,0,.01,0c.15.62.15,1.29-.05,1.94h0c-.6,1.99-2.69,3.13-4.68,2.54l-5.13-1.52-5.12-1.52c-1.99-.59-3.14-2.68-2.54-4.67h0c.2-.65.54-1.22,1-1.65,0,0,0,0,0,0,.95-.9,2.33-1.27,3.67-.88l5.12,1.52,5.13,1.52c1.34.4,2.29,1.46,2.59,2.73Z" fill="#3a91cd"/><path d="M81.3,80.18c-.51-.48-1.13-.86-1.85-1.07l-6.27-1.85.39-1.32,5.13,1.52c1.34.4,2.29,1.46,2.59,2.73Z" fill="#a72f2c"/><path d="M81.27,82.12c-.6,1.99-2.69,3.13-4.68,2.54l-5.13-1.52,1.74-5.88,6.26,1.85c.72.21,1.35.59,1.86,1.07.15.62.15,1.29-.05,1.94h0Z" fill="#bd3532"/><path d="M66.93,75.4c-.72-.21-1.46-.23-2.15-.1.95-.9,2.33-1.28,3.67-.88l5.12,1.52-.39,1.32-6.26-1.85Z" fill="#2381a9"/><path d="M73.19,77.25l-1.74,5.88-5.12-1.52c-1.99-.59-3.14-2.68-2.54-4.67h0c.2-.65.54-1.22,1-1.66.69-.13,1.42-.1,2.14.11l6.26,1.85Z" fill="#3a91cd"/><path d="M76.02,83l.6.18s0,0,.01,0c0,0,.44.14,1.01.14.74,0,1.35-.24,1.81-.69.03-.03.07-.05.11-.07.11-.04.24-.01.32.08.08.08.11.17.08.28h0s0,0,0,0c0,0,0,.01,0,.02-.01.05-.04.09-.08.13-.58.57-1.36.87-2.26.87-.63,0-1.12-.15-1.18-.17l-.59-.18-4.17-1.23.17-.58,4.17,1.23Z" fill="#d45152"/><path d="M64.91,78.31c.14.64.53,1.16,1.14,1.57.48.31.92.43.92.44,0,0,0,0,0,0l.6.18,4.27,1.26-.17.58-4.27-1.26-.59-.18c-.06-.02-.55-.15-1.08-.5-.75-.49-1.24-1.17-1.42-1.96-.01-.05,0-.11,0-.15,0,0,0-.01,0-.02,0,0,0,0,0,0h0c.03-.09.12-.17.22-.19.12-.03.24.02.31.11.03.03.04.07.05.12Z" fill="#5bb0e1"/><path d="M98.05,75.01s.01,0,.01,0c-.01.63-.17,1.28-.52,1.87h0c-1.07,1.78-3.37,2.37-5.16,1.32l-4.61-2.73-4.6-2.72c-1.79-1.06-2.39-3.37-1.32-5.15h0c.35-.58.82-1.05,1.37-1.36,0,0,0,0,0,0,1.14-.64,2.57-.67,3.77.05l4.6,2.72,4.6,2.73c1.2.71,1.86,1.98,1.84,3.28Z" fill="#3a91cd"/><path d="M98.05,75.01c-.38-.59-.89-1.11-1.53-1.49l-5.62-3.33.7-1.18,4.6,2.73c1.2.71,1.87,1.98,1.85,3.28Z" fill="#a72f2c"/><path d="M97.54,76.88c-1.07,1.78-3.37,2.37-5.16,1.31l-4.61-2.73,3.13-5.28,5.62,3.33c.64.38,1.16.9,1.54,1.49,0,.63-.17,1.29-.52,1.87h0Z" fill="#bd3532"/><path d="M85.28,66.86c-.65-.38-1.35-.58-2.06-.63,1.14-.64,2.57-.67,3.78.05l4.6,2.72-.7,1.18-5.62-3.33Z" fill="#2381a9"/><path d="M90.9,70.18l-3.13,5.28-4.59-2.72c-1.79-1.06-2.39-3.37-1.32-5.15h0c.35-.58.82-1.05,1.38-1.36.7.05,1.4.25,2.05.63l5.61,3.33Z" fill="#3a91cd"/><path d="M92.24,76.45l.54.32s0,0,.01,0c0,0,.39.24.94.38.72.18,1.36.1,1.93-.23.04-.02.08-.04.12-.04.12-.01.23.04.29.15.05.09.06.19,0,.29h0s0,0,0,0c0,0,0,.01,0,.02-.03.04-.06.08-.11.11-.7.41-1.53.51-2.4.29-.62-.15-1.04-.42-1.1-.45l-.53-.32-3.74-2.21.31-.52,3.74,2.21Z" fill="#d45152"/><path d="M82.61,69.19c-.02.65.23,1.26.72,1.8.38.42.78.65.79.65,0,0,0,0,0,0l.54.32,3.83,2.27-.31.52-3.83-2.27-.53-.32c-.06-.03-.49-.28-.93-.75-.61-.66-.92-1.43-.9-2.25,0-.05,0-.1.03-.15,0,0,0-.01,0-.02h0s0,0,0,0c.06-.08.16-.14.27-.13.12,0,.23.08.28.19.02.04.03.08.03.13Z" fill="#5bb0e1"/><path d="M65.62,84.59s.02,0,.02,0c.32.55.52,1.19.52,1.87h0c0,2.08-1.67,3.77-3.75,3.78l-5.36.03-5.34.03c-2.08.01-3.78-1.66-3.78-3.74h0c0-.68.17-1.32.48-1.87,0,0,0,0,0,0,.65-1.13,1.86-1.89,3.26-1.9l5.34-.03,5.35-.03c1.4,0,2.62.74,3.27,1.87Z" fill="#3a91cd"/><path d="M65.62,84.59c-.62-.31-1.33-.5-2.08-.49l-6.53.03v-1.38s5.34-.03,5.34-.03c1.4,0,2.62.74,3.27,1.86Z" fill="#a72f2c"/><path d="M66.15,86.46c0,2.08-1.67,3.77-3.75,3.78l-5.36.03-.03-6.14,6.53-.03c.75,0,1.47.18,2.09.49.32.55.52,1.19.52,1.87h0Z" fill="#bd3532"/><path d="M50.48,84.16c-.75,0-1.46.2-2.09.52.65-1.14,1.87-1.9,3.26-1.9l5.34-.03v1.38s-6.52.03-6.52.03Z" fill="#2381a9"/><path d="M57.01,84.13l.03,6.14-5.34.03c-2.08.01-3.78-1.66-3.78-3.74h0c0-.68.17-1.32.48-1.87.63-.32,1.33-.51,2.08-.51l6.52-.03Z" fill="#3a91cd"/><path d="M61.38,88.81h.62s0,0,.01,0c0,0,.46,0,1.01-.16.7-.22,1.22-.62,1.53-1.19.02-.04.05-.07.09-.1.09-.07.22-.08.33-.02.09.05.15.13.16.25h0s0,0,0,0c0,0,0,.01,0,.02,0,.05-.01.1-.04.15-.39.71-1.05,1.22-1.91,1.48-.61.18-1.11.18-1.18.18h-.62s-4.34.02-4.34.02v-.61s4.34-.02,4.34-.02Z" fill="#d45152"/><path d="M49.39,87.53c.32.57.84.96,1.55,1.17.55.16,1,.15,1.01.15,0,0,0,0,.01,0h.62s4.45-.02,4.45-.02v.61s-4.45.02-4.45.02h-.62c-.07,0-.57.01-1.18-.16-.86-.25-1.53-.76-1.93-1.46-.03-.05-.04-.1-.04-.15,0,0,0-.01,0-.02,0,0,0,0,0,0h0c0-.1.06-.2.16-.25.11-.06.24-.05.33.02.03.03.06.06.09.1Z" fill="#5bb0e1"/><path d="M96.44,88.94s.01,0,.01,0c.32.55.52,1.19.52,1.87h0c0,2.08-1.67,3.77-3.75,3.78l-5.35.03-5.34.03c-2.08.01-3.78-1.66-3.78-3.74h0c0-.68.17-1.32.48-1.87,0,0,0,0,0,0,.65-1.13,1.86-1.89,3.26-1.9l5.34-.03,5.35-.03c1.4,0,2.62.74,3.27,1.87Z" fill="#3a91cd"/><path d="M96.44,88.94c-.62-.31-1.33-.5-2.08-.49l-6.54.03v-1.38s5.34-.03,5.34-.03c1.4,0,2.62.74,3.27,1.86Z" fill="#a72f2c"/><path d="M96.97,90.81c0,2.08-1.67,3.77-3.75,3.78l-5.36.03-.03-6.14,6.53-.03c.75,0,1.46.18,2.09.49.32.55.52,1.19.52,1.87h0Z" fill="#bd3532"/><path d="M81.3,88.51c-.75,0-1.46.2-2.09.52.65-1.14,1.87-1.9,3.26-1.9l5.34-.03v1.38s-6.52.03-6.52.03Z" fill="#2381a9"/><path d="M87.83,88.47l.03,6.14-5.34.03c-2.08.01-3.78-1.66-3.78-3.74h0c0-.68.17-1.32.48-1.87.63-.32,1.33-.51,2.08-.51l6.53-.03Z" fill="#3a91cd"/><path d="M92.2,93.16h.62s0,0,.01,0c0,0,.46,0,1.01-.16.7-.22,1.22-.62,1.53-1.19.02-.04.05-.07.09-.1.09-.07.22-.08.33-.02.09.05.15.13.16.25h0s0,0,0,0c0,0,0,.01,0,.02,0,.05-.01.1-.04.15-.39.71-1.05,1.22-1.91,1.48-.61.18-1.11.18-1.18.18h-.62s-4.34.02-4.34.02v-.61s4.34-.02,4.34-.02Z" fill="#d45152"/><path d="M80.21,91.88c.32.57.84.96,1.55,1.17.55.16,1,.15,1.01.15,0,0,0,0,.01,0h.62s4.45-.02,4.45-.02v.61s-4.45.02-4.45.02h-.62c-.07,0-.57.01-1.18-.16-.86-.25-1.53-.76-1.93-1.46-.03-.05-.04-.1-.04-.15,0,0,0-.01,0-.02,0,0,0,0,0,0h0c0-.1.06-.2.16-.25.11-.06.24-.05.33.02.03.02.06.06.09.1Z" fill="#5bb0e1"/><path d="M94.13,99.2s0,0,0,0c.42-.47.74-1.06.88-1.72h0c.44-2.03-.84-4.03-2.87-4.47l-5.23-1.14-5.22-1.13c-2.03-.44-4.04.84-4.48,2.87h0c-.14.67-.11,1.33.09,1.93,0,0,0,0,0,0,.4,1.24,1.43,2.24,2.79,2.53l5.22,1.13,5.23,1.14c1.36.3,2.71-.18,3.59-1.15Z" fill="#3a91cd"/><path d="M94.13,99.2c-.68.18-1.41.21-2.13.05l-6.39-1.39-.29,1.34,5.23,1.14c1.36.3,2.71-.18,3.58-1.15Z" fill="#a72f2c"/><path d="M95.01,97.47c.44-2.03-.84-4.03-2.87-4.47l-5.23-1.14-1.3,6,6.39,1.39c.73.16,1.46.13,2.13-.05.43-.47.74-1.06.88-1.73h0Z" fill="#bd3532"/><path d="M79.23,96.48c-.73-.16-1.39-.5-1.93-.94.4,1.25,1.43,2.24,2.8,2.54l5.22,1.13.29-1.34-6.38-1.39Z" fill="#2381a9"/><path d="M85.61,97.86l1.3-6-5.22-1.13c-2.03-.44-4.04.84-4.48,2.87h0c-.14.67-.11,1.33.09,1.93.55.45,1.2.78,1.93.94l6.38,1.39Z" fill="#3a91cd"/><path d="M90.86,94.19l.61.13s0,0,0,0c0,0,.45.09.95.37.64.36,1.07.86,1.25,1.48.01.04.04.08.06.11.08.09.2.12.32.09.1-.03.18-.1.21-.21h0s0,0,0,0c0,0,0-.01,0-.02.01-.05,0-.1,0-.15-.24-.78-.78-1.41-1.56-1.85-.56-.31-1.05-.4-1.11-.42l-.61-.13-4.25-.92-.13.59,4.25.92Z" fill="#d45152"/><path d="M78.86,92.95c.43-.49,1.02-.77,1.76-.83.57-.05,1.01.06,1.02.06,0,0,0,0,.01,0l.61.13,4.35.95.13-.59-4.35-.95-.61-.13c-.06-.01-.56-.13-1.19-.08-.89.07-1.65.42-2.19,1.03-.04.04-.06.09-.07.14,0,0,0,.01,0,.02,0,0,0,0,0,0h0c-.01.1.02.2.1.28.09.08.22.1.33.05.04-.02.07-.04.1-.08Z" fill="#5bb0e1"/><path d="M70.24,87.06s0,0,0,0c0-.63-.15-1.28-.48-1.87h0c-1.01-1.82-3.3-2.47-5.11-1.46l-4.67,2.6-4.67,2.6c-1.82,1.01-2.47,3.3-1.46,5.12h0c.33.59.8,1.07,1.34,1.39,0,0,0,0,0,0,1.12.67,2.55.73,3.77.05l4.67-2.6,4.67-2.6c1.22-.68,1.92-1.93,1.93-3.23Z" fill="#3a91cd"/><path d="M70.24,87.06c-.39.58-.92,1.09-1.57,1.45l-5.71,3.18.67,1.2,4.68-2.6c1.22-.68,1.92-1.93,1.93-3.23Z" fill="#a72f2c"/><path d="M69.77,85.18c-1.01-1.82-3.3-2.47-5.11-1.46l-4.68,2.6,2.98,5.36,5.71-3.18c.65-.36,1.18-.87,1.57-1.45,0-.64-.15-1.29-.48-1.88h0Z" fill="#bd3532"/><path d="M57.26,94.86c-.66.37-1.37.54-2.07.57,1.12.67,2.55.74,3.78.06l4.67-2.6-.67-1.2-5.7,3.17Z" fill="#2381a9"/><path d="M62.96,91.69l-2.98-5.36-4.67,2.6c-1.82,1.01-2.47,3.3-1.46,5.12h0c.33.59.8,1.07,1.34,1.4.7-.03,1.41-.21,2.07-.57l5.7-3.17Z" fill="#3a91cd"/><path d="M64.47,85.46l.55-.3s0,0,.01,0c0,0,.4-.23.95-.35.72-.16,1.37-.06,1.92.28.04.02.08.04.12.04.12.01.23-.04.3-.14.06-.09.07-.19.01-.29h0s0,0,0,0c0,0,0-.01,0-.02-.02-.04-.06-.08-.11-.11-.69-.43-1.52-.55-2.39-.35-.62.14-1.06.39-1.11.42l-.54.3-3.8,2.11.29.53,3.8-2.11Z" fill="#d45152"/><path d="M54.65,92.46c0-.65.26-1.25.77-1.78.4-.41.8-.62.8-.63,0,0,0,0,0,0l.55-.3,3.89-2.17-.29-.53-3.89,2.17-.54.3c-.06.03-.5.27-.95.72-.63.64-.96,1.41-.96,2.22,0,.05.03.1.05.15,0,0,.02.01.02.02h0s-.01,0-.01,0c.05.08.14.14.25.14.12,0,.23-.07.28-.18.02-.04.02-.08.02-.13Z" fill="#5bb0e1"/><path d="M53.97,98.41s0,.01,0,.01c-.63-.07-1.26-.29-1.81-.69h0c-1.68-1.23-2.06-3.57-.84-5.26l3.14-4.34,3.13-4.33c1.22-1.68,3.57-2.07,5.25-.85h0c.55.4.97.92,1.23,1.49,0,0,0,0,0,0,.53,1.19.43,2.62-.39,3.75l-3.13,4.33-3.13,4.33c-.82,1.13-2.14,1.68-3.43,1.54Z" fill="#3a91cd"/><path d="M53.97,98.41c.62-.32,1.19-.78,1.62-1.39l3.83-5.3,1.12.81-3.13,4.34c-.82,1.13-2.14,1.68-3.43,1.54Z" fill="#a72f2c"/><path d="M52.15,97.73c-1.68-1.23-2.06-3.57-.84-5.26l3.14-4.34,4.97,3.59-3.83,5.3c-.44.61-1,1.08-1.63,1.4-.63-.07-1.27-.29-1.82-.69h0Z" fill="#bd3532"/><path d="M63.24,86.43c.44-.61.7-1.3.81-1.99.54,1.19.43,2.62-.39,3.76l-3.13,4.33-1.12-.81,3.82-5.29Z" fill="#2381a9"/><path d="M59.42,91.73l-4.97-3.59,3.13-4.33c1.22-1.68,3.57-2.07,5.25-.85h0c.55.4.97.92,1.23,1.49-.11.7-.37,1.38-.81,1.98l-3.82,5.29Z" fill="#3a91cd"/><path d="M53.06,92.49l-.37.51s0,0,0,.01c0,0-.28.37-.46.91-.24.7-.22,1.35.05,1.94.02.04.03.08.03.13,0,.12-.07.23-.18.28-.1.05-.2.04-.29-.02h0s0,0,0,0c0,0,0,0-.01,0-.04-.03-.07-.07-.1-.12-.34-.74-.37-1.57-.07-2.42.21-.6.51-1,.55-1.06l.36-.5,2.55-3.52.49.35-2.55,3.52Z" fill="#d45152"/><path d="M61.16,83.56c-.65-.08-1.27.11-1.86.56-.45.35-.71.72-.72.72,0,0,0,0,0,0l-.37.51-2.61,3.61-.49-.35,2.61-3.61.36-.5c.04-.05.33-.47.83-.85.71-.55,1.51-.79,2.32-.69.05,0,.1.03.14.06,0,0,0,0,.01.01,0,0,0,0,0,0h0c.08.06.12.17.11.27-.01.12-.1.22-.21.26-.04.01-.08.02-.13.01Z" fill="#5bb0e1"/><path d="M74.76,94.68s.01,0,.01,0c.32.55.52,1.19.52,1.87h0c0,2.08-1.67,3.77-3.75,3.78l-5.35.03-5.34.03c-2.08.01-3.78-1.66-3.78-3.74h0c0-.68.17-1.32.48-1.87,0,0,0,0,0,0,.65-1.13,1.86-1.89,3.26-1.9l5.34-.03,5.35-.03c1.4,0,2.62.74,3.27,1.87Z" fill="#3a91cd"/><path d="M74.76,94.68c-.62-.31-1.33-.5-2.08-.49l-6.53.03v-1.38s5.34-.03,5.34-.03c1.4,0,2.62.74,3.27,1.86Z" fill="#a72f2c"/><path d="M75.29,96.55c0,2.08-1.67,3.77-3.75,3.78l-5.36.03-.03-6.14,6.53-.03c.75,0,1.46.18,2.09.49.32.55.52,1.19.52,1.87h0Z" fill="#bd3532"/><path d="M59.62,94.25c-.75,0-1.46.2-2.09.52.64-1.14,1.87-1.89,3.26-1.9l5.34-.03v1.38s-6.52.03-6.52.03Z" fill="#2381a9"/><path d="M66.15,94.22l.03,6.14-5.34.03c-2.08.01-3.78-1.66-3.78-3.74h0c0-.68.17-1.32.48-1.87.63-.32,1.33-.51,2.08-.51l6.53-.03Z" fill="#3a91cd"/><path d="M70.52,98.9h.62s0,0,.01,0c0,0,.46,0,1.01-.16.7-.22,1.22-.62,1.53-1.19.02-.04.05-.07.09-.1.09-.07.22-.08.33-.02.09.05.15.13.16.25h0s0,0,0,0c0,0,0,.01,0,.02,0,.05-.01.1-.04.15-.39.71-1.05,1.22-1.91,1.48-.61.18-1.11.18-1.18.18h-.62s-4.34.02-4.34.02v-.61s4.34-.02,4.34-.02Z" fill="#d45152"/><path d="M58.53,97.62c.32.57.84.96,1.55,1.17.55.16,1,.15,1.01.15,0,0,0,0,.01,0h.62s4.45-.02,4.45-.02v.61s-4.45.02-4.45.02h-.62c-.07,0-.57.01-1.18-.16-.86-.25-1.53-.76-1.93-1.46-.03-.05-.04-.1-.04-.15,0,0,0-.01,0-.02,0,0,0,0,0,0h0c0-.1.06-.2.16-.25.11-.06.24-.05.33.02.03.03.06.06.09.1Z" fill="#5bb0e1"/><path d="M70.51,90.8s0,0,0,0c-.32-.55-.51-1.19-.51-1.87h0c0-2.08,1.67-3.77,3.75-3.77l5.35-.02,5.35-.02c2.08,0,3.78,1.67,3.78,3.75h0c0,.68-.17,1.32-.49,1.87,0,0,0,0,0,0-.65,1.13-1.87,1.89-3.26,1.89l-5.34.02-5.35.02c-1.4,0-2.62-.74-3.27-1.87Z" fill="#3a91cd"/><path d="M70.51,90.8c.62.31,1.33.5,2.08.5l6.53-.02v1.38s-5.35.02-5.35.02c-1.4,0-2.61-.74-3.27-1.87Z" fill="#a72f2c"/><path d="M70,88.94c0-2.08,1.67-3.76,3.75-3.77l5.35-.02.02,6.14-6.53.02c-.75,0-1.46-.18-2.08-.49-.32-.55-.51-1.19-.51-1.87h0Z" fill="#bd3532"/><path d="M85.65,91.26c.75,0,1.46-.2,2.09-.52-.65,1.13-1.87,1.89-3.27,1.9l-5.34.02v-1.38s6.52-.02,6.52-.02Z" fill="#2381a9"/><path d="M79.13,91.28l-.02-6.14,5.34-.02c2.08,0,3.78,1.67,3.78,3.75h0c0,.68-.17,1.32-.49,1.87-.63.32-1.33.51-2.08.51l-6.53.02Z" fill="#3a91cd"/><path d="M74.77,86.59h-.62s0,0-.01,0c0,0-.46,0-1.01.16-.7.22-1.22.61-1.54,1.18-.02.04-.05.07-.09.1-.09.07-.22.08-.33.02-.09-.05-.15-.13-.16-.25h0s0,0,0,0c0,0,0-.01,0-.02,0-.05.01-.1.04-.15.39-.71,1.06-1.22,1.91-1.48.61-.18,1.11-.18,1.18-.18h.62s4.34-.01,4.34-.01v.61s-4.34.01-4.34.01Z" fill="#d45152"/><path d="M86.75,87.9c-.32-.57-.84-.96-1.54-1.18-.55-.16-1-.15-1.01-.15,0,0,0,0-.01,0h-.62s-4.45.02-4.45.02v-.61s4.45-.01,4.45-.01h.62c.07,0,.57-.01,1.18.17.86.25,1.53.76,1.92,1.47.03.05.04.1.04.15,0,0,0,.01,0,.02,0,0,0,0,0,0h0c0,.1-.06.2-.16.25-.11.06-.24.05-.33-.02-.03-.03-.06-.06-.09-.1Z" fill="#5bb0e1"/><path d="M72.97,97.84s-.02,0-.02,0c-.32-.55-.52-1.19-.52-1.87h0c0-2.08,1.67-3.77,3.75-3.78l5.36-.03,5.34-.03c2.08-.01,3.78,1.66,3.78,3.74h0c0,.68-.17,1.32-.48,1.87,0,0,0,0,0,0-.65,1.13-1.86,1.89-3.26,1.9l-5.34.03-5.35.03c-1.4,0-2.62-.74-3.27-1.87Z" fill="#3a91cd"/><path d="M72.97,97.84c.62.31,1.33.5,2.08.49l6.54-.03v1.38s-5.34.03-5.34.03c-1.4,0-2.62-.74-3.27-1.86Z" fill="#a72f2c"/><path d="M72.44,95.98c0-2.08,1.67-3.77,3.75-3.78l5.36-.03.03,6.14-6.53.03c-.75,0-1.47-.18-2.09-.49-.32-.55-.52-1.19-.52-1.87h0Z" fill="#bd3532"/><path d="M88.11,98.28c.75,0,1.46-.2,2.09-.52-.65,1.14-1.87,1.9-3.26,1.9l-5.34.03v-1.38s6.52-.03,6.52-.03Z" fill="#2381a9"/><path d="M81.58,98.31l-.03-6.14,5.34-.03c2.08-.01,3.78,1.66,3.78,3.74h0c0,.68-.17,1.32-.48,1.87-.63.32-1.33.51-2.08.51l-6.52.03Z" fill="#3a91cd"/><path d="M77.22,93.62h-.62s0,0-.01,0c0,0-.46,0-1.01.16-.7.22-1.22.62-1.53,1.19-.02.04-.05.07-.09.1-.09.07-.22.08-.33.02-.09-.05-.15-.13-.16-.25h0s0,0,0,0c0,0,0-.01,0-.02,0-.05.01-.1.04-.15.39-.71,1.05-1.22,1.91-1.48.61-.18,1.11-.18,1.18-.18h.62s4.34-.02,4.34-.02v.61s-4.34.02-4.34.02Z" fill="#d45152"/><path d="M89.2,94.9c-.32-.57-.84-.96-1.55-1.17-.55-.16-1-.15-1.01-.15,0,0,0,0-.01,0h-.62s-4.45.02-4.45.02v-.61s4.45-.02,4.45-.02h.62c.07,0,.57-.01,1.18.16.86.25,1.53.76,1.93,1.46.03.05.04.1.04.15,0,0,0,.01,0,.02,0,0,0,0,0,0h0c0,.1-.06.2-.16.25-.11.06-.24.05-.33-.02-.03-.02-.06-.06-.09-.1Z" fill="#5bb0e1"/><path d="M80.58,93.73s.01,0,.01,0c.15.62.15,1.29-.05,1.94h0c-.6,1.99-2.69,3.13-4.68,2.54l-5.13-1.52-5.12-1.52c-1.99-.59-3.14-2.68-2.54-4.67h0c.2-.65.54-1.22,1-1.65,0,0,0,0,0,0,.95-.9,2.33-1.27,3.67-.88l5.12,1.52,5.13,1.52c1.34.4,2.29,1.46,2.59,2.73Z" fill="#3a91cd"/><path d="M80.58,93.73c-.51-.48-1.13-.86-1.85-1.07l-6.27-1.86.39-1.32,5.13,1.52c1.34.4,2.29,1.46,2.59,2.73Z" fill="#a72f2c"/><path d="M80.54,95.67c-.6,1.99-2.69,3.13-4.68,2.54l-5.13-1.52,1.74-5.88,6.27,1.85c.72.21,1.35.59,1.86,1.07.15.62.15,1.29-.05,1.94h0Z" fill="#bd3532"/><path d="M66.21,88.95c-.72-.21-1.45-.23-2.15-.1.95-.9,2.33-1.28,3.67-.88l5.12,1.52-.39,1.32-6.26-1.85Z" fill="#2381a9"/><path d="M72.47,90.8l-1.74,5.88-5.12-1.52c-1.99-.59-3.14-2.68-2.54-4.67h0c.2-.65.54-1.22,1-1.66.69-.13,1.42-.1,2.14.11l6.26,1.85Z" fill="#3a91cd"/><path d="M75.3,96.54l.6.18s0,0,.01,0c0,0,.44.14,1.01.14.74,0,1.35-.24,1.81-.69.03-.03.07-.05.11-.07.11-.04.24-.01.32.08.08.08.11.17.08.28h0s0,0,0,0c0,0,0,.01,0,.02-.01.05-.04.09-.08.13-.58.57-1.36.87-2.26.87-.63,0-1.12-.15-1.18-.17l-.59-.18-4.17-1.23.17-.58,4.17,1.23Z" fill="#d45152"/><path d="M64.19,91.86c.14.64.53,1.16,1.14,1.57.48.31.92.43.92.44,0,0,0,0,0,0l.6.18,4.27,1.26-.17.58-4.27-1.26-.59-.18c-.06-.02-.55-.15-1.08-.5-.75-.49-1.24-1.17-1.42-1.96-.01-.05,0-.11,0-.15,0,0,0-.01,0-.02,0,0,0,0,0,0h0c.03-.09.12-.17.22-.19.12-.03.24.02.31.11.03.03.04.07.05.12Z" fill="#5bb0e1"/><path d="M97.32,88.55s.01,0,.01,0c-.01.63-.17,1.28-.52,1.87h0c-1.07,1.78-3.37,2.38-5.16,1.32l-4.61-2.73-4.6-2.72c-1.79-1.06-2.39-3.37-1.32-5.15h0c.35-.58.82-1.05,1.37-1.36,0,0,0,0,0,0,1.14-.64,2.57-.67,3.77.05l4.6,2.72,4.6,2.73c1.2.71,1.86,1.98,1.84,3.28Z" fill="#3a91cd"/><path d="M97.32,88.55c-.37-.59-.89-1.11-1.53-1.49l-5.62-3.33.7-1.18,4.6,2.73c1.2.71,1.87,1.98,1.85,3.28Z" fill="#a72f2c"/><path d="M96.81,90.43c-1.07,1.78-3.37,2.37-5.16,1.31l-4.61-2.73,3.13-5.28,5.62,3.33c.64.38,1.16.9,1.54,1.49,0,.64-.17,1.29-.52,1.87h0Z" fill="#bd3532"/><path d="M84.56,80.4c-.65-.38-1.35-.58-2.06-.63,1.14-.64,2.57-.67,3.78.05l4.6,2.72-.7,1.18-5.62-3.33Z" fill="#2381a9"/><path d="M90.17,83.73l-3.13,5.28-4.59-2.72c-1.79-1.06-2.39-3.37-1.32-5.15h0c.35-.58.82-1.05,1.38-1.36.7.05,1.4.25,2.05.63l5.61,3.33Z" fill="#3a91cd"/><path d="M91.51,89.99l.54.32s0,0,.01,0c0,0,.39.24.94.38.72.18,1.36.1,1.93-.23.04-.02.08-.04.12-.04.12-.01.23.05.29.15.05.09.06.19,0,.29h0s0,0,0,0c0,0,0,.01,0,.02-.03.04-.06.08-.11.11-.7.41-1.53.51-2.4.29-.62-.15-1.04-.42-1.1-.45l-.53-.32-3.74-2.21.31-.52,3.74,2.21Z" fill="#d45152"/><path d="M81.89,82.73c-.02.65.23,1.26.72,1.8.38.42.78.65.79.65,0,0,0,0,0,0l.54.32,3.83,2.27-.31.52-3.83-2.27-.53-.32c-.06-.03-.49-.28-.93-.75-.61-.66-.92-1.43-.9-2.25,0-.05,0-.1.03-.15,0,0,0-.01,0-.02h0s.02,0,.02,0c.06-.08.16-.14.27-.13.12,0,.23.08.28.19.02.04.03.08.03.13Z" fill="#5bb0e1"/><path d="M65.73,41.34s.02,0,.02,0c.32.55.52,1.19.52,1.87h0c0,2.08-1.68,3.77-3.75,3.78l-5.36.03-5.34.03c-2.08.01-3.78-1.66-3.78-3.74h0c0-.68.16-1.32.48-1.87,0,0,0,0,0,0,.65-1.13,1.86-1.89,3.26-1.9l5.34-.03,5.35-.03c1.4,0,2.62.74,3.27,1.87Z" fill="#3a91cd"/><path d="M65.73,41.34c-.62-.31-1.33-.5-2.08-.49l-6.53.03v-1.38s5.34-.03,5.34-.03c1.4,0,2.62.74,3.27,1.86Z" fill="#a72f2c"/><path d="M66.27,43.2c0,2.08-1.68,3.77-3.75,3.78l-5.36.03-.03-6.14,6.53-.03c.75,0,1.47.18,2.09.49.32.55.52,1.19.52,1.87h0Z" fill="#bd3532"/><path d="M50.59,40.9c-.75,0-1.46.2-2.09.52.64-1.14,1.87-1.9,3.26-1.9l5.34-.03v1.38s-6.52.03-6.52.03Z" fill="#2381a9"/><path d="M57.12,40.87l.03,6.14-5.34.03c-2.08.01-3.77-1.66-3.77-3.74h0c0-.68.16-1.32.48-1.87.63-.32,1.33-.51,2.08-.51l6.52-.03Z" fill="#3a91cd"/><path d="M61.49,45.56h.62s0,0,.01,0c0,0,.46,0,1.01-.16.7-.22,1.22-.62,1.53-1.19.02-.04.05-.07.09-.1.09-.07.22-.08.33-.02.09.05.15.13.16.25h0s0,0,0,0c0,0,0,.01,0,.02,0,.05-.01.1-.04.15-.39.71-1.05,1.22-1.91,1.48-.61.18-1.11.18-1.18.18h-.62s-4.34.02-4.34.02v-.61s4.34-.02,4.34-.02Z" fill="#d45152"/><path d="M49.5,44.28c.32.57.84.96,1.55,1.17.55.16,1,.15,1.01.15,0,0,0,0,.01,0h.62s4.45-.02,4.45-.02v.61s-4.45.02-4.45.02h-.62c-.07,0-.57.01-1.18-.16-.86-.25-1.53-.76-1.93-1.46-.03-.05-.04-.1-.04-.15,0,0,0-.01,0-.02,0,0,0,0,0,0h0c0-.1.06-.2.16-.25.11-.06.24-.05.33.02.03.03.06.06.09.1Z" fill="#5bb0e1"/><path d="M96.56,45.68s.02,0,.02,0c.32.55.52,1.19.52,1.87h0c0,2.08-1.67,3.77-3.75,3.78l-5.36.03-5.34.03c-2.08.01-3.78-1.66-3.78-3.74h0c0-.68.17-1.32.48-1.87,0,0,0,0,0,0,.65-1.13,1.86-1.89,3.26-1.9l5.34-.03,5.35-.03c1.4,0,2.62.74,3.27,1.87Z" fill="#3a91cd"/><path d="M96.56,45.68c-.62-.31-1.33-.5-2.08-.49l-6.53.03v-1.38s5.34-.03,5.34-.03c1.4,0,2.62.74,3.27,1.86Z" fill="#a72f2c"/><path d="M97.09,47.55c0,2.08-1.67,3.77-3.75,3.78l-5.36.03-.03-6.14,6.53-.03c.75,0,1.47.18,2.09.49.32.55.52,1.19.52,1.87h0Z" fill="#bd3532"/><path d="M81.42,45.25c-.75,0-1.46.2-2.09.52.65-1.14,1.87-1.9,3.26-1.9l5.34-.03v1.38s-6.52.03-6.52.03Z" fill="#2381a9"/><path d="M87.94,45.22l.03,6.14-5.34.03c-2.08.01-3.78-1.66-3.78-3.74h0c0-.68.17-1.32.48-1.87.63-.32,1.33-.51,2.08-.51l6.53-.03Z" fill="#3a91cd"/><path d="M92.31,49.9h.62s0,0,.01,0c0,0,.46,0,1.01-.16.7-.22,1.22-.62,1.53-1.19.02-.04.05-.07.09-.1.09-.07.22-.08.33-.02.09.05.15.13.16.25h0s0,0,0,0c0,0,0,.01,0,.02,0,.05-.01.1-.04.15-.39.71-1.05,1.22-1.91,1.48-.61.18-1.11.18-1.18.18h-.62s-4.34.02-4.34.02v-.61s4.34-.02,4.34-.02Z" fill="#d45152"/><path d="M80.32,48.62c.32.57.84.96,1.55,1.17.55.16,1,.15,1.01.15,0,0,0,0,.01,0h.62s4.45-.02,4.45-.02v.61s-4.45.02-4.45.02h-.62c-.07,0-.57.01-1.18-.16-.86-.25-1.53-.76-1.93-1.46-.03-.05-.04-.1-.04-.15,0,0,0-.01,0-.02,0,0,0,0,0,0h0c0-.1.06-.2.16-.25.11-.06.24-.05.33.02.03.02.06.06.09.1Z" fill="#5bb0e1"/><path d="M94.24,55.94s0,0,0,0c.42-.47.74-1.06.88-1.72h0c.44-2.03-.84-4.03-2.87-4.47l-5.23-1.14-5.22-1.13c-2.03-.44-4.04.84-4.48,2.87h0c-.14.67-.11,1.33.09,1.93,0,0,0,0,0,0,.4,1.24,1.43,2.24,2.79,2.53l5.22,1.14,5.23,1.14c1.36.3,2.71-.18,3.58-1.15Z" fill="#3a91cd"/><path d="M94.24,55.94c-.68.18-1.41.21-2.13.05l-6.39-1.39-.29,1.34,5.23,1.14c1.36.3,2.71-.18,3.58-1.15Z" fill="#a72f2c"/><path d="M95.13,54.22c.44-2.03-.84-4.03-2.87-4.47l-5.23-1.14-1.3,6,6.39,1.39c.73.16,1.46.13,2.13-.05.43-.47.74-1.06.88-1.73h0Z" fill="#bd3532"/><path d="M79.34,53.22c-.73-.16-1.39-.5-1.93-.94.39,1.25,1.43,2.24,2.8,2.54l5.22,1.13.29-1.34-6.38-1.39Z" fill="#2381a9"/><path d="M85.72,54.61l1.3-6-5.22-1.13c-2.03-.44-4.04.84-4.48,2.87h0c-.14.67-.11,1.33.09,1.93.55.45,1.2.78,1.93.94l6.38,1.39Z" fill="#3a91cd"/><path d="M90.97,50.93l.61.13s0,0,0,0c0,0,.45.09.95.37.64.36,1.07.86,1.25,1.48.01.04.03.08.06.11.08.09.2.13.32.09.1-.03.18-.09.21-.21h0s0,0,0,0c0,0,0-.01,0-.02.01-.05,0-.1,0-.15-.24-.78-.78-1.41-1.56-1.85-.56-.31-1.05-.4-1.11-.42l-.61-.13-4.25-.92-.13.59,4.25.92Z" fill="#d45152"/><path d="M78.98,49.7c.43-.49,1.02-.77,1.76-.83.57-.05,1.01.06,1.02.06,0,0,0,0,.01,0l.61.13,4.35.95.13-.59-4.35-.95-.61-.13c-.06-.01-.56-.13-1.19-.08-.89.07-1.65.42-2.19,1.03-.04.04-.06.09-.07.14,0,0,0,.01,0,.02,0,0,0,0,0,0h0c-.01.1.02.2.1.28.09.08.22.1.33.05.04-.02.07-.04.1-.08Z" fill="#5bb0e1"/><path d="M70.35,43.8s0,0,0,0c0-.63-.15-1.28-.48-1.87h0c-1.01-1.82-3.3-2.47-5.11-1.46l-4.67,2.6-4.67,2.6c-1.82,1.01-2.47,3.3-1.46,5.12h0c.33.59.8,1.07,1.34,1.39,0,0,0,0,0,0,1.12.67,2.55.73,3.77.05l4.67-2.6,4.67-2.6c1.22-.68,1.92-1.93,1.93-3.23Z" fill="#3a91cd"/><path d="M70.35,43.8c-.39.58-.92,1.09-1.57,1.45l-5.71,3.18.67,1.2,4.68-2.6c1.22-.68,1.92-1.93,1.93-3.23Z" fill="#a72f2c"/><path d="M69.88,41.93c-1.01-1.82-3.3-2.47-5.11-1.46l-4.68,2.6,2.98,5.36,5.71-3.18c.65-.36,1.18-.87,1.57-1.45,0-.64-.15-1.29-.48-1.88h0Z" fill="#bd3532"/><path d="M57.37,51.61c-.66.37-1.37.54-2.07.57,1.12.67,2.55.74,3.78.06l4.67-2.6-.67-1.2-5.7,3.17Z" fill="#2381a9"/><path d="M63.07,48.43l-2.98-5.36-4.67,2.6c-1.82,1.01-2.47,3.3-1.46,5.12h0c.33.59.8,1.07,1.34,1.4.7-.03,1.41-.21,2.07-.57l5.7-3.17Z" fill="#3a91cd"/><path d="M64.58,42.21l.55-.3s0,0,.01,0c0,0,.4-.23.95-.35.72-.16,1.37-.06,1.92.28.04.02.08.04.12.04.12.01.23-.04.3-.14.06-.09.07-.19.02-.29h0s0,0,0,0c0,0,0-.01,0-.02-.02-.04-.06-.08-.11-.11-.69-.43-1.52-.55-2.39-.35-.62.14-1.06.39-1.11.42l-.54.3-3.8,2.11.29.53,3.8-2.11Z" fill="#d45152"/><path d="M54.77,49.2c0-.65.26-1.25.77-1.78.4-.41.8-.62.8-.63,0,0,0,0,0,0l.55-.3,3.89-2.17-.29-.53-3.89,2.17-.54.3c-.06.03-.5.27-.95.72-.63.64-.96,1.41-.96,2.22,0,.05.02.1.04.15,0,0,.01.01.01.02h0s0,0,0,0c.05.08.15.14.26.14.12,0,.23-.07.28-.18.02-.04.03-.08.03-.13Z" fill="#5bb0e1"/><path d="M54.08,55.15s0,.01,0,.01c-.63-.07-1.26-.29-1.81-.69h0c-1.68-1.23-2.06-3.57-.84-5.26l3.14-4.34,3.13-4.33c1.22-1.68,3.57-2.07,5.25-.85h0c.55.4.97.92,1.23,1.49,0,0,0,0,0,0,.53,1.19.43,2.62-.39,3.75l-3.13,4.33-3.13,4.33c-.82,1.13-2.14,1.68-3.43,1.54Z" fill="#3a91cd"/><path d="M54.08,55.15c.62-.32,1.19-.78,1.62-1.39l3.83-5.3,1.12.81-3.13,4.34c-.82,1.13-2.14,1.68-3.43,1.54Z" fill="#a72f2c"/><path d="M52.26,54.48c-1.68-1.23-2.06-3.57-.84-5.26l3.14-4.34,4.97,3.59-3.83,5.3c-.44.61-1,1.08-1.63,1.4-.63-.07-1.27-.29-1.82-.69h0Z" fill="#bd3532"/><path d="M63.35,43.18c.44-.61.7-1.3.81-1.99.54,1.19.43,2.62-.39,3.76l-3.13,4.33-1.12-.81,3.82-5.29Z" fill="#2381a9"/><path d="M59.53,48.47l-4.97-3.59,3.13-4.33c1.22-1.68,3.57-2.07,5.25-.85h0c.55.4.97.92,1.23,1.49-.11.7-.37,1.38-.81,1.98l-3.82,5.29Z" fill="#3a91cd"/><path d="M53.17,49.24l-.37.51s0,0,0,.01c0,0-.28.37-.46.91-.24.7-.22,1.35.05,1.94.02.04.03.08.03.13,0,.12-.07.23-.18.28-.1.05-.2.04-.29-.02h0s0,0,0,0c0,0,0,0-.01,0-.04-.03-.07-.07-.1-.12-.34-.74-.37-1.57-.07-2.42.21-.6.51-1,.55-1.06l.36-.5,2.55-3.52.49.35-2.55,3.52Z" fill="#d45152"/><path d="M61.28,40.31c-.65-.08-1.27.11-1.86.56-.45.35-.71.72-.72.72,0,0,0,0,0,0l-.37.51-2.61,3.61-.49-.35,2.61-3.61.36-.5c.04-.05.33-.47.83-.85.71-.55,1.51-.79,2.32-.69.05,0,.1.03.14.06,0,0,.01,0,.01.01,0,0,0,0,0,0h0c.08.06.12.17.11.27-.01.12-.1.22-.21.26-.04.01-.08.02-.13.01Z" fill="#5bb0e1"/><path d="M74.87,51.43s.02,0,.02,0c.32.55.52,1.19.52,1.87h0c0,2.08-1.67,3.77-3.75,3.78l-5.36.03-5.34.03c-2.08.01-3.78-1.66-3.78-3.74h0c0-.68.17-1.32.48-1.87,0,0,0,0,0,0,.65-1.13,1.86-1.89,3.26-1.9l5.34-.03,5.35-.03c1.4,0,2.62.74,3.27,1.87Z" fill="#3a91cd"/><path d="M74.87,51.42c-.62-.31-1.33-.5-2.08-.49l-6.53.03v-1.38s5.34-.03,5.34-.03c1.4,0,2.62.74,3.27,1.86Z" fill="#a72f2c"/><path d="M75.41,53.29c0,2.08-1.67,3.77-3.75,3.78l-5.36.03-.03-6.14,6.53-.03c.75,0,1.47.18,2.09.49.32.55.52,1.19.52,1.87h0Z" fill="#bd3532"/><path d="M59.73,50.99c-.75,0-1.46.2-2.09.52.65-1.14,1.87-1.9,3.26-1.9l5.34-.03v1.38s-6.52.03-6.52.03Z" fill="#2381a9"/><path d="M66.26,50.96l.03,6.14-5.34.03c-2.08.01-3.78-1.66-3.78-3.74h0c0-.68.17-1.32.48-1.87.63-.32,1.33-.51,2.08-.51l6.52-.03Z" fill="#3a91cd"/><path d="M70.63,55.65h.62s0,0,.01,0c0,0,.46,0,1.01-.16.7-.22,1.22-.62,1.53-1.19.02-.04.05-.07.09-.1.09-.07.22-.08.33-.02.09.05.15.13.16.25h0s0,0,0,0c0,0,0,.01,0,.02,0,.05-.01.1-.04.15-.39.71-1.05,1.22-1.91,1.48-.61.18-1.11.18-1.18.18h-.62s-4.34.02-4.34.02v-.61s4.34-.02,4.34-.02Z" fill="#d45152"/><path d="M58.64,54.36c.32.57.84.96,1.55,1.17.55.16,1,.15,1.01.15,0,0,0,0,.01,0h.62s4.45-.02,4.45-.02v.61s-4.45.02-4.45.02h-.62c-.07,0-.57.01-1.18-.16-.86-.25-1.53-.76-1.93-1.46-.03-.05-.04-.1-.04-.15,0,0,0-.01,0-.02,0,0,0,0,0,0h0c0-.1.06-.2.16-.25.11-.06.24-.05.33.02.03.02.06.06.09.1Z" fill="#5bb0e1"/><path d="M70.63,47.55s0,0,0,0c-.32-.55-.51-1.19-.51-1.87h0c0-2.08,1.67-3.77,3.75-3.77l5.35-.02,5.34-.02c2.08,0,3.79,1.67,3.77,3.75h0c0,.68-.17,1.32-.48,1.87,0,0,0,0,0,0-.65,1.13-1.86,1.89-3.26,1.89l-5.34.02-5.35.02c-1.4,0-2.61-.74-3.26-1.87Z" fill="#3a91cd"/><path d="M70.63,47.55c.62.31,1.33.5,2.08.5l6.53-.02v1.38s-5.35.02-5.35.02c-1.4,0-2.62-.74-3.27-1.87Z" fill="#a72f2c"/><path d="M70.11,45.68c0-2.08,1.67-3.76,3.75-3.77l5.35-.02.02,6.14-6.53.02c-.75,0-1.46-.18-2.08-.49-.32-.55-.51-1.19-.51-1.87h0Z" fill="#bd3532"/><path d="M85.77,48.01c.75,0,1.46-.2,2.09-.52-.65,1.13-1.87,1.89-3.27,1.9l-5.34.02v-1.38s6.52-.02,6.52-.02Z" fill="#2381a9"/><path d="M79.24,48.03l-.02-6.14,5.33-.02c2.08,0,3.79,1.67,3.77,3.75h0c0,.68-.16,1.32-.48,1.87-.63.32-1.33.51-2.08.51l-6.52.02Z" fill="#3a91cd"/><path d="M74.88,43.34h-.62s0,0-.01,0c0,0-.46,0-1.01.16-.7.22-1.22.61-1.54,1.18-.02.04-.05.07-.09.1-.09.07-.22.08-.33.02-.09-.05-.15-.13-.16-.25h0s0,0,0,0c0,0,0-.01,0-.02,0-.05.01-.1.04-.15.39-.71,1.06-1.22,1.91-1.48.61-.18,1.11-.18,1.18-.18h.62s4.34-.01,4.34-.01v.61s-4.34.01-4.34.01Z" fill="#d45152"/><path d="M86.86,44.64c-.32-.57-.84-.96-1.54-1.18-.55-.16-1-.15-1.01-.15,0,0,0,0-.01,0h-.62s-4.45.02-4.45.02v-.61s4.45-.01,4.45-.01h.62c.07,0,.57-.01,1.18.17.86.25,1.53.76,1.92,1.47.03.05.04.1.04.15,0,0,0,.01,0,.02,0,0,0,0,0,0h0c0,.1-.06.2-.16.25-.11.06-.24.05-.33-.02-.03-.02-.06-.06-.09-.1Z" fill="#5bb0e1"/><path d="M73.08,54.59s-.01,0-.01,0c-.32-.55-.52-1.19-.52-1.87h0c0-2.08,1.67-3.77,3.75-3.78l5.35-.03,5.34-.03c2.08-.01,3.78,1.66,3.78,3.74h0c0,.68-.17,1.32-.48,1.87,0,0,0,0,0,0-.65,1.13-1.86,1.89-3.26,1.9l-5.34.03-5.35.03c-1.4,0-2.62-.74-3.27-1.87Z" fill="#3a91cd"/><path d="M73.08,54.59c.62.31,1.33.5,2.08.49l6.53-.03v1.38s-5.34.03-5.34.03c-1.4,0-2.62-.74-3.27-1.86Z" fill="#a72f2c"/><path d="M72.55,52.72c0-2.08,1.67-3.77,3.75-3.78l5.36-.03.03,6.14-6.53.03c-.75,0-1.46-.18-2.09-.49-.32-.55-.52-1.19-.52-1.87h0Z" fill="#bd3532"/><path d="M88.22,55.02c.75,0,1.46-.2,2.09-.52-.65,1.14-1.87,1.9-3.26,1.9l-5.34.03v-1.38s6.52-.03,6.52-.03Z" fill="#2381a9"/><path d="M81.69,55.05l-.03-6.14,5.34-.03c2.08-.01,3.78,1.66,3.78,3.74h0c0,.68-.17,1.32-.48,1.87-.63.32-1.33.51-2.08.51l-6.53.03Z" fill="#3a91cd"/><path d="M77.33,50.37h-.62s0,0-.01,0c0,0-.46,0-1.01.16-.7.22-1.22.62-1.54,1.19-.02.04-.05.07-.09.1-.09.07-.22.08-.33.02-.09-.05-.15-.13-.16-.25h0s0,0,0,0c0,0,0-.01,0-.02,0-.05.01-.1.04-.15.39-.71,1.05-1.22,1.91-1.48.61-.18,1.11-.18,1.18-.18h.62s4.34-.02,4.34-.02v.61s-4.34.02-4.34.02Z" fill="#d45152"/><path d="M89.31,51.65c-.32-.57-.84-.96-1.55-1.17-.55-.16-1-.15-1.01-.15,0,0,0,0-.01,0h-.62s-4.45.02-4.45.02v-.61s4.45-.02,4.45-.02h.62c.07,0,.57-.01,1.18.16.86.25,1.53.76,1.93,1.46.03.05.04.1.04.15,0,0,0,.01,0,.02,0,0,0,0,0,0h0c0,.1-.06.2-.16.25-.11.06-.24.05-.33-.02-.03-.03-.06-.06-.09-.1Z" fill="#5bb0e1"/><path d="M80.69,50.47s.01,0,.01,0c.15.62.15,1.29-.05,1.94h0c-.6,1.99-2.69,3.13-4.68,2.54l-5.13-1.52-5.12-1.52c-1.99-.59-3.14-2.68-2.54-4.67h0c.2-.65.54-1.22,1-1.65,0,0,0,0,0,0,.95-.9,2.33-1.27,3.67-.88l5.12,1.52,5.13,1.52c1.34.4,2.29,1.46,2.59,2.73Z" fill="#3a91cd"/><path d="M80.69,50.47c-.51-.48-1.13-.86-1.85-1.07l-6.27-1.86.39-1.32,5.13,1.52c1.34.4,2.29,1.46,2.59,2.73Z" fill="#a72f2c"/><path d="M80.66,52.41c-.6,1.99-2.69,3.13-4.68,2.54l-5.13-1.52,1.74-5.88,6.27,1.85c.72.21,1.35.59,1.86,1.07.15.62.15,1.29-.05,1.94h0Z" fill="#bd3532"/><path d="M66.32,45.69c-.72-.21-1.45-.23-2.15-.1.95-.9,2.33-1.28,3.67-.88l5.12,1.52-.39,1.32-6.26-1.85Z" fill="#2381a9"/><path d="M72.58,47.54l-1.74,5.88-5.12-1.52c-1.99-.59-3.14-2.68-2.54-4.67h0c.2-.65.54-1.22,1-1.66.69-.13,1.42-.1,2.14.11l6.26,1.85Z" fill="#3a91cd"/><path d="M75.41,53.29l.6.18s0,0,.01,0c0,0,.44.14,1.01.14.74,0,1.35-.24,1.81-.69.03-.03.07-.05.11-.07.11-.04.24-.01.32.08.08.08.11.17.08.28h0s0,0,0,0c0,0,0,.01,0,.02-.01.05-.04.09-.08.13-.58.57-1.36.87-2.26.87-.63,0-1.12-.15-1.18-.17l-.59-.18-4.17-1.23.17-.58,4.17,1.23Z" fill="#d45152"/><path d="M64.3,48.6c.14.64.53,1.16,1.14,1.57.48.31.92.43.92.44,0,0,0,0,0,0l.6.18,4.27,1.26-.17.58-4.27-1.26-.59-.18c-.06-.02-.55-.15-1.08-.5-.75-.49-1.24-1.17-1.42-1.96-.01-.05,0-.11,0-.15,0,0,0-.01,0-.02,0,0,0,0,0,0h0c.03-.09.12-.17.22-.19.12-.03.24.02.31.11.03.03.04.07.05.12Z" fill="#5bb0e1"/><path d="M97.43,45.3s.01,0,.01,0c-.01.63-.17,1.28-.52,1.87h0c-1.07,1.78-3.37,2.37-5.16,1.32l-4.61-2.73-4.6-2.72c-1.79-1.06-2.39-3.37-1.32-5.15h0c.35-.58.82-1.05,1.37-1.36,0,0,0,0,0,0,1.14-.64,2.57-.67,3.77.05l4.6,2.72,4.6,2.73c1.2.71,1.86,1.98,1.84,3.28Z" fill="#3a91cd"/><path d="M97.44,45.3c-.37-.59-.89-1.11-1.53-1.49l-5.62-3.33.7-1.18,4.6,2.73c1.2.71,1.87,1.98,1.85,3.28Z" fill="#a72f2c"/><path d="M96.93,47.17c-1.07,1.78-3.37,2.37-5.16,1.31l-4.61-2.73,3.13-5.28,5.62,3.33c.64.38,1.16.9,1.54,1.49,0,.64-.17,1.29-.52,1.87h0Z" fill="#bd3532"/><path d="M84.67,37.15c-.65-.38-1.35-.58-2.06-.63,1.14-.64,2.57-.67,3.78.05l4.6,2.72-.7,1.18-5.62-3.33Z" fill="#2381a9"/><path d="M90.29,40.47l-3.13,5.28-4.59-2.72c-1.79-1.06-2.39-3.37-1.32-5.15h0c.35-.58.82-1.05,1.38-1.36.7.05,1.4.25,2.05.63l5.61,3.33Z" fill="#3a91cd"/><path d="M91.62,46.74l.54.32s0,0,.01,0c0,0,.39.24.94.38.72.18,1.36.1,1.93-.23.04-.02.08-.04.12-.04.12-.01.23.04.29.15.05.09.06.19,0,.29h0s0,0,0,0c0,0,0,.01,0,.02-.03.04-.06.08-.11.11-.7.41-1.53.51-2.4.29-.62-.15-1.04-.42-1.1-.45l-.53-.32-3.74-2.21.31-.52,3.74,2.21Z" fill="#d45152"/><path d="M82,39.48c-.02.65.23,1.26.72,1.8.38.42.78.65.79.65,0,0,0,0,0,0l.54.32,3.83,2.27-.31.52-3.83-2.27-.53-.32c-.06-.03-.49-.28-.93-.75-.61-.66-.92-1.43-.9-2.25,0-.05,0-.1.03-.15,0,0,0-.01,0-.02h0s.01,0,.01,0c.06-.08.16-.14.27-.13.12,0,.23.08.28.19.02.04.03.08.03.13Z" fill="#5bb0e1"/><g mix-blend-mode="overlay"><path d="M94.51,29.17c-3.73-3.17-9.13-9.31-9.13-11.82h-10.53c.91,2.95-5.86,8.33-2.4,11.27,3.83,3.26,10.03,8.61,10.03,8.61l-7.61,13.97,4.99,6.35,6.02,36.01c0,3.5,5.21,6.55,2.43,8.23h.71c5.19,0,9.34-4.2,9.34-9.39v-54.86s-.11-5.21-3.84-8.39Z" fill="#412c18"/><path d="M92.9,93.56v-56.33s-.11-5.33-3.94-8.59c-3.46-2.94-8.3-8.35-9.21-11.25h-19.75c0,2.58-5.42,8.62-9.15,11.8-3.73,3.17-3.87,8.36-3.87,8.36v54.86c0,5.19,4.22,9.44,9.41,9.44h31.92c2.78-1.73,4.59-4.79,4.59-8.28Z" fill="#5e3d1a"/></g><path d="M85.54,1.63h-3.45c.77.67,1.28,1.69,1.28,2.81v10.81c0,1.38-.76,2.54-1.87,3.28h4.03c1.91,0,3.47-1.59,3.47-3.5V5.09c0-1.91-1.56-3.46-3.47-3.46Z" fill="#d09416"/><path d="M83.37,15.24V4.43c0-1.12-.51-2.14-1.28-2.81h-22.2c-1.91,0-3.45,1.55-3.45,3.46v9.93c0,1.91,1.54,3.5,3.45,3.5h21.61c1.11-.74,1.87-1.9,1.87-3.28Z" fill="#e6ac1d"/><path d="M63.76,13.64c0,1.25-1.02,2.26-2.27,2.26h-.06c-1.25,0-2.26-1.01-2.26-2.26v-6.69c0-1.25,1.01-2.26,2.26-2.26h.06c1.25,0,2.27,1.02,2.27,2.26v6.69Z" fill="#fcca64"/><polygon points="46.98 44.6 46.98 51.16 46.98 57.35 46.98 84.56 51.65 84.56 51.65 44.6 46.98 44.6" fill="#ddd0d0"/><polygon points="54.16 44.6 54.16 84.56 98.36 84.56 98.36 57.35 98.36 51.16 98.36 44.6 54.16 44.6" fill="#ddd0d0"/><path d="M51.65,90.15v.04c.01.31.54,7.54,5.8,9.38.14.05.28.07.42.07.52,0,1.01-.33,1.2-.85.23-.66-.12-1.39-.79-1.62-3.53-1.24-4.08-6.64-4.12-7.12v-5.5h-2.51v5.59Z" fill="#764d21" mix-blend-mode="overlay"/><path d="M54.16,37.19c0-1.75,1.37-3.88,3.95-6.18,2.08-1.86,4.21-3.12,4.23-3.12h0c.6-.39.8-1.15.45-1.76-.36-.6-1.14-.81-1.74-.45-.09.06-2.32,1.38-4.58,3.4-3.2,2.84-4.81,5.57-4.81,8.11v7.41h2.51v-7.41Z" fill="#764d21" mix-blend-mode="overlay"/><rect x="51.65" y="44.6" width="2.51" height="39.96" fill="#fff"/></g></g></svg>