<?xml version="1.0" encoding="UTF-8"?><svg xmlns="http://www.w3.org/2000/svg" viewBox="0 0 704.06 807.39"><g isolation="isolate"><g id="a"><polygon points="704.06 136.18 704.06 807.39 11.05 807.39 11.05 755.55 92.34 755.55 92.34 670.15 172.66 670.15 172.66 581.52 257.81 581.52 257.81 490.93 348.39 490.93 348.39 401 437.76 401 437.76 311.07 520.48 311.07 520.48 223.74 611.67 223.74 611.67 135.76 704.06 136.18" fill="#e58b4d"/><rect y="740.53" width="92.34" height="15.02" fill="#8a2805"/><rect x="79.85" y="655.15" width="92.35" height="15.02" fill="#8a2805"/><rect x="165.62" y="566.29" width="92.35" height="15.01" fill="#8a2805"/><rect x="248.91" y="476.09" width="99.4" height="15.02" fill="#8a2805"/><rect x="338.11" y="385.55" width="99.4" height="15.02" fill="#8a2805"/><rect x="422.73" y="295.82" width="99.4" height="15.02" fill="#8a2805"/><rect x="512.62" y="208.75" width="99.39" height="15.02" fill="#8a2805"/><rect x="604.67" y="120.75" width="99.39" height="15.02" fill="#8a2805"/><rect x="502.76" y="358.26" width="31.86" height="18.16" fill="#fe9053"/><rect x="539.99" y="382.6" width="11.81" height="10.46" fill="#fe9053"/><rect x="575.98" y="549.86" width="34.31" height="16.45" fill="#ff9759"/><rect x="611.05" y="575.37" width="19.82" height="13.99" fill="#8a2805"/><rect x="620.47" y="429.22" width="34.3" height="16.45" fill="#e58b4d" mix-blend-mode="multiply" opacity=".5"/><rect x="655.54" y="454.72" width="19.82" height="13.98" fill="#8a2805"/><rect x="266.44" y="611.57" width="31.27" height="16.46" fill="#e58b4d" mix-blend-mode="multiply" opacity=".5"/><rect x="295.42" y="597.59" width="17.53" height="9.87" fill="#fe9053"/><rect x="482.97" y="753.91" width="27.44" height="16.45" fill="#e24906"/><rect x="581.32" y="765.43" width="18.3" height="11.52" fill="#fe9053"/><rect x="606.47" y="748.97" width="14.49" height="11.52" fill="#c04a1a"/><rect x="208.51" y="775.3" width="14.48" height="10.7" fill="#8a2805"/><rect x="181.06" y="791.75" width="20.58" height="13.16" fill="#fe9053"/><g mix-blend-mode="multiply" opacity=".5"><polygon points="110.4 772.07 110.4 690.34 187.65 690.34 187.65 594.72 276.26 594.72 276.26 510.54 362.59 510.54 362.59 416.55 453.47 416.55 453.47 322.56 535.26 322.56 535.26 241.65 625.38 241.65 625.38 143.57 704.06 143.57 704.06 136.18 611.67 135.76 611.67 223.74 520.48 223.74 520.48 311.07 437.76 311.07 437.76 401 348.39 401 348.39 490.93 257.81 490.93 257.81 581.52 172.66 581.52 172.66 670.15 92.34 670.15 92.34 755.55 11.05 755.55 11.05 807.39 24.07 807.39 24.07 772.07 110.4 772.07" fill="#e58b4d"/></g><polygon points="333.57 165.12 351.06 203.95 400.51 177.18 406.58 191.63 434.74 130.71 372.65 126.44 380.27 141.67 333.57 165.12" fill="#9c0613"/><polygon points="330.46 163.02 347.95 201.86 397.41 175.07 403.47 189.54 431.63 128.61 369.55 124.35 377.16 139.57 330.46 163.02" fill="#e30613"/><path d="M308.2,372.74c3.81-11.93,4.96-22.63-15.25-35.79l-9.54,10.7s14.11,7.41,12.96,14.81c-.65,4.24-7.9,30.22-13.99,51.72l13.5,3.86c4.02-15.15,9.55-36.67,12.31-45.28Z" fill="#f4d9bf"/><path d="M294.04,446.99c-7.84-3.65-4.56-6.29-1.85-15.43.85-2.85,2.16-7.73,3.7-13.54l-13.5-3.86c-4.57,16.13-8.49,29.74-8.49,29.74,0,0-.07.06-.17.15,5.04,2.92,13.82,6.76,20.31,2.94Z" fill="#dfefe7"/><path d="M326.54,468.77c.18-.44.3-.91.34-1.42.38-5.35-11.05-12.76-29.34-18.93-1.38-.51-2.5-.97-3.5-1.44-6.49,3.82-15.27-.02-20.31-2.94-.94.82-5.63,5.4-6.31,14.66-.14,1.84-.12,3.45.1,4.85,10.05,2.26,31.59,6.09,59.02,5.21Z" fill="#8286c1"/><path d="M267.52,463.56c1.01,6.45,6.38,8.68,22.01,9.55,26.58,1.49,35.32-.06,37.02-4.34-27.44.88-48.98-2.95-59.02-5.21Z" fill="#565c96"/><path d="M214,490.22c-2.51-6.06-1.67-12.89,1.54-30.84-4.32-1.49-9.34-2.4-12.83-2.9-1.12,12.93-1.51,23.39-1.51,25.14,0,.67-.17,1.33-.43,1.98,2.04,4.2,6.51,10.8,13.23,6.62Z" fill="#dfefe7"/><path d="M219.19,439.13c7.13-34.44,14.59-65.21,14.59-65.21l-15.61-6.95s-6.48,35.23-10.52,53.85c-2.39,10.97-3.95,24.28-4.95,35.67,3.49.5,8.51,1.41,12.83,2.9,1-5.57,2.23-12.22,3.66-20.25Z" fill="#f4d9bf"/><path d="M192.15,492.42c-1.51,1.84-1.56,4.21.9,10.08,11.09,27,28.08,42.19,34.16,40.53-15.71-8.9-29.59-37.92-35.06-50.61Z" fill="#565c96"/><path d="M214.77,491.87c-.29-.54-.55-1.1-.78-1.65-6.71,4.17-11.19-2.42-13.23-6.62-.99,2.5-3.66,4.77-6.36,6.82-.92.69-1.69,1.31-2.26,2.01,5.48,12.69,19.35,41.7,35.06,50.61.43-.12.82-.31,1.14-.61,5.09-5.86-9.16-42.12-13.58-50.55Z" fill="#8286c1"/><path d="M246.77,359.54s-23.9-16.89-37.03-40.49l-10.1,32.58,44.21,19.02,2.92-11.11Z" fill="#6d3516"/><polygon points="199.65 351.62 196.44 361.98 241.91 378.05 243.85 370.64 199.65 351.62" fill="#aa633c"/><path d="M297.91,332.42l-5.64-4.06-30.8,42.46c2.87,1.36,5.84,2.7,8.99,3.97,12.58-21.39,27.45-42.37,27.45-42.37Z" fill="#aa633c"/><path d="M270.47,286.75s-12.21,4.39-31.74,7.1l30.6,18.01s1.9-13.58,1.14-25.11Z" fill="#6d3516"/><path d="M238.73,293.85c-10.35,1.43-22.75,2.39-36.49,1.96,0,0-.99,46.45,59.23,75.01l30.8-42.46-22.95-16.51-30.6-18.01Z" fill="#8b4c22"/><path d="M229.11,186.48c7.49-.15,3.38-16.19,3.38-16.19v-10.07l-15.55,1.49v9.34s4.68,15.59,12.17,15.44Z" fill="#e3bb94"/><path d="M262.62,205.28s26.47,35.28,54.49,46.09c2.22-3.6,4.89-4.08,9.12-5.53,4.23-1.43,10.9-6.23,13.12-5.27,2.22.96-7.57,8.16-9.78,11.04,14.46-2.4,22.23,0,22.46,3.84.22,3.84-10.01.48-18.02,3.84,12.67,1.21,16.68,3.85,16.68,6.72s-8.68-1.43-16.24.24c9.57,4.08,12.23,8.16,11.57,10.56-.66,2.41-9.12-5.52-14.45-5.76,8.68,7.92,8,12.48,6.89,13.44-1.11.96-7.34-11.75-11.35-12-5.78-.49-14.9-4.56-14.45-12.72-12.9-4.08-37.27-17.77-57-46.57l6.96-7.91Z" fill="#f4d9bf"/><path d="M329.56,251.61s.13.81-.18,1.99c-.05.31-.21.59-.33.92-.14.31-.22.7-.48.98-.21.31-.43.64-.69.95-.22.33-.58.53-.87.8-.32.24-.62.51-.95.7-.34.16-.7.28-1.03.42-.33.14-.66.25-.97.34-.32.03-.62.06-.9.09-1.11.07-1.84.01-1.84.01,0,0,.69-.34,1.69-.69.25-.08.52-.17.81-.27.25-.16.52-.34.81-.49.29-.15.58-.32.88-.46.29-.17.53-.43.81-.63.26-.23.58-.38.78-.66.21-.27.44-.51.66-.76.23-.23.38-.52.56-.77.16-.26.37-.49.46-.75.23-.5.47-.91.58-1.22.13-.32.19-.51.19-.51Z" fill="#c39368"/><path d="M247.4,31.42l5.51,9.91-22.76-8.71,2.57,20.2-26.06-6.73s-.73,25.36-7.71,34.47c-.37-16.65-5.51-26.55-5.51-26.55,0,0-2.93,29.72-9.17,48.33-2.94-13.07-3.31-15.04-3.31-15.04,0,0-3.68,39.22-2.58,51.1-6.24-10.31-15.05-11.1-19.46-3.57-4.4,7.53,1.47,27.74,19.09,15.05,14.69,7.14,21.3,10.7,34.14,13.08,1.65.31,3.46.8,5.37,1.41,10.95,1.72,30.03-1.16,46.03-22.4,19.09-25.36,24.23-61.02,7.34-92.31,0,0-11.75-12.68-23.5-18.22Z" fill="#f4d9bf"/><path d="M158.92,134.82c4.4-7.52,13.21-6.73,19.46,3.57-1.1-11.89,2.58-51.1,2.58-51.1,0,0,.36,1.98,3.31,15.04,6.24-18.61,9.17-48.33,9.17-48.33,0,0,5.14,9.9,5.51,26.55,6.98-9.12,7.71-34.47,7.71-34.47l26.06,6.73-2.57-20.2,22.76,8.71-5.51-9.91c11.75,5.54,23.5,18.22,23.5,18.22C261.35-2.25,203.35-11.76,165.53,13.2c-47.72,31.3-43.69,76.85-43.69,76.85l-9.91-4.75,8.44,10.7-6.97,8.71,8.07-1.19s3.67,44.37,31.57,59.04c38.91,18.22,59.1.39,59.1.39-12.85-2.38-19.46-5.94-34.14-13.08-17.62,12.69-23.49-7.52-19.09-15.05Z" fill="#454444"/><path d="M163.85,142.55s1-3.89,5.38-1.65c4.38,2.24,3.35,4.94,3.35,4.94,0,0-.39-3.02-3.9-4.09-3.51-1.08-4.84.8-4.84.8Z" fill="#c39368"/><path d="M240.67,94.63s-1.51-5.34,1.76-6.63c3.28-1.29,8.55,2.73,4.36,11.29,0,0,1.85-5.49.04-7.79-1.81-2.3-6.08-1.89-6.17,3.14Z" fill="#c39368"/><path d="M210.18,91.66c1.41,3.61,3.73,6,5.2,5.33,1.46-.66,1.51-4.13.1-7.74-1.41-3.61-3.73-6-5.2-5.33-1.46.66-1.51,4.13-.1,7.74Z" fill="#461a00"/><path d="M212.14,87.55c.51,1.05,1.26,1.72,1.7,1.47.42-.24.35-1.29-.15-2.33-.51-1.05-1.27-1.71-1.7-1.48-.42.25-.36,1.29.15,2.34Z" fill="#fff"/><path d="M241.31,62.31c1.88,3.36,4.5,5.36,5.86,4.48,1.36-.89.95-4.33-.92-7.68-1.87-3.36-4.5-5.36-5.86-4.47-1.36.88-.95,4.32.92,7.67Z" fill="#461a00"/><path d="M242.72,57.93c.64.96,1.48,1.5,1.87,1.19.4-.3.19-1.33-.45-2.3-.64-.96-1.48-1.49-1.87-1.19-.39.31-.19,1.33.46,2.3Z" fill="#fff"/><path d="M201.51,78.8s1.8-3.55,4.43-3.65c2.64-.11-1.36-3.77-4.28-1.19-2.92,2.58-1.45,6.79-.16,4.83Z" fill="#2b2929"/><path d="M233.41,51.09s1.26-3.8,3.84-4.35c2.59-.55-1.89-3.48-4.4-.44-2.5,3.03-.44,6.95.56,4.79Z" fill="#2b2929"/><path d="M268.71,64.36c.9,1.78-1.59,5.12-5.58,7.43-3.97,2.32-7.91,2.76-8.82.97-.89-1.79,1.61-5.11,5.58-7.44,3.97-2.31,7.92-2.76,8.81-.97Z" fill="#f9cbc0"/><path d="M211.92,104.67c.89,1.78-1.6,5.11-5.58,7.43-3.97,2.32-7.92,2.76-8.82.97-.89-1.78,1.6-5.11,5.58-7.43,3.98-2.32,7.93-2.76,8.82-.97Z" fill="#f9cbc0"/><g mix-blend-mode="multiply" opacity=".5"><path d="M198.86,78.57c.03.66.06,1.3.08,1.99,6.98-9.12,7.71-34.47,7.71-34.47l26.06,6.73-.21-1.66-33.3-17.27s5.26,23.7-.35,44.68Z" fill="#454444"/><path d="M184.22,102.17c.01.06.02.12.04.17,6.24-18.61,9.17-48.33,9.17-48.33,0,0,.21.41.54,1.18-.16-5.76-.75-11.16-2.03-15.42-4.53,20.51-6.85,49.25-7.73,62.41Z" fill="#454444"/><path d="M181.37,74.99c-6.95,20.22-7.55,53.49-7.55,53.49,0,0-15.11-6.52-19.34,9.46-1.82,7.5,3.01,15.99,6.04,18.59,3.03,2.61-26.9,6.52-36.87-40.78-.03.04-.07.07-.1.12,3.2,14.25,11.04,36.98,29.52,46.69,38.91,18.22,59.1.39,59.1.39-12.85-2.38-19.46-5.94-34.14-13.08-17.62,12.69-23.49-7.52-19.09-15.05,4.4-7.52,13.21-6.73,19.46,3.57-1.1-11.89,2.58-51.1,2.58-51.1,0,0,.03.16.13.65-.06-4.39,0-8.82.28-12.95Z" fill="#454444"/><path d="M270,45.54c-7.58-8.28-21.64-21.81-35.43-25.36,6.19,7.36,11.27,14.52,14.75,19.77l3.58,1.38-5.51-9.91c11.75,5.54,23.5,18.22,23.5,18.22-.25-1.41-.57-2.77-.9-4.1Z" fill="#454444"/><polygon points="230.57 35.95 230.14 32.61 238.49 35.8 223.08 21.81 230.57 35.95" fill="#454444"/></g><path d="M255.73,213.14c.73-.7,11.41-10.96,13.41-16.72-1.01-1.04-1.97-2.02-2.92-2.99l-13.09,12.5,2.61,7.21Z" fill="#f9b200"/><path d="M204.33,241.3l-26.17-1.06c-.14,2.01-.26,4.06-.3,6.18,14.04.51,25.21-.07,25.21-.07,0,0-.22,1.36-.58,3.65l.12-.05,1.72-8.65Z" fill="#f9b200"/><path d="M255.66,213.2s.04-.04.07-.06l-2.61-7.21,13.09-12.5c-16.65-16.78-27.51-23.13-33.73-23.13,0,0,4.11,16.04-3.38,16.19-7.49.15-12.17-15.44-12.17-15.44,0,0-35.18,18.31-38.77,69.19l26.17,1.06-1.72,8.65-.12.05c-1.5,9.86-5.42,37.01-4.58,47.9,19.71,5.6,64.65,1.12,78.49-11.56-13.48-50.75-20.74-73.14-20.74-73.14Z" fill="#969612"/><g mix-blend-mode="multiply" opacity=".5"><path d="M232.35,194.97c8.74-.91,11.18-10.24,9.59-21.53-3.89-2.17-7.02-3.15-9.44-3.15,0,0,4.11,16.04-3.38,16.19-7.49.15-12.17-15.44-12.17-15.44,0,0-2.57,1.34-6.39,4.29,1.94,5.96,8.02,20.19,21.79,19.64Z" fill="#969612"/></g><path d="M195.64,246.75s-6.11,64.58-6.84,71.43c0,2.38,4.39,1.84,10.01,13.18,3.18,8.7,1.46,12.39-4.64,3.42-3.66-5.8-7.57,2.64-9.53,15.3-1.46,12.13-5.13,12.13-4.64.79-2.44,12.64-5.13,16.08-6.35,7.9-2.45,7.12-6.6-1.31-5.13-11.59-3.91,8.96-7.57,6.85-3.17-5.27,4.39-12.13,10.75-18.98,11.48-25.05.73-6.06,8.54-70.64,8.54-70.64l10.26.53Z" fill="#f4d9bf"/><path d="M179.6,352.6s-.02-4.08.81-8.02c.39-1.98.91-3.92,1.34-5.36.43-1.44.82-2.37.82-2.37,0,0-.03,1.04-.19,2.53-.17,1.51-.43,3.49-.84,5.44-.42,1.94-.83,3.91-1.21,5.37-.38,1.46-.73,2.41-.73,2.41Z" fill="#c39368"/><path d="M173.78,358.35s-.1-1.46-.03-3.65c.05-1.1.08-2.38.17-3.74.06-1.38.3-2.82.46-4.28.2-1.44.41-2.89.64-4.23.31-1.34.67-2.58.94-3.63.59-2.11,1.06-3.47,1.06-3.47,0,0-.12,1.48-.43,3.63-.17,1.06-.38,2.31-.58,3.65-.13,1.35-.32,2.78-.5,4.23-.41,2.87-.82,5.74-1.13,7.89-.35,2.15-.61,3.59-.61,3.59Z" fill="#c39368"/><path d="M169.44,343.45s0-.81.2-1.98c.19-1.17.5-2.72,1-4.2.25-.74.49-1.49.77-2.17.3-.67.63-1.27.89-1.79.55-1.04.99-1.68.99-1.68,0,0-.11.81-.4,1.94-.3,1.13-.73,2.61-1.17,4.09-.49,1.47-1.02,2.91-1.46,4-.45,1.08-.82,1.79-.82,1.79Z" fill="#c39368"/><path d="M246.92,189.16s.72,1.43,1.67,3.63c.94,2.2,2.14,5.15,3.23,8.16,1.09,3,2.08,6.06,2.77,8.36.69,2.31,1.06,3.88,1.06,3.88,0,0-.72-1.43-1.66-3.63-.95-2.2-2.15-5.16-3.24-8.17-1.1-3-2.07-6.05-2.76-8.36-.69-2.31-1.07-3.88-1.07-3.88Z" fill="#969612" mix-blend-mode="multiply"/><path d="M211,212.3s-.36,2.17-1.02,5.38c-.68,3.21-1.61,7.49-2.52,11.76-.95,4.26-2.02,8.49-2.87,11.65-.85,3.16-1.51,5.25-1.51,5.25,0,0,.29-2.18.88-5.41.59-3.23,1.43-7.53,2.4-11.8.49-2.14.98-4.27,1.47-6.25.51-1.98,1.09-3.8,1.53-5.38.94-3.14,1.65-5.2,1.65-5.2Z" fill="#969612" mix-blend-mode="multiply"/><g mix-blend-mode="multiply" opacity=".5"><path d="M214.38,203.67c-9.29,11.65-14.35,26.99-16.9,37.35l6.85.28-1.72,8.65-.12.05c-1.5,9.86-5.42,37.01-4.58,47.9,15.51,4.4,46.64,2.57,65.94-4.59-62.17,5.54-56.2-57.91-49.48-89.64Z" fill="#969612"/></g><g mix-blend-mode="multiply" opacity=".5"><path d="M253.26,205.8l3.49-3.33c-3.24-3.42-6.39-7.32-9.15-11.87,1.21,3.55,3.43,9.43,5.66,15.2Z" fill="#969612"/></g><path d="M233.11,191.32c7.44-1.39,6.76-12.42,5.53-19.51-2.4-1.03-4.45-1.52-6.15-1.52,0,0,4.11,16.04-3.38,16.19-7.49.15-12.17-15.44-12.17-15.44,0,0-1.47.77-3.81,2.4,2.65,6.76,9.2,19.72,19.98,17.88Z" fill="#f9b200"/><path d="M203.56,299.39s34.14,5.37,66.69-8.65c-7.69,13.32-40.72,22.49-66.69,8.65Z" fill="#8b4c22" mix-blend-mode="multiply" opacity=".5"/></g></g></svg>