<?xml version="1.0" encoding="UTF-8"?><svg xmlns="http://www.w3.org/2000/svg" viewBox="0 0 79.3 157.57"><g isolation="isolate"><g id="a"><path d="M2,137.56c.2,0,.4-.03.59-.09l15.27-4.72c1.24-.38,2.36-1.01,3.33-1.86l19.15-16.71c.56.36,1.15.67,1.77.93.12.83.25,1.63.38,2.37.47,2.74.8,4.71.24,6.85-.18.68-.27,1.31-.31,1.89-.3.43-.87,1.05-1.28,1.49-1.63,1.77-3.87,4.19-3.9,7.58v16.67c0,2.23,1.49,3.43,2.89,3.43h0c.27,0,.54-.04.79-.13.56.94,1.49,1.43,2.38,1.43.35,0,.7-.07,1.03-.22.54.69,1.31,1.09,2.15,1.09.77,0,1.55-.36,2.08-1.07.32.13.65.2.99.2.9,0,1.83-.49,2.38-1.43.26.08.52.13.79.13,1.4,0,2.89-1.2,2.89-3.43v-16.69c-.03-3.38-2.27-5.8-3.9-7.57-.45-.49-1.1-1.19-1.37-1.61-.04-.55-.13-1.13-.29-1.77-.56-2.14-.23-4.11.24-6.85.12-.73.25-1.52.37-2.34,4.14-1.68,7.08-5.74,7.08-10.48v-8.16c3.06,3.1,6.09,6.13,7.89,7.81,1.81,1.68,3.93,2.53,6.32,2.53,3.48,0,6.21-1.84,6.51-2.05.72-.51,1.02-1.42.75-2.26-.27-.82-1.04-1.38-1.9-1.38-.01,0-.26,0-.26,0-2.21,0-4.22-.68-5.68-1.44.22-.01.45-.07.66-.16.76-.33,1.24-1.09,1.2-1.92-.21-4.9-5.05-5.53-7.65-5.86-.6-.08-1.17-.15-1.57-.25-.7-.17-1.21-.58-1.53-.96.05.01.11.03.17.04.16.04.33.06.49.06.48,0,.96-.18,1.33-.5.5-.44.74-1.1.66-1.75-.42-3.24-4.3-5.92-7.39-7.57v-4.04l3.11-3.11,1.83-1.83s0,0,0,0l9.19-9.19c3.94-3.94,6.44-9.16,7.05-14.7.08-.72-.15-1.43-.63-1.97-.48-.54-1.17-.84-1.89-.84-.67,0-1.3.26-1.78.74l-16.9,16.9v-10.97c0-4.78-2.98-8.86-7.17-10.52-.08-.52-.17-1.02-.25-1.48-.47-2.74-.8-4.71-.24-6.85.05-.2.08-.39.12-.58,5.71-1.61,9.45-6.89,9.45-13.95,0-8.7-5.66-18.44-13.23-18.44s-13.23,9.73-13.23,18.44c0,7.06,3.74,12.34,9.45,13.95.04.19.07.38.12.58.56,2.14.23,4.11-.24,6.85-.08.47-.16.97-.25,1.48-.71.28-1.39.63-2.02,1.04l-2.22-2.22s-.06-.09-.1-.13l-3.79-3.8c-.43-.43-.95-.72-1.49-.87l.21-.5s0-.01.01-.02c.36-.86.36-1.8,0-2.67-.08-.2-.18-.38-.3-.55-.03-.05-.07-.1-.1-.15-.09-.12-.18-.24-.28-.35-.04-.04-.08-.09-.13-.13-.3-.29-.64-.52-1.02-.68-.02,0-.04-.02-.05-.03-.03-.01-.06-.02-.09-.03-.14-.05-.29-.1-.44-.13-.06-.01-.12-.03-.19-.04-.18-.03-.36-.05-.55-.05-.02,0-.04,0-.06,0-.21,0-.42.03-.63.06-.04,0-.08.02-.13.03-.05.01-.11.02-.16.04.02-.08.06-.16.07-.25,0-.02,0-.03,0-.05.04-.21.06-.42.06-.63,0,0,0,0,0,0,0-.44-.09-.88-.26-1.3-.08-.2-.18-.38-.3-.56-.02-.04-.05-.07-.07-.11-.1-.14-.2-.27-.32-.39-.03-.04-.07-.07-.1-.11-.3-.3-.66-.54-1.05-.7-.02,0-.03-.02-.05-.03-.03-.01-.06-.02-.09-.03-.15-.06-.3-.1-.45-.14-.06-.01-.12-.03-.18-.04-.19-.03-.38-.05-.57-.06-.01,0-.03,0-.04,0-.21,0-.42.03-.63.06-.05,0-.09.02-.13.03-.05.01-.1.02-.15.03.2-.74.17-1.52-.13-2.23,0,0,0,0,0,0h0s0,0,0,0c-.08-.19-.18-.37-.29-.55-.03-.05-.07-.1-.11-.15-.09-.12-.18-.23-.28-.34-.04-.05-.08-.09-.13-.13-.3-.29-.64-.51-1.02-.68-.02,0-.03-.02-.05-.03-.03-.01-.06-.02-.09-.03-.15-.06-.29-.1-.45-.14-.06-.01-.12-.03-.18-.04-.19-.03-.38-.05-.57-.06-.01,0-.03,0-.04,0-.21,0-.42.03-.63.06-.05,0-.09.02-.14.03-.05.01-.1.02-.15.03.2-.74.17-1.52-.13-2.23,0,0,0,0,0,0,0,0,0,0,0,0,0,0,0,0,0,0-.08-.19-.18-.37-.29-.54-.03-.05-.07-.1-.11-.16-.09-.12-.18-.23-.28-.34-.04-.05-.08-.09-.13-.14-.3-.29-.64-.51-1.02-.68-.02,0-.04-.02-.06-.03-.03-.01-.07-.02-.1-.03-.14-.05-.29-.1-.44-.13-.06-.01-.12-.03-.19-.04-.18-.03-.36-.05-.54-.05-.02,0-.04,0-.06,0-.21,0-.42.03-.63.06-.04,0-.09.02-.13.03-.05.01-.11.02-.16.04,0,0,0,0,0,0,.03-.11.06-.22.08-.34.02-.11.02-.22.03-.34,0-.12.02-.24.01-.36,0-.11-.02-.22-.04-.33-.02-.12-.03-.23-.06-.35-.03-.11-.06-.22-.1-.34-.04-.11-.08-.21-.13-.32-.03-.05-.04-.11-.07-.16-.04-.08-.1-.16-.15-.23-.02-.03-.03-.06-.05-.08-.11-.17-.24-.32-.38-.47-.04-.04-.08-.07-.12-.11-.1-.09-.2-.18-.31-.25-.08-.06-.16-.11-.24-.17-.07-.04-.14-.07-.21-.11-.1-.05-.19-.12-.3-.16-.42-.18-.87-.26-1.33-.26s-.93.1-1.35.28c-.01,0-.03,0-.04.01l-.8.33c-.06.02-.12.05-.18.08-1.8.96-4.68,2.74-6.23,3.71-.85.53-1.23,1.53-.95,2.49.27.95,1.15,1.61,2.13,1.61h0c.12,0,.27-.01.39-.03.38-.07.83-.15,1.29-.23l-.46,1.12c-.43,1.04-.3,2.16.22,3.07.02.03.04.07.06.1.05.08.1.15.16.23.08.11.16.21.25.31.04.04.07.08.11.11.64.64,1.51,1.02,2.45,1.02.3,0,.59-.05.88-.13-.24.91-.09,1.84.35,2.62.02.03.03.07.05.1.05.08.11.15.16.23.08.11.16.21.25.3.04.04.07.08.11.12.64.64,1.51,1.02,2.45,1.02h0c.3,0,.59-.05.88-.13-.19.73-.16,1.5.14,2.21.06.16.15.3.24.44.01.02.02.04.03.06.06.09.12.18.19.27.07.09.14.18.22.27.05.05.09.1.14.15.64.62,1.5,1,2.43,1h0c.3,0,.59-.05.88-.13-.19.73-.16,1.5.14,2.21.06.16.15.3.23.44.01.02.02.04.03.06.06.09.12.18.19.27.07.09.14.18.22.26.05.05.09.1.14.15.64.62,1.5.99,2.43.99h0c.3,0,.59-.05.88-.13-.03.13-.06.25-.08.38,0,.04,0,.07-.01.11-.02.2-.03.39-.02.59,0,.05,0,.1.01.15.02.18.05.35.09.53.02.07.04.14.06.21.03.08.04.17.08.25.03.07.07.12.1.18.02.04.03.08.05.12.03.06.08.12.11.18.04.06.07.12.11.17.11.15.22.29.35.43.05.05.11.1.16.15.09.08.18.15.27.22.07.05.15.11.23.16.09.06.19.11.29.16.07.03.13.08.21.11.09.04.19.06.28.09.06.02.11.04.17.05.13.03.25.06.38.08.04,0,.08,0,.13.01.12.01.24.04.36.04.23,0,.46-.03.68-.07.04,0,.08-.02.13-.03.14-.03.28-.08.42-.13.06-.02.12-.03.17-.05l2.51-1.04c.05-.02.11-.03.16-.03.07,0,.2.02.31.13l1.19,1.19c.05.09.1.18.16.26-.9,2.47.52,3.88,1.89,5.25l.89.89c-.05.42-.08.84-.08,1.27v50.44l-3.63,2.21c-1.13.69-1.93,1.78-2.24,3.05-.04.17-.08.35-.1.53-.03.24-.15.45-.34.6-3.15,2.51-13.78,10.95-18.26,14.32-5.58,4.21-10.04,11.23-10.23,11.52-.45.71-.4,1.62.11,2.28.39.5.98.78,1.59.78Z" mix-blend-mode="multiply" opacity=".13"/><path d="M77.3,103.15s-5.68,4-10.31-.31c-4.63-4.3-17.74-17.93-17.74-17.93l4.19-3.89s9.2,3.65,9.71,7.63c-2.29-.58-2.65.31-3.01,1.04-.36.73.95,3.17,3.41,3.76,2.46.59,7.51.2,7.69,4.25-1.67-1.71-3.6-.8-4.07.51-.46,1.3,4.52,5.04,10.14,4.92Z" fill="#ededed"/><path d="M63.41,98.37c.26-.72-.5-2.25-1.87-3.65s-2.88-2.19-3.61-1.94l5.48,5.59Z" fill="#b8b8b8"/><path d="M76.05,47.3l-19.05,19.05c-.37.37-.88.58-1.41.58h0c-.53,0-1.03.21-1.41.58l-2.83,2.83c-.78.78-.78,2.04,0,2.82l3.59,3.59.16-.16,4.8-4.8,10.55-10.55c3.64-3.64,5.92-8.41,6.48-13.5.05-.5-.54-.79-.89-.44Z" fill="#ededed"/><path d="M57.1,66.25l-.09.09c-.37.37-.88.58-1.41.58s-1.03.21-1.41.58l-2.83,2.83c-.78.78-.78,2.04,0,2.82l3.59,3.59,6.33-6.33-4.18-4.18Z" fill="#b8b8b8"/><path d="M8.27,23.08l2.99-7.22c.31-.76,1.18-1.12,1.94-.8h0c.76.31,1.12,1.18.8,1.94l-2.99,7.22c-.31.76-1.18,1.12-1.94.8h0c-.76-.31-1.12-1.18-.8-1.94Z" fill="#b8b8b8"/><path d="M12.53,27.34l2.99-7.22c.31-.76,1.18-1.12,1.94-.8h0c.76.31,1.12,1.18.8,1.94l-2.99,7.22c-.31.76-1.18,1.12-1.94.8h0c-.76-.31-1.12-1.18-.8-1.94Z" fill="#b8b8b8"/><path d="M10.23,25.04l7.22-2.99c.76-.31,1.12-1.18.8-1.94h0c-.31-.76-1.18-1.12-1.94-.8l-7.22,2.99c-.76.31-1.12,1.18-.8,1.94h0c.31.76,1.18,1.12,1.94.8Z" fill="#ededed"/><path d="M16.79,31.6l2.99-7.22c.31-.76,1.18-1.12,1.94-.8h0c.76.31,1.12,1.18.8,1.94l-2.99,7.22c-.31.76-1.18,1.12-1.94.8h0c-.76-.31-1.12-1.18-.8-1.94Z" fill="#b8b8b8"/><path d="M14.49,29.3l7.22-2.99c.76-.31,1.12-1.18.8-1.94h0c-.31-.76-1.18-1.12-1.94-.8l-7.22,2.99c-.76.31-1.12,1.18-.8,1.94h0c.31.76,1.18,1.12,1.94.8Z" fill="#ededed"/><path d="M21.05,35.86l2.99-7.22c.31-.76,1.18-1.12,1.94-.8h0c.76.31,1.12,1.18.8,1.94l-2.99,7.22c-.31.76-1.18,1.12-1.94.8h0c-.76-.31-1.12-1.18-.8-1.94Z" fill="#b8b8b8"/><path d="M18.75,33.56l7.22-2.99c.76-.31,1.12-1.18.8-1.94h0c-.31-.76-1.18-1.12-1.94-.8l-7.22,2.99c-.76.31-1.12,1.18-.8,1.94h0c.31.76,1.18,1.12,1.94.8Z" fill="#ededed"/><path d="M25.31,40.12l2.99-7.22c.31-.76,1.18-1.12,1.94-.8h0c.76.31,1.12,1.18.8,1.94l-2.99,7.22c-.31.76-1.18,1.12-1.94.8h0c-.76-.31-1.12-1.18-.8-1.94Z" fill="#b8b8b8"/><path d="M23.01,37.82l7.22-2.99c.76-.31,1.12-1.18.8-1.94h0c-.31-.76-1.18-1.12-1.94-.8l-7.22,2.99c-.76.31-1.12,1.18-.8,1.94h0c.31.76,1.18,1.12,1.94.8Z" fill="#ededed"/><path d="M27.31,42.04l2.51-1.04c.91-.38,1.95-.17,2.65.53l1.91,1.92c.55.55,1.44.64,2.03.15.69-.56.72-1.58.11-2.19l-3.79-3.8c-.22-.22-.5-.36-.79-.41-.28-.06-.58-.04-.87.08l-4.95,2.05c-.8.33-1.16,1.28-.74,2.07.36.68,1.22.94,1.93.65Z" fill="#ededed"/><path d="M41.61,46.51l-5.44-5.44-2.09,2.09s.61.81.2,1.93c-.41,1.12-.1,1.63,1.42,3.15l2.09,2.09,3.82-3.82Z" fill="#ededed"/><path d="M12,15.08l-.8.33c-1.76.94-4.63,2.72-6.11,3.64-.2.13-.08.44.16.4,2.02-.35,6.27-1.13,7.94-1.66.8-.33,1.16-1.28.74-2.07-.36-.68-1.22-.94-1.93-.65Z" fill="#ededed"/><path d="M2,135.56s4.38-6.96,9.74-10.99c4.52-3.41,15.11-11.82,18.3-14.36.6-.47.98-1.16,1.08-1.91h0c.12-.88.63-1.67,1.39-2.13l9.38-5.7,3.18,6.92-25.21,21.99c-.76.66-1.65,1.16-2.61,1.45l-15.27,4.72Z" fill="#ededed"/><path d="M41.9,100.47l-9.38,5.7c-.76.46-1.27,1.25-1.39,2.13,0,.07-.02.13-.04.19l4.8,6.92,9.19-8.02-3.18-6.92Z" fill="#b8b8b8"/><path d="M40.9,152.07v-15.95c0-.42.34-.76.76-.76s.76.34.76.76v17.16c0,1.75,1.66,2.02,1.66.09v-17.25c0-.42.34-.76.76-.76s.76.34.76.76v18.03c0,1.75,1.66,2.02,1.66.09v-18.12c0-.42.34-.76.76-.76h.02c.42,0,.76.34.76.76v17.25c0,1.93,1.66,1.66,1.66-.09v-17.16c0-.42.34-.76.76-.76s.76.34.76.76v15.95c0,1.93,1.66,1.66,1.66-.09v-16.67h0c-.04-4.46-5.37-7.08-5.37-9.32v-.28h-3.63v.28c0,2.24-5.33,4.86-5.37,9.32h0v16.67c0,1.75,1.66,2.02,1.66.09Z" fill="#ededed"/><path d="M44.66,124.85c-.51,1.93-.19,3.32.36,4.28.28.49.81.78,1.37.78h0c.56,0,1.09-.29,1.37-.78.55-.97.87-2.36.36-4.28-1.13-4.28.73-7.83,1.01-14.43.04-.9-.68-1.66-1.59-1.66h-2.3c-.91,0-1.63.76-1.59,1.66.28,6.61,2.14,10.16,1.01,14.43Z" fill="#ededed"/><path d="M48.15,32.45c.67-2.53-.09-4.13-.91-5.06h-1.63c-.82.94-1.58,2.54-.91,5.06,1.22,4.62-1.05,8.39-1.05,16.1h5.54c0-7.7-2.27-11.47-1.05-16.1Z" fill="#ededed"/><path d="M46.42,113.98h0c-5.15,0-9.32-4.17-9.32-9.32v-52.85c0-5.15,4.17-9.32,9.32-9.32h0c5.15,0,9.32,4.17,9.32,9.32v52.85c0,5.15-4.17,9.32-9.32,9.32Z" fill="#ed4f31"/><path d="M46.42,112.56c-4.36,0-7.9-3.54-7.9-7.9v-52.85c0-4.36,3.54-7.9,7.9-7.9s7.9,3.54,7.9,7.9v52.85c0,4.36-3.54,7.9-7.9,7.9Z" fill="#c44229"/><path d="M57.65,18.44c0,7.98-5.03,12.47-11.23,12.47s-11.23-4.49-11.23-12.47S40.22,2,46.42,2s11.23,8.45,11.23,16.44Z" fill="#ededed"/><path d="M56.52,17.36c0,7.18-4.52,11.21-10.1,11.21s-10.1-4.03-10.1-11.21,4.52-14.78,10.1-14.78,10.1,7.6,10.1,14.78Z" fill="#b8b8b8"/></g></g></svg>