<?xml version="1.0" encoding="UTF-8"?><svg id="a" xmlns="http://www.w3.org/2000/svg" viewBox="0 0 109.92 110.36"><path d="M54.96,0c15.23,0,28.21,5.37,38.95,16.11s16,23.69,16,39.07-5.33,28.4-16,39.07c-10.74,10.74-23.73,16.11-38.95,16.11s-28.22-5.37-38.95-16.11C5.33,83.58,0,70.56,0,55.18S5.33,26.78,16,16.11C26.74,5.37,39.73,0,54.96,0ZM9.6,55.18c0,8.9,2.39,17.1,7.18,24.61,4.71,7.43,11.18,13.06,19.42,16.88h2.54l-5.63-1.66-5.08-7.06,16.11-14.23,4.53,4.08,2.98,8.17,1.1-.66,3.86,2.76-4.52,5.85-.33-.22-1.54-4.3-2.32,4.97,1.66-1,4.74,3.2-1.43-.22.33.33h2.76l-1.76-5.19,3.09-2.54,3.97,3.2-3.53,4.53h2.54l1.44-5.08,2.21-6.18,1.65-6.84,4.31-7.28v-.44l2.64-8.39-1.54-7.5v-4.85l.22-5.85.88-7.39,1.1-4.31,1.66-4.75-.44-8.28.22-5.41c-.59-.29-1.09-.52-1.49-.66-.41-.14-.76-.29-1.05-.44l-1.54,5.08-1.43-2.32-1-3.42.88-.55c-4.78-1.47-9.45-2.21-14.01-2.21-12.65,0-23.4,4.45-32.22,13.35-8.76,8.98-13.13,19.72-13.13,32.22ZM58.27,74.71l-4.75-6.95,4.86-7.84,5.63,4.19,4.31,4.85-3.53,4.75-6.51.99ZM63.57,56.06l-2.1-6.84,2.87-1.98,3.86,2.98-4.63,5.85ZM68.2,29.35l-.11-5.19,4.86-2.32-1.22,4.75-3.53,2.76Z" fill="#ea580c"/></svg>