<?xml version="1.0" encoding="UTF-8"?><svg id="a" xmlns="http://www.w3.org/2000/svg" xmlns:xlink="http://www.w3.org/1999/xlink" viewBox="0 0 889.17 889.17"><defs><clipPath id="b"><rect x="21.55" y="19.86" width="845.13" height="849.63" fill="none"/></clipPath></defs><path d="M444.59,889.17c245.55,0,444.59-199.03,444.59-444.59S690.14,0,444.59,0,0,199.03,0,444.59s199.03,444.59,444.59,444.59" fill="#fff"/><g clip-path="url(#b)"><path d="M444.13,19.86c117.22,0,217.22,41.31,299.9,124.04,82.16,82.11,123.23,182.39,123.23,300.75s-41.08,218.69-123.23,300.8c-82.68,82.68-182.67,124.04-299.9,124.04s-217.27-41.36-299.95-124.04c-82.11-82.11-123.19-182.39-123.19-300.8s41.08-218.64,123.19-300.75C226.86,61.18,326.86,19.86,444.13,19.86M94.87,444.65c0,68.57,18.41,131.71,55.28,189.49,36.2,57.22,86.08,100.57,149.55,130h19.5l-43.3-12.73-39.09-54.38,124.04-109.6,34.83,31.42,22.95,62.85,8.47-5.11,29.72,21.3-34.78,45.01-2.56-1.7-11.93-33.13-17.79,38.24,12.73-7.67,36.53,24.66-11.03-1.7,2.56,2.56h21.2l-13.58-39.94,23.8-19.55,30.57,24.66-27.21,34.83h19.55l11.07-39.09,16.99-47.56,12.73-52.72,33.17-56.03v-3.41l20.35-64.6-11.88-57.78v-37.34l1.7-45.05,6.77-56.93,8.52-33.13,12.78-36.53-3.45-63.75,1.7-41.6c-4.54-2.27-8.38-3.98-11.45-5.11-3.12-1.14-5.82-2.27-8.09-3.41l-11.88,39.09-11.03-17.84-7.67-26.31,6.81-4.26c-36.82-11.36-72.79-17.04-107.9-17.04-97.44,0-180.12,34.31-248.12,102.84-67.39,69.09-101.13,151.82-101.13,248.08M469.59,595.05l-36.53-53.52,37.39-60.34,43.35,32.32,33.13,37.34-27.21,36.58-50.12,7.62ZM510.38,451.47l-16.14-52.67,22.1-15.29,29.72,22.91-35.68,45.05ZM546.07,245.84l-.85-39.94,37.39-17.84-9.37,36.53-27.16,21.25Z" fill="#ff990e"/></g></svg>