<?xml version="1.0" encoding="UTF-8"?><svg id="a" xmlns="http://www.w3.org/2000/svg" xmlns:xlink="http://www.w3.org/1999/xlink" viewBox="0 0 119.69 138.2"><defs><clipPath id="b"><polygon points="114.63 138.2 0 115.51 5.06 89.92 9.44 104.64 24.2 106.64 30.08 96.81 89.99 108.81 92.9 123.92 108.16 126.07 119.69 112.61 114.63 138.2" fill="none"/></clipPath><clipPath id="c"><path d="M33.65,80.88c-2.69,9.61-4.44,19.47-5.22,29.42-.05.63-.06,1.35.43,1.77.36.31.88.35,1.36.38,18.03,1.14,35.93,4.52,53.13,10.04.88.28,1.91.55,2.66.06.6-.39.81-1.13.98-1.81,2.27-8.96,4.54-17.91,6.81-26.87.79,11.49.25,23.05-1.59,34.38-.16.99-.26,2.17.54,2.83.41.33.95.44,1.47.53,3.13.55,6.26,1.11,9.39,1.66.66.12,1.37.23,1.98-.04.88-.39,1.2-1.42,1.43-2.34,5.37-21.9,9.42-44.17,10.71-66.73.65-11.3,1.73-22.65.24-33.9-.53-3.97-1.37-8.02-3.57-11.44-3.22-4.97-8.85-7.91-14.22-10.63-1.37-.69-2.76-1.39-4.26-1.72-2.06-.45-4.19-.18-6.27.04-6.48.69-13.5.75-19.01-2.7-1.45-.91-2.75-2.04-4.29-2.8-3.76-1.89-8.67-.77-12.77.15-3.05.68-5.72,1-8.35,2.62-5.74,3.55-10.17,12.1-12.66,18.24-12.04,29.7-22.61,58.13-23.43,90.16-.01.4-.63,1.42-.43,1.77.3.54,1.59.16,2.19.32,2.45.65,4.96,1.13,7.48,1.41,1,.11,2.12.17,2.9-.43.64-.49.9-1.3,1.12-2.06,2.85-9.62,3.39-17.49,7.99-26.43.5-.97,3.25-5.9,3.25-5.9Z" fill="none"/></clipPath></defs><path d="M33.65,80.88c-2.69,9.61-4.44,19.47-5.22,29.42-.05.63-.06,1.35.43,1.77.36.31.88.35,1.36.38,18.03,1.14,35.93,4.52,53.13,10.04.88.28,1.91.55,2.66.06.6-.39.81-1.13.98-1.81,2.27-8.96,4.54-17.91,6.81-26.87.79,11.49.25,23.05-1.59,34.38-.16.99-.26,2.17.54,2.83.41.33.95.44,1.47.53,3.13.55,6.26,1.11,9.39,1.66.66.12,1.37.23,1.98-.04.88-.39,1.2-1.42,1.43-2.34,5.37-21.9,9.42-44.17,10.71-66.73.65-11.3,1.73-22.65.24-33.9-.53-3.97-1.37-8.02-3.57-11.44-3.22-4.97-8.85-7.91-14.22-10.63-1.37-.69-2.76-1.39-4.26-1.72-2.06-.45-4.19-.18-6.27.04-6.48.69-13.5.75-19.01-2.7-1.45-.91-2.75-2.04-4.29-2.8-3.76-1.89-8.67-.77-12.77.15-3.05.68-5.72,1-8.35,2.62-5.74,3.55-10.17,12.1-12.66,18.24-12.04,29.7-22.61,58.13-23.43,90.16-.01.4-.63,1.42-.43,1.77.3.54,1.59.16,2.19.32,2.45.65,4.96,1.13,7.48,1.41,1,.11,2.12.17,2.9-.43.64-.49.9-1.3,1.12-2.06,2.85-9.62,3.39-17.49,7.99-26.43.5-.97,3.25-5.9,3.25-5.9Z" fill="#38668d"/><path d="M78.63,6.19c-5.97-1.03-10.25-5.05-13.77-4.72-2.78.26-4.58,1.33-5.07,3.83-1.12,5.67,5.05,12.25,17.05,14.62,11.99,2.37,20.83-.56,21.96-6.22.52-2.61-.33-4.13-4.02-5.84-4.33-2.01-10.99-.77-16.14-1.66ZM77.34,17.62c-9.17-1.81-15.93-7.19-14.88-11.96.28-1.25.41-1.93,2.43-2.8,1.43-.61,8.3,3.92,14.18,5.08,5.44,1.08,12.84-1.51,15.44,1.21,1.78,1.86,2.3,2.38,1.71,4.28-1.16,3.71-9.72,6-18.88,4.19Z" fill="#ff5a5d"/><path d="M77.34,17.62c-9.17-1.81-15.93-7.19-14.88-11.96.28-1.25.41-1.93,2.43-2.8,1.43-.61,8.3,3.92,14.18,5.08,5.44,1.08,12.84-1.51,15.44,1.21,1.78,1.86,2.3,2.38,1.71,4.28-1.16,3.71-9.72,6-18.88,4.19Z" fill="#2a536a"/><path d="M81.79,13.85l-7.65-1.51,1.09-5.51s2.73.83,3.68,1.02c.96.19,3.96.35,3.96.35l-1.09,5.65Z" fill="#ff9d67"/><g clip-path="url(#b)"><path d="M33.65,80.88c-2.69,9.61-4.44,19.47-5.22,29.42-.05.63-.06,1.35.43,1.77.36.31.88.35,1.36.38,18.03,1.14,35.93,4.52,53.13,10.04.88.28,1.91.55,2.66.06.6-.39.81-1.13.98-1.81,2.27-8.96,4.54-17.91,6.81-26.87.79,11.49.25,23.05-1.59,34.38-.16.99-.26,2.17.54,2.83.41.33.95.44,1.47.53,3.13.55,6.26,1.11,9.39,1.66.66.12,1.37.23,1.98-.04.88-.39,1.2-1.42,1.43-2.34,5.37-21.9,9.42-44.17,10.71-66.73.65-11.3,1.73-22.65.24-33.9-.53-3.97-1.37-8.02-3.57-11.44-3.22-4.97-8.85-7.91-14.22-10.63-1.37-.69-2.76-1.39-4.26-1.72-2.06-.45-4.19-.18-6.27.04-6.48.69-13.5.75-19.01-2.7-1.45-.91-2.75-2.04-4.29-2.8-3.76-1.89-8.67-.77-12.77.15-3.05.68-5.72,1-8.35,2.62-5.74,3.55-10.17,12.1-12.66,18.24-12.04,29.7-22.61,58.13-23.43,90.16-.01.4-.63,1.42-.43,1.77.3.54,1.59.16,2.19.32,2.45.65,4.96,1.13,7.48,1.41,1,.11,2.12.17,2.9-.43.64-.49.9-1.3,1.12-2.06,2.85-9.62,3.39-17.49,7.99-26.43.5-.97,3.25-5.9,3.25-5.9Z" fill="#ff5a5d"/></g><path d="M29.9,111.82c.3-4.57.78-9.12,1.44-13.65.06-.43-.63-.57-.69-.14-.67,4.53-1.15,9.08-1.44,13.65-.03.43.67.57.69.14h0Z" fill="#ff656b"/><path d="M31.46,111.77c-.07-4.45.35-8.89,1.25-13.24.09-.43-.6-.57-.69-.14-.91,4.41-1.33,8.91-1.26,13.42,0,.44.71.39.7-.05h0Z" fill="#ff656b"/><path d="M33.05,111.7c.18-4.4.6-8.77,1.28-13.12.07-.43-.63-.57-.69-.14-.68,4.4-1.11,8.84-1.29,13.3-.02.44.69.39.7-.05h0Z" fill="#ff656b"/><path d="M34.64,111.76c.38-4.29.94-8.55,1.67-12.79.07-.43-.62-.57-.69-.14-.73,4.24-1.28,8.51-1.67,12.79-.04.43.65.57.69.14h0Z" fill="#ff656b"/><path d="M36.3,111.89c.24-4.27.78-8.51,1.59-12.7.08-.43-.61-.57-.69-.14-.83,4.25-1.36,8.55-1.6,12.88-.02.44.68.39.7-.05h0Z" fill="#ff656b"/><path d="M37.79,111.91c.59-4.13,1.07-8.28,1.44-12.44.04-.43-.65-.57-.69-.14-.37,4.16-.85,8.31-1.44,12.44-.06.43.63.57.69.14h0Z" fill="#ff656b"/><path d="M39.26,112.2c.69-4.15,1.26-8.31,1.69-12.49.04-.43-.65-.57-.69-.14-.43,4.18-1,8.35-1.69,12.49-.07.43.62.57.69.14h0Z" fill="#ff656b"/><path d="M41.11,112.37c.29-4.1.43-8.26,1.45-12.25.11-.43-.59-.56-.69-.14-1.01,4-1.16,8.15-1.45,12.25-.03.43.66.57.69.14h0Z" fill="#ff656b"/><path d="M43.51,99.93c-.88,4.07-1.33,8.22-1.36,12.39,0,.44.7.39.7-.05.03-4.11.49-8.19,1.35-12.2.09-.43-.6-.57-.69-.14h0Z" fill="#ff656b"/><path d="M44.67,102.1c-.37,3.47-.74,6.93-1.1,10.4-.05.43.65.57.69.14.37-3.47.74-6.93,1.1-10.4.05-.43-.65-.57-.69-.14h0Z" fill="#ff656b"/><path d="M46.25,100.38c-.47,4.05-.71,8.13-.71,12.22,0,.44.7.39.7-.05,0-4.03.24-8.04.7-12.04.05-.43-.64-.57-.69-.14h0Z" fill="#ff656b"/><path d="M47.71,100.96c-.36,3.88-.62,7.76-.78,11.66-.02.44.69.39.7-.05.16-3.83.42-7.66.77-11.47.04-.43-.65-.57-.69-.14h0Z" fill="#ff656b"/><path d="M49.46,101.48c-.98,3.98-1.32,8.1-1.01,12.2.03.44.74.39.7-.05-.3-4.04.04-8.09,1-12.02.1-.43-.59-.56-.69-.14h0Z" fill="#ff656b"/><path d="M50.72,101.64c-.42,3.71-.7,7.44-.84,11.18-.02.44.69.39.7-.05.14-3.68.41-7.34.83-11,.05-.43-.64-.57-.69-.14h0Z" fill="#ff656b"/><path d="M52.31,101.85c-.51.77-.52,1.71-.59,2.59-.09,1-.18,2-.26,3-.18,2.08-.37,4.15-.55,6.23-.04.43.66.57.69.14.18-2,.35-4,.53-6,.09-1,.18-2,.26-3,.08-.89.05-1.88.55-2.65.24-.37-.39-.67-.63-.31h0Z" fill="#ff656b"/><path d="M53.66,102.41c-.61,3.68-1,7.39-1.18,11.12-.02.44.68.39.7-.05.18-3.67.58-7.32,1.17-10.94.07-.43-.62-.57-.69-.14h0Z" fill="#ff656b"/><path d="M55.13,102.96c-.18,3.73-.52,7.46-1.03,11.16-.06.43.63.57.69.14.51-3.76.86-7.55,1.04-11.34.02-.44-.68-.39-.7.05h0Z" fill="#ff656b"/><path d="M56.81,102.95c-.2,2.06-.37,4.13-.63,6.18-.25,2-.92,3.92-1.09,5.93-.04.43.66.57.69.14.17-2.01.84-3.93,1.09-5.93.25-2.05.42-4.12.63-6.18.04-.43-.65-.57-.69-.14h0Z" fill="#ff656b"/><path d="M58,103.26c-.52,3.96-1,7.93-1.43,11.9-.05.43.65.57.69.14.43-3.97.91-7.94,1.43-11.9.06-.43-.64-.57-.69-.14h0Z" fill="#ff656b"/><path d="M59.35,103.53c-.64,3.89-1.04,7.81-1.21,11.76-.02.44.69.39.7-.05.17-3.88.58-7.74,1.2-11.57.07-.43-.62-.57-.69-.14h0Z" fill="#ff656b"/><path d="M60.83,103.91c-.52,3.82-.93,7.65-1.22,11.49-.03.43.66.57.69.14.29-3.84.7-7.67,1.22-11.49.06-.43-.63-.57-.69-.14h0Z" fill="#ff656b"/><path d="M62.49,104.05c-.38,3.68-.82,7.35-1.32,11.01-.06.43.63.57.69.14.51-3.66.95-7.33,1.32-11.01.04-.43-.65-.57-.69-.14h0Z" fill="#ff656b"/><path d="M63.92,104.25c-.42,3.81-.72,7.63-.92,11.45-.02.44.68.39.7-.05.2-3.77.5-7.52.91-11.27.05-.43-.65-.57-.69-.14h0Z" fill="#ff656b"/><path d="M65.41,104.72c-.3,3.89-.56,7.78-.78,11.67-.03.43.67.57.69.14.23-3.89.49-7.79.78-11.67.03-.43-.66-.57-.69-.14h0Z" fill="#ff656b"/><path d="M66.96,105.13c-.47,3.69-.67,7.41-.6,11.14,0,.44.71.39.7-.05-.07-3.67.13-7.33.59-10.96.05-.43-.64-.57-.69-.14h0Z" fill="#ff656b"/><path d="M68.52,105.53c-.55,3.71-.75,7.47-.6,11.23.02.44.72.39.7-.05-.14-3.7.05-7.39.59-11.05.06-.43-.63-.57-.69-.14h0Z" fill="#ff656b"/><path d="M69.69,105.65c-.13,3.89-.26,7.77-.39,11.66-.01.44.69.39.7-.05.13-3.89.26-7.77.39-11.66.01-.44-.69-.39-.7.05h0Z" fill="#ff656b"/><path d="M71.16,105.96c-.35,4-.49,8.01-.39,12.02.01.44.71.39.7-.05-.09-3.95.03-7.91.38-11.84.04-.43-.66-.57-.69-.14h0Z" fill="#ff656b"/><path d="M72.6,106.24c-.16,4.06-.17,8.12-.02,12.18.02.44.72.39.7-.05-.15-4.06-.15-8.12.02-12.18.02-.44-.69-.39-.7.05h0Z" fill="#ff656b"/><path d="M74.05,106.72c-.22,3.89-.28,7.79-.16,11.69.01.44.72.39.7-.05-.12-3.84-.07-7.68.15-11.51.02-.43-.67-.57-.69-.14h0Z" fill="#ff656b"/><path d="M75.68,106.58c-.4,4.2-.58,8.41-.53,12.63,0,.44.71.39.7-.05-.05-4.16.12-8.31.52-12.45.04-.43-.65-.57-.69-.14h0Z" fill="#ff656b"/><path d="M77.21,107.06c-.14,4.25-.29,8.5-.43,12.75-.01.44.69.39.7-.05.14-4.25.29-8.5.43-12.75.01-.44-.69-.39-.7.05h0Z" fill="#ff656b"/><path d="M78.56,107.61c-.33,4.29-.52,8.59-.57,12.9,0,.44.7.39.7-.05.05-4.25.23-8.49.56-12.72.03-.43-.66-.57-.69-.14h0Z" fill="#ff656b"/><path d="M79.94,108.25c-.55,4.05-.79,8.14-.7,12.23,0,.44.71.39.7-.05-.08-4.03.15-8.06.69-12.05.06-.43-.63-.57-.69-.14h0Z" fill="#ff656b"/><path d="M81.19,107.95c-.35,4.44-.54,8.9-.57,13.36,0,.44.7.39.7-.05.03-4.4.22-8.79.56-13.18.03-.43-.66-.57-.69-.14h0Z" fill="#ff656b"/><path d="M82.62,108.43c-.11,2.28-.22,4.56-.33,6.84-.1,2.13-.38,4.34-.08,6.47.06.43.77.39.7-.05-.3-2.13-.02-4.33.08-6.47.11-2.28.22-4.56.33-6.84.02-.44-.68-.39-.7.05h0Z" fill="#ff656b"/><path d="M84.08,108.98c.07,4.38-.1,8.75-.51,13.1-.04.43.65.57.69.14.41-4.41.59-8.85.52-13.28,0-.44-.71-.39-.7.05h0Z" fill="#ff656b"/><path d="M85.94,109.53c-.63,4.14-1.05,8.3-1.27,12.49-.02.44.68.39.7-.05.21-4.12.63-8.23,1.26-12.31.07-.43-.63-.57-.69-.14h0Z" fill="#ff656b"/><path d="M87.42,109.46c-.45,4.06-.99,8.11-1.6,12.14-.07.43.63.57.69.14.61-4.04,1.14-8.09,1.6-12.14.05-.43-.65-.57-.69-.14h0Z" fill="#ff656b"/><path d="M93.29,124.27c-.59,2.03-.78,4.17-.55,6.28.05.44.75.39.7-.05-.22-2.06-.04-4.11.54-6.09.12-.42-.57-.56-.69-.14h0Z" fill="#ff656b"/><path d="M94.24,124.56c-.23,2.06-.25,4.13-.04,6.2.04.44.75.39.7-.05-.2-2.01-.19-4.02.03-6.02.05-.43-.64-.57-.69-.14h0Z" fill="#ff656b"/><path d="M95.13,124.64c-.03,2.16,0,4.33.11,6.49.02.44.72.39.7-.05-.1-2.16-.14-4.33-.11-6.49,0-.44-.7-.39-.7.05h0Z" fill="#ff656b"/><path d="M96.3,125.05c.06,1.94.06,3.89,0,5.83-.01.44.69.39.7-.05.06-1.94.05-3.89,0-5.83-.01-.44-.72-.39-.7.05h0Z" fill="#ff656b"/><path d="M97.55,125.36c.12.18.1.41.1.62,0,.24,0,.49,0,.73,0,.53,0,1.05-.03,1.58-.04,1.06-.12,2.12-.24,3.18-.05.43.65.57.69.14.13-1.16.21-2.32.25-3.48.02-.57.03-1.13.02-1.7,0-.48.05-1.01-.23-1.43-.25-.37-.83,0-.58.38h0Z" fill="#ff656b"/><path d="M98.98,125.49c.09,2.05-.05,4.09-.39,6.11-.07.43.62.57.69.14.36-2.08.49-4.19.4-6.3-.02-.44-.72-.39-.7.05h0Z" fill="#ff656b"/><path d="M100.23,126.01c.12,1.93,0,3.86-.34,5.76-.08.43.61.57.69.14.36-1.96.48-3.95.35-5.94-.03-.44-.73-.39-.7.05h0Z" fill="#ff656b"/><path d="M101.77,126.04c.02,1.9-.09,3.79-.33,5.67-.05.43.64.57.69.14.24-1.94.36-3.89.34-5.85,0-.44-.71-.39-.7.05h0Z" fill="#ff656b"/><path d="M103.48,126.57c-.03,1.86-.27,3.7-.72,5.5-.11.43.59.56.69.14.46-1.86.7-3.76.73-5.68,0-.44-.7-.39-.7.05h0Z" fill="#ff656b"/><path d="M104.79,126.64c0,1.8-.27,3.58-.76,5.3-.12.42.57.56.69.14.51-1.78.76-3.63.77-5.48,0-.44-.7-.39-.7.05h0Z" fill="#ff656b"/><path d="M106.38,127.15c-.12,1.48-.34,2.94-.68,4.39-.1.43.59.56.69.14.33-1.44.56-2.91.68-4.39.01-.18-.08-.36-.28-.4-.17-.03-.4.08-.41.27h0Z" fill="#ff656b"/><path d="M9.85,105.18c.28,2.64.26,5.3-.05,7.93-.05.43.64.57.69.14.32-2.69.35-5.41.06-8.11-.05-.44-.75-.39-.7.05h0Z" fill="#ff656b"/><path d="M11.28,105.83c-.1,2.64-.14,5.27-.13,7.91,0,.44.71.39.7-.05-.02-2.64.03-5.28.13-7.91.02-.44-.69-.39-.7.05h0Z" fill="#ff656b"/><path d="M12.41,105.69c-.1,2.7-.12,5.41-.05,8.11.01.44.72.39.7-.05-.07-2.7-.05-5.41.05-8.11.02-.44-.69-.39-.7.05h0Z" fill="#ff656b"/><path d="M13.72,106.5c-.11,2.72-.22,5.44-.32,8.16-.02.44.69.39.7-.05.11-2.72.22-5.44.32-8.16.02-.44-.69-.39-.7.05h0Z" fill="#ff656b"/><path d="M15.03,106.29c-.11,2.75-.22,5.5-.33,8.25-.02.44.69.39.7-.05.11-2.75.22-5.5.33-8.25.02-.44-.69-.39-.7.05h0Z" fill="#ff656b"/><path d="M16.27,106.34c.11.66.04,1.31-.01,1.97-.05.66-.09,1.32-.14,1.97-.09,1.34-.19,2.68-.28,4.02-.03.43.66.57.69.14.1-1.39.2-2.79.29-4.18.05-.68.1-1.37.14-2.05.04-.64.12-1.28,0-1.92-.08-.43-.78-.39-.7.05h0Z" fill="#ff656b"/><path d="M17.92,106.77c-.22,2.76-.46,5.51-.73,8.26-.04.43.65.57.69.14.27-2.75.52-5.51.73-8.26.03-.43-.66-.57-.69-.14h0Z" fill="#ff656b"/><path d="M18.98,107.08c-.16,2.45-.39,4.9-.71,7.34-.06.43.64.57.69.14.32-2.44.56-4.89.71-7.34.03-.43-.67-.57-.69-.14h0Z" fill="#ff656b"/><path d="M20.22,107.42c0,2.41-.2,4.8-.62,7.17-.08.43.62.57.69.14.43-2.42.63-4.88.63-7.35,0-.44-.71-.39-.7.05h0Z" fill="#ff656b"/><path d="M21.64,107.7c-.24,2.23-.48,4.46-.73,6.69-.05.43.65.57.69.14.24-2.23.48-4.46.73-6.69.05-.43-.65-.57-.69-.14h0Z" fill="#ff656b"/><g clip-path="url(#c)"><path d="M107.16,46.09c-.09-.02-.17,0-.24.03l-.99-.26.76-.43-.24-.41-1.17.67-1.97-.51,1-.58,1.32.34.12-.46-.85-.22,1.4-.8s0,0,0,0c.18.05.35-.06.4-.23.05-.17-.06-.35-.24-.39-.16-.04-.33.05-.39.2l-1.42.81.22-.83-.47-.12-.34,1.29-1,.58.51-1.93,1.17-.67-.24-.41-.76.43.25-.96c.06-.04.1-.1.12-.17.05-.17-.06-.35-.24-.39s-.35.06-.4.23c-.02.09,0,.18.04.25l-.25.93-.45-.75-.41.24.69,1.15-.51,1.93-.57-.96.34-1.29-.47-.12-.22.83-.84-1.4c.03-.17-.07-.33-.24-.38-.18-.05-.35.06-.4.23-.04.17.06.34.22.39l.84,1.39-.85-.22-.12.46,1.32.34.57.96-1.97-.51-.69-1.15-.41.24.45.75-.94-.24c-.04-.07-.11-.12-.2-.14-.18-.05-.35.06-.4.23s.06.35.24.39c.08.02.16,0,.23-.03l.95.25-.76.43.24.41,1.17-.67,1.97.51-.88.5-1.32-.34-.12.46.85.22-1.48.85s0,0,0,0c-.18-.05-.35.06-.4.23-.05.17.06.35.24.39.16.04.33-.05.39-.2l1.51-.86-.22.83.47.12.34-1.29.88-.5-.51,1.93-1.17.67.24.41.76-.43-.17.65c-.08.04-.14.11-.16.2-.05.17.06.35.24.39.18.05.35-.06.4-.23.02-.07,0-.14-.02-.2l.18-.69.45.75.41-.24-.69-1.15.51-1.93.59.99-.34,1.29.47.12.22-.83.8,1.33s0,0,0,0c-.05.17.06.35.24.39.18.05.35-.06.4-.23.04-.16-.05-.32-.21-.38l-.81-1.35.85.22.12-.46-1.32-.34-.59-.99,1.97.51.69,1.15.41-.24-.45-.75,1,.26c.04.06.11.11.18.13.18.05.35-.06.4-.23.05-.17-.06-.35-.24-.39ZM102.53,45.84c-.31-.08-.5-.39-.42-.7.08-.31.4-.49.71-.41.31.08.5.39.42.7-.08.31-.4.49-.71.41Z" fill="#3789b1"/><path d="M97.02,43.88c-.09-.01-.17,0-.24.05l-1-.17.72-.5-.28-.39-1.11.77-2.01-.34.94-.66,1.34.23.08-.47-.87-.15,1.32-.92s0,0,0,0c.18.03.35-.09.38-.26s-.09-.34-.27-.37c-.17-.03-.32.08-.37.23l-1.34.93.14-.85-.47-.08-.22,1.32-.94.66.33-1.97,1.11-.77-.28-.39-.72.5.16-.98c.05-.05.09-.11.11-.18.03-.18-.09-.34-.27-.37-.18-.03-.35.09-.38.26-.01.09,0,.18.06.24l-.16.95-.51-.71-.39.27.8,1.09-.33,1.97-.66-.91.22-1.32-.47-.08-.14.85-.97-1.32c.02-.17-.1-.33-.27-.35-.18-.03-.35.09-.38.26-.03.17.09.33.26.37l.97,1.32-.87-.15-.08.47,1.34.23.66.91-2.01-.34-.8-1.09-.39.27.51.71-.96-.16c-.05-.06-.12-.11-.21-.13-.18-.03-.35.09-.38.26-.03.18.09.34.27.37.08.01.16,0,.22-.04l.97.16-.71.5.28.39,1.11-.77,2.01.34-.83.58-1.34-.23-.08.47.87.15-1.4.98s0,0,0,0c-.18-.03-.35.09-.38.26-.03.18.09.34.27.37.17.03.32-.08.37-.23l1.42-.99-.14.85.47.08.22-1.32.83-.58-.33,1.97-1.11.77.28.39.71-.5-.11.66c-.07.05-.13.12-.14.21-.03.18.09.34.27.37.18.03.35-.09.38-.26.01-.07,0-.14-.04-.2l.12-.7.51.71.39-.27-.8-1.09.33-1.97.68.93-.22,1.32.47.08.14-.85.92,1.26s0,0,0,0c-.03.18.09.34.27.37.18.03.35-.09.38-.26.03-.16-.08-.32-.24-.36l-.93-1.28.87.15.08-.47-1.34-.23-.68-.93,2.01.34.8,1.09.39-.27-.51-.71,1.02.17c.05.06.11.1.2.11.18.03.35-.09.38-.26s-.09-.34-.27-.37ZM92.39,44.03c-.32-.05-.53-.35-.48-.66.05-.31.35-.52.67-.47.32.05.53.35.48.66-.05.31-.35.52-.67.47Z" fill="#3789b1"/><path d="M86.51,42.05c-.09-.02-.17,0-.24.03l-.98-.26.76-.43-.24-.41-1.18.66-1.97-.52,1.01-.57,1.32.35.12-.46-.85-.23,1.4-.79s0,0,0,0c.18.05.35-.06.4-.23.05-.17-.06-.35-.23-.39-.16-.04-.33.05-.39.2l-1.43.8.22-.83-.47-.12-.35,1.29-1.01.57.52-1.92,1.18-.66-.24-.41-.76.43.26-.96c.06-.04.11-.1.12-.17.05-.17-.06-.35-.23-.39-.18-.05-.36.06-.4.23-.02.09,0,.18.04.25l-.25.93-.44-.75-.42.23.69,1.16-.52,1.92-.57-.97.35-1.29-.47-.12-.22.83-.84-1.4c.03-.17-.07-.33-.23-.38-.18-.05-.35.06-.4.23-.05.17.05.34.22.39l.83,1.4-.85-.23-.12.46,1.32.35.57.97-1.97-.52-.69-1.16-.42.23.44.75-.94-.25c-.04-.07-.11-.12-.2-.14-.18-.05-.35.06-.4.23-.05.17.06.35.23.39.08.02.16,0,.23-.02l.95.25-.76.43.24.41,1.18-.66,1.97.52-.88.5-1.32-.35-.12.46.85.23-1.49.84s0,0,0,0c-.18-.05-.35.06-.4.23-.05.17.06.35.23.39.16.04.33-.05.39-.2l1.51-.85-.22.83.47.12.35-1.29.88-.5-.52,1.92-1.18.66.24.41.76-.43-.17.65c-.08.04-.14.11-.16.2-.05.17.06.35.23.39s.35-.06.4-.23c.02-.07,0-.14-.02-.2l.18-.69.44.75.42-.23-.69-1.16.52-1.92.59.99-.35,1.29.47.12.22-.83.79,1.33s0,0,0,0c-.05.17.06.35.23.39.18.05.35-.06.4-.23.04-.16-.05-.32-.21-.38l-.8-1.35.85.23.12-.46-1.32-.35-.59-.99,1.97.52.69,1.16.42-.23-.44-.75,1,.26c.04.06.1.11.18.13.18.05.36-.06.4-.23.05-.17-.06-.35-.23-.39ZM81.88,41.78c-.31-.08-.49-.4-.41-.7.08-.31.4-.49.71-.41.31.08.49.4.41.7-.08.31-.4.49-.71.41Z" fill="#3789b1"/><path d="M76.3,39.77c-.09-.02-.17,0-.24.03l-.99-.26.76-.43-.24-.41-1.18.67-1.97-.51,1-.57,1.32.34.12-.46-.85-.22,1.4-.8s0,0,0,0c.18.05.35-.06.4-.23.05-.17-.06-.35-.24-.39-.16-.04-.33.05-.39.2l-1.42.81.22-.83-.47-.12-.34,1.29-1,.57.51-1.93,1.18-.67-.24-.41-.76.43.26-.96c.06-.04.1-.1.12-.17.05-.17-.06-.35-.24-.39-.18-.05-.35.06-.4.23-.02.09,0,.18.04.25l-.25.93-.45-.75-.42.24.69,1.16-.51,1.93-.57-.97.34-1.29-.47-.12-.22.83-.84-1.4c.03-.17-.07-.33-.24-.38-.18-.05-.35.06-.4.23-.04.17.06.34.22.39l.84,1.39-.85-.22-.12.46,1.32.34.57.97-1.97-.51-.69-1.16-.42.24.45.75-.94-.24c-.04-.07-.11-.12-.2-.14-.18-.05-.35.06-.4.23-.05.17.06.35.24.39.08.02.16,0,.23-.02l.95.25-.76.43.24.41,1.18-.67,1.97.51-.88.5-1.32-.34-.12.46.85.22-1.48.85s0,0,0,0c-.18-.05-.35.06-.4.23-.05.17.06.35.24.39.16.04.33-.05.39-.2l1.51-.86-.22.83.47.12.34-1.29.88-.5-.51,1.93-1.18.67.24.41.76-.43-.17.65c-.08.04-.14.11-.16.2-.05.17.06.35.24.39s.35-.06.4-.23c.02-.07,0-.14-.02-.2l.18-.69.45.75.42-.24-.69-1.16.51-1.93.59.99-.34,1.29.47.12.22-.83.8,1.33s0,0,0,0c-.05.17.06.35.24.39.18.05.35-.06.4-.23.04-.16-.05-.32-.21-.38l-.81-1.35.85.22.12-.46-1.32-.34-.59-.99,1.97.51.69,1.16.42-.24-.45-.75,1,.26c.04.06.11.11.18.13.18.05.35-.06.4-.23s-.06-.35-.24-.39ZM71.67,39.51c-.31-.08-.5-.39-.41-.7.08-.31.4-.49.71-.41.31.08.5.39.41.7-.08.31-.4.49-.71.41Z" fill="#3789b1"/><path d="M66.12,37.51c-.08-.03-.17-.02-.24.02l-.97-.29.78-.4-.23-.42-1.2.62-1.95-.59,1.03-.53,1.3.39.14-.45-.84-.26,1.43-.74s0,0,0,0c.17.05.36-.04.41-.21s-.05-.35-.22-.4c-.16-.05-.33.03-.39.18l-1.46.75.26-.82-.46-.14-.4,1.27-1.03.53.59-1.9,1.2-.62-.23-.42-.78.4.3-.95c.06-.04.11-.09.13-.17.05-.17-.05-.35-.22-.4-.17-.05-.36.04-.41.21-.03.09-.01.17.03.25l-.29.92-.42-.76-.42.22.64,1.18-.59,1.9-.53-.99.4-1.27-.46-.14-.26.82-.78-1.43c.04-.16-.05-.33-.22-.38-.17-.05-.36.04-.41.21-.05.17.04.34.21.4l.78,1.42-.84-.26-.14.45,1.3.39.53.99-1.95-.59-.64-1.18-.42.22.42.76-.93-.28c-.04-.07-.11-.13-.19-.15-.17-.05-.36.04-.41.21s.05.35.22.4c.08.02.16.01.23-.02l.94.28-.78.4.23.42,1.2-.62,1.95.59-.9.46-1.3-.39-.14.45.84.26-1.52.79s0,0,0,0c-.17-.05-.36.04-.41.21-.05.17.05.35.22.4.16.05.33-.03.39-.19l1.54-.8-.26.82.46.14.4-1.27.9-.47-.59,1.9-1.2.62.23.42.78-.4-.2.64c-.08.04-.14.1-.17.19-.05.17.05.35.22.4.17.05.36-.04.41-.21.02-.07.01-.14-.01-.2l.21-.68.42.76.42-.22-.64-1.18.59-1.9.55,1.01-.4,1.27.46.14.26-.82.74,1.36s0,0,0,0c-.05.17.05.35.22.4s.36-.04.41-.21c.05-.16-.04-.32-.19-.39l-.75-1.38.84.26.14-.45-1.3-.39-.55-1.01,1.95.59.64,1.18.42-.22-.42-.76.99.3c.04.06.1.11.18.14.17.05.36-.04.41-.21.05-.17-.05-.35-.22-.4ZM61.5,37.08c-.31-.09-.48-.41-.38-.72.09-.3.42-.47.73-.38.31.09.48.41.38.72-.09.3-.42.47-.73.38Z" fill="#3789b1"/><path d="M56.16,35.13c-.09-.02-.17-.01-.24.03l-.98-.27.77-.42-.24-.41-1.19.65-1.96-.54,1.01-.56,1.31.36.13-.45-.85-.24,1.41-.77s0,0,0,0c.17.05.36-.05.4-.22.05-.17-.05-.35-.23-.4-.16-.05-.33.04-.39.19l-1.44.79.24-.83-.46-.13-.36,1.28-1.01.56.54-1.92,1.19-.65-.24-.41-.77.42.27-.96c.06-.04.11-.1.13-.17.05-.17-.05-.35-.23-.4-.17-.05-.36.05-.4.22-.02.09,0,.17.03.25l-.26.93-.43-.75-.42.23.67,1.17-.54,1.92-.55-.97.36-1.28-.46-.13-.24.83-.82-1.41c.04-.17-.06-.33-.23-.38-.17-.05-.36.05-.4.22-.05.17.05.34.22.39l.82,1.41-.85-.24-.13.45,1.31.36.55.97-1.96-.54-.67-1.17-.42.23.43.75-.94-.26c-.04-.07-.11-.12-.19-.15-.17-.05-.36.05-.4.22-.05.17.05.35.23.4.08.02.16.01.23-.02l.95.26-.77.42.24.41,1.19-.65,1.96.54-.89.49-1.31-.36-.13.45.85.24-1.5.82s0,0,0,0c-.17-.05-.36.05-.4.22-.05.17.05.35.23.4.16.05.33-.04.39-.19l1.52-.84-.24.83.46.13.36-1.28.89-.49-.54,1.92-1.19.65.24.41.77-.42-.18.64c-.08.04-.14.11-.16.2-.05.17.05.35.23.4.17.05.36-.05.4-.22.02-.07,0-.14-.02-.2l.19-.68.43.75.42-.23-.67-1.17.54-1.92.57,1-.36,1.28.46.13.24-.83.77,1.34s0,0,0,0c-.05.17.05.35.23.4.17.05.36-.05.4-.22.05-.16-.04-.32-.2-.38l-.79-1.36.85.24.13-.45-1.31-.36-.57-1,1.96.54.67,1.17.42-.23-.43-.75,1,.28c.04.06.1.11.18.13.17.05.36-.05.4-.22.05-.17-.05-.35-.23-.4ZM51.53,34.8c-.31-.09-.49-.4-.4-.71.09-.3.41-.48.72-.4.31.09.49.4.4.71-.09.3-.41.48-.72.4Z" fill="#3789b1"/><path d="M46.12,32.95c-.09-.02-.17,0-.24.05l-1-.19.73-.48-.27-.39-1.12.75-2-.38.96-.64,1.34.25.09-.46-.87-.16,1.34-.89s0,0,0,0c.18.03.35-.08.38-.26.03-.17-.09-.34-.26-.38-.17-.03-.32.07-.37.23l-1.36.91.16-.85-.47-.09-.25,1.31-.96.64.37-1.96,1.12-.75-.27-.39-.73.48.18-.98c.05-.05.1-.11.11-.18.03-.17-.09-.34-.26-.38-.18-.03-.35.08-.38.26-.02.09,0,.18.06.24l-.18.95-.5-.71-.4.26.77,1.11-.37,1.96-.64-.92.25-1.31-.47-.09-.16.85-.94-1.34c.02-.17-.09-.33-.26-.36-.18-.03-.35.08-.38.26-.03.17.08.33.25.37l.94,1.33-.87-.16-.09.46,1.34.25.64.92-2-.38-.77-1.11-.4.26.5.71-.95-.18c-.05-.07-.12-.11-.21-.13-.18-.03-.35.08-.38.26-.03.17.09.34.26.38.08.02.16,0,.22-.04l.97.18-.72.48.27.39,1.12-.75,2,.38-.84.56-1.34-.25-.09.46.87.16-1.42.95s0,0,0,0c-.18-.03-.35.08-.38.26-.03.17.09.34.26.38.17.03.32-.07.37-.23l1.44-.96-.16.85.47.09.25-1.31.84-.56-.37,1.96-1.12.75.27.39.72-.48-.12.66c-.07.05-.13.12-.14.21-.03.17.09.34.26.38.18.03.35-.08.38-.26.01-.07,0-.14-.04-.2l.13-.7.5.72.4-.26-.77-1.11.37-1.96.66.95-.25,1.31.47.09.16-.85.89,1.27s0,0,0,0c-.03.17.09.34.26.38.18.03.35-.08.38-.26.03-.16-.07-.32-.23-.36l-.91-1.29.87.16.09-.46-1.34-.25-.66-.95,2,.38.77,1.11.4-.26-.5-.71,1.02.19c.05.06.11.1.19.12.18.03.35-.08.38-.26.03-.17-.09-.34-.26-.38ZM41.48,33.02c-.32-.06-.52-.36-.47-.67.06-.31.36-.52.68-.46.31.06.52.36.46.67-.06.31-.36.52-.68.46Z" fill="#3789b1"/><path d="M36.06,32.72c-.09-.02-.17,0-.24.03l-.99-.26.76-.43-.24-.41-1.18.67-1.97-.52,1.01-.57,1.32.35.12-.46-.85-.22,1.4-.79s0,0,0,0c.18.05.35-.06.4-.23.05-.17-.06-.35-.23-.39-.16-.04-.33.05-.39.2l-1.43.8.22-.83-.47-.12-.35,1.29-1.01.57.52-1.92,1.18-.67-.24-.41-.76.43.26-.96c.06-.04.1-.1.12-.17.05-.17-.06-.35-.23-.39-.18-.05-.35.06-.4.23-.02.09,0,.18.04.25l-.25.93-.44-.75-.42.24.69,1.16-.52,1.92-.57-.97.35-1.29-.47-.12-.22.83-.84-1.4c.03-.17-.07-.33-.23-.38-.18-.05-.35.06-.4.23-.04.17.05.34.22.39l.83,1.4-.85-.22-.12.46,1.32.35.57.97-1.97-.52-.69-1.16-.42.24.44.75-.94-.25c-.04-.07-.11-.12-.2-.14-.18-.05-.35.06-.4.23-.05.17.06.35.23.39.08.02.16,0,.23-.02l.95.25-.76.43.24.41,1.18-.67,1.97.52-.88.5-1.32-.35-.12.46.85.22-1.49.84s0,0,0,0c-.18-.05-.35.06-.4.23-.05.17.06.35.23.39.16.04.33-.05.39-.2l1.51-.86-.22.83.47.12.35-1.29.88-.5-.52,1.92-1.18.67.24.41.76-.43-.17.65c-.08.04-.14.11-.16.2-.05.17.06.35.23.39.18.05.35-.06.4-.23.02-.07,0-.14-.02-.2l.18-.69.44.75.42-.24-.69-1.16.52-1.92.59.99-.35,1.29.47.12.22-.83.79,1.33s0,0,0,0c-.05.17.06.35.23.39.18.05.35-.06.4-.23.04-.16-.05-.32-.21-.38l-.81-1.35.85.22.12-.46-1.32-.35-.59-.99,1.97.52.69,1.16.42-.24-.44-.75,1,.26c.04.06.1.11.18.13.18.05.35-.06.4-.23.05-.17-.06-.35-.23-.39ZM31.43,32.45c-.31-.08-.49-.4-.41-.7.08-.31.4-.49.71-.41.31.08.49.4.41.7-.08.31-.4.49-.71.41Z" fill="#3789b1"/><path d="M117.48,47.51c-.09-.01-.17.01-.24.06l-1.01-.13.69-.53-.3-.37-1.07.82-2.02-.25.91-.7,1.35.17.06-.47-.88-.11,1.27-.97s0,0,0,0c.18.02.34-.1.36-.28.02-.18-.11-.34-.29-.36-.17-.02-.32.09-.35.25l-1.29.99.1-.86-.48-.06-.16,1.33-.91.7.23-1.98,1.07-.82-.3-.37-.69.53.12-.99c.05-.05.09-.11.1-.19.02-.18-.11-.34-.29-.36-.18-.02-.34.1-.36.28-.01.09.02.17.07.24l-.11.96-.55-.68-.38.29.85,1.06-.23,1.98-.7-.88.16-1.33-.48-.06-.1.86-1.03-1.28c.01-.17-.11-.32-.29-.34-.18-.02-.34.1-.36.28-.02.17.1.33.28.36l1.03,1.27-.87-.11-.06.47,1.35.17.7.88-2.02-.25-.85-1.06-.38.29.55.68-.96-.12c-.05-.06-.13-.11-.21-.12-.18-.02-.34.1-.36.28-.02.18.11.34.29.36.08.01.16-.01.22-.05l.98.12-.69.53.3.37,1.07-.82,2.02.25-.8.61-1.35-.17-.06.47.87.11-1.35,1.04s0,0,0,0c-.18-.02-.34.1-.36.28-.02.18.11.34.29.36.17.02.32-.09.35-.25l1.37-1.05-.1.86.48.06.16-1.33.8-.61-.23,1.98-1.07.82.3.37.69-.53-.08.66c-.07.05-.12.13-.13.22-.02.18.11.34.29.36.18.02.34-.1.36-.28,0-.07-.01-.14-.05-.2l.08-.71.55.68.38-.29-.85-1.06.23-1.98.72.9-.16,1.33.48.06.1-.86.98,1.22s0,0,0,0c-.02.18.11.34.29.36.18.02.34-.1.36-.28.02-.17-.1-.31-.26-.35l-.99-1.24.87.11.06-.47-1.35-.17-.72-.9,2.02.25.85,1.06.38-.29-.55-.68,1.03.13c.05.06.12.1.2.11.18.02.34-.1.36-.28.02-.18-.11-.34-.29-.36ZM112.87,47.86c-.32-.04-.55-.33-.51-.64.04-.31.33-.54.64-.5.32.04.55.33.51.64-.04.31-.33.54-.64.5Z" fill="#3789b1"/><polygon points="32.3 38.46 35 42.19 38.83 39.65 36.14 35.91 32.3 38.46" fill="#3789b1"/><polygon points="32.3 38.46 35 42.19 38.83 39.65 36.14 35.91 32.3 38.46" fill="none" stroke="#ff5a5d" stroke-miterlimit="10" stroke-width=".78"/><polygon points="42.23 39.65 44.92 43.39 48.75 40.84 46.06 37.1 42.23 39.65" fill="#3789b1"/><polygon points="42.23 39.65 44.92 43.39 48.75 40.84 46.06 37.1 42.23 39.65" fill="none" stroke="#ff5a5d" stroke-miterlimit="10" stroke-width=".78"/><polygon points="22.25 36.56 24.94 40.29 28.77 37.75 26.08 34.01 22.25 36.56" fill="#3789b1"/><polygon points="22.25 36.56 24.94 40.29 28.77 37.75 26.08 34.01 22.25 36.56" fill="none" stroke="#ff5a5d" stroke-miterlimit="10" stroke-width=".78"/><polygon points="52.03 41.04 54.34 45 58.42 42.83 56.11 38.87 52.03 41.04" fill="#3789b1"/><polygon points="52.03 41.04 54.34 45 58.42 42.83 56.11 38.87 52.03 41.04" fill="none" stroke="#ff5a5d" stroke-miterlimit="10" stroke-width=".78"/><polygon points="62.17 43.78 64.48 47.75 68.55 45.58 66.24 41.61 62.17 43.78" fill="#3789b1"/><polygon points="62.17 43.78 64.48 47.75 68.55 45.58 66.24 41.61 62.17 43.78" fill="none" stroke="#ff5a5d" stroke-miterlimit="10" stroke-width=".78"/><polygon points="72.3 46.83 75.13 50.48 78.86 47.8 76.03 44.16 72.3 46.83" fill="#3789b1"/><polygon points="72.3 46.83 75.13 50.48 78.86 47.8 76.03 44.16 72.3 46.83" fill="none" stroke="#ff5a5d" stroke-miterlimit="10" stroke-width=".78"/><polygon points="82.8 49.04 85.63 52.68 89.36 50 86.53 46.36 82.8 49.04" fill="#3789b1"/><polygon points="82.8 49.04 85.63 52.68 89.36 50 86.53 46.36 82.8 49.04" fill="none" stroke="#ff5a5d" stroke-miterlimit="10" stroke-width=".78"/><polygon points="92.87 51.15 95.69 54.8 99.43 52.12 96.6 48.47 92.87 51.15" fill="#3789b1"/><polygon points="92.87 51.15 95.69 54.8 99.43 52.12 96.6 48.47 92.87 51.15" fill="none" stroke="#ff5a5d" stroke-miterlimit="10" stroke-width=".78"/><polygon points="102.93 52.65 105.76 56.29 109.49 53.62 106.66 49.97 102.93 52.65" fill="#3789b1"/><polygon points="102.93 52.65 105.76 56.29 109.49 53.62 106.66 49.97 102.93 52.65" fill="none" stroke="#ff5a5d" stroke-miterlimit="10" stroke-width=".78"/><polygon points="113.74 54.08 116.57 57.72 120.3 55.05 117.47 51.4 113.74 54.08" fill="#3789b1"/><polygon points="113.74 54.08 116.57 57.72 120.3 55.05 117.47 51.4 113.74 54.08" fill="none" stroke="#ff5a5d" stroke-miterlimit="10" stroke-width=".78"/><path d="M104.91,60.57c-.09-.02-.17,0-.24.03l-.99-.26.76-.43-.24-.41-1.17.67-1.97-.51,1-.58,1.32.34.12-.46-.85-.22,1.4-.8s0,0,0,0c.18.05.35-.06.4-.23s-.06-.35-.24-.39c-.16-.04-.33.05-.39.2l-1.42.81.22-.83-.47-.12-.34,1.29-1,.58.51-1.93,1.17-.67-.24-.41-.76.43.25-.96c.06-.04.1-.1.12-.17.05-.17-.06-.35-.24-.39-.18-.05-.35.06-.4.23-.02.09,0,.18.04.25l-.25.93-.45-.75-.41.24.69,1.15-.51,1.93-.57-.96.34-1.29-.47-.12-.22.83-.84-1.4c.03-.17-.07-.33-.24-.38-.18-.05-.35.06-.4.23-.04.17.06.34.22.39l.84,1.39-.85-.22-.12.46,1.32.34.57.96-1.97-.51-.69-1.15-.41.24.45.75-.94-.24c-.04-.07-.11-.12-.2-.14-.18-.05-.35.06-.4.23-.05.17.06.35.24.39.08.02.16,0,.23-.03l.95.25-.76.43.24.41,1.17-.67,1.97.51-.88.5-1.32-.34-.12.46.85.22-1.48.85s0,0,0,0c-.18-.05-.35.06-.4.23-.05.17.06.35.24.39.16.04.33-.05.39-.2l1.51-.86-.22.83.47.12.34-1.29.88-.5-.51,1.93-1.17.67.24.41.76-.43-.17.65c-.08.04-.14.11-.16.2-.05.17.06.35.24.39s.35-.06.4-.23c.02-.07,0-.14-.02-.2l.18-.69.45.75.41-.24-.69-1.15.51-1.93.59.99-.34,1.29.47.12.22-.83.8,1.33s0,0,0,0c-.05.17.06.35.24.39.18.05.35-.06.4-.23.04-.16-.05-.32-.21-.38l-.81-1.35.85.22.12-.46-1.32-.34-.59-.99,1.97.51.69,1.15.41-.24-.45-.75,1,.26c.04.06.11.11.18.13.18.05.35-.06.4-.23.05-.17-.06-.35-.24-.39ZM100.28,60.32c-.31-.08-.5-.39-.42-.7.08-.31.4-.49.71-.41.31.08.5.39.42.7-.08.31-.4.49-.71.41Z" fill="#3789b1"/><path d="M94.78,58.36c-.09-.01-.17,0-.24.05l-1-.17.72-.5-.28-.39-1.11.77-2.01-.34.94-.66,1.34.23.08-.46-.87-.15,1.32-.92s0,0,0,0c.18.03.35-.09.38-.26.03-.18-.09-.34-.27-.37-.17-.03-.32.08-.37.23l-1.34.93.14-.85-.47-.08-.22,1.32-.94.66.33-1.97,1.11-.77-.28-.39-.72.5.16-.98c.05-.05.09-.11.11-.18.03-.18-.09-.34-.27-.37s-.35.09-.38.26c-.01.09,0,.18.06.24l-.16.95-.51-.71-.39.27.8,1.09-.33,1.97-.66-.91.22-1.32-.47-.08-.14.85-.97-1.32c.02-.17-.1-.33-.27-.35-.18-.03-.35.09-.38.26-.03.17.09.33.26.37l.97,1.32-.87-.15-.08.47,1.34.23.66.91-2.01-.34-.8-1.09-.39.27.51.71-.96-.16c-.05-.06-.12-.11-.21-.13-.18-.03-.35.09-.38.26-.03.18.09.34.27.37.08.01.16,0,.22-.04l.97.16-.72.5.28.39,1.11-.77,2.01.34-.83.58-1.34-.23-.08.46.87.15-1.4.98s0,0,0,0c-.18-.03-.35.09-.38.26-.03.18.09.34.27.37.17.03.32-.08.37-.23l1.42-.99-.14.85.47.08.22-1.32.83-.58-.33,1.96-1.11.77.28.39.71-.5-.11.66c-.07.05-.13.12-.14.21-.03.18.09.34.27.37.18.03.35-.09.38-.26.01-.07,0-.14-.04-.2l.12-.7.51.71.39-.27-.8-1.09.33-1.97.68.93-.22,1.32.47.08.14-.85.92,1.26s0,0,0,0c-.03.18.09.34.27.37.18.03.35-.09.38-.26.03-.16-.08-.32-.24-.36l-.93-1.28.87.15.08-.46-1.34-.23-.68-.93,2.01.34.8,1.09.39-.27-.51-.71,1.02.17c.05.06.11.1.2.11.18.03.35-.09.38-.26.03-.18-.09-.34-.27-.37ZM90.15,58.51c-.32-.05-.53-.35-.48-.66.05-.31.35-.52.67-.47.32.05.53.35.48.66-.05.31-.35.52-.67.47Z" fill="#3789b1"/><path d="M84.26,56.53c-.09-.02-.17,0-.24.03l-.98-.26.76-.43-.24-.41-1.18.66-1.97-.52,1.01-.57,1.32.35.12-.46-.85-.23,1.4-.79s0,0,0,0c.18.05.35-.06.4-.23.05-.17-.06-.35-.23-.39-.16-.04-.33.05-.39.2l-1.43.8.22-.83-.47-.12-.35,1.29-1.01.57.52-1.92,1.18-.66-.24-.41-.76.43.26-.96c.06-.04.11-.1.12-.17.05-.17-.06-.35-.23-.39s-.35.06-.4.23c-.02.09,0,.18.04.25l-.25.93-.44-.75-.42.23.69,1.16-.52,1.92-.57-.97.35-1.29-.47-.12-.22.83-.84-1.4c.03-.17-.07-.33-.23-.38-.18-.05-.35.06-.4.23-.05.17.05.34.22.39l.83,1.4-.85-.23-.12.46,1.32.35.57.97-1.97-.52-.69-1.16-.42.23.44.75-.94-.25c-.04-.07-.11-.12-.2-.15-.18-.05-.35.06-.4.23-.05.17.06.35.23.39.08.02.16,0,.23-.02l.95.25-.76.43.24.41,1.18-.66,1.97.52-.88.5-1.32-.35-.12.46.85.23-1.49.84s0,0,0,0c-.18-.05-.35.06-.4.23-.05.17.06.35.23.39.16.04.33-.05.39-.2l1.51-.85-.22.83.47.12.35-1.29.88-.5-.52,1.92-1.18.66.24.41.76-.43-.17.65c-.08.04-.14.11-.16.2-.05.17.06.35.23.39s.35-.06.4-.23c.02-.07,0-.14-.02-.2l.18-.69.44.75.42-.23-.69-1.16.52-1.92.59.99-.35,1.29.47.12.22-.83.79,1.33s0,0,0,0c-.05.17.06.35.23.39s.35-.06.4-.23c.04-.16-.05-.32-.21-.38l-.81-1.35.85.23.12-.46-1.32-.35-.59-.99,1.97.52.69,1.16.42-.23-.44-.75,1,.26c.04.06.1.11.18.13.18.05.35-.06.4-.23.05-.17-.06-.35-.23-.39ZM79.64,56.26c-.31-.08-.49-.4-.41-.7.08-.31.4-.49.71-.41.31.08.49.4.41.7-.08.31-.4.49-.71.41Z" fill="#3789b1"/><path d="M74.06,54.24c-.09-.02-.17,0-.24.03l-.99-.26.76-.43-.24-.41-1.18.67-1.97-.51,1-.57,1.32.34.12-.46-.85-.22,1.4-.8s0,0,0,0c.18.05.35-.06.4-.23.05-.17-.06-.35-.24-.39-.16-.04-.33.05-.39.2l-1.42.81.22-.83-.47-.12-.34,1.29-1,.57.51-1.93,1.18-.67-.24-.41-.76.43.26-.96c.06-.04.1-.1.12-.17.05-.17-.06-.35-.24-.39-.18-.05-.35.06-.4.23-.02.09,0,.18.04.25l-.25.93-.45-.75-.42.24.69,1.16-.51,1.93-.57-.97.34-1.29-.47-.12-.22.83-.84-1.4c.03-.17-.07-.33-.24-.38-.18-.05-.35.06-.4.23-.04.17.06.34.22.39l.84,1.39-.85-.22-.12.46,1.32.34.57.97-1.97-.51-.69-1.16-.42.24.45.75-.94-.24c-.04-.07-.11-.12-.2-.14-.18-.05-.35.06-.4.23-.05.17.06.35.24.39.08.02.16,0,.23-.02l.95.25-.76.43.24.41,1.18-.67,1.97.51-.88.5-1.32-.34-.12.46.85.22-1.48.85s0,0,0,0c-.18-.05-.35.06-.4.23-.05.17.06.35.24.39.16.04.33-.05.39-.2l1.51-.86-.22.83.47.12.34-1.29.88-.5-.51,1.93-1.18.67.24.41.76-.43-.17.65c-.08.04-.14.11-.16.2-.05.17.06.35.24.39.18.05.35-.06.4-.23.02-.07,0-.14-.02-.2l.18-.69.45.75.42-.24-.69-1.16.51-1.93.59.99-.34,1.29.47.12.22-.83.8,1.33s0,0,0,0c-.05.17.06.35.24.39.18.05.35-.06.4-.23.04-.16-.05-.32-.21-.38l-.81-1.35.85.22.12-.46-1.32-.34-.59-.99,1.97.51.69,1.16.42-.24-.45-.75,1,.26c.04.06.11.11.18.13.18.05.35-.06.4-.23.05-.17-.06-.35-.24-.39ZM69.43,53.99c-.31-.08-.5-.39-.41-.7.08-.31.4-.49.71-.41s.5.39.41.7c-.08.31-.4.49-.71.41Z" fill="#3789b1"/><path d="M63.87,51.99c-.08-.03-.17-.02-.24.02l-.97-.29.78-.4-.23-.42-1.2.62-1.95-.59,1.03-.53,1.3.39.14-.45-.84-.26,1.43-.74s0,0,0,0c.17.05.36-.04.41-.21s-.05-.35-.22-.4c-.16-.05-.33.03-.39.18l-1.46.75.26-.82-.46-.14-.4,1.27-1.03.53.59-1.9,1.2-.62-.23-.42-.78.4.3-.95c.06-.04.11-.09.13-.17.05-.17-.05-.35-.22-.4s-.36.04-.41.21c-.03.09-.01.17.03.25l-.29.92-.42-.76-.42.22.64,1.18-.59,1.9-.53-.99.4-1.27-.46-.14-.26.82-.78-1.43c.04-.16-.05-.33-.22-.38-.17-.05-.36.04-.41.21-.05.17.04.34.21.4l.78,1.42-.84-.26-.14.45,1.3.39.53.99-1.95-.59-.64-1.18-.42.22.42.76-.93-.28c-.04-.07-.11-.13-.19-.15-.17-.05-.36.04-.41.21-.05.17.05.35.22.4.08.02.16.01.23-.02l.94.28-.78.4.23.42,1.2-.62,1.95.59-.9.47-1.3-.39-.14.45.84.26-1.52.79s0,0,0,0c-.17-.05-.36.04-.41.21-.05.17.05.35.22.4.16.05.33-.03.39-.19l1.54-.8-.26.82.46.14.4-1.27.9-.47-.59,1.9-1.2.62.23.42.78-.4-.2.64c-.08.04-.14.1-.17.19-.05.17.05.35.22.4.17.05.36-.04.41-.21.02-.07.01-.14-.01-.2l.21-.68.42.76.42-.22-.64-1.18.59-1.9.55,1.01-.4,1.27.46.14.26-.82.74,1.36s0,0,0,0c-.05.17.05.35.22.4.17.05.36-.04.41-.21.05-.16-.04-.32-.19-.39l-.75-1.38.84.26.14-.45-1.3-.39-.55-1.01,1.95.59.64,1.18.42-.22-.42-.76.99.3c.04.06.1.11.18.14.17.05.36-.04.41-.21.05-.17-.05-.35-.22-.4ZM59.26,51.56c-.31-.09-.48-.41-.38-.72.09-.3.42-.47.73-.38.31.09.48.41.38.72-.09.3-.42.47-.73.38Z" fill="#3789b1"/><path d="M53.91,49.6c-.09-.02-.17-.01-.24.03l-.98-.27.77-.42-.24-.41-1.19.65-1.96-.54,1.01-.56,1.31.36.13-.45-.85-.24,1.41-.77s0,0,0,0c.17.05.36-.05.4-.22.05-.17-.05-.35-.23-.4-.16-.05-.33.04-.39.19l-1.44.79.24-.83-.46-.13-.36,1.28-1.01.56.54-1.92,1.19-.65-.24-.41-.77.42.27-.96c.06-.04.11-.1.13-.17.05-.17-.05-.35-.23-.4-.17-.05-.36.05-.4.22-.02.09,0,.17.03.25l-.26.93-.43-.75-.42.23.67,1.17-.54,1.92-.55-.97.36-1.28-.46-.13-.24.83-.82-1.41c.04-.17-.06-.33-.23-.38-.17-.05-.36.05-.4.22-.05.17.05.34.22.39l.82,1.41-.85-.24-.13.45,1.31.36.55.97-1.96-.54-.67-1.17-.42.23.43.75-.94-.26c-.04-.07-.11-.12-.19-.15-.17-.05-.36.05-.4.22-.05.17.05.35.23.4.08.02.16.01.23-.02l.95.26-.77.42.24.41,1.19-.65,1.96.54-.89.49-1.31-.36-.13.45.85.24-1.5.82s0,0,0,0c-.17-.05-.36.05-.4.22-.05.17.05.35.23.4.16.05.33-.04.39-.19l1.52-.84-.24.83.46.13.36-1.28.89-.49-.54,1.92-1.19.65.24.41.77-.42-.18.64c-.08.04-.14.11-.16.2-.05.17.05.35.23.4.17.05.36-.05.4-.22.02-.07,0-.14-.02-.2l.19-.68.43.75.42-.23-.67-1.17.54-1.92.57,1-.36,1.28.46.13.24-.83.77,1.34s0,0,0,0c-.05.17.05.35.23.4.17.05.36-.05.4-.22.05-.16-.04-.32-.2-.38l-.79-1.36.85.24.13-.45-1.31-.36-.57-1,1.96.54.67,1.17.42-.23-.43-.75,1,.28c.04.06.1.11.18.13.17.05.36-.05.4-.22s-.05-.35-.23-.4ZM49.29,49.27c-.31-.09-.49-.4-.4-.71s.41-.48.72-.4c.31.09.49.4.4.71-.09.3-.41.48-.72.4Z" fill="#3789b1"/><path d="M43.87,47.43c-.09-.02-.17,0-.24.05l-1-.19.73-.48-.27-.39-1.12.75-2-.38.96-.64,1.34.25.09-.46-.87-.16,1.34-.89s0,0,0,0c.18.03.35-.08.38-.26.03-.17-.09-.34-.26-.38-.17-.03-.32.07-.37.23l-1.36.91.16-.85-.47-.09-.25,1.31-.96.64.37-1.96,1.12-.75-.27-.39-.73.48.18-.98c.05-.05.1-.11.11-.18.03-.17-.09-.34-.26-.38-.18-.03-.35.08-.38.26-.02.09,0,.18.06.24l-.18.95-.5-.71-.4.26.77,1.11-.37,1.96-.64-.92.25-1.31-.47-.09-.16.85-.94-1.34c.02-.17-.09-.33-.26-.36-.18-.03-.35.08-.38.26-.03.17.08.33.25.37l.94,1.33-.87-.16-.09.46,1.34.25.64.92-2-.38-.77-1.11-.4.26.5.72-.95-.18c-.05-.07-.12-.11-.21-.13-.18-.03-.35.08-.38.26-.03.17.09.34.26.38.08.02.16,0,.22-.04l.97.18-.72.48.27.39,1.12-.75,2,.38-.84.56-1.34-.25-.09.46.87.16-1.42.95s0,0,0,0c-.18-.03-.35.08-.38.26-.03.17.09.34.26.38.17.03.32-.07.37-.23l1.44-.96-.16.85.47.09.25-1.31.84-.56-.37,1.96-1.12.75.27.39.72-.48-.12.66c-.07.05-.13.12-.14.21-.03.17.09.34.26.38.18.03.35-.08.38-.26.01-.07,0-.14-.04-.2l.13-.7.5.71.4-.26-.77-1.11.37-1.96.66.95-.25,1.31.47.09.16-.85.89,1.27s0,0,0,0c-.03.17.09.34.26.38s.35-.08.38-.26c.03-.16-.07-.32-.23-.36l-.91-1.29.87.16.09-.46-1.34-.25-.66-.95,2,.38.77,1.11.4-.26-.5-.71,1.02.19c.05.06.11.1.19.12.18.03.35-.08.38-.26.03-.17-.09-.34-.26-.38ZM39.24,47.5c-.32-.06-.52-.36-.47-.67.06-.31.36-.52.68-.46.32.06.52.36.47.67-.06.31-.36.52-.68.46Z" fill="#3789b1"/><path d="M33.81,47.2c-.09-.02-.17,0-.24.03l-.99-.26.76-.43-.24-.41-1.18.67-1.97-.52,1.01-.57,1.32.35.12-.46-.85-.22,1.4-.79s0,0,0,0c.18.05.35-.06.4-.23.05-.17-.06-.35-.23-.39-.16-.04-.33.05-.39.2l-1.43.8.22-.83-.47-.12-.35,1.29-1.01.57.52-1.92,1.18-.67-.24-.41-.76.43.26-.96c.06-.04.1-.1.12-.17.05-.17-.06-.35-.23-.39-.18-.05-.35.06-.4.23-.02.09,0,.18.04.25l-.25.93-.44-.75-.42.24.69,1.16-.52,1.92-.57-.97.35-1.29-.47-.12-.22.83-.84-1.4c.03-.17-.07-.33-.24-.38-.18-.05-.35.06-.4.23-.04.17.05.34.22.39l.83,1.4-.85-.22-.12.46,1.32.35.57.97-1.97-.52-.69-1.16-.42.24.44.75-.94-.25c-.04-.07-.11-.12-.2-.14-.18-.05-.35.06-.4.23-.05.17.06.35.23.39.08.02.16,0,.23-.02l.95.25-.76.43.24.41,1.18-.67,1.97.52-.88.5-1.32-.35-.12.46.85.22-1.49.84s0,0,0,0c-.18-.05-.35.06-.4.23-.05.17.06.35.23.39.16.04.33-.05.39-.2l1.51-.86-.22.83.47.12.35-1.29.88-.5-.52,1.92-1.18.67.24.41.76-.43-.17.65c-.08.04-.14.11-.16.2-.05.17.06.35.23.39.18.05.35-.06.4-.23.02-.07,0-.14-.02-.2l.18-.69.44.75.42-.24-.69-1.16.52-1.92.59.99-.35,1.29.47.12.22-.83.79,1.33s0,0,0,0c-.05.17.06.35.23.39.18.05.35-.06.4-.23.04-.16-.05-.32-.21-.38l-.81-1.35.85.22.12-.46-1.32-.35-.59-.99,1.97.52.69,1.16.42-.24-.44-.75,1,.26c.04.06.1.11.18.13.18.05.35-.06.4-.23.05-.17-.06-.35-.23-.39ZM29.19,46.93c-.31-.08-.49-.4-.41-.7.08-.31.4-.49.71-.41.31.08.49.4.41.7-.08.31-.4.49-.71.41Z" fill="#3789b1"/><path d="M115.24,61.99c-.09-.01-.17.01-.24.06l-1.01-.13.69-.53-.3-.37-1.07.82-2.02-.25.91-.7,1.35.17.06-.47-.88-.11,1.27-.97s0,0,0,0c.18.02.34-.1.36-.28.02-.18-.11-.34-.29-.36-.17-.02-.32.09-.35.25l-1.29.99.1-.86-.48-.06-.16,1.33-.91.7.23-1.98,1.07-.82-.3-.37-.69.53.12-.99c.05-.05.09-.11.1-.19.02-.18-.11-.34-.29-.36-.18-.02-.34.1-.36.28-.01.09.02.17.07.24l-.11.96-.55-.68-.38.29.85,1.06-.23,1.98-.7-.88.16-1.33-.48-.06-.1.86-1.03-1.28c.01-.17-.11-.32-.29-.34-.18-.02-.34.1-.36.28-.02.17.1.33.28.36l1.03,1.27-.87-.11-.06.47,1.35.17.7.88-2.02-.25-.85-1.06-.38.29.55.68-.96-.12c-.05-.06-.13-.11-.21-.12-.18-.02-.34.1-.36.28-.02.18.11.34.29.36.08.01.16-.01.22-.05l.98.12-.69.53.3.37,1.07-.82,2.02.25-.8.61-1.35-.17-.06.47.87.11-1.35,1.04s0,0,0,0c-.18-.02-.34.1-.36.28-.02.18.11.34.29.36.17.02.32-.09.35-.25l1.37-1.05-.1.86.48.06.16-1.33.8-.61-.23,1.98-1.07.82.3.37.69-.53-.08.66c-.07.05-.12.13-.13.22-.02.18.11.34.29.36.18.02.34-.1.36-.28,0-.07-.01-.14-.05-.2l.08-.7.55.68.38-.29-.85-1.06.23-1.98.72.9-.16,1.33.48.06.1-.86.98,1.22s0,0,0,0c-.02.18.11.34.29.36s.34-.1.36-.28c.02-.17-.1-.31-.26-.35l-.99-1.24.87.11.06-.47-1.35-.17-.72-.9,2.02.25.85,1.06.38-.29-.55-.68,1.03.13c.05.06.12.1.2.11.18.02.34-.1.36-.28.02-.18-.11-.34-.29-.36ZM110.62,62.34c-.32-.04-.55-.33-.51-.64.04-.31.33-.54.64-.5.32.04.55.33.51.64-.04.31-.33.54-.64.5Z" fill="#3789b1"/><path d="M24.05,44.53c-.09-.02-.17,0-.24.03l-.99-.26.76-.43-.24-.41-1.18.67-1.97-.52,1.01-.57,1.32.35.12-.46-.85-.22,1.4-.79s0,0,0,0c.18.05.35-.06.4-.23.05-.17-.06-.35-.23-.39-.16-.04-.33.05-.39.2l-1.43.8.22-.83-.47-.12-.35,1.29-1.01.57.52-1.92,1.18-.67-.24-.41-.76.43.26-.96c.06-.04.1-.1.12-.17.05-.17-.06-.35-.23-.39-.18-.05-.35.06-.4.23-.02.09,0,.18.04.25l-.25.93-.44-.75-.42.24.69,1.16-.52,1.92-.57-.97.35-1.29-.47-.12-.22.83-.84-1.4c.03-.17-.07-.33-.24-.38-.18-.05-.35.06-.4.23-.04.17.05.34.22.39l.83,1.4-.85-.22-.12.46,1.32.35.57.97-1.97-.52-.69-1.16-.42.24.44.75-.94-.25c-.04-.07-.11-.12-.2-.14-.18-.05-.35.06-.4.23-.05.17.06.35.23.39.08.02.16,0,.23-.02l.95.25-.76.43.24.41,1.18-.67,1.97.52-.88.5-1.32-.35-.12.46.85.22-1.49.84s0,0,0,0c-.18-.05-.35.06-.4.23-.05.17.06.35.23.39.16.04.33-.05.39-.2l1.51-.86-.22.83.47.12.35-1.29.88-.5-.52,1.92-1.18.67.24.41.76-.43-.17.65c-.08.04-.14.11-.16.2-.05.17.06.35.23.39.18.05.35-.06.4-.23.02-.07,0-.14-.02-.2l.18-.69.44.75.42-.24-.69-1.16.52-1.92.59.99-.35,1.29.47.12.22-.83.79,1.33s0,0,0,0c-.05.17.06.35.23.39.18.05.35-.06.4-.23.04-.16-.05-.32-.21-.38l-.81-1.35.85.22.12-.46-1.32-.35-.59-.99,1.97.52.69,1.16.42-.24-.44-.75,1,.26c.04.06.1.11.18.13.18.05.35-.06.4-.23.05-.17-.06-.35-.23-.39ZM19.42,44.26c-.31-.08-.49-.4-.41-.7.08-.31.4-.49.71-.41.31.08.49.4.41.7-.08.31-.4.49-.71.41Z" fill="#3789b1"/><path d="M125.09,64.65c-.09-.02-.17,0-.24.03l-.99-.26.76-.43-.24-.41-1.18.67-1.97-.52,1.01-.57,1.32.35.12-.46-.85-.22,1.4-.79s0,0,0,0c.18.05.35-.06.4-.23.05-.17-.06-.35-.23-.39-.16-.04-.33.05-.39.2l-1.43.8.22-.83-.47-.12-.35,1.29-1.01.57.52-1.92,1.18-.67-.24-.41-.76.43.26-.96c.06-.04.1-.1.12-.17.05-.17-.06-.35-.23-.39-.18-.05-.35.06-.4.23-.02.09,0,.18.04.25l-.25.93-.44-.75-.42.24.69,1.16-.52,1.92-.57-.97.35-1.29-.47-.12-.22.83-.84-1.4c.03-.17-.07-.33-.24-.38-.18-.05-.35.06-.4.23-.04.17.05.34.22.39l.83,1.4-.85-.22-.12.46,1.32.35.57.97-1.97-.52-.69-1.16-.42.24.44.75-.94-.25c-.04-.07-.11-.12-.2-.14-.18-.05-.35.06-.4.23-.05.17.06.35.23.39.08.02.16,0,.23-.02l.95.25-.76.43.24.41,1.18-.67,1.97.52-.88.5-1.32-.35-.12.46.85.22-1.49.84s0,0,0,0c-.18-.05-.35.06-.4.23-.05.17.06.35.23.39.16.04.33-.05.39-.2l1.51-.86-.22.83.47.12.35-1.29.88-.5-.52,1.92-1.18.67.24.41.76-.43-.17.65c-.08.04-.14.11-.16.2-.05.17.06.35.23.39.18.05.35-.06.4-.23.02-.07,0-.14-.02-.2l.18-.69.44.75.42-.24-.69-1.16.52-1.92.59.99-.35,1.29.47.12.22-.83.79,1.33s0,0,0,0c-.05.17.06.35.23.39.18.05.35-.06.4-.23.04-.16-.05-.32-.21-.38l-.81-1.35.85.22.12-.46-1.32-.35-.59-.99,1.97.52.69,1.16.42-.24-.44-.75,1,.26c.04.06.1.11.18.13.18.05.35-.06.4-.23.05-.17-.06-.35-.23-.39ZM120.46,64.38c-.31-.08-.49-.4-.41-.7.08-.31.4-.49.71-.41.31.08.49.4.41.7-.08.31-.4.49-.71.41Z" fill="#3789b1"/></g><g opacity=".61"><path d="M49.08,32.42c.14-.51-.65-.74-.9-.3-2.22,4.03-3.6,8.55-5.12,12.88-1.37,3.92-2.66,7.87-3.86,11.85-1.29,4.25-2.5,8.54-3.57,12.85-1.02,4.09-2.28,8.37-2.24,12.61,0,.06.09.07.11.02,1.68-3.73,2.38-7.9,3.4-11.84,1.12-4.3,2.28-8.59,3.57-12.85,1.32-4.37,2.74-8.7,4.26-13.01.79-2.22,1.67-4.41,2.5-6.62-.27,2.07-.35,4.19-.46,6.06-.02.38.54.52.62.12.66-3.21,1.64-7.13,1.33-10.52.13-.42.25-.84.36-1.26Z" fill="#2a536a"/><path d="M97.52,80.73c.85-4.6,1.51-9.23,1.98-13.88.91-9.04,1.65-18.65.29-27.7-.09-.61-.89-.59-1.04-.09-.03-.05-.09-.06-.13,0-.66.99-.84,2.29-1.09,3.44-.3,1.36-.53,2.72-.7,4.1-.06.46.61.59.73.14.37-1.34.67-2.69.91-4.06.07-.37.14-.75.21-1.13-.1,8.72.26,17.35-.61,26.07-.44,4.48-1.06,8.95-1.86,13.38-.4,2.22-.84,4.42-1.32,6.62-.44,2.03-1.2,4.09-1.02,6.17,0,.1.14.11.19.04,1.19-1.76,1.49-3.95,1.97-5.99.56-2.36,1.05-4.73,1.49-7.12Z" fill="#2a536a"/></g></svg>