<?xml version="1.0" encoding="UTF-8"?><svg xmlns="http://www.w3.org/2000/svg" xmlns:xlink="http://www.w3.org/1999/xlink" viewBox="0 0 926.82 647.89"><defs><linearGradient id="b" x1="35.96" y1="-413.06" x2="35.96" y2="-121.64" gradientTransform="translate(532.16 286.25) rotate(90)" gradientUnits="userSpaceOnUse"><stop offset="0" stop-color="#e78443"/><stop offset=".17" stop-color="#d27b4a"/><stop offset=".38" stop-color="#bf7450"/><stop offset=".53" stop-color="#b97253"/><stop offset=".94" stop-color="#e5cdab"/><stop offset="1" stop-color="#eddcba"/></linearGradient><linearGradient id="c" x1="143.29" y1="-196.79" x2="143.29" y2="-149.89" gradientTransform="translate(532.16 286.25) rotate(90)" gradientUnits="userSpaceOnUse"><stop offset=".02" stop-color="#fff"/><stop offset=".11" stop-color="#f7f7f7"/><stop offset=".24" stop-color="#e1e1e1"/><stop offset=".4" stop-color="#bdbebe"/><stop offset=".59" stop-color="#8c8d8d"/><stop offset=".77" stop-color="#535555"/><stop offset="1" stop-color="#47494b"/></linearGradient><linearGradient id="d" x1="135.73" y1="-369.16" x2="135.73" y2="-394.9" gradientTransform="translate(532.16 286.25) rotate(90)" gradientUnits="userSpaceOnUse"><stop offset=".02" stop-color="#fff"/><stop offset=".25" stop-color="#fcfcfc"/><stop offset=".38" stop-color="#f4f4f4"/><stop offset=".49" stop-color="#e6e6e6"/><stop offset=".59" stop-color="#d2d2d2"/><stop offset=".67" stop-color="#b8b9b9"/><stop offset=".75" stop-color="#989999"/><stop offset=".82" stop-color="#737575"/><stop offset=".88" stop-color="#535555"/><stop offset="1" stop-color="#47494b"/></linearGradient><filter id="f" x="839.25" y="228.21" width="38.99" height="414.49" color-interpolation-filters="sRGB" filterUnits="userSpaceOnUse"><feFlood flood-color="#fff" result="bg"/><feBlend in="SourceGraphic" in2="bg"/></filter><filter id="h" x="839.25" y="-8573.48" width="38.99" height="32766" color-interpolation-filters="sRGB" filterUnits="userSpaceOnUse"><feFlood flood-color="#fff" result="bg"/><feBlend in="SourceGraphic" in2="bg"/></filter><mask id="g" x="839.25" y="-8573.48" width="38.99" height="32766" maskUnits="userSpaceOnUse"/><linearGradient id="i" x1="149.21" y1="-346.85" x2="149.21" y2="-308.34" gradientTransform="translate(532.16 286.25) rotate(90)" gradientUnits="userSpaceOnUse"><stop offset="0" stop-color="#272727"/><stop offset=".18" stop-color="#6c6c6c"/><stop offset=".54" stop-color="#fff"/><stop offset=".58" stop-color="#f2f2f2"/><stop offset=".66" stop-color="#cfcfcf"/><stop offset=".76" stop-color="#989898"/><stop offset=".88" stop-color="#4d4d4d"/><stop offset="1" stop-color="#000"/></linearGradient><mask id="e" x="839.25" y="228.21" width="38.99" height="414.49" maskUnits="userSpaceOnUse"><g filter="url(#f)"><g mask="url(#g)"><path d="M839.25,642.7c14.29-2.59,27.49-6.6,38.99-11.81V228.21l-38.99.14v414.35Z" fill="url(#i)" mix-blend-mode="multiply"/></g></g></mask><linearGradient id="j" x1="149.21" y1="-346.85" x2="149.21" y2="-308.34" gradientTransform="translate(532.16 286.25) rotate(90)" gradientUnits="userSpaceOnUse"><stop offset="0" stop-color="#636567"/><stop offset=".45" stop-color="#a7a7a8"/><stop offset=".54" stop-color="#b5b5b5"/><stop offset=".62" stop-color="#a8a8a8"/><stop offset=".77" stop-color="#868787"/><stop offset=".97" stop-color="#4f5153"/><stop offset="1" stop-color="#47494b"/></linearGradient><linearGradient id="k" x1="-138.64" y1="-268.23" x2="-16.02" y2="-271.31" gradientTransform="translate(532.16 286.25) rotate(90)" gradientUnits="userSpaceOnUse"><stop offset="0" stop-color="#e9be62"/><stop offset="0" stop-color="#e8bd61"/><stop offset=".22" stop-color="#cf9f55"/><stop offset=".4" stop-color="#c08c4e"/><stop offset=".52" stop-color="#bb864c"/><stop offset=".92" stop-color="#e4cda7"/><stop offset="1" stop-color="#eddcba"/></linearGradient><filter id="m" x="692.42" y="259.02" width="224.81" height="51.68" color-interpolation-filters="sRGB" filterUnits="userSpaceOnUse"><feFlood flood-color="#fff" result="bg"/><feBlend in="SourceGraphic" in2="bg"/></filter><filter id="o" x="692.42" y="-8573.48" width="224.81" height="32766" color-interpolation-filters="sRGB" filterUnits="userSpaceOnUse"><feFlood flood-color="#fff" result="bg"/><feBlend in="SourceGraphic" in2="bg"/></filter><mask id="n" x="692.42" y="-8573.48" width="224.81" height="32766" maskUnits="userSpaceOnUse"/><linearGradient id="p" x1="-1.4" y1="-364.03" x2="-1.4" y2="-198.68" xlink:href="#i"/><mask id="l" x="692.42" y="259.02" width="224.81" height="51.68" maskUnits="userSpaceOnUse"><g filter="url(#m)"><g mask="url(#n)"><path d="M917.23,259.02s-17.44,30.61-81.06,40.19c-63.62,9.58-116.05-9.32-137.34-28.33,0,0-7.34-6.72-6.31-2.62,1.02,4.11,24.11,49.26,130.31,41.56,0,0,74.39-4.1,94.4-50.79Z" fill="url(#p)" mix-blend-mode="multiply"/></g></g></mask><linearGradient id="q" x1="-1.4" y1="-364.03" x2="-1.4" y2="-198.68" xlink:href="#j"/><filter id="s" x="692.42" y="591.64" width="224.81" height="51.67" color-interpolation-filters="sRGB" filterUnits="userSpaceOnUse"><feFlood flood-color="#fff" result="bg"/><feBlend in="SourceGraphic" in2="bg"/></filter><filter id="u" x="692.42" y="-8573.48" width="224.81" height="32766" color-interpolation-filters="sRGB" filterUnits="userSpaceOnUse"><feFlood flood-color="#fff" result="bg"/><feBlend in="SourceGraphic" in2="bg"/></filter><mask id="t" x="692.42" y="-8573.48" width="224.81" height="32766" maskUnits="userSpaceOnUse"/><linearGradient id="v" x1="335.23" y1="-272.66" x2="395.43" y2="-272.66" xlink:href="#i"/><mask id="r" x="692.42" y="591.64" width="224.81" height="51.67" maskUnits="userSpaceOnUse"><g filter="url(#s)"><g mask="url(#t)"><path d="M917.23,591.64s-17.44,30.61-81.06,40.19c-63.62,9.58-116.05-9.31-137.34-28.33,0,0-7.34-6.72-6.31-2.62,1.02,4.1,24.11,49.26,130.31,41.55,0,0,74.39-4.1,94.4-50.79Z" fill="url(#v)" mix-blend-mode="multiply"/></g></g></mask><linearGradient id="w" x1="335.23" y1="-272.66" x2="395.43" y2="-272.66" xlink:href="#j"/></defs><g isolation="isolate"><g id="a"><path d="M602.13,199.16h-15.07c.08-.45.29-.87.29-1.38,0-7.31-5.92-13.25-13.27-13.25h-10.15L188.38,1.03c-5.04-2.46-11.12-.35-13.58,4.68-2.48,5.04-.39,11.12,4.66,13.6l343.84,168.01c-3.22,2.46-5.49,6.15-5.49,10.46,0,.52.25.93.29,1.38H33.84c-18.74,0-33.84,15.23-33.84,33.91v363.3c0,18.66,15.11,33.82,33.84,33.82h568.31c18.66,0,33.82-15.17,33.82-33.82V233.07c-.02-18.68-15.17-33.91-33.84-33.91ZM114.64,451.21c0-7.51,6.11-13.64,13.64-13.64s13.68,6.13,13.68,13.64-6.11,13.66-13.68,13.66-13.64-6.11-13.64-13.66ZM121.95,484.49c0,7.55-6.13,13.68-13.66,13.68s-13.66-6.13-13.66-13.68,6.11-13.64,13.66-13.64,13.66,6.11,13.66,13.64ZM152.18,470.85c7.53,0,13.62,6.11,13.62,13.64s-6.09,13.68-13.62,13.68-13.7-6.13-13.7-13.68,6.15-13.64,13.7-13.64ZM156.86,451.21c0-7.51,6.13-13.64,13.66-13.64s13.66,6.13,13.66,13.64-6.11,13.66-13.66,13.66-13.66-6.11-13.66-13.66ZM194.38,470.85c7.55,0,13.66,6.11,13.66,13.64s-6.11,13.68-13.66,13.68-13.66-6.13-13.66-13.68,6.13-13.64,13.66-13.64ZM203.21,451.21c0-7.51,6.13-13.64,13.66-13.64s13.66,6.13,13.66,13.64-6.13,13.66-13.66,13.66-13.66-6.11-13.66-13.66ZM240.77,470.85c7.51,0,13.62,6.11,13.62,13.64s-6.11,13.68-13.62,13.68-13.7-6.13-13.7-13.68,6.13-13.64,13.7-13.64ZM247.11,451.21c0-7.51,6.13-13.64,13.66-13.64s13.66,6.13,13.66,13.64-6.13,13.66-13.66,13.66-13.66-6.11-13.66-13.66ZM284.63,470.85c7.53,0,13.66,6.11,13.66,13.64s-6.13,13.68-13.66,13.68-13.66-6.13-13.66-13.68,6.13-13.64,13.66-13.64ZM290.67,451.21c0-7.51,6.09-13.64,13.62-13.64s13.66,6.13,13.66,13.64-6.09,13.66-13.66,13.66-13.62-6.11-13.62-13.66ZM304.3,389.07c-7.53,0-13.62-6.11-13.62-13.68s6.09-13.7,13.62-13.7,13.66,6.15,13.66,13.7-6.09,13.68-13.66,13.68ZM299.18,414.68c0,7.55-6.11,13.7-13.66,13.7s-13.66-6.15-13.66-13.7,6.13-13.66,13.66-13.66c7.55.02,13.66,6.13,13.66,13.66ZM260.77,389.07c-7.53,0-13.66-6.11-13.66-13.68s6.13-13.7,13.66-13.7,13.66,6.15,13.66,13.7-6.13,13.68-13.66,13.68ZM255.3,414.68c0,7.55-6.11,13.7-13.68,13.7s-13.62-6.15-13.62-13.7,6.11-13.66,13.62-13.66c7.57.02,13.68,6.13,13.68,13.66ZM216.88,389.07c-7.53,0-13.66-6.11-13.66-13.68s6.13-13.7,13.66-13.7,13.66,6.15,13.66,13.7-6.13,13.68-13.66,13.68ZM208.93,414.68c0,7.55-6.13,13.7-13.66,13.7s-13.62-6.15-13.62-13.7,6.09-13.66,13.62-13.66,13.66,6.13,13.66,13.66ZM170.53,389.07c-7.53,0-13.66-6.11-13.66-13.68s6.13-13.7,13.66-13.7,13.66,6.15,13.66,13.7-6.11,13.68-13.66,13.68ZM166.71,414.68c0,7.55-6.11,13.7-13.64,13.7s-13.66-6.15-13.66-13.7,6.11-13.66,13.66-13.66c7.53.02,13.64,6.13,13.64,13.66ZM128.28,389.07c-7.53,0-13.64-6.11-13.64-13.68s6.11-13.7,13.64-13.7,13.68,6.15,13.68,13.7-6.11,13.68-13.68,13.68ZM122.83,414.68c0,7.55-6.09,13.7-13.66,13.7s-13.66-6.15-13.66-13.7,6.13-13.66,13.66-13.66c7.57.02,13.66,6.13,13.66,13.66ZM84.43,389.07c-7.53,0-13.66-6.11-13.66-13.68s6.13-13.7,13.66-13.7,13.66,6.15,13.66,13.7c0,7.55-6.13,13.68-13.66,13.68ZM84.43,437.56c7.53,0,13.66,6.13,13.66,13.64s-6.13,13.66-13.66,13.66-13.66-6.09-13.66-13.66c0-7.51,6.13-13.64,13.66-13.64ZM70.76,519.27c0-7.55,6.13-13.66,13.66-13.66s13.66,6.09,13.66,13.66-6.13,13.68-13.66,13.68-13.66-6.11-13.66-13.68ZM107.52,568.69c-7.53,0-13.68-6.11-13.68-13.68s6.15-13.62,13.68-13.62,13.66,6.09,13.66,13.62-6.13,13.68-13.66,13.68ZM114.64,519.27c0-7.55,6.11-13.66,13.64-13.66s13.68,6.09,13.68,13.66-6.11,13.68-13.68,13.68c-7.53-.02-13.64-6.11-13.64-13.68ZM151.37,568.69c-7.53,0-13.66-6.11-13.66-13.68s6.13-13.62,13.66-13.62,13.66,6.09,13.66,13.62-6.09,13.68-13.66,13.68ZM156.86,519.27c0-7.55,6.13-13.66,13.66-13.66s13.66,6.09,13.66,13.66-6.11,13.68-13.66,13.68c-7.55-.02-13.66-6.11-13.66-13.68ZM193.62,568.69c-7.53,0-13.66-6.11-13.66-13.68s6.13-13.62,13.66-13.62,13.66,6.09,13.66,13.62-6.13,13.68-13.66,13.68ZM203.21,519.27c0-7.55,6.13-13.66,13.66-13.66s13.66,6.09,13.66,13.66-6.13,13.68-13.66,13.68-13.66-6.11-13.66-13.68ZM239.97,568.69c-7.53,0-13.66-6.11-13.66-13.68s6.13-13.62,13.66-13.62,13.66,6.09,13.66,13.62-6.13,13.68-13.66,13.68ZM247.11,519.27c0-7.55,6.13-13.66,13.66-13.66s13.66,6.09,13.66,13.66-6.13,13.68-13.66,13.68-13.66-6.11-13.66-13.68ZM283.84,568.69c-7.51,0-13.64-6.11-13.64-13.68s6.13-13.62,13.64-13.62,13.68,6.09,13.68,13.62-6.13,13.68-13.68,13.68ZM290.67,519.27c0-7.55,6.09-13.66,13.62-13.66s13.66,6.09,13.66,13.66-6.09,13.68-13.66,13.68c-7.53-.02-13.62-6.11-13.62-13.68ZM327.39,568.69c-7.53,0-13.64-6.11-13.64-13.68s6.11-13.62,13.64-13.62,13.66,6.09,13.66,13.62-6.11,13.68-13.66,13.68ZM328.15,498.18c-7.51,0-13.62-6.13-13.62-13.68s6.11-13.64,13.62-13.64,13.66,6.11,13.66,13.64-6.07,13.68-13.66,13.68ZM329.08,428.38c-7.55,0-13.66-6.15-13.66-13.7s6.11-13.66,13.66-13.66,13.66,6.13,13.66,13.66-6.11,13.7-13.66,13.7ZM379.56,311.22h-238.17l-7.06-26.19-7.31,26.19h-55.43v-59.62h26.91v14.92h14.92v-14.92h44.7v14.92h14.9v-14.92h43.46v14.92h14.92v-14.92h42.2v14.92h14.92v-14.92h44.1v14.92h14.92v-14.92h32.05v59.62h-.04ZM419.29,252.45h139.07v59.6h-139.07v-59.6ZM502.1,545.5c-43.44,0-78.67-35.23-78.67-78.65s35.23-78.65,78.67-78.65,78.65,35.23,78.65,78.65c-.02,43.44-35.21,78.65-78.65,78.65Z" fill="#434040"/><path d="M502.1,413.05c-3.51,0-6.89.37-10.19,1.01l-15.11-15.09v20.53l.37-.04c-17.09,9.04-28.85,26.75-28.85,47.4,0,29.7,24.1,53.8,53.8,53.8s53.8-24.1,53.8-53.8c-.02-29.7-24.12-53.82-53.82-53.82Z" fill="#434040"/><path d="M924.92,576.17h.02V228.05l-230.2.81h-14.82v346.81c0,38.85,54.85,70.34,122.51,70.34s122.01-31.22,122.49-69.85Z" fill="#434242"/><path d="M678.04,575.67V228.86c0-1.04.84-1.87,1.88-1.87h14.82l230.19-.81c.5,0,.98.2,1.33.55.35.35.56.83.56,1.33v348.12c0,.11,0,.22-.03.32-.76,39.4-56.44,71.4-124.36,71.4s-124.39-32.4-124.39-72.22ZM681.8,230.73v344.94c0,37.75,54.11,68.47,120.63,68.47s120.15-30.49,120.61-67.99c0-.09,0-.18.03-.27V229.94l-241.26.8Z" fill="#363636"/><path d="M924.92,358.4h.02v-107.32h-245.02v106.82c0,38.85,54.85,70.35,122.51,70.35s122.01-31.22,122.49-69.85Z" fill="#e8e8e8"/><path d="M924.92,340.95h.02v-107.32h-245.02v106.83c0,38.85,54.85,70.34,122.51,70.34s122.01-31.22,122.49-69.85Z" fill="url(#b)"/><path d="M678.04,340.45v-106.83c0-1.04.84-1.87,1.88-1.87h245.02c1.04,0,1.88.84,1.88,1.87v107.32c0,.11-.01.22-.03.32-.76,39.4-56.44,71.41-124.36,71.41s-124.39-32.4-124.39-72.23ZM681.8,235.51v104.95c0,37.75,54.11,68.47,120.63,68.47s120.15-30.49,120.61-67.98c0-.09,0-.18.03-.27v-105.16h-241.26Z" fill="#a66651"/><path d="M725.36,228.74l-30.61.11h-14.82v346.81c0,22.08,17.72,41.77,45.43,54.67V228.74Z" fill="url(#c)" mix-blend-mode="multiply" opacity=".8"/><path d="M902.86,615.92c13.73-11.28,21.87-24.96,22.06-39.75h.02V228.05l-22.08.07v387.8Z" fill="url(#d)" mix-blend-mode="multiply" opacity=".8"/><g mask="url(#e)"><path d="M839.25,642.7c14.29-2.59,27.49-6.6,38.99-11.81V228.21l-38.99.14v414.35Z" fill="url(#j)" mix-blend-mode="color-dodge" opacity=".4"/></g><polygon points="815.38 379.31 815.38 361.63 833.06 361.63 833.06 350.34 815.38 350.34 815.38 332.66 804.09 332.66 804.09 350.34 786.41 350.34 786.41 361.63 804.09 361.63 804.09 379.31 815.38 379.31" fill="#e8e8e8"/><rect x="804.09" y="582.77" width="11.29" height="46.65" fill="#e8e8e8"/><path d="M802.43,299.21c-67.66,0-122.51-31.5-122.51-70.35s54.85-70.34,122.51-70.34,122.51,31.49,122.51,70.34-54.85,70.35-122.51,70.35Z" fill="url(#k)"/><path d="M678.04,228.86c0-39.82,55.8-72.22,124.39-72.22s124.39,32.4,124.39,72.22-55.81,72.23-124.39,72.23-124.39-32.4-124.39-72.23ZM923.06,228.86c0-37.75-54.12-68.46-120.64-68.46s-120.63,30.71-120.63,68.46,54.11,68.47,120.63,68.47,120.64-30.72,120.64-68.47Z" fill="#a66651"/><path d="M802.35,290.64c-59.42,0-107.6-27.66-107.6-61.79s48.18-61.78,107.6-61.78,107.6,27.66,107.6,61.78-48.18,61.79-107.6,61.79Z" fill="#929292"/><path d="M802.35,288.26c-57.17,0-103.51-26.07-103.51-58.25s46.34-58.24,103.51-58.24,103.52,26.07,103.52,58.24-46.34,58.25-103.52,58.25Z" fill="#c3c3c3"/><path d="M802.43,273.82c-44.92,0-81.34-20.5-81.34-45.77s36.42-45.77,81.34-45.77,81.34,20.49,81.34,45.77-36.42,45.77-81.34,45.77Z" fill="#9f9f9e"/><path d="M719.21,228.05c0-26.27,37.33-47.65,83.22-47.65s83.22,21.37,83.22,47.65-37.34,47.66-83.22,47.66-83.22-21.38-83.22-47.66ZM881.89,228.05c0-24.2-35.65-43.89-79.46-43.89s-79.46,19.69-79.46,43.89,35.65,43.9,79.46,43.9,79.46-19.69,79.46-43.9Z" fill="#828181"/><path d="M802.43,265.12c-42.93,0-77.73-19.58-77.73-43.73s34.8-43.74,77.73-43.74,77.73,19.58,77.73,43.74-34.8,43.73-77.73,43.73Z" fill="#dcdcdc"/><path d="M722.82,221.38c0-25.15,35.71-45.62,79.61-45.62s79.61,20.46,79.61,45.62-35.71,45.61-79.61,45.61-79.61-20.46-79.61-45.61ZM878.28,221.38c0-23.08-34.03-41.86-75.85-41.86s-75.85,18.78-75.85,41.86,34.03,41.86,75.85,41.86,75.85-18.78,75.85-41.86Z" fill="#a4a4a4"/><path d="M802.35,258.17c-38.7,0-70.06-17.65-70.06-39.42s31.37-39.43,70.06-39.43,70.07,17.65,70.07,39.43-31.37,39.42-70.07,39.42Z" fill="#fff" opacity=".3"/><path d="M833.06,220l-1.36-16.13h-58.54l-1.36,16.13c0,7.53,13.71,13.63,30.63,13.63s30.63-6.1,30.63-13.63Z" fill="#9f9f9e"/><path d="M769.92,220s0-.1,0-.15l1.36-16.14c.08-.97.9-1.72,1.88-1.72h58.54c.97,0,1.79.75,1.87,1.72l1.36,16.14h0c0,8.85-14.28,15.66-32.51,15.66s-32.5-6.81-32.5-15.51ZM774.89,205.74l-1.2,14.33c.1,5.54,11.88,11.68,28.75,11.68s28.75-6.19,28.75-11.75l-1.2-14.26h-55.09Z" fill="#828181"/><path d="M802.43,216.88c-16.17,0-29.27-5.83-29.27-13.02s13.1-13.02,29.27-13.02,29.28,5.83,29.28,13.02-13.11,13.02-29.28,13.02Z" fill="#dcdcdc"/><path d="M771.28,203.86c0-8.35,13.68-14.9,31.15-14.9s31.15,6.55,31.15,14.9-13.68,14.9-31.15,14.9-31.15-6.55-31.15-14.9ZM829.82,203.86c0-5.27-11.25-11.14-27.39-11.14s-27.39,5.87-27.39,11.14,11.25,11.14,27.39,11.14,27.39-5.88,27.39-11.14Z" fill="#a4a4a4"/><path d="M804.42,209.69c-9.95,0-18.02-3.59-18.02-8.01s8.06-8.02,18.02-8.02,18.02,3.59,18.02,8.02-8.07,8.01-18.02,8.01Z" fill="#fff"/><g mask="url(#l)"><path d="M917.23,259.02s-17.44,30.61-81.06,40.19c-63.62,9.58-116.05-9.32-137.34-28.33,0,0-7.34-6.72-6.31-2.62,1.02,4.11,24.11,49.26,130.31,41.56,0,0,74.39-4.1,94.4-50.79Z" fill="url(#q)" mix-blend-mode="color-dodge"/></g><g mask="url(#r)"><path d="M917.23,591.64s-17.44,30.61-81.06,40.19c-63.62,9.58-116.05-9.31-137.34-28.33,0,0-7.34-6.72-6.31-2.62,1.02,4.1,24.11,49.26,130.31,41.55,0,0,74.39-4.1,94.4-50.79Z" fill="url(#w)" mix-blend-mode="color-dodge"/></g></g></g></svg>