<?xml version="1.0" encoding="UTF-8"?><svg xmlns="http://www.w3.org/2000/svg" viewBox="0 0 646.78 720.28"><g isolation="isolate"><g id="a"><rect x="49.98" width="365.28" height="510.8" rx="2.87" ry="2.87" fill="#d9e021"/><rect x="137.44" y="83.28" width="195.5" height="260.95" rx="1.5" ry="1.5" fill="#c6c6b9"/><rect x="168.31" y="105.49" width="138.91" height="77.73" rx="1.69" ry="1.69" fill="#75756f"/><rect x="183.58" y="191.26" width="103.23" height="45.01" fill="none"/><path d="M224.02,213.46c0,11.11-7.77,20.54-19.09,20.54s-19.14-9.44-19.14-20.54,7.77-20.54,19.14-20.54,19.09,9.44,19.09,20.54ZM216.51,213.46c0-7.44-4.84-13.16-11.58-13.16s-11.63,5.72-11.63,13.16,4.84,13.16,11.63,13.16,11.58-5.72,11.58-13.16Z"/><path d="M231.53,194.03h20.99v6.55h-13.69v9.22h11.63v6.55h-11.63v16.55h-7.31v-38.87Z"/><path d="M259.46,194.03h20.99v6.55h-13.69v9.22h11.63v6.55h-11.63v16.55h-7.31v-38.87Z"/><rect x="168.31" y="244.3" width="59.53" height="33.31" rx=".6" ry=".6" fill="#75756f"/><rect x="247.68" y="244.3" width="59.53" height="33.31" rx=".6" ry=".6" fill="#75756f"/><rect x="219.76" y="316.48" width="41.16" height="16.66" rx=".45" ry=".45" fill="red"/><path d="M0,646.81l91.72,71.33c16.33-23.06,50.21-69.6,59.75-72.42,12.72-3.75,15.08-12.74,15.79-17.34.71-4.61,8.52-17.06,17.27-22.31,9.4-5.92,18.54-12.78,26.9-19.67,19.81-15.03,36.42-34.2,39.4-38.27.06-.08.12-.16.16-.23.02-.03.04-.06.06-.09.04-.05.07-.11.1-.15.05-.07.09-.13.11-.18,1.61-3.01,11.7-17.74,8.77-25.24-1.89-4.84-4.87-10.49-10.09-14.22-2.87-2.05-7.63-2.72-11.82-4.37,1.52-4.8,4.48-10.16,3.45-14.14-1.97-7.65-8.79-15.77-14.9-19.62-5.23-3.29-12.62-1.96-16.17-1.78,1.98-4.6,4.11-12.9,2.9-17.51-1.37-5.24-13.53-15.6-18.72-19.95-6.58-5.51-14.98-.71-20.45,3.78,3.77-6.07,7.28-11.44,8.93-13.31,4.51-5.09,8.22-9.83,11.02-18.03,2.8-8.2,18.72-31.96,21.23-34.32,2.51-2.36,6.2-14.57,8.9-19.58,2.69-4.99,20.11-2.2,7.99-11.55-.02-.02,11.7-4.62,5.21-6.79,0,0-.16-.16-.43-.43-.02-2.26-.03-5.6-.05-5.61-2.51-1.73-5.22-2.38-7.97-2.3-2.25-2.22-4.06-4.01-4.07-4.01,0,0,1.53,1.76,3.5,4.03-10.85.71-22.25,12.63-24.84,16.21-3.31,4.57-12.44,12.8-13.53,16.19-1.1,3.39-19.44,14.42-27.16,23.89-5.31,6.51-10.22,12.77-12.92,19.18-.95,2.26-9.15,13.32-19.37,26.72-8.65-2.8-18.02-5.07-21.16-4.32-5.77,1.37-29.94,44.26-35.63,68.98-5.68,24.72.65,43.32-5.87,57.18-5.76,12.26-56.34,83.76-68.03,100.23Z" fill="#dbdbdb" mix-blend-mode="multiply"/><path d="M6.85,652.13l87.63,68.15c11.84-19.6,24.14-37.96,29.93-40.24,12.95-5.11,16.45-14.85,17.74-19.81,1.3-4.95,10.59-18.86,19.85-25.21,36.38-25.91,71.11-64.75,73.09-68.09,1.98-3.34,13.79-19.87,11.9-27.57-1.22-4.97-3.39-10.7-8.02-14.2-2.54-1.92-7.12-2.22-11-3.6,2.12-5.24,5.72-11.18,5.24-15.32-.93-7.95-6.54-15.97-12.02-19.51-4.69-3.04-12.1-.97-15.6-.47,2.55-5.06,5.72-14.06,5.14-18.84-.65-5.44-11.21-15.37-15.72-19.52-9.28-8.54-26.78,12.09-26.78,12.09,0,0-15.92-3.76-20.21-7.1-4.3-3.34-29.28-10.3-35.11-8.34-5.83,1.97-35.15,49.63-43.97,76.38-8.82,26.75-5.05,45.93-13.26,61.23-4.41,8.23-27.99,41.24-48.83,69.99Z" fill="#efb284"/><path d="M16.39,659.56l71.3,55.44c10.65-15.86,21.27-29.97,26.6-32.07,12.95-5.1,26.57-17.74,27.87-22.7,1.3-4.95-2.07-23,8.7-25.29,33.37-7.11,82.26-64.68,84.24-68.02,1.98-3.34,13.79-19.87,11.9-27.57-1.22-4.97-3.39-10.7-8.02-14.2-2.54-1.92-7.12-2.22-11-3.6,2.12-5.24,5.72-11.18,5.24-15.32-.93-7.95-6.54-15.97-12.02-19.51-4.69-3.04-12.1-.97-15.6-.47,2.55-5.06,5.72-14.06,5.14-18.84-.65-5.44-11.21-15.37-15.72-19.52-9.28-8.54-26.78,12.09-26.78,12.09,0,0-22.35,7.41-26.65,4.07-4.3-3.34-22.36-6.82-28.2-4.85-5.83,1.97-30.56,30.16-39.38,56.91-8.82,26.74-7.75,63.89-15.96,79.19-4.24,7.9-23.77,37.5-41.66,64.27Z" fill="#f7c192"/><path d="M211.95,534.22c-1.8-3.7.03-13.39-5.44-22.12-5.47-8.73-15.7-8.16-19.35-11.26-5.77-4.89.08-10.65-9.97-22.12-10.04-11.47-23.52-3.7-25.19-16.99-2.94-1.26-1.92-5.83-3.4-8.46,4.97,3.24,19.64,6.7,19.64,6.7,0,0,17.5-20.63,26.78-12.09,4.51,4.15,15.06,14.08,15.72,19.52.57,4.78-2.6,13.78-5.14,18.84,3.5-.5,10.91-2.57,15.6.47,5.48,3.54,11.09,11.56,12.02,19.51.48,4.14-3.12,10.08-5.24,15.32,3.88,1.38,8.46,1.68,11,3.6,4.63,3.5,6.8,9.23,8.02,14.2,1.89,7.7-9.93,24.23-11.9,27.57-.32.53-1.48,1.99-3.36,4.15,1.65-4.39,4.4-10.41-1.1-21.53-5.26-10.18-16.83-11.52-18.68-15.33Z" fill="#efb284"/><path d="M170.75,395.67c8.81-10.74,24.59-32.29,26.11-35.99,1.52-3.7,11.55-13.24,15.39-18.39,3.83-5.13,15.97-23.3,27.12-15.21.02.01.05.02.06.04,0,0,.02.01.02.02,0,0,.02.01.03.02.02.01.03.04.05.05,10.65,8.86-1.49,27.04-4.78,32.58-3.3,5.56-8.53,18.84-11.29,21.57-2.77,2.73-21.49,29.36-25.31,38.31-3.82,8.95-8.07,14.32-13.16,20.12-5.09,5.8-27.15,40.67-27.15,40.67l-34.99,27.46-40.91,5.04s70.16-87.74,73.65-94.78c3.49-7.05,9.12-14.13,15.18-21.51Z" fill="#efb284"/><path d="M175.87,399.65c6.66-6.74,21.57-33.9,23.09-37.59,1.52-3.69,11.46-12.5,15.3-17.64,3.83-5.13,13.95-26.42,25.11-18.33.02.01.05.02.06.04,0,0,.02.01.02.02,0,0,.02.01.03.02.02.01.03.04.05.05,10.65,8.86-1.49,27.04-4.78,32.58-3.3,5.56-8.53,18.84-11.29,21.57-2.77,2.73-21.49,29.36-25.31,38.31-3.82,8.95-8.07,14.32-13.16,20.12-5.09,5.8-27.15,40.67-27.15,40.67l-34.99,27.46-44.22,8.16s61.48-62.6,81.62-94.27c4.19-6.58,8.97-14.41,15.63-21.15Z" fill="#f7c192"/><path d="M231.57,352.72s-5.82-7.38-12.4-9.64c-2.29-1.65,5.29-10.93,7.2-13.23,1.92-2.3,3.73-4.83,6-4.28,1.72.41,9.11,3.84,10.69,9.94.64,2.38-3.12,8.34-5.57,12-2.44,3.66-4.5,6.86-5.93,5.21Z" fill="#ffdcc5"/><rect x="415.26" y="116.6" width="123.48" height="11.1" fill="red"/><rect x="415.26" y="161.01" width="123.48" height="11.1" fill="blue"/><ellipse cx="585.04" cy="144.36" rx="61.74" ry="66.63" fill="#f7931e"/><path d="M612.78,135.74l-43.88,57.79c-1.36,1.8-4.03.29-3.44-1.94l10.71-40.79h-17.33c-1.26,0-2.2-1.25-1.94-2.58l10.63-54.26h43.33c.1.48.04,1-.21,1.48l-18.99,36.8h19.6c1.67,0,2.59,2.1,1.53,3.5Z" fill="#fff" fill-rule="evenodd"/></g></g></svg>