<?xml version="1.0" encoding="UTF-8"?><svg id="a" xmlns="http://www.w3.org/2000/svg" xmlns:xlink="http://www.w3.org/1999/xlink" viewBox="0 0 680.17 520.25"><defs><linearGradient id="b" x1="308.36" y1="-44.85" x2="352.76" y2="-513.91" gradientUnits="userSpaceOnUse"><stop offset="0" stop-color="#fe7062"/><stop offset="1" stop-color="#ff928e"/></linearGradient><linearGradient id="c" x1="374.83" y1="269.69" x2="-550.2" y2="257.04" xlink:href="#b"/><linearGradient id="d" x1="203.77" y1="-157.6" x2="145.91" y2="49.41" gradientUnits="userSpaceOnUse"><stop offset="0" stop-color="#e1473d"/><stop offset="1" stop-color="#e9605a"/></linearGradient><linearGradient id="e" x1="222.36" y1="274.64" x2="140.91" y2="1117.99" xlink:href="#d"/><linearGradient id="f" x1="222.18" y1="274.52" x2="140.88" y2="1116.23" xlink:href="#d"/><linearGradient id="g" x1="222.19" y1="275.78" x2="138.81" y2="1139.17" xlink:href="#d"/><linearGradient id="h" x1="220.63" y1="276.38" x2="136.81" y2="1144.28" xlink:href="#d"/><linearGradient id="i" x1="223.82" y1="275.68" x2="140" y2="1143.58" xlink:href="#d"/><linearGradient id="j" x1="257.5" y1="-57.82" x2="303.09" y2="-539.42" xlink:href="#b"/><linearGradient id="k" x1="76.15" y1="260.86" x2="-5.3" y2="1104.21" xlink:href="#d"/><linearGradient id="l" x1="75.94" y1="261.01" x2="-5.35" y2="1102.72" xlink:href="#d"/><linearGradient id="m" x1="76.3" y1="258.73" x2="-7.09" y2="1122.12" xlink:href="#d"/><linearGradient id="n" x1="74.81" y1="258.59" x2="-9.01" y2="1126.48" xlink:href="#d"/><linearGradient id="o" x1="78" y1="257.89" x2="-5.83" y2="1125.78" xlink:href="#d"/><linearGradient id="p" x1="111.33" y1="-74.81" x2="156.92" y2="-556.4" xlink:href="#b"/><linearGradient id="q" x1="86.66" y1="261.62" x2="5.21" y2="1104.97" xlink:href="#d"/><linearGradient id="r" x1="86.43" y1="262.02" x2="5.14" y2="1103.72" xlink:href="#d"/><linearGradient id="s" x1="87.09" y1="256.59" x2="3.7" y2="1119.98" xlink:href="#d"/><linearGradient id="t" x1="85.67" y1="255.8" x2="1.84" y2="1123.69" xlink:href="#d"/><linearGradient id="u" x1="88.85" y1="255.09" x2="5.03" y2="1122.99" xlink:href="#d"/><linearGradient id="v" x1="121.9" y1="-77.14" x2="167.49" y2="-558.73" xlink:href="#b"/><linearGradient id="w" x1="250.49" y1="276.81" x2="169.03" y2="1120.17" xlink:href="#d"/><linearGradient id="x" x1="250.26" y1="277.18" x2="168.96" y2="1118.88" xlink:href="#d"/><linearGradient id="y" x1="250.88" y1="272.14" x2="167.49" y2="1135.53" xlink:href="#d"/><linearGradient id="z" x1="249.45" y1="271.43" x2="165.63" y2="1139.32" xlink:href="#d"/><linearGradient id="aa" x1="252.64" y1="270.73" x2="168.81" y2="1138.62" xlink:href="#d"/><linearGradient id="ab" x1="285.75" y1="-61.87" x2="331.34" y2="-543.46" xlink:href="#b"/><linearGradient id="ac" x1="156.19" y1="268.28" x2="74.73" y2="1111.64" xlink:href="#d"/><linearGradient id="ad" x1="155.98" y1="268.42" x2="74.69" y2="1110.13" xlink:href="#d"/><linearGradient id="ae" x1="156.32" y1="266.33" x2="72.93" y2="1129.72" xlink:href="#d"/><linearGradient id="af" x1="154.83" y1="266.23" x2="71" y2="1134.12" xlink:href="#d"/><linearGradient id="ag" x1="158.02" y1="265.53" x2="74.19" y2="1133.42" xlink:href="#d"/><linearGradient id="ah" x1="191.38" y1="-67.34" x2="236.97" y2="-548.94" xlink:href="#b"/><linearGradient id="ai" x1="234.28" y1="275.53" x2="152.82" y2="1118.88" xlink:href="#d"/><linearGradient id="aj" x1="234.07" y1="275.65" x2="152.78" y2="1117.36" xlink:href="#d"/><linearGradient id="ak" x1="234.39" y1="273.74" x2="151" y2="1137.13" xlink:href="#d"/><linearGradient id="al" x1="232.9" y1="273.68" x2="149.07" y2="1141.57" xlink:href="#d"/><linearGradient id="am" x1="236.08" y1="272.98" x2="152.26" y2="1140.87" xlink:href="#d"/><linearGradient id="an" x1="269.48" y1="-60.06" x2="315.07" y2="-541.66" xlink:href="#b"/><linearGradient id="ao" x1="54.23" y1="259.12" x2="-27.14" y2="1101.62" xlink:href="#d"/><linearGradient id="ap" x1="53.7" y1="258.9" x2="-27.6" y2="1100.59" xlink:href="#d"/><linearGradient id="aq" x1="53.71" y1="262.67" x2="-29.68" y2="1126.06" xlink:href="#d"/><linearGradient id="ar" x1="51.86" y1="263.84" x2="-31.96" y2="1131.73" xlink:href="#d"/><linearGradient id="as" x1="55.48" y1="263.04" x2="-28.35" y2="1130.94" xlink:href="#d"/><linearGradient id="at" x1="89.57" y1="-70.55" x2="135.17" y2="-552.15" xlink:href="#b"/><linearGradient id="au" x1="132.88" y1="266.41" x2="51.51" y2="1108.91" xlink:href="#d"/><linearGradient id="av" x1="132.35" y1="266.18" x2="51.06" y2="1107.87" xlink:href="#d"/><linearGradient id="aw" x1="132.34" y1="270.15" x2="48.96" y2="1133.54" xlink:href="#d"/><linearGradient id="ax" x1="130.49" y1="271.35" x2="46.67" y2="1139.25" xlink:href="#d"/><linearGradient id="ay" x1="134.11" y1="270.56" x2="50.28" y2="1138.45" xlink:href="#d"/><linearGradient id="az" x1="168.24" y1="-63.22" x2="213.83" y2="-544.81" xlink:href="#b"/><linearGradient id="ba" x1="211.58" y1="273.7" x2="130.21" y2="1116.2" xlink:href="#d"/><linearGradient id="bb" x1="211.05" y1="273.46" x2="129.75" y2="1115.16" xlink:href="#d"/><linearGradient id="bc" x1="211.02" y1="277.62" x2="127.63" y2="1141.01" xlink:href="#d"/><linearGradient id="bd" x1="209.17" y1="278.86" x2="125.34" y2="1146.76" xlink:href="#d"/><linearGradient id="be" x1="212.78" y1="278.07" x2="128.96" y2="1145.96" xlink:href="#d"/><linearGradient id="bf" x1="246.94" y1="-55.88" x2="292.53" y2="-537.48" xlink:href="#b"/><linearGradient id="bg" x1="217.17" y1="376.77" x2="126.32" y2="503.7" xlink:href="#d"/><linearGradient id="bh" x1="205.16" y1="396.14" x2="-7.22" y2="684.37" xlink:href="#b"/><linearGradient id="bi" x1="285.2" y1="-46.93" x2="329.59" y2="-515.86" xlink:href="#d"/><linearGradient id="bj" x1="142.24" y1="67.6" x2="-31.91" y2="593.85" xlink:href="#d"/><linearGradient id="bk" x1="231.04" y1="290.25" x2="59.65" y2="808.19" xlink:href="#d"/><linearGradient id="bl" x1="144.27" y1="267.39" x2="62.82" y2="1110.75" xlink:href="#d"/><linearGradient id="bm" x1="144.09" y1="267.29" x2="62.79" y2="1109" xlink:href="#d"/><linearGradient id="bn" x1="144.12" y1="268.37" x2="60.73" y2="1131.76" xlink:href="#d"/><linearGradient id="bo" x1="142.56" y1="268.93" x2="58.74" y2="1136.83" xlink:href="#d"/><linearGradient id="bp" x1="145.75" y1="268.23" x2="61.93" y2="1136.12" xlink:href="#d"/><linearGradient id="bq" x1="179.4" y1="-65.1" x2="225" y2="-546.7" xlink:href="#b"/><linearGradient id="br" x1="188.95" y1="-161.97" x2="130.83" y2="45.98" xlink:href="#d"/><linearGradient id="bs" x1="64.23" y1="259.97" x2="-17.22" y2="1103.32" xlink:href="#d"/><linearGradient id="bt" x1="64.05" y1="259.88" x2="-17.25" y2="1101.59" xlink:href="#d"/><linearGradient id="bu" x1="64.1" y1="260.77" x2="-19.29" y2="1124.16" xlink:href="#d"/><linearGradient id="bv" x1="62.55" y1="261.29" x2="-21.28" y2="1129.19" xlink:href="#d"/><linearGradient id="bw" x1="65.73" y1="260.59" x2="-18.09" y2="1128.48" xlink:href="#d"/><linearGradient id="bx" x1="99.36" y1="-72.57" x2="144.95" y2="-554.16" xlink:href="#b"/></defs><rect x="251.44" y="0" width="56.1" height="520.25" fill="url(#b)"/><rect x="20.94" y="13.02" width="260.13" height="507.23" fill="url(#c)"/><rect x="20.94" y="13.02" width="260.13" height="36.38" fill="url(#d)"/><rect x="208.68" y="193.5" width="36.67" height="65.88" fill="url(#e)"/><rect x="210.86" y="196.65" width="32.31" height="60.15" fill="#7d97f4"/><rect x="225.65" y="194.78" width="2.31" height="63.73" fill="url(#f)"/><rect x="210.33" y="225.06" width="33.33" height="2.03" fill="url(#g)"/><rect x="210.33" y="209.94" width="33.33" height="1.15" fill="url(#h)"/><rect x="210.33" y="242.24" width="33.33" height="1.15" fill="url(#i)"/><rect x="209.38" y="259.59" width="35.97" height="1.9" fill="url(#j)"/><rect x="49.15" y="317.65" width="36.67" height="65.88" fill="url(#k)"/><rect x="51.33" y="320.8" width="32.31" height="60.15" fill="#7d97f4"/><rect x="66.12" y="318.93" width="2.31" height="63.73" fill="url(#l)"/><rect x="50.8" y="349.21" width="33.33" height="2.03" fill="url(#m)"/><rect x="50.8" y="334.09" width="33.33" height="1.15" fill="url(#n)"/><rect x="50.8" y="366.39" width="33.33" height="1.15" fill="url(#o)"/><rect x="49.85" y="383.74" width="35.97" height="1.9" fill="url(#p)"/><rect x="47.86" y="440.56" width="36.67" height="65.88" fill="url(#q)"/><rect x="50.04" y="443.71" width="32.31" height="60.15" fill="#7d97f4"/><rect x="64.83" y="441.84" width="2.31" height="63.73" fill="url(#r)"/><rect x="49.51" y="472.12" width="33.33" height="2.03" fill="url(#s)"/><rect x="49.51" y="457" width="33.33" height="1.15" fill="url(#t)"/><rect x="49.51" y="489.3" width="33.33" height="1.15" fill="url(#u)"/><rect x="48.56" y="506.65" width="35.97" height="1.9" fill="url(#v)"/><rect x="213.14" y="440.77" width="36.67" height="65.88" fill="url(#w)"/><rect x="215.32" y="443.91" width="32.31" height="60.15" fill="#7d97f4"/><rect x="230.1" y="442.04" width="2.31" height="63.73" fill="url(#x)"/><rect x="214.79" y="472.33" width="33.33" height="2.03" fill="url(#y)"/><rect x="214.79" y="457.21" width="33.33" height="1.15" fill="url(#z)"/><rect x="214.79" y="489.51" width="33.33" height="1.15" fill="url(#aa)"/><rect x="213.84" y="506.86" width="35.97" height="1.9" fill="url(#ab)"/><rect x="129.91" y="317.65" width="36.67" height="65.88" fill="url(#ac)"/><rect x="132.08" y="320.8" width="32.31" height="60.15" fill="#7d97f4"/><rect x="146.87" y="318.93" width="2.31" height="63.73" fill="url(#ad)"/><rect x="131.55" y="349.21" width="33.33" height="2.03" fill="url(#ae)"/><rect x="131.55" y="334.09" width="33.33" height="1.15" fill="url(#af)"/><rect x="131.55" y="366.39" width="33.33" height="1.15" fill="url(#ag)"/><rect x="130.61" y="383.74" width="35.97" height="1.9" fill="url(#ah)"/><rect x="208.68" y="317.77" width="36.67" height="65.88" fill="url(#ai)"/><rect x="210.86" y="320.92" width="32.31" height="60.15" fill="#7d97f4"/><rect x="225.65" y="319.05" width="2.31" height="63.73" fill="url(#aj)"/><rect x="210.33" y="349.33" width="33.33" height="2.03" fill="url(#ak)"/><rect x="210.33" y="334.22" width="33.33" height="1.15" fill="url(#al)"/><rect x="210.33" y="366.51" width="33.33" height="1.15" fill="url(#am)"/><rect x="209.38" y="383.86" width="35.97" height="1.9" fill="url(#an)"/><path d="M87.88,151h-39.56v-71.08c13.36-11.78,27.54-11.76,39.56,0v71.08Z" fill="url(#ao)"/><path d="M85.53,148.21h-34.86v-64.89c10.87-11.15,24.26-10.77,34.86,0v64.89Z" fill="#7d97f4"/><rect x="66.63" y="74.14" width="2.49" height="75.92" fill="url(#ap)"/><rect x="50.1" y="112.78" width="35.96" height="2.19" fill="url(#aq)"/><rect x="50.1" y="95.27" width="35.96" height="1.24" fill="url(#ar)"/><rect x="50.1" y="131.91" width="35.96" height="1.24" fill="url(#as)"/><rect x="49.08" y="151.22" width="38.8" height="2.05" fill="url(#at)"/><path d="M167.26,150.78h-39.56v-71.08c13.36-11.78,27.54-11.76,39.56,0v71.08Z" fill="url(#au)"/><path d="M164.91,147.98h-34.86v-64.89c10.87-11.15,24.26-10.77,34.86,0v64.89Z" fill="#7d97f4"/><rect x="146.01" y="73.91" width="2.49" height="75.92" fill="url(#av)"/><rect x="129.48" y="112.55" width="35.96" height="2.19" fill="url(#aw)"/><rect x="129.48" y="95.05" width="35.96" height="1.24" fill="url(#ax)"/><rect x="129.48" y="131.68" width="35.96" height="1.24" fill="url(#ay)"/><rect x="128.46" y="151" width="38.8" height="2.05" fill="url(#az)"/><path d="M246.64,150.95h-39.56v-71.08c13.36-11.78,27.54-11.76,39.56,0v71.08Z" fill="url(#ba)"/><path d="M244.3,148.16h-34.86v-64.89c10.87-11.15,24.26-10.77,34.86,0v64.89Z" fill="#7d97f4"/><rect x="225.39" y="74.09" width="2.49" height="75.92" fill="url(#bb)"/><rect x="208.86" y="112.72" width="35.96" height="2.19" fill="url(#bc)"/><rect x="208.86" y="95.22" width="35.96" height="1.24" fill="url(#bd)"/><rect x="208.86" y="131.85" width="35.96" height="1.24" fill="url(#be)"/><rect x="207.84" y="151.17" width="38.8" height="2.05" fill="url(#bf)"/><rect x="123.12" y="434.28" width="44.25" height="85.97" fill="url(#bg)"/><rect x="125.1" y="437.42" width="39.38" height="81.31" fill="url(#bh)"/><polygon points="281.07 20.81 273.25 0 282.82 0 283.61 20.03 283.61 49.12 281.07 49.4 281.07 20.81" fill="url(#bi)"/><path d="M20.94,187.93l38.66-7.53,40.59-32.19,35.85,13.63,53.95,7.69-54.48-4.69-35.32-10.37s7.16,37.12,5.28,36.3c-1.89-.83-9.22-35.34-9.22-35.34l-32.23,27.23,14.84,14.11-10.42,34.65,5.83-34.65-14.67-11.93-38.66,3.1Z" fill="url(#bj)"/><path d="M195.19,349.21l9.01,41.49,37.85,7.41,21.86-12.54-22.71,14.74-41.63-6.66-28.46,17.56,23.34,46.52s-4.38,36.59-4.19,35.16c.19-1.44-1.44-35.57-1.44-35.57l-18.73,3.29,16.44-8.6s-20.17-41.54-21.32-42.9c-1.15-1.36-41.21,9.36-40.08,6.63,1.14-2.74,38.68-12.34,38.68-12.34l35.28-14.52-3.9-39.66Z" fill="url(#bk)"/><rect x="129.91" y="193.38" width="36.67" height="65.88" fill="url(#bl)"/><rect x="132.08" y="196.52" width="32.31" height="60.15" fill="#7d97f4"/><rect x="146.87" y="194.65" width="2.31" height="63.73" fill="url(#bm)"/><rect x="131.55" y="224.94" width="33.33" height="2.03" fill="url(#bn)"/><rect x="131.55" y="209.82" width="33.33" height="1.15" fill="url(#bo)"/><rect x="131.55" y="242.12" width="33.33" height="1.15" fill="url(#bp)"/><rect x="130.61" y="259.47" width="35.97" height="1.9" fill="url(#bq)"/><path d="M273.25,0l-84.19.53-31.04,6.7-15.24-1.15-23.02,4.33-16.44-4.33-24.21,4.33-24.81-1.18s-4.01-3.17-9.86-7.8L0,1.71l20.99,19.1h260.08l-7.82-20.81Z" fill="url(#br)"/><rect x="49.15" y="193.38" width="36.67" height="65.88" fill="url(#bs)"/><rect x="51.33" y="196.52" width="32.31" height="60.15" fill="#7d97f4"/><rect x="66.12" y="194.65" width="2.31" height="63.73" fill="url(#bt)"/><rect x="50.8" y="224.94" width="33.33" height="2.03" fill="url(#bu)"/><rect x="50.8" y="209.82" width="33.33" height="1.15" fill="url(#bv)"/><rect x="50.8" y="242.12" width="33.33" height="1.15" fill="url(#bw)"/><rect x="49.85" y="259.47" width="35.97" height="1.9" fill="url(#bx)"/><path d="M380.89,476.92l-6.19-1.92s-1.28-16.11,1.47-35.42c1.74-12.23,4.94-25.49,10.74-36.13,2.62-4.82,5.78-9.1,9.57-12.51,0,0,4.75-10.58,11.04-24.71,7-15.72,50.78-20.33,25.8,12.6-5.13,6.76-10.63,18.65-17.23,25.87-11.27,12.35-19.23,26.76-24.69,39.45-7.81,18.15-10.5,32.77-10.5,32.77Z" fill="#ffb27d"/><path d="M366.79,477.82c-1.88,2.92,2.18,5.77,7.19,8.47,5.01,2.69,2.94,2.96,9.35,7.54,6.41,4.58,10.19,4.07,11.17,3.4.87-.59-1.75-3.42-4.5-6.51-.35-.39-.69-.78-1.04-1.18-3.07-3.53-3.53-7.95-4.97-12.54-1.37-4.35.8-15.16.8-15.16l-8.56-6.52s-1.74,9.83-2.7,13.92c-.56,2.41-2.62,4.42-4.28,5.91-.9.81-1.82,1.64-2.48,2.67Z" fill="#ffb27d"/><path d="M373.98,486.29c5.01,2.69,2.94,2.96,9.35,7.54,6.41,4.58,10.19,4.07,11.17,3.4.87-.59-1.75-3.42-4.5-6.51l-.08.03s-5.79-.75-10.73-4.96c-4.03-3.43-7.15-8.25-9.92-10.64-.9.81-1.82,1.64-2.48,2.67-1.88,2.92,2.18,5.77,7.19,8.47Z" fill="#1c468a"/><path d="M423.75,167.9s-15.1-1.76-22.69,11.71c-7.59,13.47-6.98,33-14.34,42.2-7.36,9.21,1.23,17.94,1.23,17.94l57.35,1.86s3.99-10.29,0-22.64c-3.99-12.35,15.49-49.2-21.55-51.07Z" fill="#b64c41"/><path d="M472.31,331.43c-.59,2.15-2.51,7-4,7-1.22,0-1.65-5.94-3.22-7.21-2.27-1.83-4.12-5.67-4.42-6.6-.61-1.92-1.18-2.32-1.18-2.32h0s0,0,0,0c0,0-18.13-31.79-19.55-39.93-.47-2.65-1.65-7.96-3.05-13.92-1.52-6.47-3.27-13.7-4.6-19.12,5.79-1.08,12.19-1.46,17.42-1.56,1.06,6.59,2.01,13.32,2.83,19.17,1.22,8.7,2.14,15.45,2.72,16.9,1.58,3.97,5.92,25.37,10.02,36.47.47,1.09,1.8,3.94,3.26,4.91,1.82,1.21,4.36,4.05,3.78,6.2Z" fill="#e8945b"/><path d="M439.44,300.06c-10.02-30.7,10.15-30.3,9.1-45.66-1.04-15.36-13.45-31.88-13.45-31.88,0,0-.44-.04-1.22-.11-.42-.04-.79-.3-.94-.69-.46-1.21-.6-3.87-.59-6.64.01-4.23.35-8.72.35-8.72l-14.88-2.82-.88-.17c.03,7.18-1.39,12.57-2.92,15.58-.73,1.43-2.15,2.41-3.8,2.64-3.2.43-8.82,1.35-12.61,2.87-1.84.74-3.25,1.62-3.74,2.65-4.09,8.61-8.16,30.35-11.03,45.86-1.6,8.64-2.82,15.35-3.45,16.77-1.77,3.97-7.19,25.79-11.82,36.56l5.91,1.7s19.51-31.03,21.28-39.11c.58-2.63,2-7.89,3.65-13.78.25-.89.51-1.8.76-2.71,2.92,7.6,4.42,11.12,4.33,14.4-.11,4.67-3.42,8.87-10.33,23.73-3.82,8.21,56.49,20.91,46.27-10.45Z" fill="#ffb27d"/><path d="M432.7,206.35s-.34,4.49-.35,8.72c-8.33-.23-12.73-7.51-14.53-11.54l14.88,2.82Z" fill="#e8945b"/><path d="M435.47,210.35s-19.7.31-19.71-11.45c-.01-11.76-2.56-19.65,10.01-20.34,12.58-.7,15.02,3.79,16.03,7.72,1,3.93-1.2,23.7-6.33,24.08Z" fill="#ffb27d"/><path d="M462.96,484.54l-6.32,1.49s-9.94-13.05-18.2-30.86c-5.24-11.28-9.79-24.16-10.71-36.13-.42-5.42-.09-10.65,1.26-15.47,0,0-1.77-11.39-4.18-26.59-2.68-16.9-6.16-38.5-8.89-54.38l1.65-.47,26.89-15.08s12.36,27.01,9.2,67.62c-.65,8.33,1.21,21.22-.44,30.69-2.8,16.19-1.65,32.46.68,46.01,3.33,19.37,9.07,33.16,9.07,33.16Z" fill="#ffb27d"/><path d="M398,269.32c3.69,9.78,5.59,13.76,5.5,17.46,11.77-17.47,33.02-20.11,33.02-20.11l-40.36-4.42c.37,2.39.97,4.76,1.84,7.07Z" fill="#cb7d45"/><path d="M441.21,179.73c-3.04-3.53-5.34-2.76-6.63-1.7-10.56-5.62-17.71,2.72-17.71,2.72-1.32,8.44-7.67,13.28-7.67,13.28,0,0,3.51,1.79,11.87.09,9.92-2.02,12.65-12.74,13.05-14.13,1.2,1.04,3.57,3.28,4.3,5.49.98,3,1.42,9.16,3.3,8.95,0,0,4.06-9.38-.5-14.69Z" fill="#b64c41"/><path d="M367.97,325.34s-1.8,4.06-3.67,5.2c-1.87,1.13-4.53,3.87-4.04,6.05.49,2.17.99,5.57,3.35,5.57s7.88-10.01,8.57-11.9c.69-1.89,1.28-2.27,1.28-2.27l-5.49-2.64Z" fill="#ffb27d"/><path d="M460.79,414.62c-23.79,13.03-86.4-7.72-86.34-8.92.33-6.38,6.35-44.77,13.42-81.41,4.34-22.53,15.91-30.95,14.06-32.37-.02-.02-.03-.03-.03-.03-7.13-4.85-4.05-13.18-3.58-16.16-2.19.57-9.26,1.84-17.34-2.43,3.33-15.62,8.08-37.51,12.84-46.18.23-.42.63-.81,1.17-1.18-.04-.04-.05-.05-.05-.05,4.45-3.11,13.55-4.07,13.55-4.07,0,0,4.9,11.51,6.4,13.31,9.71,11.63,27.14,6.38,24.77-.87-.86-2.64-5.26-10.94-5.8-11.87-.03-.04,1.23.11,1.23.11,2.93.37,5,.65,6.49.9,2.93.48,3.65.81,4.38,1.35,2.57,2.46,5.91,8.58,6.17,19.49.1,4.06,4.51,48.87-9.75,48.09-.32-.02-.05.71.57,2.1,2.01,4.44,7.73,15.57,9.39,29.85,5.39,46.47,8.45,90.33,8.45,90.33Z" fill="#fff"/><path d="M372.19,330.25s-.65,4.57-1.9,5.63c-1.26,1.05-1.44,2.95-2.73,1.93-1.29-1.02,4.63-7.56,4.63-7.56Z" fill="#ffb27d"/><path d="M451.47,492.42c0,3.43,5.02,3.81,10.76,3.57,5.74-.24,4.12,1.04,12.09,1.69,7.96.65,10.9-1.68,11.37-2.75.42-.95-3.36-2.03-7.4-3.27-.51-.15-1.02-.32-1.53-.48-4.55-1.45-7.36-4.98-11.11-8.16-3.55-3.01-7.64-13.29-7.64-13.29l-10.85-1.22s3.92,9.23,5.35,13.2c.84,2.33.21,5.08-.39,7.18-.32,1.14-.65,2.31-.64,3.52Z" fill="#ffb27d"/><path d="M462.23,495.99c5.74-.24,4.12,1.04,12.09,1.69,7.96.65,10.9-1.68,11.37-2.75.42-.95-3.36-2.03-7.4-3.27l-.05.07s-5.33,2.29-11.85,1.2c-5.31-.88-10.61-3.4-14.27-4.04-.32,1.14-.65,2.31-.64,3.52,0,3.43,5.02,3.81,10.76,3.57Z" fill="#1c468a"/><path d="M460.79,414.62c-23.79,13.03-86.4-7.72-86.34-8.92.33-6.38,6.35-44.77,13.42-81.41,4.34-22.53,15.91-30.95,14.06-32.37.44.34,7.15,5.53,19.45,4.83,11.01-.63,19.5-1.96,21.58-2.31,2.01,4.44,7.73,15.57,9.39,29.85,5.39,46.47,8.45,90.33,8.45,90.33Z" fill="#f99746"/><path d="M401.9,291.89s19.48,7.79,40.49.44l1.07,3.16s-21.61,7.2-42.39-.99l.84-2.61Z" fill="#ed7d2b"/><polygon points="614.73 390.23 614.73 367.75 508.87 367.75 508.87 342.77 614.73 342.77 614.73 317.78 680.17 354.01 614.73 390.23" fill="#bc4a4a"/></svg>